<?xml version="1.0" encoding="iso-8859-1"?>
<!-- Generator: Adobe Illustrator 18.0.0, SVG Export Plug-In . SVG Version: 6.00 Build 0)  -->
<!DOCTYPE svg PUBLIC "-//W3C//DTD SVG 1.1//EN" "http://www.w3.org/Graphics/SVG/1.1/DTD/svg11.dtd">
<svg version="1.1" id="Capa_1" xmlns="http://www.w3.org/2000/svg" xmlns:xlink="http://www.w3.org/1999/xlink" x="0px" y="0px"
	 viewBox="0 0 297.501 297.501" style="enable-background:new 0 0 297.501 297.501;" xml:space="preserve">
<g>
	<g id="XMLID_23_">
		<g>
			<path style="fill:#F5B543;" d="M253.198,174.22l-12.29,58.86c-1.49,5.59-8.01,10.65-13.78,10.65H71.258
				c-5.77,0-12.29-5.061-13.78-10.65l-12.29-58.86H253.198z"/>
			<path style="fill:#456957;" d="M273.458,103.751c8.75,11.39,3.43,30.24-11.85,42.01c-6.381,4.92-13.62,8.12-20.94,8.931h-32.68
				l35.069-18.95c2.851-1.53,3.91-5.09,2.37-7.94c-1.529-2.84-5.09-3.899-7.939-2.37l-54.16,29.261h-24.97
				c-2.94-7.24,1.699-17.82,11.64-25.48c10.43-8.04,23.92-9.55,30.08-3.37c2.33,2.34,5.689,3.351,8.92,2.67
				c3.24-0.68,5.91-2.95,7.1-6.029c2.67-6.891,7.45-13.131,13.83-18.04c8.78-6.771,19.221-9.95,28.641-8.721
				C262.998,96.3,269.168,98.161,273.458,103.751z"/>
			<path style="fill:#456957;" d="M138.238,154.691h-23.15l-70.5-35.311c-2.89-1.45-6.41-0.28-7.86,2.61
				c-1.449,2.899-0.279,6.42,2.61,7.87l49.58,24.83h-42.58c-17.79-8.91-23.81-20.98-25.72-29.311
				c-1.931-8.399-0.42-17.149,3.939-22.83c4.29-5.59,10.46-7.45,14.891-8.03c9.42-1.229,19.859,1.95,28.64,8.721
				c6.38,4.92,11.16,11.149,13.82,18.029c1.189,3.091,3.859,5.36,7.1,6.04c3.24,0.681,6.59-0.319,8.93-2.659
				c6.95-6.971,24.441,0.72,31.61,4.33c1.45,0.779,6.26,4.43,10.77,8.039C138.148,142.93,137.428,148.961,138.238,154.691z"/>
			<path style="fill:#CA4241;" d="M202.008,104.651c-13.2-4.67-30.08-1.591-43.93,9.09c-2.7,2.069-5.12,4.3-7.3,6.63
				c-4.25-3.36-9.57-7.39-12.41-8.82c-19.11-9.63-32.521-10.6-41.84-7.96c1.62-27.74,24.64-49.82,52.72-49.82
				C177.678,53.77,200.928,76.411,202.008,104.651z M181.687,83.251c1.61-2.8,0.65-6.39-2.149-8c-2.81-1.62-6.39-0.66-8.01,2.15
				l-4.87,8.46c-1.62,2.81-0.66,6.39,2.149,8.01c0.92,0.53,1.931,0.78,2.92,0.78c2.02,0,4-1.051,5.08-2.94L181.687,83.251z
				 M155.108,80.651V70.88c0-3.24-2.631-5.86-5.86-5.86c-3.24,0-5.86,2.62-5.86,5.86v9.771c0,3.239,2.62,5.859,5.86,5.859
				C152.477,86.51,155.108,83.89,155.108,80.651z M129.687,93.871c2.811-1.62,3.771-5.2,2.15-8.01l-4.88-8.46
				c-1.61-2.811-5.2-3.771-8-2.15c-2.8,1.61-3.771,5.2-2.15,8l4.88,8.47c1.08,1.88,3.061,2.931,5.08,2.931
				C127.758,94.651,128.767,94.401,129.687,93.871z"/>
			<path d="M288.948,91.861c15.149,19.72,9.069,51.58-14.17,69.979c0,0-10.641,56.83-14.841,75.641
				c-3.21,14.439-18.019,25.779-32.809,25.779H71.258c-14.79,0-29.59-11.34-32.82-25.779c-4.189-18.811-14.869-75.641-14.869-75.641
				c-11.36-8.979-19.04-19.26-21.99-32.09c-3.25-14.14-0.45-28.75,7.479-39.09c6.53-8.51,16.42-14.01,27.86-15.5
				c14.34-1.88,29.84,2.59,42.61,12.25c8.449-30.62,36.5-53.17,69.72-53.17c33.47,0,61.7,22.899,69.92,53.87
				c12.64-9.311,27.84-13.591,41.93-11.75C272.538,77.85,282.418,83.361,288.948,91.861z M261.608,145.76
				c15.279-11.77,20.6-30.62,11.85-42.01c-4.29-5.59-10.46-7.45-14.89-8.03c-9.42-1.229-19.86,1.95-28.641,8.721
				c-6.38,4.909-11.16,11.149-13.83,18.04c-1.189,3.079-3.859,5.35-7.1,6.029c-3.23,0.681-6.59-0.33-8.92-2.67
				c-6.16-6.18-19.65-4.67-30.08,3.37c-9.941,7.66-14.58,18.24-11.64,25.48h24.97l54.16-29.261c2.85-1.529,6.41-0.47,7.939,2.37
				c1.54,2.851,0.48,6.41-2.37,7.94l-35.069,18.95h32.68C247.988,153.88,255.227,150.68,261.608,145.76z M240.908,233.081
				l12.29-58.86H45.187l12.29,58.86c1.49,5.59,8.011,10.65,13.78,10.65h155.87C232.898,243.731,239.418,238.67,240.908,233.081z
				 M158.078,113.741c13.85-10.681,30.729-13.76,43.93-9.09c-1.08-28.24-24.33-50.881-52.76-50.881c-28.08,0-51.1,22.08-52.72,49.82
				c9.319-2.64,22.729-1.67,41.84,7.96c2.84,1.431,8.16,5.46,12.41,8.82C152.958,118.041,155.378,115.81,158.078,113.741z
				 M115.088,154.691h23.15c-0.811-5.73-0.09-11.761,2.08-17.671c-4.511-3.609-9.32-7.26-10.77-8.039
				c-7.17-3.61-24.66-11.301-31.61-4.33c-2.34,2.34-5.689,3.34-8.93,2.659c-3.24-0.68-5.91-2.949-7.1-6.04
				c-2.66-6.88-7.44-13.109-13.82-18.029c-8.78-6.771-19.22-9.95-28.64-8.721c-4.431,0.58-10.601,2.44-14.891,8.03
				c-4.359,5.681-5.87,14.431-3.939,22.83c1.91,8.33,7.93,20.4,25.72,29.311h42.58l-49.58-24.83c-2.89-1.45-4.06-4.971-2.61-7.87
				c1.45-2.891,4.971-4.06,7.86-2.61L115.088,154.691z"/>
			<path d="M179.538,75.251c2.8,1.61,3.76,5.2,2.149,8l-4.88,8.46c-1.08,1.89-3.059,2.94-5.08,2.94c-0.989,0-2-0.25-2.92-0.78
				c-2.809-1.62-3.77-5.2-2.149-8.01l4.87-8.46C173.148,74.59,176.727,73.63,179.538,75.251z"/>
			<path d="M155.108,70.88v9.771c0,3.239-2.631,5.859-5.86,5.859c-3.24,0-5.86-2.62-5.86-5.859V70.88c0-3.24,2.62-5.86,5.86-5.86
				C152.477,65.02,155.108,67.64,155.108,70.88z"/>
			<path d="M131.838,85.861c1.62,2.81,0.66,6.39-2.15,8.01c-0.92,0.53-1.93,0.78-2.92,0.78c-2.02,0-4-1.051-5.08-2.931l-4.88-8.47
				c-1.62-2.8-0.649-6.39,2.15-8c2.8-1.62,6.39-0.66,8,2.15L131.838,85.861z"/>
		</g>
		<g>
		</g>
	</g>
</g>
<g>
</g>
<g>
</g>
<g>
</g>
<g>
</g>
<g>
</g>
<g>
</g>
<g>
</g>
<g>
</g>
<g>
</g>
<g>
</g>
<g>
</g>
<g>
</g>
<g>
</g>
<g>
</g>
<g>
</g>
</svg>
