<?xml version="1.0" encoding="iso-8859-1"?>
<!-- Generator: Adobe Illustrator 18.0.0, SVG Export Plug-In . SVG Version: 6.00 Build 0)  -->
<!DOCTYPE svg PUBLIC "-//W3C//DTD SVG 1.1//EN" "http://www.w3.org/Graphics/SVG/1.1/DTD/svg11.dtd">
<svg version="1.1" id="Capa_1" xmlns="http://www.w3.org/2000/svg" xmlns:xlink="http://www.w3.org/1999/xlink" x="0px" y="0px"
	 viewBox="0 0 344.501 344.501" style="enable-background:new 0 0 344.501 344.501;" xml:space="preserve">
<g>
	<g>
		<path style="fill:#84BD93;" d="M179.101,44.332c0.181,0.34,0.348,0.68,0.503,1.019C179.449,45.011,179.282,44.672,179.101,44.332z
			"/>
		<path style="fill:#84BD93;" d="M179.973,46.229c0.138,0.353,0.268,0.706,0.377,1.059
			C180.241,46.935,180.111,46.582,179.973,46.229z"/>
		<path style="fill:#84BD93;" d="M180.573,48.121c0.09,0.364,0.178,0.728,0.238,1.092C180.751,48.848,180.663,48.485,180.573,48.121
			z"/>
		<path style="fill:#84BD93;" d="M177.954,42.429c0.218,0.323,0.418,0.646,0.612,0.969
			C178.372,43.075,178.173,42.752,177.954,42.429z"/>
		<path style="fill:#84BD93;" d="M175.575,39.428c-0.246-0.272-0.48-0.545-0.743-0.817
			C175.094,38.883,175.329,39.155,175.575,39.428z"/>
		<path style="fill:#84BD93;" d="M180.833,49.402c-0.518-0.449-1.05-0.898-1.614-1.346c-12.775-10.148-37.99-19.742-51.883-19.742
			c-2.942,0-4.504,0.46-5.074,0.737c-0.478,1.878,0.583,8.381,6.532,19.087c5.379,7.251,11.334,13.73,16.77,18.049
			c5.398,4.289,10.484,6.464,15.112,6.464c6.778,0,11.982-4.759,15.155-8.753c3.59-4.518,5.329-8.907,5.17-13.042
			C180.982,50.373,180.906,49.887,180.833,49.402z"/>
		<path style="fill:#84BD93;" d="M128.323,47.502c-0.87-1.188-1.72-2.395-2.552-3.616C126.604,45.109,127.453,46.313,128.323,47.502
			z"/>
		<path style="fill:#84BD93;" d="M124.853,42.536c-1.084-1.636-2.14-3.288-3.131-4.953
			C122.713,39.249,123.769,40.899,124.853,42.536z"/>
		<path style="fill:#84BD93;" d="M172.852,36.697c0.244,0.22,0.459,0.441,0.692,0.661C173.311,37.137,173.096,36.916,172.852,36.697
			z"/>
		<path style="fill:#84BD93;" d="M176.532,40.522c0.248,0.302,0.471,0.604,0.698,0.906C177.003,41.126,176.78,40.824,176.532,40.522
			z"/>
	</g>
	<g>
		<path style="fill:#CE593F;" d="M200.936,106.615c1.579-0.197,3.164-0.37,4.756-0.495
			C204.1,106.245,202.515,106.418,200.936,106.615z"/>
		<path style="fill:#CE593F;" d="M287.391,156.122c-8.511-28.604-30.387-43.647-54.914-48.516
			c15.698,3.128,30.306,10.434,41.022,22.792c-18.998-14.322-44.937-17.888-68.426-13.612c-6.92,1.262-13.643,3.18-19.799,6.091
			c-1.065,0.503-3.07,1.506-6.14,0c-6.11-2.998-12.875-4.828-19.803-6.092c-36.732-6.685-79.51,5.754-92.266,48.629
			c-3.04,10.217-12.292,41.311,14.178,78.408c8.285,11.612,13.747,25.419,19.027,38.771c5.682,14.363,11.058,27.887,19.425,38.07
			c-10.057-6.986-16.552-17.6-22.116-29.838c11.811,26.021,27.805,44.729,73.375,36.756c0.866-0.151,1.719-0.14,2.538-0.003
			c0.018,0.003,0.035,0,0.055,0.003c55.337,9.68,67.061-19.957,80.637-54.279c5.28-13.352,10.743-27.159,19.027-38.771
			C299.683,197.433,290.431,166.34,287.391,156.122z M111.311,137.601c-26.587,8.527-25.645,36.866-25.592,38.069
			c0.184,4.137-3.012,7.66-7.148,7.861c-0.123,0.006-0.249,0.009-0.372,0.009c-3.974,0-7.29-3.099-7.501-7.109
			c-0.744-14.149,5.827-43.468,36.019-53.152c3.954-1.269,8.19,0.909,9.458,4.864C117.443,132.098,115.265,136.333,111.311,137.601z
			"/>
		<path style="fill:#CE593F;" d="M205.839,106.11c1.573-0.121,3.151-0.198,4.731-0.248
			C208.99,105.913,207.412,105.988,205.839,106.11z"/>
		<path style="fill:#CE593F;" d="M195.118,107.493c1.554-0.283,3.121-0.518,4.693-0.732
			C198.239,106.975,196.672,107.211,195.118,107.493z"/>
		<path style="fill:#CE593F;" d="M211.513,105.835c3.329-0.074,6.664,0.013,9.98,0.271
			C218.176,105.85,214.843,105.76,211.513,105.835z"/>
		<path style="fill:#CE593F;" d="M222.075,106.151c3.465,0.291,6.907,0.763,10.299,1.435
			C228.981,106.916,225.54,106.44,222.075,106.151z"/>
		<path style="fill:#CE593F;" d="M97.566,290.794c-0.481-1.059-0.955-2.131-1.423-3.213
			C96.611,288.664,97.085,289.734,97.566,290.794z"/>
		<path style="fill:#CE593F;" d="M95.993,287.236c-0.425-0.985-0.846-1.979-1.264-2.981
			C95.147,285.257,95.568,286.25,95.993,287.236z"/>
		<path style="fill:#CE593F;" d="M94.515,283.742c-0.4-0.962-0.797-1.932-1.192-2.908C93.718,281.81,94.116,282.78,94.515,283.742z"
			/>
		<path style="fill:#CE593F;" d="M93.087,280.255c-0.404-1-0.807-2.007-1.21-3.018C92.28,278.248,92.683,279.255,93.087,280.255z"/>
		<path style="fill:#CE593F;" d="M91.691,276.772c-0.458-1.151-0.916-2.308-1.376-3.471
			C90.775,274.464,91.234,275.621,91.691,276.772z"/>
	</g>
	<path style="fill:#3F2D20;" d="M106.716,123.278c-30.193,9.684-36.764,39.002-36.019,53.152c0.211,4.011,3.527,7.109,7.501,7.109
		c0.123,0,0.249-0.003,0.372-0.009c4.137-0.201,7.333-3.723,7.149-7.861c-0.053-1.203-0.995-29.542,25.592-38.069
		c3.954-1.268,6.132-5.503,4.863-9.459C114.906,124.187,110.67,122.009,106.716,123.278z"/>
	<path style="fill:#3F2D20;" d="M301.808,151.833c-6.788-22.816-21.415-40.425-42.296-50.926
		c-19.231-9.67-43.058-12.588-67.09-8.211c-3.709,0.677-7.354,1.556-10.923,2.616c2.989-14.846,12.572-43.624,43.006-62.744
		c3.517-2.209,4.577-6.852,2.368-10.368c-2.209-3.518-6.853-4.578-10.369-2.368c-9.308,5.848-16.921,12.446-23.161,19.312
		c-2.605-5.718-7.076-11.117-13.396-16.138C164.518,10.75,135.902,0,118.708,0c-7.85,0-13.535,2.146-16.898,6.381
		c-5.899,7.424-3.901,19.902,5.932,37.089c7.689,13.437,18.596,26.654,28.463,34.495c8.128,6.455,16.359,9.728,24.47,9.728
		c2.472,0,4.916-0.317,7.311-0.932c-0.916,3.619-1.543,6.836-1.966,9.501c-4.52-1.497-9.18-2.697-13.945-3.566
		c-24.029-4.376-47.855-1.458-67.087,8.212c-20.882,10.501-35.506,28.11-42.294,50.926c-3.559,11.96-14.387,48.355,16.35,91.434
		c7.219,10.116,12.108,22.479,17.286,35.567c12.268,31.018,25.966,65.672,74.776,65.668c6.41-0.001,13.443-0.608,21.144-1.891
		c7.703,1.284,14.73,1.891,21.144,1.891c48.802-0.001,62.507-34.651,74.776-65.668c5.178-13.088,10.067-25.451,17.286-35.567
		C316.195,200.188,305.366,163.793,301.808,151.833z M273.211,234.53c-8.285,11.612-13.747,25.419-19.027,38.771
		c-13.577,34.321-25.3,63.959-80.637,54.278c-0.019-0.003-0.037,0-0.055-0.003c-0.819-0.137-1.673-0.148-2.538,0.003
		c-55.326,9.68-67.062-19.957-80.638-54.278c-5.28-13.352-10.743-27.159-19.027-38.771c-26.469-37.097-17.217-68.19-14.178-78.408
		c12.756-42.875,55.534-55.315,92.266-48.629c6.927,1.264,13.693,3.095,19.803,6.092c3.07,1.506,5.076,0.503,6.14,0
		c6.156-2.911,12.879-4.829,19.799-6.091c36.739-6.687,79.515,5.753,92.273,48.628C290.431,166.339,299.683,197.433,273.211,234.53z
		 M121.722,37.583c-7.339-12.337-8.606-19.773-8.089-21.805c0.57-0.276,2.133-0.736,5.074-0.736
		c13.894,0,39.108,9.594,51.883,19.742c6.7,5.322,10.204,10.731,10.409,16.074c0.159,4.135-1.58,8.523-5.171,13.042
		c-3.173,3.993-8.377,8.753-15.155,8.753c-4.628,0-9.714-2.175-15.112-6.464C137.58,59.845,128.446,48.885,121.722,37.583z"/>
</g>
<g>
</g>
<g>
</g>
<g>
</g>
<g>
</g>
<g>
</g>
<g>
</g>
<g>
</g>
<g>
</g>
<g>
</g>
<g>
</g>
<g>
</g>
<g>
</g>
<g>
</g>
<g>
</g>
<g>
</g>
</svg>
