<?xml version="1.0" encoding="iso-8859-1"?>
<!-- Generator: Adobe Illustrator 18.0.0, SVG Export Plug-In . SVG Version: 6.00 Build 0)  -->
<!DOCTYPE svg PUBLIC "-//W3C//DTD SVG 1.1//EN" "http://www.w3.org/Graphics/SVG/1.1/DTD/svg11.dtd">
<svg version="1.1" id="Capa_1" xmlns="http://www.w3.org/2000/svg" xmlns:xlink="http://www.w3.org/1999/xlink" x="0px" y="0px"
	 viewBox="0 0 347.104 347.104" style="enable-background:new 0 0 347.104 347.104;" xml:space="preserve">
<g>
	<path style="fill:#84BD93;" d="M251.028,202.086l-11.835-52.876c-11.986,15.265-32.169,41.133-44.122,57.362
		c1.369,1.46,18.449,19.787,21.667,23.522c2.131-0.203,4.272-0.529,6.402-1.006C240.656,225.168,253.427,212.802,251.028,202.086z"
		/>
	<path style="fill:#84BD93;" d="M282.629,162.688l-7.053-49.785c-6.25,12.155-14.072,27.412-20.233,39.591l7.726,34.524
		c2.242-0.054,4.117-0.133,4.675-0.199c4.577-0.649,8.672-3.39,11.496-7.713C282.269,174.469,283.473,168.638,282.629,162.688z"/>
	<path style="fill:#84BD93;" d="M202.413,59.539c6.585,14.83,10.905,24.728,13.741,31.425c5.797-9.487,11.59-18.886,16.177-26.303
		l-12.139-25.713L202.413,59.539z"/>
	<g>
		<path style="fill:#84BD93;" d="M95.865,206.043c0.027,0.265,0.089,0.53,0.132,0.796C95.953,206.573,95.892,206.308,95.865,206.043
			z"/>
		<path style="fill:#84BD93;" d="M96.488,208.891c-0.09-0.283-0.191-0.566-0.263-0.849
			C96.297,208.326,96.398,208.608,96.488,208.891z"/>
		<path style="fill:#84BD93;" d="M95.811,204.053c-0.012,0.221,0.012,0.444,0.012,0.666
			C95.822,204.497,95.798,204.274,95.811,204.053z"/>
		<path style="fill:#84BD93;" d="M97.271,210.911c-0.135-0.292-0.276-0.583-0.393-0.877
			C96.994,210.328,97.136,210.619,97.271,210.911z"/>
		<path style="fill:#84BD93;" d="M113.56,163.9l-0.877,3.924c-0.004,0.019-0.008,0.036-0.012,0.055l-10.944,48.898
			c-0.031,0.137-0.05,0.274-0.073,0.412c5.064,5.339,13.003,9.817,22.312,11.901c2.213,0.496,4.438,0.83,6.651,1.03l18.493-20.156
			C137.348,194.594,118.176,169.779,113.56,163.9z"/>
		<path style="fill:#84BD93;" d="M101.207,216.717c-0.261-0.288-0.516-0.577-0.76-0.869
			C100.691,216.14,100.945,216.429,101.207,216.717z"/>
		<path style="fill:#84BD93;" d="M98.327,212.893c-0.179-0.294-0.359-0.588-0.52-0.884
			C97.969,212.305,98.149,212.598,98.327,212.893z"/>
		<path style="fill:#84BD93;" d="M99.644,214.832c-0.22-0.292-0.438-0.584-0.64-0.879C99.206,214.248,99.424,214.54,99.644,214.832z
			"/>
	</g>
	<g>
		<path style="fill:#84BD93;" d="M74.533,118.753c0.87,1.694,1.76,3.428,2.659,5.18C76.291,122.177,75.404,120.45,74.533,118.753z"
			/>
		<path style="fill:#84BD93;" d="M71.527,112.904c0.921,1.79,1.877,3.651,2.856,5.557C73.406,116.559,72.446,114.691,71.527,112.904
			z"/>
		<path style="fill:#84BD93;" d="M77.464,124.465l-6.775,47.829c-0.539,3.802-0.232,7.552,0.842,10.976
			c2.296,1.919,4.98,3.146,7.868,3.555c0.537,0.063,2.399,0.144,4.636,0.197l7.728-34.527
			C87.439,143.951,82.306,133.905,77.464,124.465z"/>
		<path style="fill:#84BD93;" d="M69.797,181.578c0.548,0.601,1.116,1.173,1.721,1.68C70.913,182.751,70.345,182.179,69.797,181.578
			z"/>
		<path style="fill:#84BD93;" d="M69.391,181.117c-0.538-0.63-1.056-1.29-1.526-2.01C68.336,179.827,68.853,180.487,69.391,181.117z
			"/>
	</g>
	<path style="fill:#84BD93;" d="M173.438,263.303c-1.666,0-3.356,2.198-5.016-0.802c0.01,0-0.537,0-0.537,0v49.573l16,10.135V263.42
		C180.885,263.786,176.932,263.303,173.438,263.303z"/>
	<path style="fill:#84BD93;" d="M152.062,29.788l-4.755,9.765l-2.419-2.802l6.68,7.738l3.711-8.49
		C154.145,33.802,153.062,31.709,152.062,29.788z"/>
	<g>
		<path style="fill:#84BD93;" d="M192.79,226.283c0.897,0.967,1.782,1.921,2.643,2.851
			C194.572,228.204,193.688,227.25,192.79,226.283z"/>
		<path style="fill:#84BD93;" d="M203.531,242.043c-0.154,0.105-0.321,0.213-0.49,0.321
			C203.211,242.255,203.376,242.149,203.531,242.043z"/>
		<path style="fill:#84BD93;" d="M204.572,241.274c0.096-0.078,0.179-0.151,0.267-0.226
			C204.752,241.123,204.669,241.197,204.572,241.274z"/>
		<path style="fill:#84BD93;" d="M199.113,233.116c0.765,0.831,1.491,1.619,2.164,2.353
			C200.604,234.735,199.879,233.946,199.113,233.116z"/>
		<path style="fill:#84BD93;" d="M188.707,221.89c0.909,0.977,1.822,1.959,2.729,2.935
			C190.53,223.849,189.616,222.867,188.707,221.89z"/>
		<path style="fill:#84BD93;" d="M201.278,235.469c0.673,0.735,1.295,1.415,1.855,2.029
			C202.573,236.884,201.951,236.204,201.278,235.469z"/>
		<path style="fill:#84BD93;" d="M182.151,214.855c1.224,1.312,2.522,2.703,3.855,4.134
			C184.672,217.558,183.375,216.167,182.151,214.855z"/>
		<path style="fill:#84BD93;" d="M146.019,243.618c-0.29-0.146-0.579-0.291-0.843-0.435
			C145.441,243.328,145.728,243.471,146.019,243.618z"/>
		<path style="fill:#84BD93;" d="M175.114,212.862l-28.485,31.046c0.348,0.166,0.657,0.33,1.04,0.496
			c6.655,2.878,16.039,4.529,25.746,4.529c9.706,0,19.091-1.651,25.746-4.529c1.455-0.629,2.598-1.255,3.571-1.857
			C193.928,232.953,176.643,214.477,175.114,212.862z"/>
		<path style="fill:#84BD93;" d="M144.239,242.64c-0.219-0.133-0.45-0.267-0.648-0.397
			C143.79,242.373,144.019,242.506,144.239,242.64z"/>
		<path style="fill:#84BD93;" d="M182.151,214.855c-4.489-4.809-7.992-8.55-8.643-9.237v0
			C174.159,206.306,177.662,210.046,182.151,214.855z"/>
		<path style="fill:#84BD93;" d="M142.783,241.671c-0.139-0.103-0.298-0.21-0.423-0.309
			C142.486,241.462,142.644,241.568,142.783,241.671z"/>
	</g>
	<g>
		<path style="fill:#84BD93;" d="M190.918,153.261c1.21,2.475,2.399,4.932,3.547,7.337
			C193.317,158.193,192.129,155.736,190.918,153.261z"/>
		<path style="fill:#84BD93;" d="M187.242,145.812c1.235,2.48,2.467,4.973,3.677,7.449
			C189.708,150.786,188.476,148.292,187.242,145.812z"/>
		<path style="fill:#84BD93;" d="M187.242,145.812c-4.938-9.919-9.923-19.611-13.757-26.983v0.001
			C177.319,126.202,182.304,135.894,187.242,145.812z"/>
		<path style="fill:#84BD93;" d="M198.416,177.159c-7.173-15.248-16.44-33.356-22.672-45.335l-24.014,49.314
			c-0.118-0.155-0.243-0.316-0.361-0.471c3.998,5.238,7.798,10.266,11.107,14.727l5.398-5.883c1.408-1.534,3.39-2.417,5.472-2.436
			c2.06,0.018,4.081,0.827,5.517,2.336c0.049,0.05,2.305,2.424,5.725,6.037c4.673-6.298,10.31-13.714,16.136-21.296
			C199.95,175.159,199.181,176.161,198.416,177.159z"/>
	</g>
	<path style="fill:#84BD93;" d="M129.735,49.682l-10.49,22.221c3.686,5.976,7.783,12.641,11.886,19.356l11.595-26.533
		L129.735,49.682z"/>
	<path style="fill:#84BD93;" d="M103.527,84.968c0,0-7.863,23.788-11.532,34.871c1.648,3.215,3.317,6.476,4.971,9.714
		c0.866-2.376,2.877-4.185,5.384-4.759c2.832-0.646,5.776,0.391,7.574,2.662c0.915,1.156,12.899,16.3,26.293,33.546l5.685-11.675
		C134.118,135.904,118.161,108.597,103.527,84.968z"/>
	<g>
		<path style="fill:#84BD93;" d="M187.858,64.053c-7.289-16.479-13.998-31.513-14.331-32.251l0,0.001
			C173.861,32.544,180.57,47.576,187.858,64.053z"/>
		<path style="fill:#84BD93;" d="M192.255,74.011c0.972,2.206,1.933,4.391,2.871,6.527
			C194.188,78.402,193.226,76.217,192.255,74.011z"/>
		<path style="fill:#84BD93;" d="M187.858,64.053c0.972,2.197,1.954,4.42,2.933,6.638C189.812,68.473,188.83,66.25,187.858,64.053z"
			/>
		<path style="fill:#84BD93;" d="M143.687,111.937c-0.172-0.286-0.345-0.573-0.521-0.865
			C143.343,111.365,143.515,111.65,143.687,111.937z"/>
		<path style="fill:#84BD93;" d="M204,110.966c-9.049-20.978-27.653-62.666-28.213-63.909l-29.932,68.492
			c-0.046-0.078-0.101-0.167-0.147-0.246c2.923,4.886,5.212,8.781,6.977,11.883l13.785-28.308c1.238-2.542,3.798-4.175,6.624-4.227
			c2.831-0.066,5.444,1.488,6.774,3.982c0.525,0.984,7.023,13.192,14.707,28.283c2.28-3.999,5.402-9.272,9.626-16.28
			C204.136,110.742,204.063,110.861,204,110.966z"/>
	</g>
	<path style="fill:#84BD93;" d="M195.647,44.36l6.569-7.609l-6.12-12.573c-1.538,2.956-3.259,6.282-5.084,9.837
		C192.486,37.299,194.045,40.778,195.647,44.36z"/>
	<path style="fill:#84BD93;" d="M211.135,160.685c13.293-17.115,25.138-32.079,26.046-33.228c1.8-2.273,4.742-3.306,7.572-2.662
		c2.507,0.574,4.518,2.383,5.384,4.759c3.053-5.975,6.164-12.045,9.074-17.713c-0.051-0.131-13.375-40.433-13.375-40.433
		c-20.147,32.534-42.678,71.671-42.913,72.156C205.804,149.412,208.616,155.251,211.135,160.685z"/>
	<path style="fill:#3F2D20;" d="M297.522,160.579L287.157,87.41c-0.458-3.24-2.96-5.812-6.187-6.36
		c-3.222-0.544-6.436,1.055-7.94,3.961c-0.055,0.108-1.651,3.196-4.183,8.107l-13.77-41.699c-0.917-2.771-3.351-4.762-6.248-5.11
		c-2.756-0.329-5.451,0.901-7.035,3.157L228.86,22.068c-1.087-2.301-3.263-3.896-5.786-4.241c-2.521-0.34-5.043,0.611-6.708,2.537
		l-3.451,3.997L203.111,4.23c-1.238-2.542-3.798-4.175-6.626-4.227c-2.812-0.084-5.445,1.487-6.775,3.983
		c-0.039,0.075-2.683,5.04-6.583,12.526c-1.763-3.904-2.832-6.263-2.863-6.335c-1.22-2.691-3.9-4.416-6.851-4.416
		c-0.016,0-0.033,0-0.051,0c-2.969,0.021-5.65,1.787-6.839,4.509l-2.646,6.054c-3.844-7.38-6.444-12.263-6.485-12.338
		c-1.33-2.496-3.95-4.015-6.775-3.983c-2.826,0.052-5.386,1.684-6.624,4.227l-9.805,20.132l-3.451-3.997
		c-1.665-1.926-4.187-2.881-6.71-2.537c-2.521,0.345-4.698,1.94-5.783,4.241L105.31,49.467c-1.583-2.255-4.27-3.488-7.033-3.157
		c-2.898,0.348-5.333,2.338-6.248,5.11l-13.77,41.699c-2.532-4.911-4.129-7.999-4.185-8.107c-1.502-2.907-4.714-4.505-7.94-3.961
		c-3.226,0.548-5.727,3.12-6.187,6.36l-10.365,73.169c-1.353,9.561,0.666,19.061,5.69,26.753
		c5.227,8.006,13.048,13.114,22.016,14.385c0.774,0.111,2.09,0.193,3.604,0.254c-1.892,18.264,14.879,36.22,39.79,41.797
		c1.896,0.424,3.802,0.75,5.707,1.007c2.918,7.335,11.266,12.622,21.84,15.768v55.584c0,2.529,1.271,4.89,3.384,6.281l35.61,23.457
		c1.251,0.824,2.691,1.24,4.136,1.24c1.224,0,2.45-0.299,3.569-0.9c2.434-1.312,3.952-3.855,3.952-6.621v-79.122
		c10.423-3.15,18.633-8.396,21.544-15.643c2.003-0.261,4.009-0.606,6.003-1.052c24.909-5.577,41.679-23.533,39.788-41.797
		c1.516-0.061,2.828-0.143,3.604-0.254c8.97-1.271,16.788-6.38,22.018-14.385C296.858,179.64,298.877,170.14,297.522,160.579z
		 M267.744,186.819c-0.558,0.066-2.433,0.145-4.675,0.199l-7.726-34.524c6.161-12.178,13.984-27.435,20.233-39.591l7.053,49.785
		c0.844,5.95-0.36,11.781-3.388,16.418C276.417,183.429,272.321,186.17,267.744,186.819z M223.141,229.088
		c-2.131,0.477-4.271,0.803-6.402,1.006c-3.218-3.735-20.298-22.062-21.667-23.522c11.953-16.23,32.136-42.098,44.122-57.362
		l11.835,52.876C253.427,212.802,240.656,225.168,223.141,229.088z M163.269,312.074v-48.625c3.341,0.346,6.745,0.526,10.145,0.526
		c3.494,0,6.994-0.189,10.423-0.554v62.203L163.269,312.074z M199.16,244.404c-6.655,2.878-16.04,4.529-25.746,4.529
		c-9.706,0-19.09-1.651-25.745-4.529c-3.198-1.383-5.143-2.779-6.224-3.84l32.063-34.946c1.892,1.999,27.928,29.833,32.135,34.68
		C204.629,241.385,202.635,242.902,199.16,244.404z M123.965,229.088c-17.515-3.92-30.287-16.286-27.887-27.002l10.944-48.897
		c0.004-0.019,0.008-0.036,0.012-0.055l0.877-3.924c6.22,7.921,38.875,50.234,44.206,57.475l-21.501,23.434
		C128.403,229.919,126.178,229.584,123.965,229.088z M67.865,179.107c-3.03-4.638-4.232-10.468-3.39-16.418l7.053-49.785
		c6.252,12.155,14.072,27.412,20.236,39.591l-7.728,34.527c-2.237-0.053-4.099-0.133-4.636-0.197
		C74.784,186.17,70.687,183.429,67.865,179.107z M156.122,34.072l-4.553,10.418l-6.68-7.738l6.122-12.573
		C152.555,27.149,154.287,30.496,156.122,34.072z M216.155,90.963c-2.836-6.696-7.157-16.595-13.741-31.425l17.78-20.592
		l12.139,25.713C227.745,72.077,221.952,81.476,216.155,90.963z M245.836,71.408c0,0,13.324,40.301,13.375,40.433
		c-2.91,5.668-6.02,11.737-9.074,17.713c-0.866-2.376-2.877-4.185-5.384-4.759c-2.83-0.643-5.772,0.39-7.572,2.662
		c-0.909,1.149-12.754,16.113-26.046,33.228c-2.519-5.434-5.331-11.273-8.212-17.121C203.158,143.08,225.689,103.942,245.836,71.408
		z M202.216,36.751l-6.569,7.609c-1.602-3.582-3.161-7.061-4.636-10.345c1.825-3.555,3.547-6.881,5.084-9.837L202.216,36.751z
		 M206.429,106.945c-5.388,8.902-9.189,15.296-11.855,19.971c-7.683-15.092-14.182-27.299-14.707-28.283
		c-1.33-2.494-3.942-4.047-6.774-3.982c-2.826,0.052-5.386,1.686-6.624,4.228l-13.785,28.307
		c-2.671-4.696-6.512-11.16-12.002-20.228l32.845-75.156C174.236,33.378,203.971,100.012,206.429,106.945z M200.723,174.153
		c-5.827,7.582-11.463,14.998-16.136,21.296c-3.42-3.614-5.676-5.987-5.725-6.037c-1.436-1.509-3.457-2.318-5.517-2.336
		c-2.082,0.019-4.064,0.902-5.472,2.436l-5.398,5.883c-4.638-6.252-10.22-13.597-15.996-21.111l27.005-55.454
		C181.154,133.573,193.422,157.599,200.723,174.153z M144.892,59.77l-13.76,31.489c-5.858-9.587-11.724-19.105-16.36-26.599
		l12.139-25.713L144.892,59.77z M144.451,144.092l-8.234,16.911c-13.394-17.246-25.378-32.39-26.293-33.546
		c-1.798-2.272-4.742-3.309-7.574-2.662c-2.507,0.574-4.518,2.383-5.384,4.759c-3.051-5.975-6.164-12.045-9.074-17.713
		c0.053-0.131,13.375-40.433,13.375-40.433C121.415,103.942,144.079,143.458,144.451,144.092z"/>
</g>
<g>
</g>
<g>
</g>
<g>
</g>
<g>
</g>
<g>
</g>
<g>
</g>
<g>
</g>
<g>
</g>
<g>
</g>
<g>
</g>
<g>
</g>
<g>
</g>
<g>
</g>
<g>
</g>
<g>
</g>
</svg>
