<?xml version="1.0" encoding="iso-8859-1"?>
<!-- Generator: Adobe Illustrator 18.0.0, SVG Export Plug-In . SVG Version: 6.00 Build 0)  -->
<!DOCTYPE svg PUBLIC "-//W3C//DTD SVG 1.1//EN" "http://www.w3.org/Graphics/SVG/1.1/DTD/svg11.dtd">
<svg version="1.1" id="Capa_1" xmlns="http://www.w3.org/2000/svg" xmlns:xlink="http://www.w3.org/1999/xlink" x="0px" y="0px"
	 viewBox="0 0 299.195 299.195" style="enable-background:new 0 0 299.195 299.195;" xml:space="preserve">
<g>
	<g>
		<path style="fill:#84BD93;" d="M177.254,16.039c-0.116-0.002-0.227-0.014-0.344-0.013
			C177.027,16.025,177.139,16.038,177.254,16.039z"/>
		<path style="fill:#84BD93;" d="M186.59,19.234c0.174,0.122,0.345,0.251,0.516,0.379C186.935,19.484,186.765,19.356,186.59,19.234z
			"/>
		<path style="fill:#84BD93;" d="M194.018,27.097c0.167,0.244,0.336,0.486,0.499,0.733
			C194.353,27.583,194.185,27.341,194.018,27.097z"/>
		<path style="fill:#84BD93;" d="M189.023,21.199c-0.101-0.093-0.204-0.181-0.305-0.271
			C188.82,21.019,188.923,21.107,189.023,21.199z"/>
		<path style="fill:#84BD93;" d="M192.551,25.074c0.144,0.185,0.281,0.379,0.422,0.567C192.831,25.453,192.695,25.26,192.551,25.074
			z"/>
		<path style="fill:#84BD93;" d="M184.314,17.851c0.125,0.065,0.255,0.121,0.379,0.189
			C184.568,17.971,184.439,17.916,184.314,17.851z"/>
		<path style="fill:#84BD93;" d="M190.577,22.761c0.176,0.189,0.35,0.379,0.522,0.573C190.926,23.14,190.752,22.951,190.577,22.761z
			"/>
		<path style="fill:#84BD93;" d="M93.834,255.134c1.397,1.635,2.85,3.172,4.341,4.632C96.682,258.308,95.231,256.769,93.834,255.134
			z"/>
		<path style="fill:#84BD93;" d="M102.783,263.895c-1.287-1.06-2.536-2.202-3.772-3.371
			C100.247,261.695,101.497,262.835,102.783,263.895z"/>
		<path style="fill:#84BD93;" d="M182.04,16.868c0.159,0.055,0.313,0.12,0.469,0.179C182.353,16.988,182.199,16.923,182.04,16.868z"
			/>
		<path style="fill:#84BD93;" d="M258.609,172.2c-3.3-20.932-17.1-47.514-30.445-73.222c-9.798-18.874-19.93-38.39-26.648-56.791
			c-1.569-4.296-3.851-9.522-6.887-14.177c-3.846-2.075-8.302-2.706-13.41-0.915c-1.765,0.619-3.496,1.052-6.557,0
			c-16.352-5.618-25.998,13.265-30.325,25.119c-6.718,18.401-16.849,37.917-26.648,56.792
			c-13.346,25.707-27.145,52.29-30.446,73.221c-5.494,34.853-0.229,61.535,15.632,80.936c21.075,17.305,48.516,19.366,64.263,19.366
			c0.261,0,1.286,0,1.547,0c18.12,0,51.738-2.965,73.306-28.199C258.626,234.871,264.217,207.771,258.609,172.2z M207.497,232.119
			c-10.035,9.262-23.933,14.411-40.2,14.411c-0.029,0-0.286,0-0.315,0c-16.267,0-30.164-5.149-40.199-14.411
			c-12.261-11.317-18.479-28.601-18.479-51.184c0-16.743,6.67-35.875,17.843-52.168c12.087-17.628,26.993-27.238,40.921-27.238
			c0,0,0.219,0,0.259,0c13.895,0,28.751,9.61,40.806,27.189c11.172,16.293,17.842,35.793,17.842,52.535
			C225.975,203.837,219.757,220.802,207.497,232.119z"/>
		<path style="fill:#84BD93;" d="M179.37,16.219c0.164,0.026,0.33,0.044,0.492,0.075C179.699,16.263,179.534,16.244,179.37,16.219z"
			/>
		<path style="fill:#84BD93;" d="M173.856,16.361c0.196-0.038,0.392-0.078,0.586-0.109
			C174.248,16.283,174.052,16.322,173.856,16.361z"/>
	</g>
	<g>
		<path style="fill:#84BD93;" d="M107.824,65.439c0.311-0.641,0.624-1.281,0.931-1.921
			C108.448,64.158,108.135,64.799,107.824,65.439z"/>
		<path style="fill:#84BD93;" d="M91.666,274.14c0.43,0.37,0.849,0.75,1.286,1.113C92.515,274.89,92.096,274.51,91.666,274.14z"/>
		<path style="fill:#84BD93;" d="M94.313,92.048c2.415-4.652,4.85-9.343,7.244-14.039c-0.009,0.018-0.018,0.035-0.027,0.053
			c-4.133,6.372-8.446,12.726-12.711,19.006c-17.568,25.863-35.734,52.607-39.111,77.158c-4.705,34.218,1.273,61.162,17.77,80.082
			c6.05,6.939,13.039,12.287,20.395,16.417c0.212,0.205,0.444,0.39,0.658,0.592c-2.149-2.039-4.21-4.161-6.131-6.41
			c-19.621-22.956-26.364-54.936-20.041-95.049C66.039,146.509,79.772,120.055,94.313,92.048z"/>
		<path style="fill:#84BD93;" d="M117.872,43.024c-0.239,0.596-0.487,1.197-0.733,1.797
			C117.385,44.221,117.633,43.621,117.872,43.024z"/>
		<path style="fill:#84BD93;" d="M104.628,71.924c0.315-0.629,0.625-1.257,0.937-1.885
			C105.253,70.667,104.943,71.295,104.628,71.924z"/>
		<path style="fill:#84BD93;" d="M115.241,49.339c-0.255,0.593-0.507,1.184-0.768,1.78
			C114.734,50.523,114.985,49.932,115.241,49.339z"/>
		<path style="fill:#84BD93;" d="M111.718,57.25c-0.011,0.023-0.022,0.046-0.033,0.069C111.697,57.297,111.708,57.273,111.718,57.25
			z"/>
	</g>
	<g>
		<path style="fill:#EF8829;" d="M124.526,195.546c-0.076-0.439-0.148-0.883-0.217-1.332
			C124.378,194.662,124.45,195.107,124.526,195.546z"/>
		<path style="fill:#EF8829;" d="M123.709,189.18c-0.039-0.441-0.081-0.878-0.113-1.328
			C123.628,188.302,123.67,188.739,123.709,189.18z"/>
		<path style="fill:#EF8829;" d="M124.062,192.462c-0.058-0.445-0.115-0.892-0.165-1.347
			C123.948,191.571,124.005,192.017,124.062,192.462z"/>
		<path style="fill:#EF8829;" d="M125.093,198.448c-0.093-0.422-0.178-0.854-0.264-1.286
			C124.915,197.593,125,198.026,125.093,198.448z"/>
		<path style="fill:#EF8829;" d="M162.706,132.816c-0.316-0.015-0.632-0.01-0.951,0.016
			C162.073,132.806,162.39,132.802,162.706,132.816z"/>
		<path style="fill:#EF8829;" d="M201.923,147.106c0.143,0.284,0.275,0.571,0.415,0.856
			C202.198,147.677,202.066,147.39,201.923,147.106z"/>
		<path style="fill:#EF8829;" d="M198.711,141.287c0.21,0.351,0.421,0.702,0.626,1.056
			C199.131,141.988,198.921,141.639,198.711,141.287z"/>
		<path style="fill:#EF8829;" d="M123.468,185.582c-0.018-0.384-0.043-0.758-0.057-1.149
			C123.424,184.824,123.45,185.198,123.468,185.582z"/>
		<path style="fill:#EF8829;" d="M160.014,133.164c0.441-0.145,0.886-0.232,1.33-0.293
			C160.9,132.931,160.456,133.019,160.014,133.164z"/>
		<path style="fill:#EF8829;" d="M125.764,201.194c-0.11-0.406-0.21-0.827-0.313-1.244
			C125.554,200.367,125.653,200.788,125.764,201.194z"/>
		<path style="fill:#EF8829;" d="M132.293,215.471c-0.266-0.373-0.526-0.757-0.782-1.146
			C131.768,214.715,132.027,215.098,132.293,215.471z"/>
		<path style="fill:#EF8829;" d="M133.576,217.169c-0.295-0.366-0.582-0.747-0.867-1.131
			C132.994,216.422,133.281,216.802,133.576,217.169z"/>
		<path style="fill:#EF8829;" d="M134.921,218.746c-0.339-0.373-0.668-0.766-0.996-1.16
			C134.253,217.98,134.582,218.372,134.921,218.746z"/>
		<path style="fill:#EF8829;" d="M203.285,150.022c-8.871-12.609-19.527-20.426-27.998-20.47c-3.542,0.016-7.264,1.28-10.978,3.497
			c-0.387-0.104-0.784-0.17-1.187-0.211c2.863,0.294,5.427,2.217,6.382,5.127c1.294,3.946-0.855,8.195-4.801,9.49
			c-5.487,1.8-13.986,16.976-13.986,23.235c0,4.154-3.367,7.52-7.521,7.52c-4.154,0-7.521-3.367-7.521-7.52
			c0,0.515,0.052,1.017,0.151,1.502c-2.717,7.657-4.334,15.54-4.334,22.903c0,9.517,1.263,17.293,3.433,23.655
			c8.729,9.611,21.061,12.346,32.214,12.357c19.997-0.021,43.794-8.769,43.794-50.269
			C210.933,171.429,208.101,160.438,203.285,150.022z"/>
		<path style="fill:#EF8829;" d="M127.865,207.377c-0.29-0.701-0.568-1.422-0.833-2.162
			C127.297,205.955,127.575,206.676,127.865,207.377z"/>
		<path style="fill:#EF8829;" d="M128.859,209.609c-0.2-0.417-0.402-0.832-0.593-1.265
			C128.457,208.777,128.659,209.191,128.859,209.609z"/>
		<path style="fill:#EF8829;" d="M126.529,203.782c-0.125-0.386-0.238-0.792-0.356-1.188
			C126.291,202.99,126.403,203.396,126.529,203.782z"/>
		<path style="fill:#EF8829;" d="M131.077,213.648c-0.243-0.386-0.481-0.779-0.715-1.181
			C130.595,212.87,130.834,213.262,131.077,213.648z"/>
		<path style="fill:#EF8829;" d="M129.932,211.698c-0.221-0.402-0.442-0.805-0.654-1.223
			C129.49,210.893,129.71,211.297,129.932,211.698z"/>
	</g>
	<path style="fill:#3F2D20;" d="M167.326,100.255c-0.039,0-0.259-0.002-0.259-0.002c-13.927,0.069-28.833,10.2-40.921,27.828
		c-11.173,16.293-17.843,36.015-17.843,52.758c0,22.583,6.217,39.772,18.479,51.088c10.034,9.262,23.932,14.172,40.199,14.219
		c0.029,0,0.286,0,0.315,0c16.267-0.047,30.164-4.957,40.2-14.219c12.26-11.316,18.478-28.504,18.478-51.088
		c0-16.743-6.67-36.465-17.842-52.758C196.077,110.502,181.221,100.379,167.326,100.255z M123.346,180.839
		c0-28.757,24.536-65.454,43.794-65.544c8.658,0.045,19.603,8.192,28.587,21.293c9.379,13.677,15.206,30.634,15.206,44.251
		c0,41.499-23.797,50.248-43.794,50.269C147.143,231.087,123.346,222.338,123.346,180.839z"/>
	<path style="fill:#3F2D20;" d="M160.014,133.164c-12.964,4.252-24.339,26.397-24.339,37.526c0,4.154,3.367,7.521,7.521,7.521
		s7.521-3.367,7.521-7.521c0-6.259,8.499-21.435,13.986-23.235c3.946-1.295,6.096-5.544,4.801-9.49
		C168.21,134.019,163.963,131.867,160.014,133.164z"/>
	<path style="fill:#3F2D20;" d="M273.467,169.857c-3.68-23.348-17.413-49.802-31.953-77.809
		c-9.578-18.451-19.482-37.53-25.868-55.02C205.489,9.213,187.744-3.624,167.924,2.322c-19.75-6.07-54.757-2.077-70.176,34.355
		c-6.997,16.535-18.679,33.732-31.045,51.938c-18.541,27.296-37.713,55.52-41.569,83.562c-5.325,38.715,1.853,69.674,21.332,92.016
		c26.54,30.44,67.121,34.984,88.948,34.984c0,0,12.468,0.184,17.834-0.641c4.523,0.422,9.156,0.641,13.891,0.641
		c0.261,0,1.286,0,1.547,0c35.757,0,65.852-12.17,84.74-34.27C273.048,241.951,279.79,209.971,273.467,169.857z M168.686,284.136
		c-0.261,0-1.286,0-1.547,0c-18.12,0-51.738-3.768-73.306-29.002C77.2,235.674,71.609,207.771,77.216,172.2
		c3.3-20.932,17.1-47.514,30.445-73.222c9.798-18.874,19.93-38.39,26.648-56.791c4.327-11.854,13.973-30.737,30.325-25.119
		c3.061,1.052,4.792,0.619,6.557,0c16.318-5.723,25.998,13.267,30.325,25.119c6.718,18.401,16.849,37.917,26.648,56.791
		c13.345,25.708,27.145,52.29,30.445,73.222c5.607,35.571,0.017,63.474-16.617,82.934
		C220.425,280.367,186.807,284.136,168.686,284.136z M57.803,254.307c-16.497-18.92-22.475-45.864-17.77-80.082
		c3.377-24.551,21.543-51.295,39.111-77.158c12.232-18.008,24.881-36.628,32.456-54.528c3.995-9.437,9.429-15.824,15.359-20.053
		c-2.521,4.26-4.796,9.111-6.778,14.542c-6.386,17.49-16.29,36.569-25.868,55.02c-14.54,28.007-28.273,54.461-31.953,77.809
		c-6.323,40.114,0.419,72.094,20.041,95.05c4.461,5.221,9.557,9.88,15.196,13.962C83.516,274.643,69.045,267.201,57.803,254.307z"/>
</g>
<g>
</g>
<g>
</g>
<g>
</g>
<g>
</g>
<g>
</g>
<g>
</g>
<g>
</g>
<g>
</g>
<g>
</g>
<g>
</g>
<g>
</g>
<g>
</g>
<g>
</g>
<g>
</g>
<g>
</g>
</svg>
