<?xml version="1.0" encoding="iso-8859-1"?>
<!-- Generator: Adobe Illustrator 18.0.0, SVG Export Plug-In . SVG Version: 6.00 Build 0)  -->
<!DOCTYPE svg PUBLIC "-//W3C//DTD SVG 1.1//EN" "http://www.w3.org/Graphics/SVG/1.1/DTD/svg11.dtd">
<svg version="1.1" id="Capa_1" xmlns="http://www.w3.org/2000/svg" xmlns:xlink="http://www.w3.org/1999/xlink" x="0px" y="0px"
	 viewBox="0 0 336.272 336.272" style="enable-background:new 0 0 336.272 336.272;" xml:space="preserve">
<g>
	<path style="fill:#FDD44B;" d="M230.868,242.026c-24.295,0-47.848-4.41-70.196-13.163c-16.642-6.517-32.606-15.46-47.786-26.739
		c28.99,32.684,70.539,52.859,124.15,60.241c20.504-2.265,46.545-12.33,73.472-28.43c0.575-0.344,9.078-4.63,10.716-11.965
		c-13.594,6.364-41.307,17.197-76.548,19.586C240.051,241.87,235.444,242.026,230.868,242.026z"/>
	<g>
		<path style="fill:#FDD44B;" d="M263.25,298.721c-1.788,0-3.647-0.019-5.539-0.048c0.415-0.007,0.81-0.017,1.218-0.025
			c-2.251,0.044-4.596,0.073-7.06,0.073c-11.24,0-24.593-0.525-39.115-2.134c-54.571-6.047-99.376-24.814-129.571-54.272
			c-33.459-32.639-49.888-78.2-49.101-135.65c-0.027,2.03-0.055,4.06-0.04,6.061c-15.407,54.47-11.363,126.548,51.321,171.762
			c29.404,21.212,65.753,32.441,108.096,33.45c23.939-0.452,48.781-4.041,72.198-10.527c7.548-2.091,10.806-5.664,12.127-8.989
			C273.489,298.601,268.615,298.721,263.25,298.721z"/>
		<path style="fill:#FDD44B;" d="M275.863,297.891c0.767-0.055,1.506-0.11,2.198-0.165
			C277.37,297.781,276.629,297.836,275.863,297.891z"/>
		<path style="fill:#FDD44B;" d="M34.128,103.642c0.078-3.265,0.219-6.573,0.408-9.913C34.349,97.068,34.205,100.378,34.128,103.642
			z"/>
		<path style="fill:#FDD44B;" d="M35.664,79.06c-0.389,3.862-0.681,7.658-0.93,11.424C34.986,86.716,35.276,82.922,35.664,79.06z"/>
		<path style="fill:#FDD44B;" d="M260.296,298.62c0.772-0.018,1.523-0.04,2.267-0.062
			C261.819,298.58,261.068,298.601,260.296,298.62z"/>
		<path style="fill:#FDD44B;" d="M273.456,298.053c0.551-0.035,1.079-0.07,1.599-0.106
			C274.537,297.983,274.006,298.018,273.456,298.053z"/>
		<path style="fill:#FDD44B;" d="M263.632,298.526c1.045-0.035,2.059-0.073,3.042-0.115
			C265.691,298.453,264.676,298.491,263.632,298.526z"/>
		<path style="fill:#FDD44B;" d="M267.639,298.367c0.679-0.031,1.349-0.062,1.997-0.095
			C268.989,298.305,268.317,298.336,267.639,298.367z"/>
		<path style="fill:#FDD44B;" d="M270.745,298.212c0.564-0.031,1.115-0.062,1.652-0.094
			C271.861,298.15,271.308,298.182,270.745,298.212z"/>
	</g>
	<g>
		<path style="fill:#FDD44B;" d="M27.891,61.091c-0.552-0.357-1.113-0.751-1.666-1.222C26.778,60.341,27.338,60.733,27.891,61.091z"
			/>
		<path style="fill:#FDD44B;" d="M73.189,42.199l-39.007-6.945L30.09,58.231c-0.182,1.376-0.275,2.593-0.291,3.847
			c1.704,0.816,2.996,1.011,3.016,1.011h0.003l20.628,3.766c2.462,0.364,14.337,1.257,18.108-15.521l4.091-22.954L73.189,42.199z"/>
		<path style="fill:#FDD44B;" d="M29.777,62.161c-0.485-0.233-1.009-0.524-1.541-0.849C28.771,61.64,29.29,61.927,29.777,62.161z"/>
	</g>
	<g>
		<path style="fill:#FDD44B;" d="M310.297,210.355c0.572-0.247,1.156-0.497,1.691-0.734
			C311.452,209.859,310.87,210.108,310.297,210.355z"/>
		<path style="fill:#FDD44B;" d="M307.27,211.63c0.696-0.286,1.394-0.572,2.047-0.85C308.664,211.057,307.966,211.344,307.27,211.63
			z"/>
		<path style="fill:#FDD44B;" d="M301.833,213.446c-0.066,0.015-0.073,0.017-0.139,0.029
			c-76.129,15.214-138.794,3.575-186.245-34.592c-16.437-13.221-29.173-28.249-38.974-42.85c1.697,5.549,3.691,11.264,6.083,17.078
			c45.599,52.88,99.791,77.595,161.101,73.438c24.696-1.675,45.53-7.889,59.616-13.326
			C302.557,213.304,302.046,213.401,301.833,213.446z"/>
		<path style="fill:#FDD44B;" d="M304.184,212.867c0.734-0.288,1.469-0.575,2.164-0.856
			C305.654,212.292,304.918,212.58,304.184,212.867z"/>
		<path style="fill:#FDD44B;" d="M75.594,132.988c-0.397-1.372-0.814-2.759-1.174-4.105
			C74.778,130.23,75.198,131.615,75.594,132.988z"/>
	</g>
	<g>
		<path style="fill:#FDD44B;" d="M263.367,279.993c-9.301-0.518-18.332-1.372-27.089-2.555c-0.032-0.003-0.064-0.008-0.096-0.012
			c-0.115-0.016-0.227-0.033-0.342-0.049c-0.1-0.014-0.201-0.025-0.299-0.045c-37.968-5.22-70.728-16.689-97.644-34.234
			c-26.898-17.534-47.99-41.073-62.694-69.965c-2.222-4.366-4.217-8.712-6.028-13.013c-0.013-0.028-0.024-0.057-0.037-0.086
			c-6.135-14.585-10.027-28.617-12.498-40.933c0.317,1.579,0.648,3.176,1.014,4.809c2.409,45.13,17.19,81.213,44.207,107.594
			c34.997,34.173,84.783,46.102,120.385,50.09c12.192,1.366,23.596,1.918,33.54,2.034c-1.44,0.017-2.923,0.026-4.444,0.024
			c8.653,0.007,16.037-0.304,21.627-0.662C269.057,280.838,264.187,280.103,263.367,279.993z"/>
		<path style="fill:#FDD44B;" d="M251.102,283.65c-1.329-0.002-2.694-0.013-4.081-0.031
			C248.409,283.637,249.772,283.648,251.102,283.65z"/>
		<path style="fill:#FDD44B;" d="M241.157,283.492c-1.424-0.042-2.872-0.094-4.343-0.156
			C238.286,283.398,239.732,283.45,241.157,283.492z"/>
		<path style="fill:#FDD44B;" d="M245.934,283.602c-1.173-0.019-2.366-0.045-3.576-0.077
			C243.568,283.557,244.76,283.582,245.934,283.602z"/>
		<path style="fill:#FDD44B;" d="M224.652,282.598c-1.211-0.095-2.435-0.199-3.666-0.31
			C222.218,282.399,223.44,282.503,224.652,282.598z"/>
		<path style="fill:#FDD44B;" d="M219.344,282.14c-1.757-0.167-3.527-0.345-5.32-0.546
			C215.817,281.794,217.588,281.973,219.344,282.14z"/>
		<path style="fill:#FDD44B;" d="M236.356,283.318c-1.617-0.071-3.265-0.156-4.934-0.254
			C233.091,283.162,234.739,283.247,236.356,283.318z"/>
		<path style="fill:#FDD44B;" d="M230.118,282.982c-1.241-0.077-2.493-0.161-3.76-0.254
			C227.625,282.821,228.876,282.905,230.118,282.982z"/>
		<path style="fill:#FDD44B;" d="M52.665,87.652c-0.047-0.951-0.083-1.849-0.112-2.701C52.582,85.804,52.618,86.7,52.665,87.652z"/>
		<path style="fill:#FDD44B;" d="M54.027,103.07c-0.163-1.301-0.315-2.58-0.447-3.808C53.712,100.49,53.864,101.768,54.027,103.07z"
			/>
		<path style="fill:#FDD44B;" d="M55.46,112.747c-0.226-1.326-0.436-2.627-0.63-3.901C55.023,110.12,55.233,111.42,55.46,112.747z"
			/>
		<path style="fill:#FDD44B;" d="M54.708,108.061c-0.207-1.392-0.394-2.748-0.566-4.073
			C54.314,105.313,54.501,106.668,54.708,108.061z"/>
		<path style="fill:#FDD44B;" d="M56.427,118.032c-0.299-1.527-0.579-3.032-0.835-4.501
			C55.848,115.001,56.128,116.505,56.427,118.032z"/>
		<path style="fill:#FDD44B;" d="M53.567,99.146c-0.136-1.272-0.251-2.49-0.357-3.678C53.316,96.657,53.431,97.873,53.567,99.146z"
			/>
		<path style="fill:#FDD44B;" d="M52.536,84.433c-0.026-0.839-0.047-1.646-0.059-2.379C52.489,82.787,52.51,83.593,52.536,84.433z"
			/>
		<path style="fill:#FDD44B;" d="M52.854,90.892c-0.063-0.961-0.118-1.886-0.164-2.769C52.735,89.007,52.79,89.93,52.854,90.892z"/>
		<path style="fill:#FDD44B;" d="M53.142,94.698c-0.097-1.137-0.183-2.241-0.255-3.293C52.959,92.458,53.045,93.56,53.142,94.698z"
			/>
	</g>
	<path style="fill:#3F2D20;" d="M333.203,207.253c-8.104-15.799-25.228-16.625-33.28-14.834
		C143.286,223.676,86.843,128.181,68.557,79.154c7.508-3.596,14.686-10.937,17.718-24.676c0.022-0.101,0.042-0.201,0.06-0.303
		l5.438-30.54c0.349-1.963-0.095-3.985-1.237-5.622c-1.141-1.635-2.886-2.751-4.849-3.1L20.56,3.318
		c-4.081-0.727-7.995,1.997-8.722,6.086L6.4,39.943c-0.018,0.101-0.034,0.203-0.048,0.305c-2.566,18.863,6.021,29.37,14.662,34.374
		C4.606,108.227-2.702,147.501,0.901,183.697c4.673,46.956,26.901,86.029,64.282,112.992
		c33.467,24.142,74.914,36.383,123.188,36.383c26.823,0,54.938-3.86,81.303-11.165c23.881-6.615,25.064-25.699,23.359-33.588
		c-0.827-11.043-8.939-17.368-17.197-20.608c13.565-5.172,27.91-12.207,42.392-20.867c0.478-0.286,0.833-0.499,1.056-0.628
		C341.398,233.486,336.907,213.958,333.203,207.253z M310.508,233.935c-26.927,16.1-52.968,26.165-73.472,28.43
		c-53.611-7.382-95.16-27.556-124.15-60.241c15.181,11.278,31.144,20.222,47.786,26.739c22.348,8.753,45.9,13.163,70.196,13.163
		c4.576,0,9.183-0.156,13.809-0.47c35.241-2.39,62.954-13.222,76.548-19.586C319.586,229.305,311.083,233.591,310.508,233.935z
		 M265.658,307.412c-25.078,6.947-51.803,10.618-77.288,10.618c-45.049,0-83.535-11.284-114.388-33.541
		C-2.847,229.072,8.409,133.295,35.609,79.05l0.056,0.01c-7.108,70.621,8.863,125.547,47.519,163.255
		c30.195,29.458,75.001,48.225,129.571,54.272c14.521,1.609,27.875,2.134,39.115,2.134c11.093,0,20.121-0.511,26.191-0.995
		C276.929,301.238,273.733,305.174,265.658,307.412z M21.237,42.422l4.091-22.978l50.317,8.958L71.554,51.38
		c-3.77,16.779-15.646,15.933-18.108,15.568l-20.628-3.672l-0.003-0.001c-0.033-0.006-3.48-0.751-6.59-3.407
		C21.875,56.154,20.197,50.285,21.237,42.422z M303.098,207.122c0.854-0.178,6.426-1.202,11.307,1.405
		c-12.568,5.814-38.354,15.826-70.746,18.023c-61.31,4.157-115.501-20.559-161.101-73.438c-4.509-10.955-7.68-21.61-9.9-31.33
		c10.346,16.988,24.622,35.148,44.055,50.778c47.451,38.167,110.116,49.805,186.245,34.591
		C303.024,207.138,303.032,207.136,303.098,207.122z M272.968,282.989c-12.559,0.805-34.136,1.384-58.944-1.395
		c-35.602-3.989-85.388-15.917-120.385-50.09c-34.974-34.15-49.464-84.544-43.121-149.798l1.959,0.349
		c0.215,13.201,2.422,44.128,16.66,77.98c0.013,0.029,0.024,0.058,0.037,0.086c1.812,4.302,3.806,8.648,6.028,13.013
		c14.704,28.891,35.796,52.431,62.694,69.965c26.917,17.545,59.676,29.015,97.644,34.234c0.099,0.02,0.2,0.03,0.299,0.045
		c0.115,0.016,0.227,0.033,0.342,0.049c0.032,0.004,0.064,0.009,0.096,0.012c8.757,1.183,17.787,2.037,27.088,2.555
		C264.187,280.103,269.057,280.838,272.968,282.989z"/>
</g>
<g>
</g>
<g>
</g>
<g>
</g>
<g>
</g>
<g>
</g>
<g>
</g>
<g>
</g>
<g>
</g>
<g>
</g>
<g>
</g>
<g>
</g>
<g>
</g>
<g>
</g>
<g>
</g>
<g>
</g>
</svg>
