<?xml version="1.0" encoding="iso-8859-1"?>
<!-- Generator: Adobe Illustrator 19.0.0, SVG Export Plug-In . SVG Version: 6.00 Build 0)  -->
<svg version="1.1" id="Capa_1" xmlns="http://www.w3.org/2000/svg" xmlns:xlink="http://www.w3.org/1999/xlink" x="0px" y="0px"
	 viewBox="0 0 511.999 511.999" style="enable-background:new 0 0 511.999 511.999;" xml:space="preserve">
<path style="fill:#A5DC69;" d="M137.303,181.857c-18.848,0-36.266-6.085-50.432-16.374c-0.029,0.075-0.046,0.119-0.046,0.119
	c-5.164,36.138,17.087,70.715,52.095,81.001c0,0,1.463-1.231,3.991-3.381c5.943-12.033,11.24-24.406,15.858-37.071l11.216-30.753
	l0.117-0.053C159.995,179.529,148.924,181.857,137.303,181.857z"/>
<path style="fill:#46C373;" d="M338.094,349.392h-89.883l74.06-74.06l-62.03-54.126l-71.012,71.012l24.176-84.508l-43.419-32.313
	L158.77,206.15c-18.484,50.683-47.828,96.71-85.976,134.858l-48.378,48.378c-8.573,8.573-8.573,22.473,0,31.047l75.137,75.137
	c8.573,8.573,22.473,8.573,31.047,0l26.799-26.799c44.574-44.574,102.563-73.262,165.039-81.649l0,0L338.094,349.392z"/>
<path style="fill:#A5DC69;" d="M452.709,320.87c24.117-9.039,41.287-32.294,41.287-59.567c0-23.392-12.637-43.822-31.448-54.869
	c13.473-19.736,21.355-43.592,21.355-69.292c0-67.962-55.094-123.057-123.057-123.057c-24.74,0-47.77,7.307-67.063,19.871
	C283.802,19.488,267.118,10,248.211,10c-20.438,0-38.275,11.088-47.858,27.568C184.657,20.62,162.225,10,137.303,10
	c-47.457,0-85.928,38.472-85.928,85.929s38.471,85.929,85.928,85.929c13.792,0,26.814-3.268,38.364-9.042
	c15.245,23.976,42.027,39.898,72.544,39.898c4.964,0,9.822-0.444,14.557-1.253c10.405,13.71,23.616,25.17,38.781,33.527
	c-2.687,8.325-4.155,17.197-4.155,26.416c0,30.859,16.275,57.905,40.701,73.059c-10.033,14.059-15.954,31.254-15.954,49.842
	c0,47.457,38.471,85.929,85.928,85.929s85.928-38.471,85.928-85.929C493.996,363.196,477.465,335.951,452.709,320.87z"/>
<path d="M471.524,322.318c19.917-13.5,32.473-36.337,32.473-61.016c0-22.524-10.476-43.805-27.885-57.658
	c11.668-20.166,17.792-42.96,17.792-66.503c0-73.367-59.689-133.057-133.057-133.057c-22.812,0-45.02,5.786-64.76,16.805
	C283.811,7.672,266.504,0,248.211,0c-19.001,0-36.975,8.379-49.267,22.455C181.768,8.07,159.882,0,137.303,0
	C84.408,0,41.374,43.033,41.374,95.929c0,29.758,13.62,56.395,34.954,74.003c-1.306,17.981,3.238,35.99,13.07,51.275
	c9.042,14.056,22.035,24.998,37.209,31.543c-16.384,29.752-36.959,57.263-60.883,81.187l-48.379,48.378
	c-12.458,12.459-12.458,32.729,0,45.188l75.138,75.138c6.035,6.035,14.06,9.358,22.595,9.358c8.534,0,16.559-3.323,22.594-9.358
	l26.799-26.799c40.023-40.023,92.129-67.098,147.779-77.007c2.375,50.799,44.443,91.397,95.819,91.397
	c52.896,0,95.929-43.033,95.929-95.929C503.996,366.26,492.102,340.36,471.524,322.318z M96.481,182.725
	c12.394,5.853,26.231,9.133,40.822,9.133c5.614,0,11.138-0.495,16.56-1.439l-4.488,12.306c-3.987,10.931-8.528,21.681-13.583,32.199
	C114.015,226.069,98.996,205.685,96.481,182.725z M150.327,461.7l-26.799,26.799c-4.66,4.659-12.243,4.661-16.903,0L53.5,435.374
	l50.487-50.488c3.905-3.905,3.905-10.237,0-14.143c-3.906-3.904-10.236-3.904-14.143,0l-50.487,50.488l-7.87-7.87
	c-4.66-4.66-4.66-12.243,0-16.903l48.379-48.378c38.91-38.912,69.443-86.806,88.298-138.503l7.366-20.197
	c7.568,8.815,16.571,16.08,26.551,21.556l-22.467,78.531c-1.254,4.382,0.614,9.057,4.541,11.369c1.579,0.929,3.331,1.382,5.07,1.382
	c2.587,0,5.146-1.002,7.074-2.929l69.266-69.265c7.296,7.498,15.422,14.08,24.308,19.68c-1.648,7.102-2.481,14.37-2.481,21.697
	c0,7.562,0.872,14.973,2.546,22.12l-48.799,48.799c-2.859,2.86-3.715,7.161-2.168,10.898c1.548,3.736,5.194,6.173,9.239,6.173
	h48.787c5.522,0,10-4.478,10-10s-4.478-10-10-10h-24.645l25.091-25.091c6.344,12.709,15.522,23.961,27.064,32.889
	c-5.495,9.701-9.211,20.213-11.043,31.163c-31.659,5.106-62.321,15.388-90.633,30.189c-1.001-4.624-3.3-8.872-6.725-12.297
	l-12.195-12.195c-4.706-4.706-10.963-7.298-17.618-7.298s-12.912,2.592-17.618,7.298l-28.961,28.96
	c-3.905,3.905-3.905,10.237,0,14.143c3.905,3.904,10.235,3.905,14.143,0l28.961-28.96c1.253-1.253,2.715-1.44,3.476-1.44
	s2.223,0.188,3.476,1.44l12.195,12.195c1.917,1.916,1.917,5.035,0,6.952l-7.262,7.263c-0.462,0.462-0.866,0.961-1.219,1.483
	C178.047,436.551,163.567,448.46,150.327,461.7z M220.661,218.707c7.703,2.297,15.757,3.634,24.004,3.934l-35.2,35.2
	L220.661,218.707z M406.504,470.217c-40.582-0.821-73.663-34.005-74.353-74.589c-0.277-16.282,4.559-31.922,13.943-45.16
	c0.892-1.259,1.575-2.673,1.843-4.193c0.741-4.202-1.174-8.204-4.571-10.31c-15.911-9.872-27.285-24.817-32.597-42.064
	c-0.065-0.243-0.141-0.483-0.225-0.722c-2.065-6.953-3.151-14.271-3.151-21.776c0-7.889,1.219-15.692,3.623-23.192
	c1.476-4.604-0.407-9.649-4.641-11.983c-13.781-7.594-26.106-18.248-35.642-30.814c-1.909-2.516-4.87-3.954-7.965-3.954
	c-0.559,0-1.122,0.047-1.685,0.143c-4.313,0.737-8.644,1.11-12.872,1.11c-26.101,0-50.065-13.183-64.105-35.264
	c-2.75-4.326-8.324-5.87-12.911-3.579c-10.6,5.3-22.002,7.987-33.892,7.987c-41.867,0-75.929-34.062-75.929-75.929
	S95.436,20,137.303,20c20.739,0,40.74,8.605,55.038,23.644c0.667,0.678,1.371,1.334,2.001,2.047
	c12.219,13.825,18.964,31.493,19.02,50.004c0.017,5.434,4.288,10.082,9.721,10.23c5.65,0.154,10.28-4.381,10.28-9.996
	c0-21.573-7.191-42.259-20.369-59.082C221.534,26.327,234.479,20,248.211,20c14.899,0,28.858,7.34,37.341,19.635
	c3.078,4.46,9.147,5.66,13.688,2.701c19.658-12.803,42.73-19.133,66.377-18.152c60.074,2.493,108.025,52.334,108.285,112.459
	c0.099,22.814-6.573,44.809-19.269,63.628c-0.343,0.355-0.671,0.731-0.966,1.145c-21.347,30.032-55.303,48.245-90.9,48.778
	c-5.305,0.079-9.917,4.048-10.256,9.342c-0.374,5.839,4.25,10.662,9.977,10.662c0.038,0,0.077,0,0.115-0.001
	c39.229-0.444,76.737-19.035,101.993-50.14c12.134,10.101,19.401,25.243,19.401,41.246c0,22.227-13.983,42.401-34.797,50.202
	c-3.583,1.344-6.086,4.613-6.446,8.423c-0.359,3.81,1.485,7.49,4.753,9.481c22.85,13.92,36.49,38.18,36.49,64.895
	C483.996,436.691,449.083,471.078,406.504,470.217z"/>
<path d="M360.847,72.204l0.32,0.001c0.025,0,0.051,0,0.076,0c5.487,0,9.957-4.429,9.998-9.926
	c0.041-5.522-4.403-10.033-9.926-10.074l-0.469-0.001c-5.522,0-10,4.478-10,10S355.325,72.204,360.847,72.204z"/>
<path d="M394.024,81.307c19.59,11.668,31.76,33.063,31.76,55.835c0,5.522,4.478,10,10,10s10-4.478,10-10
	c0-29.783-15.911-57.762-41.525-73.019c-4.743-2.824-10.883-1.269-13.709,3.475C387.723,72.343,389.279,78.48,394.024,81.307z"/>
<path d="M124.661,340.06c-2.63,0-5.21,1.07-7.07,2.931c-1.859,1.859-2.93,4.439-2.93,7.079c0,2.631,1.07,5.211,2.93,7.07
	c1.86,1.86,4.44,2.92,7.07,2.92c2.64,0,5.21-1.06,7.07-2.92c1.869-1.87,2.93-4.439,2.93-7.07c0-2.64-1.061-5.21-2.93-7.079
	C129.871,341.13,127.301,340.06,124.661,340.06z"/>
<g>
</g>
<g>
</g>
<g>
</g>
<g>
</g>
<g>
</g>
<g>
</g>
<g>
</g>
<g>
</g>
<g>
</g>
<g>
</g>
<g>
</g>
<g>
</g>
<g>
</g>
<g>
</g>
<g>
</g>
</svg>
