<?xml version="1.0" encoding="iso-8859-1"?>
<!-- Generator: Adobe Illustrator 18.0.0, SVG Export Plug-In . SVG Version: 6.00 Build 0)  -->
<!DOCTYPE svg PUBLIC "-//W3C//DTD SVG 1.1//EN" "http://www.w3.org/Graphics/SVG/1.1/DTD/svg11.dtd">
<svg version="1.1" id="Capa_1" xmlns="http://www.w3.org/2000/svg" xmlns:xlink="http://www.w3.org/1999/xlink" x="0px" y="0px"
	 viewBox="0 0 328.896 328.896" style="enable-background:new 0 0 328.896 328.896;" xml:space="preserve">
<g>
	<path style="fill:#CE593F;" d="M230.918,20.597c-0.931-0.968-2.492-0.713-3.44,0.237l-19.282,19.517h3.744l19.11-19.346
		C231.003,20.948,230.972,20.652,230.918,20.597z"/>
	<rect x="95.212" y="266.351" style="fill:#CE593F;" width="148" height="26"/>
	<rect x="95.212" y="87.351" style="fill:#CE593F;" width="151" height="13"/>
	<rect x="155.212" y="147.351" style="fill:#EF8829;" width="91" height="85"/>
	<g>
		<path style="fill:#CE593F;" d="M249.3,55.6c0.193,0.129,0.372,0.278,0.54,0.436C249.671,55.878,249.494,55.729,249.3,55.6z"/>
		<path style="fill:#CE593F;" d="M248.611,55.23c0.168,0.07,0.322,0.163,0.477,0.255C248.932,55.394,248.779,55.3,248.611,55.23z"/>
		<path style="fill:#CE593F;" d="M251.147,59.351H91.897c-2.282,0-4.138,2.223-4.138,4.505c0,0.044,0.012,0.495,0.013,0.495h159.25
			c2.282,0,4.138-2.198,4.138-4.48C251.16,58.708,251.112,59.351,251.147,59.351z"/>
		<path style="fill:#CE593F;" d="M247.846,54.994c0.122,0.025,0.234,0.072,0.352,0.108C248.08,55.066,247.968,55.019,247.846,54.994
			z"/>
	</g>
	<path style="fill:#CE593F;" d="M247.022,305.351H91.897c-2.282,0-4.138,2.179-4.138,5c0,2.82,1.856,5,4.138,5h155.125
		c2.282,0,4.138-2.18,4.138-5C251.16,307.53,249.304,305.351,247.022,305.351z"/>
	<rect x="95.212" y="217.351" style="fill:#CE593F;" width="35" height="13"/>
	<path style="fill:#CE593F;" d="M139.343,245.351c-3.062,0-8.284,0-9.457-3H95.212v10.999l149.765,1.08l1.06-9.079H139.343z"/>
	<rect x="95.212" y="191.351" style="fill:#CE593F;" width="35" height="13"/>
	<rect x="95.212" y="165.351" style="fill:#CE593F;" width="35" height="12"/>
	<rect x="95.212" y="139.351" style="fill:#CE593F;" width="35" height="13"/>
	<path style="fill:#CE593F;" d="M95.212,113.351v13h34.674c1.173-3,6.395-2,9.457-2h106.695l-0.648-11H95.212z"/>
	<path style="fill:#3F2D20;" d="M259.077,294.865V73.938c4.336-3.518,7.118-8.882,7.118-14.888c0-10.572-8.6-19.173-19.173-19.173
		h-13.818l10.068-10.068c3.299-3.299,5.116-7.685,5.116-12.351c0-4.666-1.818-9.052-5.116-12.35c-6.809-6.809-17.89-6.809-24.701,0
		l-34.773,34.77H81.874c-10.572,0-19.173,8.601-19.173,19.173c0,6.006,2.782,11.37,7.118,14.888v220.929
		c-4.333,3.512-7.118,8.857-7.118,14.857c0,10.572,8.601,19.173,19.173,19.173h165.147c10.572,0,19.173-8.601,19.173-19.173
		C266.194,303.723,263.409,298.378,259.077,294.865z M247.022,313.862H81.874c-2.283,0-4.138-1.857-4.138-4.138
		c0-2.282,1.856-4.137,4.138-4.137h165.147c2.283,0,4.138,1.856,4.138,4.137C251.16,312.005,249.304,313.862,247.022,313.862z
		 M81.874,54.911h165.147c2.283,0,4.138,1.857,4.138,4.138s-1.856,4.137-4.138,4.137H81.874c-2.283,0-4.138-1.856-4.138-4.137
		S79.592,54.911,81.874,54.911z M229.201,15.739c0.949-0.95,2.51-0.968,3.441,0c1.217,1.268,0.619,2.819-0.001,3.438L211.94,39.877
		h-6.879L229.201,15.739z M84.854,253.383v-10.471h45.032c1.173,2.625,3.802,4.458,6.863,4.458h107.293v6.014H84.854z
		 M244.042,268.418v22.135H84.854v-22.135H244.042z M244.042,136.437v95.898h-99.776v-95.898H244.042z M244.042,100.355H84.854
		V78.221h159.189V100.355z M244.042,115.39v6.014H136.749c-3.062,0-5.691,1.832-6.863,4.457H84.854V115.39H244.042z
		 M129.232,140.895v10.471H84.854v-10.471H129.232z M129.232,166.4v10.469H84.854V166.4H129.232z M129.232,191.904v10.469H84.854
		v-10.469H129.232z M129.232,217.407v10.471H84.854v-10.471H129.232z"/>
</g>
<g>
</g>
<g>
</g>
<g>
</g>
<g>
</g>
<g>
</g>
<g>
</g>
<g>
</g>
<g>
</g>
<g>
</g>
<g>
</g>
<g>
</g>
<g>
</g>
<g>
</g>
<g>
</g>
<g>
</g>
</svg>
