<?xml version="1.0" encoding="iso-8859-1"?>
<!-- Generator: Adobe Illustrator 18.0.0, SVG Export Plug-In . SVG Version: 6.00 Build 0)  -->
<!DOCTYPE svg PUBLIC "-//W3C//DTD SVG 1.1//EN" "http://www.w3.org/Graphics/SVG/1.1/DTD/svg11.dtd">
<svg version="1.1" id="Capa_1" xmlns="http://www.w3.org/2000/svg" xmlns:xlink="http://www.w3.org/1999/xlink" x="0px" y="0px"
	 viewBox="0 0 398.857 398.857" style="enable-background:new 0 0 398.857 398.857;" xml:space="preserve">
<g>
	<g>
		<path style="fill:#EF8829;" d="M234.936,136.89c-0.084,2.213-1.046,29.054-3.753,62.054h-25.389c-4.154,0-7.521,0.529-7.521,4.684
			c0,4.154,3.367,7.316,7.521,7.316h24.083c-1.883,21-4.401,42-7.724,66h-16.277c-4.154,0-7.521,3.903-7.521,8.057
			c0,4.154,3.367,5.345,7.521,5.345l14.766,0.478c-4.501,26.332-9.765,56.314-18.41,75.579
			c-9.043-29.458-16.733-78.459-21.17-115.459h-7.774h19.733c4.154,0,7.52-2.346,7.52-6.5c0-4.154-3.367-6.5-7.52-6.5h-13.497
			c-2.143-21-4.228-58-5.245-72h18.652c4.154,0,7.521,2.9,7.521-2.367s-3.367-7.633-7.521-7.633h-19.557
			c-0.23-5-0.345-7.764-0.372-8.464c0.082-5.76,6.177-12.141,16.087-15.787c0.26-0.079,7.388-3.246,19.423-3.246
			c10.026,0,19.161,3.319,19.429,3.399C227.943,131.847,232.389,133.657,234.936,136.89z"/>
		<path style="fill:#EF8829;" d="M202.202,366.655c-0.441,1.227-0.886,2.437-1.337,3.625
			C201.317,369.096,201.761,367.882,202.202,366.655z"/>
	</g>
	<g>
		<path style="fill:#FFFFFF;" d="M199.426,19.931c1.356,0,2.46,1.104,2.46,2.46v-4.89c0-1.356-1.104-2.46-2.46-2.46
			c-1.355,0-2.458,1.104-2.458,2.46v4.89C196.968,21.034,198.071,19.931,199.426,19.931z"/>
		<path style="fill:#84BD93;" d="M237.596,51.082c-0.34-0.35-1.068-1.19-2.881,0.618c-8.747,8.719-13.228,21.256-18.301,32.587
			c-1.479,3.303-4.942,5.321-8.488,4.66c-3.556-0.669-6.222-3.774-6.222-7.392v-4.889V17.501c0-1.356-1.145-2.46-2.501-2.46
			c-1.355,0-2.499,1.104-2.499,2.46v59.165v4.889c0,3.618-2.443,6.723-5.999,7.392c-3.553,0.662-7.017-1.289-8.331-4.66
			c-4.655-11.942-10.781-22.908-18.271-32.591c-0.533-0.689-1.795-1.804-2.867-0.608c-0.072,0.081-0.121,0.172-0.186,0.256
			c-0.038-0.051-0.069-0.103-0.107-0.155c11.38,15.359,19.249,33.669,22.982,53.365c4.868-1.019,10.071-1.572,15.502-1.572
			c5.43,0,10.631,0.552,15.497,1.571c3.735-19.697,11.604-38.01,23.002-53.39c-0.043,0.058-0.083,0.117-0.125,0.175
			C237.733,51.253,237.673,51.162,237.596,51.082z"/>
	</g>
	<path style="fill:#3F2D20;" d="M248.413,35.74c-3.373-3.484-8.038-5.341-12.806-5.072c-4.994,0.274-9.534,2.736-12.787,6.935
		c-2.055,2.658-4.021,5.4-5.892,8.221V17.501C216.928,7.851,209.077,0,199.426,0c-9.65,0-17.5,7.851-17.5,17.501v28.324
		c-1.872-2.822-3.839-5.566-5.896-8.225c-3.249-4.196-7.79-6.658-12.785-6.932c-4.763-0.274-9.433,1.587-12.812,5.079
		c-6.411,6.645-7.089,16.883-1.592,24.37c10.441,14.091,17.52,31.034,20.665,49.289c-12.583,6.122-20.631,16.085-20.631,27.551
		c0,0.09,0.002,0.179,0.005,0.269c0.281,7.859,7.306,193.223,44.008,257.825c1.337,2.352,3.834,3.806,6.539,3.806
		c2.706,0,5.203-1.453,6.54-3.806c36.702-64.602,43.725-249.966,44.006-257.825c0.003-0.089,0.005-0.178,0.005-0.268
		c0-11.465-8.05-21.43-20.632-27.553c3.146-18.255,10.227-35.201,20.684-49.313C255.51,52.632,254.833,42.394,248.413,35.74z
		 M231.184,196.211h-25.389c-4.154,0-7.521,3.367-7.521,7.521c0,4.154,3.367,7.521,7.521,7.521h24.083
		c-1.883,20.554-4.401,43.454-7.724,66.151h-16.277c-4.154,0-7.521,3.367-7.521,7.521c0,4.154,3.367,7.521,7.521,7.521h13.946
		c-5.062,30.85-11.711,60.228-20.394,81.486c-12.462-30.514-20.738-77.759-26.139-122.083h19.733c4.154,0,7.521-3.367,7.521-7.521
		c0-4.154-3.367-7.521-7.521-7.521h-21.474c-2.747-25.031-4.587-48.333-5.771-66.154h27.156c4.154,0,7.521-3.367,7.521-7.521
		c0-4.154-3.367-7.521-7.521-7.521h-28.085c-0.614-10.798-0.886-17.643-0.93-18.771c0.082-5.76,6.177-11.918,16.086-15.564
		c0.261-0.079,7.389-3.251,19.424-3.251c10.026,0,19.161,3.173,19.429,3.253c9.905,3.647,15.997,9.804,16.08,15.562
		C234.852,139.053,233.891,163.197,231.184,196.211z M161.253,46.199c1.071-1.196,2.349-0.081,2.883,0.608
		c7.49,9.683,13.649,20.649,18.304,32.591c1.314,3.372,4.844,5.322,8.397,4.66c3.556-0.669,6.131-3.774,6.131-7.391V17.501
		c0-1.356,1.103-2.46,2.458-2.46c1.356,0,2.46,1.104,2.46,2.46v59.165c0,3.617,2.575,6.723,6.131,7.391
		c3.546,0.661,6.918-1.357,8.397-4.66c5.073-11.331,9.553-23.869,18.3-32.587c1.814-1.808,2.541-0.968,2.881-0.618
		c1.31,1.357,1.441,3.459,0.331,4.971c-11.398,15.38-19.267,33.693-23.002,53.39c-4.866-1.019-10.067-1.571-15.497-1.571
		c-5.431,0-10.633,0.552-15.501,1.572c-3.733-19.696-11.6-38.006-22.98-53.365C159.817,49.652,159.999,47.597,161.253,46.199z"/>
</g>
<g>
</g>
<g>
</g>
<g>
</g>
<g>
</g>
<g>
</g>
<g>
</g>
<g>
</g>
<g>
</g>
<g>
</g>
<g>
</g>
<g>
</g>
<g>
</g>
<g>
</g>
<g>
</g>
<g>
</g>
</svg>
