<?xml version="1.0" encoding="iso-8859-1"?>
<!-- Generator: Adobe Illustrator 19.0.0, SVG Export Plug-In . SVG Version: 6.00 Build 0)  -->
<svg version="1.1" id="Capa_1" xmlns="http://www.w3.org/2000/svg" xmlns:xlink="http://www.w3.org/1999/xlink" x="0px" y="0px"
	 viewBox="0 0 511.998 511.998" style="enable-background:new 0 0 511.998 511.998;" xml:space="preserve">
<path style="fill:#A5DC69;" d="M368.725,396.421c-14.404,0.393-30.896,5.757-37.627,13.217
	c-10.831,12.005-9.879,30.518,2.127,41.349h0.052c12.005,10.831,12.958,29.344,2.127,41.349
	c-10.831,12.005-29.344,12.958-41.349,2.127v-0.004c-20.526,10.042-45.306,1.542-55.347-18.984
	c-10.042-20.526-1.542-45.306,18.984-55.347l-0.009,0.009c-14.357,13.192-36.69,12.247-49.882-2.111
	c-13.192-14.357-12.247-36.69,2.111-49.882l-0.048,0.016c-31.541,13.31-67.899-1.47-81.209-33.011l-0.601-0.852
	c-22.719,9.976-49.224-0.355-59.201-23.074c-9.976-22.719,0.355-49.224,23.074-59.201l-13.887,6.412
	c-24.539,10.775-53.166-0.383-63.942-24.922s0.383-53.166,24.922-63.942l-2.011-2.853c-35.855-35.855-35.855-93.989,0-129.844
	s93.989-35.855,129.844,0l2.726,2.138c10.775-24.539,39.402-35.697,63.942-24.922s35.697,39.402,24.922,63.942l-6.412,13.887
	c9.976-22.719,36.481-33.05,59.201-23.074c22.719,9.976,33.05,36.481,23.074,59.2l0.852,0.601
	c31.541,13.31,46.32,49.668,33.011,81.209l-0.016,0.048c13.192-14.357,35.525-15.302,49.882-2.111
	c14.357,13.192,15.302,35.525,2.111,49.882l-0.009,0.009c10.042-20.527,34.821-29.026,55.347-18.984
	c20.527,10.042,29.026,34.821,18.984,55.347h0.004c10.831,12.005,9.879,30.518-2.127,41.349
	c-12.005,10.831-30.518,9.879-41.349-2.127v-0.052c-10.831-12.005-29.344-12.958-41.349-2.127
	c-8.598,7.757-13.647,23.433-11.841,36.117L368.725,396.421z"/>
<path style="fill:#D7FA91;" d="M493.847,458.717L97.039,98.904L458.808,493.93c9.903,10.814,26.965,10.754,36.792-0.129l0,0
	C504.79,483.624,504.006,467.928,493.847,458.717z"/>
<path d="M36.736,47.144c2.586,0,5.171-0.998,7.127-2.985l0.195-0.196c3.915-3.894,3.932-10.225,0.038-14.139
	c-3.894-3.916-10.224-3.932-14.139-0.039l-0.348,0.349c-3.873,3.936-3.821,10.266,0.114,14.139
	C31.673,46.188,34.205,47.144,36.736,47.144z"/>
<path d="M422.684,444.491c-2.629,0-5.199,1.07-7.068,2.929c-1.859,1.86-2.929,4.439-2.929,7.068c0,2.629,1.07,5.209,2.929,7.068
	c1.87,1.86,4.439,2.929,7.068,2.929c2.639,0,5.209-1.07,7.068-2.929c1.87-1.86,2.929-4.439,2.929-7.068
	c0-2.629-1.06-5.209-2.929-7.068C427.893,445.561,425.323,444.491,422.684,444.491z"/>
<path d="M500.564,451.31l-92.772-84.122c-0.001-0.46-0.023-0.922-0.089-1.39c-1.356-9.523,2.52-21.763,8.641-27.285
	c3.825-3.449,8.769-5.201,13.904-4.939c4.924,0.253,9.472,2.327,12.877,5.86c0.143,0.182,0.291,0.359,0.447,0.532
	c7.026,7.789,16.666,12.376,27.143,12.915c10.466,0.543,20.537-3.034,28.326-10.062c14.421-13.01,16.937-34.368,6.84-50.234
	c8.33-24.148-2.483-51.361-26.004-62.866c-12.325-6.03-26.263-6.9-39.242-2.447c-0.529,0.182-1.053,0.371-1.573,0.567
	c-1.376-10.525-6.353-20.142-14.263-27.409c-11.675-10.728-27.51-14.157-41.839-10.526c0.616-10.545-1.121-21.18-5.217-31.255
	c-6.187-15.22-17.121-27.602-31.223-35.548c2.708-10.915,1.993-22.373-2.176-33.066c-5.328-13.67-15.66-24.447-29.094-30.345
	c-13.433-5.898-28.358-6.213-42.03-0.885c-0.23,0.09-0.46,0.181-0.689,0.274c0.184-22.701-12.923-44.453-34.991-54.144
	c-25.416-11.16-54.553-2.731-70.466,18.645C139.486,0.643,101.231-6.29,67.111,6.1c-5.189,1.885-7.868,7.62-5.984,12.81
	c1.886,5.19,7.618,7.871,12.81,5.985c29.765-10.812,63.464-3.334,85.845,19.049c0.719,0.719,4.435,3.632,5.776,4.222
	c5.056,2.219,10.953-0.079,13.174-5.135c8.541-19.454,31.318-28.327,50.768-19.788c19.426,8.53,28.306,31.253,19.822,50.688
	l-5.603,12.136c-0.292,0.603-0.573,1.214-0.844,1.831c-2.206,5.022,0.048,10.884,5.049,13.136
	c5.004,2.254,10.885,0.054,13.183-4.926l0.68-1.471c3.856-7.909,10.448-13.988,18.695-17.202c8.692-3.39,18.186-3.189,26.728,0.563
	c17.636,7.744,25.682,28.392,17.939,46.027c-1.912,4.353-0.493,9.45,3.392,12.189l0.852,0.601c0.586,0.414,1.215,0.763,1.876,1.042
	c12.794,5.399,22.721,15.457,27.95,28.322s5.136,26.995-0.264,39.789c-0.104,0.248-0.215,0.547-0.3,0.803
	c-1.476,4.473,0.371,9.369,4.433,11.753c4.062,2.384,9.238,1.611,12.424-1.857c9.441-10.275,25.479-10.955,35.757-1.513
	c4.978,4.573,7.875,10.811,8.161,17.564c0.153,3.617-0.453,7.149-1.752,10.416c-2.535,3.08-4.728,6.481-6.525,10.156
	c-2.171,4.436-0.772,9.787,3.284,12.602c4.06,2.815,9.567,2.242,12.963-1.343c0.034-0.037,0.069-0.074,0.104-0.111
	c2.883-3.137,5.274-6.604,7.141-10.306c3.418-3.571,7.663-6.298,12.474-7.947c7.928-2.721,16.439-2.19,23.969,1.495
	c15.541,7.602,21.999,26.431,14.397,41.973c-1.517,3.098-1.326,6.76,0.501,9.686c0.34,0.544,0.727,1.048,1.154,1.509
	c7.021,7.895,6.364,20.034-1.494,27.123c-3.824,3.449-8.762,5.207-13.905,4.939c-4.924-0.253-9.472-2.328-12.877-5.861
	c-0.143-0.182-0.291-0.359-0.447-0.532c-7.026-7.789-16.666-12.375-27.143-12.914c-10.474-0.54-20.537,3.035-28.325,10.061
	c-6.88,6.207-11.932,15.918-14.194,26.26l-10.974-9.951c-7.324-9.701-11.184-20.98-11.764-32.331
	c3.875,1.306,7.97,1.989,12.164,1.989c0.308,0,0.617-0.003,0.926-0.011c10.178-0.241,19.656-4.436,26.688-11.81
	c3.811-3.996,3.661-10.325-0.335-14.135c-3.997-3.812-10.325-3.66-14.135,0.335c-3.347,3.509-7.854,5.505-12.692,5.62
	c-3.593,0.09-7.026-0.869-9.992-2.724c3.437-10.974,10.102-21.054,19.824-28.662c4.349-3.403,5.115-9.687,1.712-14.035
	c-3.404-4.348-9.686-5.116-14.035-1.712c-16.588,12.982-27.127,31.633-29.675,52.518c-0.667,5.472-0.751,10.924-0.299,16.293
	l-53.477-48.491c-0.049-0.065-0.089-0.134-0.14-0.198c-9.69-12.382-13.98-27.783-12.079-43.366
	c1.9-15.583,9.767-29.501,22.148-39.191c4.349-3.402,5.115-9.686,1.712-14.035c-3.403-4.348-9.687-5.115-14.035-1.712
	c-6.277,4.912-11.682,10.638-16.122,16.986c-7.171-9.953-6.486-23.943,2.281-33.135c3.811-3.996,3.661-10.325-0.335-14.135
	c-3.997-3.812-10.325-3.66-14.135,0.334c-17.504,18.353-16.813,47.526,1.54,65.03c0.313,0.299,0.645,0.564,0.984,0.814
	c-1.865,5.328-3.188,10.886-3.888,16.621c-0.683,5.6-0.75,11.179-0.261,16.669l-71.224-64.583
	c-19.717-25.526-15.143-62.347,10.295-82.254c4.349-3.402,5.115-9.686,1.712-14.035c-3.401-4.348-9.686-5.115-14.035-1.712
	c-21.788,17.051-32.137,43.364-29.883,69.065l-53.473-48.488c-3.957-3.587-10.035-3.432-13.804,0.354
	c-3.767,3.786-3.894,9.866-0.286,13.805l42.867,46.808c-5.378-0.455-10.839-0.372-16.319,0.296
	c-20.884,2.547-39.535,13.085-52.517,29.675c-3.403,4.349-2.637,10.632,1.712,14.035c1.829,1.432,3.999,2.125,6.155,2.125
	c2.969,0,5.909-1.317,7.88-3.836c9.69-12.382,23.609-20.249,39.192-22.149c15.585-1.901,30.983,2.389,43.366,12.08
	c0.04,0.031,0.083,0.056,0.124,0.087l64.382,70.3c-5.407-0.464-10.898-0.385-16.408,0.287c-5.425,0.662-10.695,1.875-15.759,3.58
	c-0.121-0.128-0.234-0.26-0.362-0.382c-8.895-8.484-20.522-12.988-32.834-12.706c-12.276,0.291-23.711,5.351-32.195,14.246
	c-3.811,3.996-3.661,10.325,0.335,14.135c1.937,1.847,4.419,2.763,6.898,2.763c2.639,0,5.272-1.038,7.236-3.097
	c4.799-5.032,11.263-7.893,18.199-8.057c4.597-0.097,9.007,0.978,12.922,3.09c-6.338,4.435-12.053,9.836-16.958,16.102
	c-3.403,4.348-2.637,10.632,1.712,14.035c1.829,1.432,3.999,2.125,6.155,2.125c2.969,0,5.909-1.317,7.88-3.836
	c19.986-25.536,57.022-30.055,82.557-10.069c0.114,0.089,0.234,0.164,0.351,0.247l48.937,53.436
	c-25.612-2.155-51.796,8.199-68.784,29.908c-3.403,4.349-2.637,10.632,1.712,14.035c1.829,1.432,3.999,2.125,6.155,2.125
	c2.969,0,5.909-1.317,7.88-3.836c7.798-9.964,18.197-16.711,29.491-20.069c2.89,3.215,4.534,7.298,4.637,11.658
	c0.114,4.838-1.666,9.436-5.013,12.945c-3.811,3.996-3.661,10.324,0.335,14.135c1.937,1.847,4.419,2.762,6.897,2.762
	c2.639,0,5.272-1.038,7.236-3.098c7.033-7.374,10.774-17.04,10.533-27.218c-0.111-4.685-1.069-9.217-2.78-13.435
	c10.935,0.921,21.726,4.892,31.015,12.097l14.892,16.26c-10.061,2.649-19.823,7.175-25.703,13.696
	c-14.507,16.079-13.226,40.963,2.853,55.469c0.171,0.154,0.347,0.302,0.527,0.443c7.439,7.175,7.9,19.054,0.926,26.785
	c-7.072,7.841-19.173,8.512-27.072,1.541c-0.475-0.447-0.996-0.851-1.562-1.204c-2.927-1.826-6.588-2.015-9.686-0.499
	c-7.528,3.682-16.04,4.214-23.968,1.495c-7.928-2.719-14.322-8.362-18.006-15.891c-6.145-12.561-3.104-27.269,6.493-36.462
	c3.687-1.864,7.14-4.249,10.266-7.12c0.041-0.038,0.092-0.085,0.132-0.123c3.578-3.399,4.141-8.901,1.324-12.954
	c-2.816-4.052-8.167-5.443-12.603-3.275c-3.692,1.807-7.071,4-10.113,6.509c-3.277,1.311-6.814,1.926-10.459,1.769
	c-6.754-0.286-12.991-3.184-17.564-8.162c-4.573-4.978-6.935-11.438-6.649-18.191s3.184-12.991,8.161-17.564
	c3.464-3.183,4.217-8.343,1.842-12.403c-2.375-4.06-7.282-5.911-11.757-4.447c-0.265,0.086-0.526,0.184-0.783,0.292
	c-12.797,5.4-26.926,5.493-39.789,0.263c-12.864-5.229-22.923-15.155-28.322-27.949c-0.278-0.66-0.627-1.288-1.039-1.874
	l-0.601-0.852c-2.74-3.887-7.84-5.307-12.191-3.394c-8.542,3.751-18.034,3.952-26.728,0.563
	c-8.693-3.388-15.548-9.959-19.299-18.502c-3.751-8.543-3.951-18.035-0.563-26.728c3.214-8.245,9.291-14.836,17.198-18.694
	l1.477-0.682c4.979-2.299,7.177-8.181,4.925-13.183c-2.254-5.001-8.115-7.254-13.136-5.049c-0.618,0.271-1.229,0.553-1.834,0.845
	l-12.135,5.603c-9.401,4.103-19.838,4.312-29.4,0.584c-9.59-3.737-17.148-10.985-21.286-20.409
	c-8.541-19.452,0.336-42.226,19.788-50.768c5.056-2.221,7.354-8.118,5.135-13.174c-0.522-1.189-1.253-2.219-2.124-3.079
	c-0.479-1.021-1.129-1.981-1.972-2.823c-22.637-22.636-30-56.64-18.76-86.628c1.938-5.17-0.683-10.933-5.853-12.871
	c-5.172-1.939-10.933,0.683-12.871,5.853c-12.898,34.411-6.093,73.062,17.135,100.96C2.249,182.85-6.241,212.059,4.942,237.532
	c6.285,14.313,17.767,25.322,32.333,30.999c7.064,2.753,14.47,4.098,21.798,4.024c-0.089,0.219-0.176,0.438-0.261,0.658
	c-5.328,13.669-5.015,28.596,0.885,42.029c5.899,13.434,16.676,23.766,30.345,29.094c10.692,4.167,22.154,4.883,33.065,2.175
	c7.945,14.102,20.33,25.038,35.549,31.224c10.065,4.091,20.682,5.831,31.225,5.219c-0.759,3.002-1.214,6.106-1.348,9.272
	c-0.512,12.089,3.716,23.655,11.903,32.565c7.272,7.916,16.898,12.895,27.433,14.267c-4.867,12.823-4.633,27.548,1.855,40.811
	c6.03,12.326,16.499,21.566,29.479,26.018c10.965,3.761,22.612,3.724,33.391-0.012c6.425,4.088,13.745,6.108,21.05,6.107
	c10.738,0,21.438-4.367,29.181-12.948c14.507-16.08,13.226-40.963-2.853-55.469c-0.171-0.154-0.347-0.302-0.527-0.443
	c-7.44-7.175-7.9-19.054-0.926-26.786c3.681-4.08,14.893-8.608,26.793-9.688l25.992,28.382c3.729,4.072,10.054,4.35,14.126,0.621
	c4.072-3.729,4.35-10.053,0.621-14.125L249.873,250.984l113.305,102.742c0.425,0.463,0.882,0.878,1.371,1.243l122.583,111.155
	c6.061,5.496,6.531,14.906,1.047,20.977c-2.841,3.146-6.742,4.888-10.982,4.903c-0.019,0-0.036,0-0.055,0
	c-4.219,0-8.11-1.713-10.962-4.827l-14.641-15.987c-3.729-4.072-10.055-4.35-14.126-0.621c-4.072,3.729-4.35,10.053-0.621,14.125
	l14.641,15.987c6.592,7.196,15.957,11.318,25.712,11.318c0.04,0,0.081,0,0.121,0c9.799-0.035,19.185-4.225,25.752-11.497
	C515.877,486.265,514.776,464.197,500.564,451.31z"/>
<g>
</g>
<g>
</g>
<g>
</g>
<g>
</g>
<g>
</g>
<g>
</g>
<g>
</g>
<g>
</g>
<g>
</g>
<g>
</g>
<g>
</g>
<g>
</g>
<g>
</g>
<g>
</g>
<g>
</g>
</svg>
