<?xml version="1.0" encoding="iso-8859-1"?>
<!-- Generator: Adobe Illustrator 18.0.0, SVG Export Plug-In . SVG Version: 6.00 Build 0)  -->
<!DOCTYPE svg PUBLIC "-//W3C//DTD SVG 1.1//EN" "http://www.w3.org/Graphics/SVG/1.1/DTD/svg11.dtd">
<svg version="1.1" id="Capa_1" xmlns="http://www.w3.org/2000/svg" xmlns:xlink="http://www.w3.org/1999/xlink" x="0px" y="0px"
	 viewBox="0 0 387.798 387.798" style="enable-background:new 0 0 387.798 387.798;" xml:space="preserve">
<g>
	<g>
		<path style="fill:#EF8829;" d="M196.507,242.974c2.707-6.991,7.228-14.283,9.861-22.245l0.603-1.329h-21.873
			c4.359,8,7.853,15.841,10.826,22.976C195.923,242.379,196.508,242.97,196.507,242.974z"/>
		<g>
			<path style="fill:#EF8829;" d="M211.727,172.693c0.052,1.731,0.098,3.391,0.14,5
				C211.825,176.085,211.779,174.424,211.727,172.693z"/>
			<path style="fill:#EF8829;" d="M211.87,176.4h-31.255c-0.272,12-0.401,22-0.462,24h32.081
				C212.214,198.4,212.137,188.4,211.87,176.4z"/>
		</g>
		<path style="fill:#EF8829;" d="M202.378,63.4h-11.49c-1.077,5-2.043,11-2.916,19h17.104C204.028,74.4,202.078,61.4,202.378,63.4z"
			/>
		<path style="fill:#EF8829;" d="M210.299,140.4h-27.951c-0.384,5-0.7,10-0.963,18h29.8C210.948,150.4,210.655,145.4,210.299,140.4z
			"/>
		<path style="fill:#EF8829;" d="M207.361,101.4h-21.875c-0.633,7-1.171,12-1.664,18h25.129
			C208.494,113.4,207.952,108.4,207.361,101.4z"/>
		<path style="fill:#EF8829;" d="M170.198,63.4h-5.127c-0.264,0-0.488,0.337-0.78,0.835c-2.092,5.41-4.049,10.165-5.865,18.165
			h9.222C168.678,74.4,170.236,64.4,170.198,63.4z"/>
		<path style="fill:#EF8829;" d="M160.843,177.494c-0.003,0.107-0.006-0.309-0.009-0.309l-9.686,0.509
			c2.772,2.633,7.059,8.259,9.695,11.011c-0.011,0.608-0.196-1.882-0.205-1.304C160.685,184.482,160.752,181.14,160.843,177.494z"/>
		<path style="fill:#EF8829;" d="M146.615,140.4c-0.689,5-1.281,10-1.771,18h16.68c0.228-5,0.507-13,0.848-18H146.615z"/>
		<path style="fill:#EF8829;" d="M153.053,103.4c-1.237,5-2.366,10-3.385,16h14.1c0.442-6,0.966-11,1.536-16H153.053z"/>
		<g>
			<path style="fill:#EF8829;" d="M236.078,178.4h-4.911c0.051,1,0.095,3.335,0.136,4.94c-0.001,0.001-0.002-0.023-0.003-0.022
				c1.567-1.728,3.164-3.347,4.781-4.96C236.08,178.359,236.079,178.4,236.078,178.4z"/>
			<path style="fill:#EF8829;" d="M238.898,175.554c1.034-0.971,2.072-1.936,3.126-2.861
				C240.969,173.618,239.929,174.576,238.898,175.554z"/>
		</g>
		<path style="fill:#EF8829;" d="M248.578,140.4h-19.137c0.376,5,0.686,10,0.945,18h19.506c0.101,0,0.2-0.277,0.299-0.273
			C249.766,152.221,249.205,145.4,248.578,140.4z"/>
		<path style="fill:#EF8829;" d="M242.676,103.4h-16.393c0.621,5,1.149,10,1.634,16h17.951
			C244.925,113.4,243.836,108.4,242.676,103.4z"/>
		<g>
			<path style="fill:#EF8829;" d="M232.375,63.4h-11.423c1.027,5,1.954,11,2.793,19h14.064C236.134,74.4,234.318,68.4,232.375,63.4z
				"/>
		</g>
		<g>
			<path style="fill:#FDD44B;" d="M167.068,348.289c0.196,0.041,0.388,0.083,0.586,0.123
				C167.456,348.372,167.263,348.33,167.068,348.289z"/>
			<path style="fill:#FDD44B;" d="M194.405,350.732c-7.607,0-15.701-0.463-20.701-1.327v12.34c0,6.072,4.692,10.655,10.764,10.655
				h30.459c6.072,0,11.776-4.583,11.776-10.655v-14.694C216.704,349.439,207.267,350.732,194.405,350.732z"/>
		</g>
		<g>
			<g>
				<path style="fill:#FDD44B;" d="M200.818,277.862c0.033-0.078,0.073-0.153,0.104-0.233
					C200.891,277.709,200.851,277.783,200.818,277.862z"/>
				<path style="fill:#FDD44B;" d="M199.653,279.773c-0.02,0.024-0.04,0.047-0.06,0.07
					C199.614,279.82,199.634,279.797,199.653,279.773z"/>
				<path style="fill:#FDD44B;" d="M200.281,278.902c0.035-0.056,0.071-0.109,0.105-0.166
					C200.353,278.792,200.316,278.846,200.281,278.902z"/>
			</g>
			<g>
				<path style="fill:#FDD44B;" d="M174.006,239.135c0.039,0.089,0.076,0.177,0.115,0.266
					C174.082,239.312,174.045,239.224,174.006,239.135z"/>
				<path style="fill:#FDD44B;" d="M177.117,246.617c0.023,0.059,0.045,0.116,0.068,0.175
					C177.162,246.733,177.14,246.676,177.117,246.617z"/>
				<path style="fill:#FDD44B;" d="M175.096,241.671c0.037,0.087,0.072,0.173,0.108,0.26
					C175.168,241.844,175.134,241.759,175.096,241.671z"/>
				<path style="fill:#FDD44B;" d="M176.136,244.174c0.027,0.065,0.052,0.128,0.078,0.192
					C176.188,244.302,176.162,244.239,176.136,244.174z"/>
				<path style="fill:#FDD44B;" d="M178.918,251.33c0.017,0.046,0.033,0.091,0.05,0.136
					C178.951,251.421,178.935,251.376,178.918,251.33z"/>
				<path style="fill:#FDD44B;" d="M178.047,249.012c0.016,0.041,0.031,0.082,0.046,0.123
					C178.078,249.094,178.063,249.054,178.047,249.012z"/>
				<path style="fill:#FDD44B;" d="M181.235,257.898c0.003,0.01,0.007,0.02,0.01,0.03
					C181.242,257.918,181.238,257.908,181.235,257.898z"/>
				<path style="fill:#FDD44B;" d="M179.745,253.603c0.008,0.022,0.015,0.043,0.023,0.065
					C179.76,253.646,179.753,253.625,179.745,253.603z"/>
				<path style="fill:#FDD44B;" d="M167.695,225.969c0.007,0.014,0.014,0.028,0.021,0.041
					C167.71,225.997,167.703,225.983,167.695,225.969z"/>
				<path style="fill:#FDD44B;" d="M186.938,277.777c-0.15-0.371-0.273-0.757-0.364-1.16
					C186.665,277.015,186.785,277.403,186.938,277.777z"/>
				<path style="fill:#FDD44B;" d="M172.858,236.557c0.042,0.093,0.083,0.185,0.125,0.278
					C172.941,236.742,172.901,236.65,172.858,236.557z"/>
				<path style="fill:#FDD44B;" d="M188.048,279.64c0.083,0.103,0.167,0.204,0.256,0.303
					C188.216,279.845,188.131,279.743,188.048,279.64z"/>
				<path style="fill:#FDD44B;" d="M187.535,278.927c-0.099-0.159-0.186-0.327-0.273-0.495
					C187.35,278.6,187.435,278.768,187.535,278.927z"/>
				<path style="fill:#FDD44B;" d="M169.071,228.64c0.044,0.088,0.086,0.175,0.13,0.262
					C169.157,228.815,169.115,228.728,169.071,228.64z"/>
				<path style="fill:#FDD44B;" d="M171.649,233.934c0.057,0.122,0.111,0.241,0.168,0.363
					C171.76,234.176,171.706,234.056,171.649,233.934z"/>
				<path style="fill:#FDD44B;" d="M170.388,231.296c0.058,0.12,0.114,0.239,0.172,0.359
					C170.502,231.535,170.446,231.416,170.388,231.296z"/>
			</g>
			<g>
				<path style="fill:#FDD44B;" d="M109.48,194.808c-0.306-0.731-0.611-1.454-0.917-2.165
					C108.868,193.353,109.174,194.077,109.48,194.808z"/>
				<path style="fill:#FDD44B;" d="M113.289,204.388c-0.295-0.781-0.589-1.544-0.884-2.306
					C112.7,202.844,112.995,203.607,113.289,204.388z"/>
				<path style="fill:#FDD44B;" d="M107.596,190.421c-0.312-0.71-0.624-1.415-0.935-2.104
					C106.972,189.006,107.284,189.712,107.596,190.421z"/>
				<path style="fill:#FDD44B;" d="M103.922,182.461c-0.333-0.687-0.665-1.377-0.995-2.041
					C103.257,181.083,103.59,181.775,103.922,182.461z"/>
				<path style="fill:#FDD44B;" d="M94.492,165.15c-0.001-0.001-0.001-0.001-0.001-0.002c1.895,3.064,3.926,6.598,6.039,10.598
					C98.416,171.744,96.386,168.214,94.492,165.15z"/>
				<path style="fill:#FDD44B;" d="M102.155,178.892c-0.351-0.692-0.702-1.391-1.049-2.057
					C101.453,177.501,101.805,178.2,102.155,178.892z"/>
				<path style="fill:#FDD44B;" d="M105.74,186.306c-0.322-0.696-0.643-1.393-0.963-2.068
					C105.097,184.912,105.419,185.61,105.74,186.306z"/>
				<path style="fill:#FDD44B;" d="M111.379,199.459c-0.299-0.752-0.598-1.491-0.897-2.224
					C110.781,197.967,111.08,198.707,111.379,199.459z"/>
				<path style="fill:#FDD44B;" d="M198.469,335.614c-1.474,0.049-2.994,0.076-4.571,0.076
					C195.475,335.691,196.996,335.663,198.469,335.614z"/>
				<path style="fill:#FDD44B;" d="M293.207,165.307c-23.121,7.817-42.853,25.389-58.879,52.537
					c-16.785,28.431-23.07,57.283-23.345,58.576c-0.003,0.016-0.007-0.01-0.01,0.006c-0.001,0.003-0.004-0.025-0.004-0.025h-0.001
					c-0.589,3-2.817,5.266-5.852,5.89c-2.354,0.484-4.672-0.174-6.375-1.616c0,0,0.002,0.009,0.002,0.008
					c-0.93,0.789-2.053,1.381-3.332,1.644c-2.393,0.492-4.737-0.232-6.446-1.724c0.032,0.028,0.058,0.064,0.091,0.092
					c-1.702,1.442-4.021,2.08-6.375,1.596c-3.035-0.624-5.262-2.889-5.852-5.889h-0.001c0,0-0.003,0.028-0.004,0.025
					c-0.003-0.016-0.007-0.011-0.01-0.026c-0.275-1.293-6.56-30.134-23.345-58.565c-12.927-21.898-28.269-37.551-45.852-46.894
					c7.607,13.463,16.688,33.519,24.772,62.161c4.232,14.995,6.642,29.022,8.767,41.397c4.729,27.531,7.87,45.795,25.432,54.745
					c0.465,0.169,8.63,5.654,31.911,6.371c21.364-0.713,31.946-6.202,32.411-6.371c17.562-8.95,20.705-27.214,25.434-54.745
					c2.125-12.375,4.534-26.4,8.766-41.395c9.336-33.078,20.003-54.705,28.191-67.947
					C293.27,165.208,293.239,165.254,293.207,165.307z"/>
				<path style="fill:#FDD44B;" d="M142.367,315.247c-1.687-2.987-3.078-6.3-4.279-9.94
					C139.289,308.946,140.68,312.26,142.367,315.247z"/>
				<path style="fill:#FDD44B;" d="M115.198,209.581c-0.288-0.805-0.576-1.587-0.864-2.374
					C114.622,207.993,114.91,208.777,115.198,209.581z"/>
				<path style="fill:#FDD44B;" d="M117.096,215.039c-0.275-0.813-0.551-1.6-0.827-2.396
					C116.545,213.439,116.821,214.226,117.096,215.039z"/>
				<path style="fill:#FDD44B;" d="M118.981,220.773c-0.251-0.787-0.504-1.543-0.756-2.315
					C118.477,219.229,118.73,219.986,118.981,220.773z"/>
				<path style="fill:#FDD44B;" d="M120.848,226.798c-0.208-0.693-0.419-1.353-0.628-2.035
					C120.429,225.445,120.64,226.105,120.848,226.798z"/>
			</g>
		</g>
	</g>
	<path style="fill:#3F2D20;" d="M318.702,150.335c-1.136-2.87-3.91-4.752-6.993-4.752c-0.023,0-0.047,0-0.072,0
		c-16.576,0.157-32.136,3.96-46.43,11.246C259.72,80.569,235.334,0,193.898,0c-41.435,0-65.822,80.569-71.31,156.828
		c-14.293-7.286-29.853-11.088-46.429-11.246c-0.024,0-0.048,0-0.071,0c-3.083,0-5.857,1.882-6.993,4.752
		c-1.145,2.893-0.391,6.192,1.898,8.3c0.202,0.187,20.524,19.412,37.217,78.553c4.018,14.234,6.355,27.847,8.419,39.857
		c4.721,27.485,8.785,51.11,30.187,63.782v20.918c0,14.365,11.687,26.052,26.054,26.052h42.058
		c14.366,0,26.053-11.688,26.053-26.052v-20.918c21.403-12.673,25.467-36.3,30.188-63.785c2.062-12.01,4.401-25.62,8.418-39.855
		c16.496-58.443,37.049-78.393,37.218-78.553C319.093,156.527,319.847,153.228,318.702,150.335z M214.928,372.756H172.87
		c-6.072,0-11.013-4.939-11.013-11.011V347.05c8.661,2.389,19.179,3.682,32.041,3.682c12.863,0,23.38-1.293,32.042-3.682v14.695
		C225.94,367.817,221,372.756,214.928,372.756z M193.898,335.691c-27.209,0-36.516-6.268-37.013-6.449
		c-17.562-8.95-20.703-27.214-25.432-54.745c-2.126-12.375-4.535-26.4-8.767-41.395c-10.052-35.616-21.651-57.973-30.033-70.862
		c28.197,5.364,51.867,24.003,70.522,55.603c17.087,28.944,23.298,58.346,23.358,58.639c0.838,4.065,4.813,6.685,8.879,5.848
		c3.035-0.624,5.263-2.996,5.852-5.848h0.001c0,0,0.003-0.014,0.004-0.017c0.003-0.016,0.007-0.031,0.01-0.047
		c0.275-1.293,6.56-30.145,23.345-58.576c18.655-31.6,42.325-50.239,70.523-55.603c-8.383,12.889-19.982,35.246-30.034,70.862
		c-4.232,14.994-6.641,29.019-8.766,41.395c-4.729,27.532-7.871,45.795-25.434,54.746
		C230.414,329.423,218.351,335.691,193.898,335.691z M167.648,81.516h-17.66c2.262-8.249,4.775-15.974,7.518-23.068
		c0.256,0.026,0.516,0.04,0.779,0.04h12.919C169.855,65.893,168.678,73.632,167.648,81.516z M206.855,96.557
		c0.816,7.677,1.508,15.414,2.096,23.026h-30.102c0.587-7.613,1.28-15.35,2.096-23.026H206.855z M182.723,81.516
		c1.047-7.968,2.247-15.718,3.622-23.027h15.108c1.375,7.309,2.575,15.059,3.622,23.027H182.723z M209.995,134.625
		c0.499,8.071,0.888,15.826,1.19,23.026h-34.57c0.303-7.201,0.69-14.955,1.191-23.026H209.995z M211.727,172.693
		c0.386,12.858,0.484,22.5,0.507,26.714h-36.669c0.023-4.214,0.121-13.856,0.508-26.714H211.727z M226.809,172.693h15.214
		c-5.193,4.559-10.153,9.678-14.862,15.349C227.092,183.724,226.981,178.543,226.809,172.693z M193.898,248.424
		c-3.549-9.895-8.549-21.8-15.337-33.975h30.674C202.447,226.623,197.447,238.528,193.898,248.424z M160.638,188.044
		c-4.709-5.672-9.67-10.79-14.863-15.351h15.215C160.818,178.543,160.707,183.726,160.638,188.044z M249.891,157.652h-23.616
		c-0.3-7.186-0.688-14.937-1.192-23.026h22.884c0.916,7.517,1.661,15.212,2.224,23.042
		C250.09,157.664,249.992,157.652,249.891,157.652z M224.031,119.584c-0.589-7.581-1.285-15.312-2.106-23.026h19.604
		c1.636,7.376,3.086,15.074,4.339,23.026H224.031z M220.15,81.516c-1.03-7.884-2.208-15.623-3.556-23.027h12.92
		c0.261,0,0.521-0.014,0.777-0.04c2.742,7.094,5.256,14.818,7.517,23.068H220.15z M213.492,43.447
		c-2.018-8.634-4.333-16.502-6.984-23.237c5.899,4.736,11.74,12.627,17.146,23.237H213.492z M198.198,43.447h-8.599
		c1.308-5.224,2.737-10.063,4.299-14.394 M181.289,20.209c-2.651,6.735-4.966,14.604-6.983,23.238h-10.164
		C169.548,32.836,175.39,24.945,181.289,20.209z M165.874,96.557c-0.822,7.715-1.518,15.445-2.106,23.026h-21.839
		c1.254-7.953,2.703-15.651,4.339-23.026H165.874z M162.716,134.625c-0.503,8.09-0.892,15.841-1.192,23.026h-23.915
		c0.562-7.824,1.307-15.515,2.222-23.026H162.716z"/>
</g>
<g>
</g>
<g>
</g>
<g>
</g>
<g>
</g>
<g>
</g>
<g>
</g>
<g>
</g>
<g>
</g>
<g>
</g>
<g>
</g>
<g>
</g>
<g>
</g>
<g>
</g>
<g>
</g>
<g>
</g>
</svg>
