<?xml version="1.0" encoding="iso-8859-1"?>
<!-- Generator: Adobe Illustrator 18.0.0, SVG Export Plug-In . SVG Version: 6.00 Build 0)  -->
<!DOCTYPE svg PUBLIC "-//W3C//DTD SVG 1.1//EN" "http://www.w3.org/Graphics/SVG/1.1/DTD/svg11.dtd">
<svg version="1.1" id="Capa_1" xmlns="http://www.w3.org/2000/svg" xmlns:xlink="http://www.w3.org/1999/xlink" x="0px" y="0px"
	 viewBox="0 0 297.5 297.5" style="enable-background:new 0 0 297.5 297.5;" xml:space="preserve">
<g id="XMLID_46_">
	<g>
		<path style="fill:#D5BA2F;" d="M278.51,170.21v12.18h-6.09c-3.54,0-6.79,2.01-8.38,5.18l-12.86,25.74h-19.34l-12.87-25.74
			c-1.59-3.17-4.83-5.18-8.38-5.18h-30.92c-3.55,0-6.79,2.01-8.38,5.18l-12.87,25.74h-19.34l-12.86-25.74
			c-1.59-3.17-4.84-5.18-8.38-5.18H86.92c-3.55,0-6.8,2.01-8.38,5.18l-12.87,25.74H46.33l-12.87-25.74
			c-1.59-3.17-4.83-5.18-8.38-5.18h-6.09v-12.18H278.51z"/>
		<path d="M297.25,160.85v30.91c0,5.18-4.19,9.37-9.37,9.37h-9.66l-12.87,25.74c-1.59,3.18-4.83,5.18-8.38,5.18h-30.92
			c-3.55,0-6.79-2-8.38-5.18l-12.87-25.74h-19.34l-12.87,25.74c-1.59,3.18-4.83,5.18-8.38,5.18h-30.92c-3.55,0-6.79-2-8.38-5.18
			l-12.87-25.74H92.71l-12.87,25.74c-1.59,3.18-4.83,5.18-8.38,5.18H40.54c-3.55,0-6.79-2-8.38-5.18l-12.87-25.74H9.62
			c-5.17,0-9.37-4.19-9.37-9.37v-30.91c0-5.18,4.2-9.37,9.37-9.37h10.5c-2.82-5.89-4.41-12.47-4.41-19.42
			c0-31.5,18.54-66.61,45.15-66.61c22.66,0,39.46,25.48,43.94,52.5c4.49-27.02,21.29-52.5,43.95-52.5
			c22.67,0,39.47,25.48,43.95,52.5c4.49-27.02,21.29-52.5,43.95-52.5c26.6,0,45.14,35.11,45.14,66.61c0,6.95-1.59,13.53-4.41,19.42
			h10.5C293.06,151.48,297.25,155.67,297.25,160.85z M278.51,182.39v-12.18H18.99v12.18h6.09c3.55,0,6.79,2.01,8.38,5.18
			l12.87,25.74h19.34l12.87-25.74c1.58-3.17,4.83-5.18,8.38-5.18h30.92c3.54,0,6.79,2.01,8.38,5.18l12.86,25.74h19.34l12.87-25.74
			c1.59-3.17,4.83-5.18,8.38-5.18h30.92c3.55,0,6.79,2.01,8.38,5.18l12.87,25.74h19.34l12.86-25.74c1.59-3.17,4.84-5.18,8.38-5.18
			H278.51z M254.52,151.48c5.25-4.83,8.54-11.75,8.54-19.42c0-23.71-13.33-47.87-26.41-47.87c-13.08,0-26.41,24.16-26.41,47.87
			c0,7.67,3.29,14.59,8.53,19.42H254.52z M189.49,151.48h6.42c-1.38-2.89-2.46-5.95-3.21-9.14
			C191.96,145.53,190.87,148.59,189.49,151.48z M166.63,151.48c5.24-4.83,8.53-11.75,8.53-19.42c0-23.71-13.33-47.87-26.41-47.87
			s-26.4,24.16-26.4,47.87c0,7.67,3.29,14.59,8.53,19.42H166.63z M101.6,151.48h6.42c-1.38-2.89-2.47-5.95-3.21-9.14
			C104.06,145.53,102.98,148.59,101.6,151.48z M78.73,151.48c5.24-4.83,8.53-11.75,8.53-19.42c0-23.71-13.32-47.87-26.4-47.87
			s-26.41,24.16-26.41,47.87c0,7.67,3.29,14.59,8.53,19.42H78.73z"/>
	</g>
	<g>
	</g>
</g>
<g>
</g>
<g>
</g>
<g>
</g>
<g>
</g>
<g>
</g>
<g>
</g>
<g>
</g>
<g>
</g>
<g>
</g>
<g>
</g>
<g>
</g>
<g>
</g>
<g>
</g>
<g>
</g>
<g>
</g>
</svg>
