<?xml version="1.0" encoding="iso-8859-1"?>
<!-- Generator: Adobe Illustrator 19.0.0, SVG Export Plug-In . SVG Version: 6.00 Build 0)  -->
<svg version="1.1" id="Capa_1" xmlns="http://www.w3.org/2000/svg" xmlns:xlink="http://www.w3.org/1999/xlink" x="0px" y="0px"
	 viewBox="0 0 512 512" style="enable-background:new 0 0 512 512;" xml:space="preserve">
<path style="fill:#248A48;" d="M261.879,496.39c-29.322,0-53.177-23.851-53.177-53.167V68.777c0-29.316,23.855-53.167,53.177-53.167
	c14.201,0,27.551,5.529,37.589,15.567c10.044,10.044,15.577,23.398,15.577,37.6v374.447
	C315.045,472.54,291.195,496.39,261.879,496.39z"/>
<g>
	<path style="fill:#44C973;" d="M258.751,496.39V15.61h3.122c14.206,0,27.555,5.529,37.595,15.567
		c10.044,10.044,15.577,23.398,15.577,37.6v374.447c0,29.316-23.851,53.167-53.167,53.167H258.751z"/>
	<path style="fill:#44C973;" d="M28.253,19.515l45.306,26.744L97.102,3.991l23.544,42.268l45.305-26.744l-35.248,88.847
		l-3.299-2.656c-8.246-6.641-18.441-10.008-30.302-10.008c-11.861,0-22.057,3.367-30.302,10.008l-3.299,2.656L28.253,19.515z"/>
</g>
<path style="fill:#FF7D46;" d="M97.102,504.715c-9.192,0-17.699-11.099-26.008-33.929c-7.071-19.431-13.972-47.171-20.509-82.45
	c-4.999-26.92-9.654-57.49-13.838-90.862c-5.485-43.703-7.284-80.918-5.346-110.61c2.776-42.528,13.369-71.471,31.485-86.023
	c9.38-7.555,20.893-11.386,34.216-11.386c13.321,0,24.834,3.832,34.219,11.388c28.365,22.796,37.903,78.233,29.154,169.473
	c-0.804,8.457-1.792,17.341-3.018,27.158c-7.391,58.916-16.194,108.765-25.454,144.155
	C120.892,484.079,109.476,504.715,97.102,504.715z"/>
<path style="fill:#44C973;" d="M380.601,320.13l-0.124-0.284l-33.616-86.023l45.24,26.718l23.544-42.28l23.544,42.28l45.24-26.718
	l-33.698,86.235l-1.732,3.041l-2.806-1.678c-9.118-5.777-19.681-8.829-30.547-8.829c-10.857,0-21.421,3.054-30.548,8.83
	l-2.764,1.749L380.601,320.13z"/>
<path style="fill:#FF4F4F;" d="M412.523,457.595c0-14.057-9.892-19.858-22.416-27.203c-16.904-9.913-37.942-22.251-37.942-60.566
	c0-21.904,11.063-41.973,29.594-53.683c10.127-6.408,21.845-9.797,33.887-9.797c12.052,0,23.771,3.388,33.889,9.799
	c18.529,11.722,29.591,31.79,29.591,53.681c0,38.315-21.038,50.653-37.942,60.566c-12.523,7.345-22.416,13.145-22.416,27.203
	L412.523,457.595L412.523,457.595z"/>
<path style="fill:#FBDF97;" d="M457.271,134.712c-6.518,0-12.645-2.876-16.813-7.89c-5.736-6.889-14.28-10.841-23.439-10.841h-2.758
	c-9.16,0-17.704,3.952-23.44,10.844c-4.167,5.012-10.292,7.888-16.802,7.888c-11.801,0-21.39-9.227-21.831-21.009l-0.001-0.175
	c0.312-16.697,7.051-32.342,18.976-44.057c11.94-11.729,27.736-18.19,44.481-18.19c16.74,0,32.536,6.459,44.477,18.19
	c11.927,11.715,18.667,27.361,18.98,44.056l-0.001,0.176C478.66,125.485,469.071,134.712,457.271,134.712z"/>
<path d="M29.52,298.38c4.2,33.513,8.878,64.228,13.902,91.284c0.004,0.02,0.007,0.038,0.011,0.058
	c0.014,0.072,0.026,0.145,0.041,0.216c6.596,35.541,13.585,63.582,20.775,83.339C70.81,491.306,80.473,512,97.102,512
	c16.831,0,29.377-20.493,41.947-68.528c9.342-35.694,18.206-85.867,25.636-145.098c1.23-9.854,2.223-18.779,3.032-27.276
	c0.001-0.012,0.002-0.025,0.004-0.037c0.002-0.017,0.003-0.034,0.005-0.051c8.404-87.652-0.126-143.599-26.058-170.533
	l27.692-69.801c1.64-4.135,0.471-8.855-2.909-11.746c-3.38-2.889-8.222-3.314-12.054-1.053l-31.022,18.312L106.194,5.343
	C104.356,2.045,100.877,0,97.102,0c-3.775,0-7.254,2.045-9.091,5.343L70.829,36.189L39.807,17.877
	c-3.83-2.262-8.675-1.839-12.054,1.053c-3.38,2.892-4.549,7.611-2.909,11.746l27.688,69.787
	c-16.427,16.99-25.74,45.214-28.399,85.925C22.165,216.541,23.978,254.22,29.52,298.38z M147.851,259.611h-38.605
	c-5.746,0-10.407,4.66-10.407,10.406c0,5.746,4.66,10.406,10.407,10.406h36.591c-0.536,4.896-1.133,9.985-1.804,15.366
	c-6.919,55.158-15.115,102.487-23.703,136.874c-11.776,47.152-20.876,56.54-23.231,58.257c-2.867-2.073-15.52-15.293-30.854-92.747
	h23.574c5.746,0,10.407-4.66,10.407-10.407c0-5.746-4.66-10.406-10.407-10.406H62.343c-4.369-24.543-8.457-51.927-12.172-81.571
	c-4.791-38.177-6.712-71.175-5.746-98.316h20.419c5.746,0,10.407-4.66,10.407-10.407s-4.66-10.406-10.407-10.406H45.841
	c3.406-32.443,11.966-54.374,25.505-65.261c0.021-0.017,0.042-0.032,0.062-0.049c7.008-5.629,15.413-8.367,25.695-8.367
	c10.281,0,18.684,2.738,25.701,8.372c0.018,0.015,0.035,0.028,0.053,0.042C138.987,124.373,156.106,160.705,147.851,259.611z
	 M69.438,59.537c2.415,1.425,5.305,1.816,8.012,1.082c2.707-0.734,5.004-2.53,6.369-4.98l13.283-23.847l13.283,23.847
	c1.365,2.45,3.662,4.246,6.369,4.98c2.708,0.735,5.597,0.343,8.013-1.082l14.039-8.289L124.262,87.91
	c-8.117-3.807-17.202-5.74-27.16-5.74c-9.959,0-19.044,1.934-27.161,5.74L55.396,51.248L69.438,59.537z"/>
<path d="M261.879,8.325c-33.339,0-60.463,27.118-60.463,60.451v374.447c0,33.333,27.122,60.451,60.463,60.451
	c33.333,0,60.451-27.118,60.451-60.451V68.777c0-16.148-6.29-31.33-17.711-42.751C293.205,14.612,278.026,8.325,261.879,8.325z
	 M222.229,443.223V68.777c0-18.256,12.414-33.661,29.243-38.243v450.934C234.643,476.884,222.229,461.481,222.229,443.223z
	 M301.517,443.223c0,18.255-12.409,33.659-29.232,38.243V30.522c6.601,1.784,12.654,5.257,17.617,10.221
	c7.49,7.49,11.615,17.445,11.615,28.033V443.223z"/>
<path d="M345.264,117.528c2.222,13.975,14.228,24.47,28.755,24.47c8.682,0,16.848-3.835,22.399-10.513
	c2.384-2.863,5.418-5.051,8.821-6.449v48.461c0,5.746,4.66,10.406,10.406,10.406c5.746,0,10.407-4.66,10.407-10.406V125.04
	c3.398,1.398,6.426,3.583,8.804,6.44c5.557,6.684,13.726,10.518,22.416,10.518c14.527,0,26.534-10.495,28.756-24.472
	c0.242-0.881,0.382-1.804,0.382-2.762v-1.904c0-0.477-0.044-0.943-0.105-1.402c-0.816-17.884-8.244-34.576-21.077-47.181
	c-13.313-13.077-30.922-20.278-49.582-20.278c-18.665,0-36.274,7.201-49.585,20.276c-12.83,12.602-20.254,29.291-21.072,47.172
	c-0.064,0.463-0.107,0.931-0.107,1.411c0,0.228,0,0.554,0.017,0.942c-0.007,0.319-0.017,0.639-0.017,0.963
	C344.881,115.721,345.021,116.645,345.264,117.528z M415.645,64.812c26.909,0,49.225,21.781,49.918,48.621
	c-0.286,4.363-3.88,7.751-8.292,7.751c-2.484,0-4.82-1.098-6.416-3.016c-8.315-9.988-20.649-15.716-33.837-15.716h-2.758
	c-13.188,0-25.521,5.728-33.843,15.721c-1.589,1.913-3.923,3.011-6.399,3.011c-4.412,0-8.005-3.386-8.291-7.75
	C366.42,86.591,388.734,64.812,415.645,64.812z"/>
<path d="M484.972,233.183c-3.38-2.876-8.213-3.292-12.034-1.034l-31.02,18.32l-17.182-30.853c-1.837-3.299-5.316-5.344-9.091-5.344
	c-3.775,0-7.255,2.045-9.091,5.344l-17.182,30.853l-31.02-18.32c-3.821-2.256-8.654-1.843-12.034,1.034
	c-3.381,2.876-4.565,7.579-2.95,11.714l27.427,70.187c-16.363,13.362-25.914,33.259-25.914,54.743
	c0,42.488,24.01,56.568,41.542,66.849c13.655,8.008,18.816,11.887,18.816,20.919c0,5.746,4.66,10.406,10.407,10.406
	c5.746,0,10.406-4.66,10.406-10.406c0-9.032,5.161-12.91,18.816-20.919c17.532-10.282,41.542-24.362,41.542-66.849
	c0-21.476-9.552-41.372-25.915-54.74l27.428-70.19C489.538,240.762,488.353,236.059,484.972,233.183z M387.979,273.816
	c2.415,1.428,5.306,1.815,8.013,1.084c2.709-0.735,5.006-2.531,6.37-4.982l13.283-23.852l13.283,23.852
	c1.365,2.451,3.662,4.247,6.37,4.982c2.707,0.732,5.598,0.343,8.013-1.084l14.254-8.418l-15.197,38.888
	c-8.428-3.438-17.489-5.225-26.723-5.225c-9.228,0-18.289,1.787-26.722,5.227l-15.198-38.891L387.979,273.816z M434.338,418.722
	c-6.43,3.771-13.264,7.779-18.693,13.246c-5.429-5.469-12.263-9.475-18.693-13.246c-16.075-9.427-31.258-18.331-31.258-48.896
	c0-17.236,8.707-33.029,23.293-42.247c0.001-0.001,0.003-0.002,0.005-0.003c7.961-5.039,17.178-7.701,26.653-7.701
	c9.483,0,18.699,2.662,26.654,7.702c14.588,9.229,23.297,25.022,23.297,42.249C465.596,400.391,450.413,409.296,434.338,418.722z"/>
<path d="M97.102,176.661c-13.392,0-13.414,20.813,0,20.813C110.494,197.474,110.516,176.661,97.102,176.661z"/>
<g>
</g>
<g>
</g>
<g>
</g>
<g>
</g>
<g>
</g>
<g>
</g>
<g>
</g>
<g>
</g>
<g>
</g>
<g>
</g>
<g>
</g>
<g>
</g>
<g>
</g>
<g>
</g>
<g>
</g>
</svg>
