<?xml version="1.0" encoding="iso-8859-1"?>
<!-- Generator: Adobe Illustrator 19.0.0, SVG Export Plug-In . SVG Version: 6.00 Build 0)  -->
<svg version="1.1" id="Capa_1" xmlns="http://www.w3.org/2000/svg" xmlns:xlink="http://www.w3.org/1999/xlink" x="0px" y="0px"
	 viewBox="0 0 511.998 511.998" style="enable-background:new 0 0 511.998 511.998;" xml:space="preserve">
<path style="fill:#EF7159;" d="M401.815,328.399c30.199-30.199,31.338-78.021,2.546-106.813s-76.615-27.653-106.813,2.546
	S137.475,444.693,159.364,466.581C181.253,488.47,371.616,358.597,401.815,328.399z"/>
<path style="fill:#30995B;" d="M335.122,42.933c-42.222,0-76.704,33.123-78.887,74.802c3.077-0.364,6.201-0.572,9.376-0.572
	c43.63,0,79,35.37,79,79c0,1.411-0.057,2.809-0.135,4.2c39.218-4.63,69.646-37.967,69.646-78.43
	C414.122,78.302,378.753,42.933,335.122,42.933z"/>
<path style="fill:#E27F4D;" d="M198.133,42.933c-43.63,0-79,35.37-79,79c0,25.509,12.104,48.174,30.867,62.614
	c12.712-1.898,25.38-1.403,37.266,1.536c4.563-35.796,33.072-64.1,68.968-68.348c0.668-12.759,4.38-24.705,10.398-35.156
	C252.994,58.889,227.432,42.933,198.133,42.933z"/>
<path style="fill:#FFC943;" d="M249.424,273.496c2.781,0.579,5.619,1.002,8.499,1.282c17.024-23.912,31.731-42.753,39.625-50.647
	c13.264-13.264,29.927-20.917,46.885-22.895c0.107-1.679,0.179-3.367,0.179-5.073c0-43.63-35.37-79-79-79
	c-40.214,0-73.385,30.054-78.338,68.922c14.324,3.543,27.51,10.636,38.261,21.387C242.978,224.916,250.794,248.771,249.424,273.496z
	"/>
<path style="fill:#A766B2;" d="M199.173,364.505c14.95-25.065,32.012-51.249,47.957-74.333c6.688-30.398-0.247-61.35-21.596-82.7
	c-35.914-35.914-99.003-31.053-140.913,10.857S37.85,323.328,73.764,359.242c28.448,28.448,73.944,31.306,112.461,10.439
	C190.542,367.728,194.768,365.836,199.173,364.505z"/>
<path d="M342.011,250.855c-3.916-3.895-10.247-3.878-14.142,0.038s-3.878,10.247,0.038,14.142l0.092,0.092
	c1.951,1.941,4.501,2.91,7.052,2.91c2.568,0,5.136-0.983,7.09-2.948c3.895-3.916,3.878-10.247-0.038-14.142L342.011,250.855z"/>
<path d="M511.685,163.085c-1.365-5.352-6.81-8.584-12.162-7.218c-16.684,4.256-32.75,10.438-47.888,18.363
	c7.928-15.075,14.106-31.061,18.354-47.65c1.37-5.351-1.857-10.798-7.207-12.168c-5.352-1.367-10.798,1.857-12.168,7.207
	c-4.251,16.604-10.652,32.535-18.944,47.439c0.438-1.963,0.859-3.93,1.246-5.906c1.061-5.42-2.473-10.674-7.893-11.735
	c-2.208-0.433-4.382-0.093-6.262,0.816c3.46-9.5,5.361-19.708,5.361-30.3c0-49.075-39.925-89-89-89
	c-27.353,0-52.014,12.482-68.406,32.154c-16.659-20.358-41.394-32.154-68.583-32.154c-49.075,0-89,39.925-89,89
	c0,21.314,7.369,41.325,20.646,57.091c-15.755,5.043-30.695,13.378-43.893,24.56c-10.903-21.447,7.921-54.469,8.175-54.909
	c2.776-4.767,1.168-10.883-3.595-13.667c-4.769-2.787-10.893-1.18-13.68,3.588c-0.788,1.349-12.225,21.281-14.034,43.723
	l-29.471-29.472c-3.906-3.906-10.237-3.905-14.142,0s-3.906,10.237,0,14.142l29.469,29.47
	c-22.416,1.811-42.315,13.237-43.661,14.025c-4.762,2.785-6.361,8.896-3.584,13.662c1.857,3.187,5.208,4.964,8.651,4.964
	c1.707,0,3.436-0.437,5.017-1.354c0.369-0.214,33.398-19.079,54.855-8.157c-32.066,37.915-38.883,88.517-18.635,125.984
	c0.133,0.269,0.28,0.531,0.438,0.789c3.988,7.206,8.98,13.918,15.005,19.943c10.14,10.14,22.349,17.466,35.712,21.906
	c0.547,0.227,1.11,0.397,1.682,0.523c9.643,3.009,19.85,4.555,30.309,4.555c13.562,0,27.528-2.571,41.172-7.757
	c-6.99,12.713-12.797,24.194-17.222,34.089c-13.013,29.097-14.823,45.254-6.052,54.025c3.592,3.592,8.422,5.409,14.874,5.409
	c9.301,0,21.97-3.778,39.151-11.462c19.975-8.934,46.4-23.483,76.421-42.076c51.395-31.831,109.163-73.07,126.147-90.055
	c30.078-30.078,34.458-75.918,12.572-108.708c14.412-6.431,29.538-11.212,45.104-14.249c5.42-1.057,8.958-6.309,7.9-11.729
	c-1.057-5.42-6.304-8.958-11.729-7.9c-1.926,0.375-3.844,0.784-5.757,1.208c14.912-8.235,30.858-14.603,47.491-18.846
	C509.818,173.881,513.05,168.437,511.685,163.085z M398.999,204.362c-4.838-3.209-9.951-5.86-15.26-7.931
	c11.333-7.427,20.836-17.354,27.771-28.943C408.497,180.161,404.313,192.505,398.999,204.362z M259.205,255.907
	c-2.384-21.082-11.461-40.368-26.6-55.506c-9.652-9.652-21.16-16.842-33.914-21.365c7.521-30.066,34.983-51.874,66.92-51.874
	c36.926,0,67.166,29.158,68.915,65.659c-16.039,3.535-31.434,11.622-44.051,24.239C283.428,224.108,272.201,238.183,259.205,255.907
	z M335.122,52.933c38.047,0,69,30.953,69,69c0,31.038-20.83,57.912-49.87,66.28c-3.974-44.677-41.097-79.965-86.539-81.023
	C274.499,76.051,302.325,52.933,335.122,52.933z M129.133,121.933c0-38.047,30.953-69,69-69c23.286,0,44.233,11.143,56.98,30.048
	c-3.956,8.093-6.709,16.883-8.047,26.146c-32.996,7.003-59.644,32.286-67.815,65.233c-7.328-0.992-14.92-1.213-22.693-0.614
	c-1.199,0.092-2.396,0.211-3.592,0.341C137.776,161.094,129.133,142.287,129.133,121.933z M184.243,359.591
	c-0.676,0.311-1.383,0.636-2.139,0.978c-0.218,0.099-0.432,0.205-0.643,0.319c-18.007,9.755-37.232,13.682-55.013,12.028
	l9.374-9.374c3.905-3.905,3.906-10.237,0-14.142s-10.237-3.905-14.142,0l-17.965,17.964c-8.509-3.521-16.275-8.587-22.881-15.193
	c-2.974-2.974-5.627-6.166-7.967-9.537l60.784-60.784c3.905-3.905,3.905-10.237,0-14.143c-3.905-3.905-10.237-3.905-14.143,0
	l-55.959,55.961c-10.042-31.164-0.15-69.975,28.143-98.268c33.563-33.562,81.92-41.226,114.758-20.438l-14.603,14.604
	c-3.905,3.905-3.905,10.237,0,14.143c1.953,1.953,4.512,2.929,7.071,2.929s5.119-0.976,7.071-2.929l15.715-15.715
	c16.023,18.134,21.717,42.146,16.046,68.172c-5.151,7.484-10.368,15.217-15.54,23.039c-0.056,0.083-0.111,0.166-0.165,0.249
	c-7.422,11.231-14.744,22.641-21.626,33.753c-2.722,4.395-5.346,8.703-7.89,12.935C189.437,357.208,186.985,358.329,184.243,359.591
	z M402.817,311.66l-36.28-36.28c-3.905-3.905-10.237-3.905-14.143,0c-3.905,3.905-3.905,10.237,0,14.143l36.851,36.852
	c-18.657,16.198-63.789,48.791-111.385,78.624c-12.748,7.99-24.882,15.274-36.17,21.727l-21.855-21.854
	c-3.905-3.905-10.237-3.905-14.143,0c-3.905,3.905-3.905,10.237,0,14.143l17.788,17.788c-6.642,3.542-12.878,6.708-18.612,9.437
	c-24.848,11.825-34.739,12.94-37.987,12.824c-0.114-3.24,0.999-13.14,12.824-37.987c9.307-19.557,23.567-44.796,41.24-72.991
	c3.688-5.884,7.419-11.726,11.156-17.49l18.673,18.673c1.953,1.953,4.512,2.929,7.071,2.929c2.559,0,5.119-0.976,7.071-2.929
	c3.905-3.905,3.905-10.237,0-14.143l-21.587-21.587c26.15-39.108,50.801-71.849,61.287-82.336
	c26.251-26.252,67.824-27.394,92.671-2.546C419.267,250.634,420.896,285.689,402.817,311.66z"/>
<path d="M171.822,239.59l-0.241,0.241c-3.901,3.909-3.895,10.241,0.014,14.142c1.952,1.948,4.508,2.922,7.064,2.922
	c2.563,0,5.125-0.979,7.078-2.936l0.241-0.241c3.901-3.909,3.895-10.241-0.014-14.142
	C182.055,235.674,175.723,235.681,171.822,239.59z"/>
<g>
</g>
<g>
</g>
<g>
</g>
<g>
</g>
<g>
</g>
<g>
</g>
<g>
</g>
<g>
</g>
<g>
</g>
<g>
</g>
<g>
</g>
<g>
</g>
<g>
</g>
<g>
</g>
<g>
</g>
</svg>
