<?xml version="1.0" encoding="iso-8859-1"?>
<!-- Generator: Adobe Illustrator 19.0.0, SVG Export Plug-In . SVG Version: 6.00 Build 0)  -->
<svg version="1.1" id="Capa_1" xmlns="http://www.w3.org/2000/svg" xmlns:xlink="http://www.w3.org/1999/xlink" x="0px" y="0px"
	 viewBox="0 0 512 512" style="enable-background:new 0 0 512 512;" xml:space="preserve">
<g>
	<path style="fill:#FFA800;" d="M182.718,256c-39.339,67.755-57.344,172.373-5.12,220.928c-18.574,6.551-38.163,9.757-57.856,9.472
		c-3.925,0-7.68-0.171-11.349-0.427c-141.312-9.899-121.941-206.08,2.56-272.64c62.549-33.365,97.365-92.757,102.144-162.389
		c0.085-1.024,0.085-2.048,0.171-3.072l0.256-5.376c-0.014-0.231,0.015-0.462,0.085-0.683c0.418-4.32,4.023-7.63,8.363-7.68h16.725
		C236.563,82.603,226.75,180.053,182.718,256z"/>
	<g>
		<path style="fill:#FFE100;" d="M212.585,57.429c-2.413,31.323-7.205,62.417-14.336,93.013
			c-8.225,36.944-21.763,72.499-40.192,105.557c-39.339,67.755-57.344,172.373-5.035,220.928
			c-10.385,3.733-21.142,6.337-32.085,7.765C7.187,466.517,19.049,298.581,107.369,215.296c1.195-0.683,2.389-1.28,3.584-1.963
			c15-7.923,28.887-17.794,41.301-29.355C187.33,150.714,208.826,105.624,212.585,57.429L212.585,57.429z"/>
		<path style="fill:#FFE100;" d="M120.937,484.693c-4.011,0.597-8.192,1.024-12.544,1.28
			c-139.947-9.813-122.283-202.24-1.024-270.677C19.049,298.581,7.187,466.517,120.937,484.693z"/>
	</g>
	<g>
		<path style="fill:#FFA800;" d="M256.275,503.467c-4.267,0-8.363-0.171-12.288-0.427C116.499,493.739,131.774,343.893,182.718,256
			c50.176-86.528,55.893-201.045,56.491-239.104c0.028-3.189,1.887-6.078,4.779-7.424c1.154-0.619,2.445-0.942,3.755-0.939h17.152
			c4.661-0.036,8.476,3.702,8.533,8.363c0.597,38.059,6.315,152.576,56.491,239.104C382.483,346.624,396.99,503.125,256.275,503.467
			z"/>
		<path style="fill:#FFA800;" d="M392.979,486.4c-4.523,0-8.96-0.171-13.312-0.427c-15.202-0.884-30.201-3.93-44.544-9.045
			c52.224-48.555,34.219-153.173-5.12-220.928c-37.632-64.939-50.261-145.579-54.443-197.888c-0.014-0.686-0.071-1.37-0.171-2.048
			c-0.171-1.707-0.256-3.413-0.427-5.12c-0.085-1.024-0.085-2.048-0.171-3.072c-0.171-2.304-0.256-4.608-0.427-6.741v-0.341
			c-0.171-2.304-0.256-4.523-0.341-6.656h16.725c4.607,0.061,8.341,3.756,8.448,8.363c2.475,73.216,37.461,136.107,102.571,170.837
			C529.513,281.6,546.579,486.4,392.979,486.4z"/>
	</g>
	<path style="fill:#FFE100;" d="M243.987,503.04C116.499,493.739,131.774,343.893,182.718,256
		c50.176-86.528,55.893-201.045,56.491-239.104c0.028-3.189,1.887-6.078,4.779-7.424c2.916,1.318,4.787,4.224,4.779,7.424
		c0.597,38.059,6.315,152.576,56.491,239.104C356.201,343.893,371.475,493.739,243.987,503.04z"/>
	<path style="fill:#FFFFFF;" d="M132.03,485.973c-4.267,0.256-8.704,0.427-13.227,0.427c-3.475,0.032-6.95-0.111-10.411-0.427
		c-141.909-8.96-123.307-204.715,0.427-271.957c-0.512,0.427-0.939,0.853-1.451,1.28c-88.32,83.285-100.181,251.221,13.568,269.397
		C124.521,485.291,128.19,485.717,132.03,485.973z"/>
	<g>
		<path style="fill:#FFE100;" d="M213.609,41.813c-0.085,1.963-0.171,3.925-0.341,6.059l0.256-5.376
			C213.51,42.265,213.539,42.034,213.609,41.813L213.609,41.813z"/>
		<path style="fill:#FFE100;" d="M274.537,42.496c0.085,1.792,0.171,3.584,0.256,5.376c-0.171-2.304-0.256-4.608-0.427-6.741
			C274.465,41.58,274.522,42.037,274.537,42.496z"/>
		<path style="fill:#FFE100;" d="M379.667,485.973c-15.202-0.884-30.201-3.93-44.544-9.045
			c52.224-48.555,34.219-153.173-5.12-220.928c-37.632-64.939-50.261-145.579-54.443-197.888
			c4.94,65.748,43.283,124.358,101.547,155.221C501.609,279.893,520.979,476.075,379.667,485.973z"/>
	</g>
	<g>
		<path d="M256.332,512c-47.829-0.117-83.337-18.025-102.721-51.775c-32.413-56.433-13.608-147.608,21.717-208.508
			c47.9-82.567,54.642-191.833,55.317-234.975C230.848,7.456,238.419,0.028,247.707,0h17.208c9.29,0.022,16.865,7.454,17.063,16.742
			c0.675,43.142,7.417,152.4,55.317,234.975c35.325,60.9,54.129,152.075,21.717,208.508
			C339.627,493.975,304.119,511.883,256.332,512z M247.707,17.067c-0.692,44.425-7.7,157.175-57.617,243.217
			c-32.867,56.658-50.871,140.617-21.679,191.442c16.405,28.566,45.988,43.1,87.921,43.208
			c41.892-0.108,71.475-14.642,87.879-43.208c29.192-50.825,11.187-134.783-21.683-191.442
			c-49.913-86.05-56.921-198.792-57.616-243.275L247.707,17.067z"/>
		<path d="M256.336,477.867c-35.9-0.108-59.8-11.442-73.125-34.633c-10.552-21.156-14.622-44.957-11.7-68.417
			c0.364-4.699,4.468-8.214,9.167-7.85c4.699,0.364,8.214,4.468,7.85,9.167c-2.626,20.04,0.671,40.411,9.483,58.6
			c10.025,17.45,29.104,25.975,58.325,26.067c29.171-0.092,48.25-8.617,58.275-26.067c2.347-4.087,7.563-5.497,11.65-3.15
			c4.087,2.347,5.497,7.563,3.15,11.65C316.086,466.425,292.186,477.758,256.336,477.867z"/>
		<path d="M331.744,375.467c-4.312-0.004-7.943-3.227-8.458-7.508c-4.171-31.851-14.452-62.597-30.279-90.55
			c-2.366-4.075-0.98-9.297,3.096-11.663c4.075-2.366,9.297-0.98,11.663,3.096c17.059,29.924,28.088,62.901,32.462,97.067
			c0.567,4.679-2.767,8.932-7.446,9.5C332.437,375.448,332.091,375.468,331.744,375.467L331.744,375.467z"/>
		<path d="M190.136,332.8c-2.71-0.001-5.259-1.29-6.868-3.471c-1.609-2.182-2.086-4.997-1.286-7.587
			c5.644-18.425,13.315-36.167,22.871-52.9c9.219-16.044,17.176-32.78,23.8-50.058c1.095-2.853,3.631-4.902,6.65-5.374
			c3.019-0.472,6.06,0.706,7.973,3.089s2.406,5.606,1.294,8.452c-6.948,18.105-15.289,35.644-24.95,52.458
			c-8.918,15.621-16.074,32.183-21.338,49.383C197.176,330.363,193.874,332.799,190.136,332.8L190.136,332.8z"/>
		<path d="M119.777,494.933c-60.042,0-101.812-30.342-114.6-83.25c-1.109-4.582,1.706-9.195,6.288-10.304s9.195,1.706,10.304,6.288
			c10.938,45.267,45.746,70.2,98.008,70.2c14.311,0.114,28.58-1.58,42.467-5.042c-41.758-52.9-27.562-151.033,13.083-221.109
			c40.154-69.208,51.362-157.383,54.35-209.05h-7.692c-2.587,78.342-41.596,143.258-106.975,178.192
			c-46.938,25.668-80.64,70.204-92.587,122.35c-0.673,2.973-2.881,5.361-5.791,6.264s-6.083,0.186-8.321-1.883
			c-2.238-2.069-3.202-5.175-2.529-8.148c13.066-56.966,49.899-105.61,101.188-133.633c60.742-32.458,95.55-90.567,98.008-163.608
			c0.229-9.231,7.775-16.596,17.008-16.6h16.671c2.328-0.001,4.556,0.95,6.166,2.633c1.61,1.682,2.462,3.95,2.359,6.276
			c-2.267,51.475-12.696,149.25-57.092,225.775c-40.125,69.167-53.583,166.792-6.65,210.433c2.173,2.02,3.141,5.025,2.554,7.934
			c-0.587,2.909-2.643,5.304-5.429,6.324C161.044,491.837,140.467,495.207,119.777,494.933z"/>
		<path d="M8.894,384c-1.116-0.013-2.219-0.245-3.246-0.683c-1.033-0.432-1.984-1.038-2.813-1.791
			c-2.441-2.443-3.152-6.124-1.796-9.3c0.413-1.045,1.023-2.002,1.796-2.817c3.421-3.158,8.695-3.158,12.117,0
			c0.771,0.817,1.379,1.773,1.792,2.817c1.362,3.175,0.653,6.859-1.791,9.301c-0.83,0.753-1.783,1.359-2.817,1.792
			C11.11,383.755,10.009,383.987,8.894,384L8.894,384z"/>
		<path d="M88.427,281.6c-3.409,0-6.49-2.029-7.838-5.161c-1.347-3.131-0.702-6.764,1.642-9.239
			c11.836-12.557,25.622-23.121,40.825-31.283c12.373-6.601,24.097-14.352,35.017-23.15c3.669-2.947,9.031-2.369,11.987,1.293
			c2.956,3.662,2.392,9.025-1.262,11.991c-11.758,9.467-24.379,17.809-37.696,24.917c-13.585,7.3-25.903,16.743-36.479,27.967
			C93.014,280.639,90.772,281.603,88.427,281.6z"/>
		<path d="M119.777,460.8c-31.446,0-54.588-9.775-68.783-29.058c-1.807-2.455-2.167-5.687-0.945-8.479
			c1.222-2.792,3.841-4.721,6.871-5.058c3.029-0.338,6.009,0.966,7.816,3.421c10.804,14.667,29.321,22.108,55.042,22.108
			l2.017-0.017l0.2,17.067L119.777,460.8z"/>
		<path d="M392.944,494.933c-20.69,0.274-41.267-3.097-60.788-9.958c-2.786-1.02-4.842-3.415-5.429-6.324
			c-0.587-2.909,0.381-5.914,2.554-7.934c46.933-43.642,33.475-141.267-6.654-210.433c-44.392-76.525-54.821-174.3-57.087-225.775
			c-0.103-2.326,0.749-4.593,2.359-6.276s3.837-2.633,6.166-2.633h16.671c9.233,0.004,16.78,7.369,17.008,16.6
			c2.458,73.05,37.267,131.158,98.017,163.608C470.802,240.567,528.119,329.55,507.294,412.7
			C494.202,464.958,452.527,494.933,392.944,494.933z M350.477,472.825c13.887,3.462,28.155,5.156,42.467,5.042
			c51.867,0,86.6-24.617,97.792-69.308c14.658-58.525-16.742-146.933-93.021-187.7c-65.383-34.925-104.392-99.842-107.029-178.092
			l-7.637-0.042c2.992,51.675,14.208,139.808,54.342,208.992C378.04,321.792,392.236,419.925,350.477,472.825z"/>
		<path d="M392.944,460.8l-2.217-0.017c-4.713-0.02-8.517-3.856-8.498-8.569c0.02-4.713,3.856-8.517,8.569-8.498h0.104l2.042,0.017
			c36.192,0,57.35-14.217,64.683-43.467c0.736-2.962,2.999-5.305,5.933-6.144c2.934-0.839,6.094-0.047,8.285,2.077
			c2.191,2.125,3.08,5.258,2.332,8.217C467.736,430.142,448.411,460.8,392.944,460.8z"/>
		<path d="M452.594,322.283c-3.25,0.006-6.22-1.836-7.658-4.75c-13.71-28.201-35.827-51.458-63.304-66.567
			c-2.697-1.432-4.423-4.196-4.526-7.248c-0.103-3.052,1.433-5.926,4.027-7.537s5.851-1.712,8.541-0.266
			c30.613,16.792,55.266,42.663,70.562,74.05c1.308,2.644,1.158,5.776-0.397,8.283S455.543,322.281,452.594,322.283L452.594,322.283
			z"/>
	</g>
</g>
<g>
</g>
<g>
</g>
<g>
</g>
<g>
</g>
<g>
</g>
<g>
</g>
<g>
</g>
<g>
</g>
<g>
</g>
<g>
</g>
<g>
</g>
<g>
</g>
<g>
</g>
<g>
</g>
<g>
</g>
</svg>
