<?xml version="1.0" encoding="iso-8859-1"?>
<!-- Generator: Adobe Illustrator 18.0.0, SVG Export Plug-In . SVG Version: 6.00 Build 0)  -->
<!DOCTYPE svg PUBLIC "-//W3C//DTD SVG 1.1//EN" "http://www.w3.org/Graphics/SVG/1.1/DTD/svg11.dtd">
<svg version="1.1" id="Capa_1" xmlns="http://www.w3.org/2000/svg" xmlns:xlink="http://www.w3.org/1999/xlink" x="0px" y="0px"
	 viewBox="0 0 385.428 385.428" style="enable-background:new 0 0 385.428 385.428;" xml:space="preserve">
<g>
	<g>
		<path style="fill:#FDD44B;" d="M144.309,144.651c0.82,0.253,1.61,0.573,2.38,0.928
			C145.918,145.224,145.129,144.904,144.309,144.651z"/>
		<path style="fill:#FDD44B;" d="M141.818,144.079c0.815,0.138,1.619,0.311,2.397,0.547
			C143.437,144.391,142.634,144.217,141.818,144.079z"/>
		<path style="fill:#FDD44B;" d="M119.19,165.963c-0.116-0.859-0.197-1.729-0.197-2.62
			C118.993,164.234,119.074,165.104,119.19,165.963z"/>
		<path style="fill:#FDD44B;" d="M149.364,147.057c0.724,0.483,1.406,1.021,2.058,1.593
			C150.77,148.078,150.088,147.54,149.364,147.057z"/>
		<path style="fill:#FDD44B;" d="M151.71,148.913c1.287,1.176,2.42,2.516,3.357,3.995
			C154.129,151.428,152.999,150.088,151.71,148.913z"/>
		<path style="fill:#FDD44B;" d="M138.553,143.784c0.891,0,1.762,0.081,2.621,0.197
			C140.315,143.865,139.444,143.784,138.553,143.784z"/>
		<path style="fill:#FDD44B;" d="M147.18,145.816c0.741,0.367,1.465,0.766,2.149,1.22
			C148.644,146.582,147.922,146.182,147.18,145.816z"/>
		<path style="fill:#FDD44B;" d="M124.123,176.502c1.175,1.288,2.515,2.418,3.994,3.356
			C126.639,178.921,125.299,177.788,124.123,176.502z"/>
		<path style="fill:#FDD44B;" d="M155.211,153.144c0.46,0.748,0.879,1.524,1.237,2.333c-2.41-1.064-5.068-1.665-7.867-1.665
			c-10.786,0-19.56,8.774-19.56,19.56c0,2.799,0.601,5.457,1.665,7.867c-0.81-0.357-1.585-0.777-2.333-1.237
			c2.974,1.828,6.46,2.902,10.2,2.902c10.786,0,19.56-8.774,19.56-19.56C158.113,159.604,157.039,156.118,155.211,153.144z"/>
		<path style="fill:#FDD44B;" d="M123.859,176.211c-0.572-0.651-1.109-1.333-1.592-2.056
			C122.749,174.879,123.287,175.56,123.859,176.211z"/>
		<path style="fill:#FDD44B;" d="M119.836,169.005c-0.236-0.777-0.409-1.58-0.547-2.395
			C119.427,167.425,119.6,168.228,119.836,169.005z"/>
		<path style="fill:#FDD44B;" d="M122.244,174.117c-0.454-0.684-0.852-1.406-1.218-2.146
			C121.392,172.712,121.791,173.433,122.244,174.117z"/>
		<path style="fill:#FDD44B;" d="M120.788,171.478c-0.355-0.77-0.674-1.56-0.928-2.379
			C120.113,169.919,120.434,170.708,120.788,171.478z"/>
	</g>
	<g>
		<path style="fill:#FDD44B;" d="M198.47,144.651c0.82,0.253,1.609,0.573,2.379,0.928
			C200.079,145.224,199.29,144.904,198.47,144.651z"/>
		<path style="fill:#FDD44B;" d="M173.351,165.963c-0.116-0.859-0.196-1.729-0.196-2.62
			C173.155,164.234,173.235,165.104,173.351,165.963z"/>
		<path style="fill:#FDD44B;" d="M201.342,145.816c0.74,0.367,1.462,0.765,2.146,1.218
			C202.803,146.581,202.083,146.182,201.342,145.816z"/>
		<path style="fill:#FDD44B;" d="M195.98,144.079c0.815,0.138,1.619,0.311,2.396,0.547
			C197.598,144.391,196.795,144.217,195.98,144.079z"/>
		<path style="fill:#FDD44B;" d="M192.715,143.784c0.891,0,1.762,0.081,2.621,0.197
			C194.476,143.865,193.605,143.784,192.715,143.784z"/>
		<path style="fill:#FDD44B;" d="M205.871,148.913c1.287,1.176,2.42,2.516,3.357,3.995
			C208.29,151.428,207.16,150.088,205.871,148.913z"/>
		<path style="fill:#FDD44B;" d="M203.526,147.058c0.723,0.483,1.406,1.02,2.057,1.592
			C204.931,148.078,204.25,147.54,203.526,147.058z"/>
		<path style="fill:#FDD44B;" d="M178.02,176.211c-0.572-0.651-1.109-1.333-1.592-2.056
			C176.911,174.879,177.448,175.56,178.02,176.211z"/>
		<path style="fill:#FDD44B;" d="M178.284,176.502c1.175,1.288,2.515,2.418,3.994,3.356
			C180.8,178.921,179.46,177.788,178.284,176.502z"/>
		<path style="fill:#FDD44B;" d="M209.372,153.144c0.46,0.748,0.879,1.524,1.237,2.333c-2.41-1.064-5.068-1.665-7.867-1.665
			c-10.786,0-19.56,8.774-19.56,19.56c0,2.799,0.601,5.457,1.665,7.867c-0.81-0.357-1.585-0.777-2.333-1.237
			c2.974,1.828,6.46,2.902,10.2,2.902c10.785,0,19.56-8.774,19.56-19.56C212.274,159.604,211.201,156.118,209.372,153.144z"/>
		<path style="fill:#FDD44B;" d="M173.997,169.005c-0.236-0.777-0.409-1.58-0.547-2.395
			C173.588,167.425,173.761,168.228,173.997,169.005z"/>
		<path style="fill:#FDD44B;" d="M176.405,174.117c-0.454-0.684-0.852-1.406-1.218-2.146
			C175.553,172.712,175.952,173.433,176.405,174.117z"/>
		<path style="fill:#FDD44B;" d="M174.949,171.478c-0.355-0.77-0.674-1.56-0.928-2.379
			C174.274,169.919,174.594,170.708,174.949,171.478z"/>
	</g>
	<g>
		<path style="fill:#84BD93;" d="M164.215,21.929c0.607,0.313,1.194,0.636,1.778,0.96C165.408,22.565,164.823,22.242,164.215,21.929
			z"/>
		<path style="fill:#84BD93;" d="M159.526,19.702c0.552,0.239,1.072,0.495,1.609,0.741
			C160.597,20.197,160.078,19.941,159.526,19.702z"/>
		<path style="fill:#84BD93;" d="M109.644,50.068c-0.357-0.679-0.684-1.409-1.011-2.138
			C108.961,48.66,109.288,49.389,109.644,50.068z"/>
		<path style="fill:#84BD93;" d="M108.136,46.843c-0.466-1.135-0.899-2.322-1.281-3.578
			C107.237,44.521,107.67,45.708,108.136,46.843z"/>
		<path style="fill:#84BD93;" d="M168.511,24.356c0.585,0.36,1.167,0.722,1.727,1.094C169.678,25.078,169.097,24.715,168.511,24.356
			z"/>
		<path style="fill:#84BD93;" d="M179.999,33.968c0.432,0.512,0.813,1.046,1.212,1.573
			C180.813,35.014,180.431,34.479,179.999,33.968z"/>
		<path style="fill:#84BD93;" d="M178.105,31.923c-0.631-0.65-1.293-1.285-1.982-1.908
			C176.811,30.638,177.474,31.273,178.105,31.923z"/>
		<path style="fill:#84BD93;" d="M172.428,26.999c0.53,0.391,1.074,0.775,1.578,1.178C173.501,27.774,172.958,27.39,172.428,26.999z
			"/>
		<path style="fill:#84BD93;" d="M111.338,52.957c-0.357-0.551-0.695-1.142-1.034-1.733
			C110.643,51.816,110.98,52.406,111.338,52.957z"/>
		<path style="fill:#84BD93;" d="M115.919,58.639c0.401,0.404,0.8,0.792,1.203,1.162C116.719,59.431,116.319,59.042,115.919,58.639z
			"/>
		<path style="fill:#84BD93;" d="M185.018,41.697c-0.822-1.747-1.851-3.4-2.974-5.011c-4.836-3.49-10.701-6.491-17.579-8.987
			c-0.401,5.296-1.322,12.191-3.336,19.829c-0.597,2.266-2.217,4.125-4.381,5.026c-2.16,0.901-4.622,0.742-6.652-0.431
			c-0.636-0.354-15.65-8.473-33.214,1.169c1.189,3.905,2.821,7.198,4.666,9.985c4.365,2.898,7.97,3.942,8.312,4.035
			c2.271,0.579,4.116,2.176,5.036,4.331c0.613,1.438,0.701,3.003,0.377,4.496c0.043-0.201,0.11-0.397,0.137-0.6
			c2.485,1.237,4.244,1.737,4.478,1.8c2.271,0.579,4.116,2.176,5.035,4.331c0.919,2.155,0.754,4.609-0.401,6.649
			c-2.444,4.315-4.992,8.116-7.394,11.358c9.074,2.133,17.302,1.942,24.567-0.699c16.754-6.095,23.451-23.397,23.517-23.571
			C185.236,75.344,192.116,56.792,185.018,41.697z"/>
		<path style="fill:#84BD93;" d="M127.824,96.799c0.453,0.174,0.904,0.343,1.353,0.507
			C128.728,97.142,128.276,96.972,127.824,96.799z"/>
		<path style="fill:#84BD93;" d="M133.289,98.68c0.435,0.131,0.864,0.245,1.295,0.365C134.153,98.926,133.723,98.81,133.289,98.68z"
			/>
		<path style="fill:#84BD93;" d="M113.175,55.53c-0.37-0.472-0.729-0.977-1.086-1.486C112.447,54.553,112.805,55.057,113.175,55.53z
			"/>
		<path style="fill:#84BD93;" d="M135.113,76.841c-0.159,0.498-0.355,0.988-0.617,1.451
			C134.758,77.828,134.957,77.34,135.113,76.841z"/>
		<path style="fill:#84BD93;" d="M115.117,57.806c-0.386-0.415-0.766-0.856-1.145-1.306C114.351,56.95,114.73,57.39,115.117,57.806z
			"/>
		<path style="fill:#84BD93;" d="M119.156,61.535c-0.421-0.332-0.843-0.68-1.267-1.047
			C118.314,60.856,118.734,61.202,119.156,61.535z"/>
		<path style="fill:#84BD93;" d="M121.18,63.025c-0.439-0.3-0.884-0.614-1.335-0.952C120.297,62.412,120.739,62.725,121.18,63.025z"
			/>
	</g>
	<g>
		<path style="fill:#FDD44B;" d="M250.142,144.08c0.813,0.138,1.615,0.311,2.391,0.546
			C251.756,144.391,250.956,144.217,250.142,144.08z"/>
		<path style="fill:#FDD44B;" d="M252.632,144.651c0.819,0.253,1.608,0.572,2.376,0.926
			C254.239,145.224,253.451,144.904,252.632,144.651z"/>
		<path style="fill:#FDD44B;" d="M227.316,163.344c0-1.348,0.137-2.665,0.398-3.937
			C227.453,160.679,227.316,161.995,227.316,163.344z"/>
		<path style="fill:#FDD44B;" d="M246.877,143.784c0.89,0,1.76,0.081,2.619,0.197C248.637,143.865,247.767,143.784,246.877,143.784z
			"/>
		<path style="fill:#FDD44B;" d="M263.387,152.904c-0.937-1.476-2.065-2.814-3.351-3.987
			C261.32,150.09,262.451,151.428,263.387,152.904z"/>
		<path style="fill:#FDD44B;" d="M255.505,145.817c0.738,0.365,1.457,0.762,2.139,1.215
			C256.962,146.58,256.243,146.182,255.505,145.817z"/>
		<path style="fill:#FDD44B;" d="M257.688,147.058c0.721,0.482,1.402,1.018,2.052,1.589
			C259.09,148.077,258.411,147.54,257.688,147.058z"/>
		<path style="fill:#FDD44B;" d="M263.537,153.15c0.456,0.743,0.873,1.513,1.228,2.317
			C264.409,154.662,263.993,153.893,263.537,153.15z"/>
		<path style="fill:#FDD44B;" d="M232.444,176.5c1.176,1.289,2.517,2.421,3.997,3.359C234.961,178.922,233.62,177.788,232.444,176.5
			z"/>
		<path style="fill:#FDD44B;" d="M230.569,174.121c-0.455-0.685-0.854-1.409-1.222-2.151
			C229.714,172.712,230.114,173.435,230.569,174.121z"/>
		<path style="fill:#FDD44B;" d="M232.182,176.213c-0.572-0.652-1.111-1.335-1.594-2.059
			C231.071,174.879,231.61,175.561,232.182,176.213z"/>
		<path style="fill:#FDD44B;" d="M264.77,155.477c-2.41-1.063-5.067-1.665-7.866-1.665c-10.786,0-19.56,8.774-19.56,19.56
			c0,2.799,0.601,5.457,1.665,7.867c-0.811-0.358-1.587-0.778-2.336-1.238c2.975,1.829,6.461,2.903,10.202,2.903
			c10.786,0,19.56-8.774,19.56-19.56C266.435,160.545,265.833,157.887,264.77,155.477z"/>
		<path style="fill:#FDD44B;" d="M246.875,143.784L246.875,143.784c-9.438,0-17.335,6.718-19.162,15.623
			C229.541,150.502,237.439,143.784,246.875,143.784z"/>
		<path style="fill:#FDD44B;" d="M229.111,171.48c-0.355-0.77-0.675-1.561-0.928-2.382
			C228.435,169.919,228.756,170.709,229.111,171.48z"/>
		<path style="fill:#FDD44B;" d="M227.316,163.344c0,0.891,0.081,1.761,0.197,2.621
			C227.396,165.106,227.316,164.234,227.316,163.344z"/>
		<path style="fill:#FDD44B;" d="M227.611,166.609c0.138,0.817,0.312,1.622,0.549,2.401
			C227.923,168.231,227.749,167.426,227.611,166.609z"/>
	</g>
	<g>
		<path style="fill:#FDD44B;" d="M127.985,199.775c-0.937-1.477-2.065-2.814-3.351-3.988
			C125.918,196.962,127.049,198.299,127.985,199.775z"/>
		<path style="fill:#FDD44B;" d="M117.229,191.522c0.819,0.253,1.608,0.572,2.376,0.927
			C118.836,192.095,118.049,191.774,117.229,191.522z"/>
		<path style="fill:#FDD44B;" d="M114.739,190.95c0.813,0.138,1.614,0.31,2.39,0.546
			C116.353,191.261,115.552,191.088,114.739,190.95z"/>
		<path style="fill:#FDD44B;" d="M120.103,192.688c0.736,0.364,1.454,0.761,2.134,1.212
			C121.556,193.449,120.84,193.052,120.103,192.688z"/>
		<path style="fill:#FDD44B;" d="M128.133,200.018c0.457,0.745,0.875,1.517,1.231,2.323
			C129.008,201.535,128.59,200.763,128.133,200.018z"/>
		<path style="fill:#FDD44B;" d="M111.473,190.654c0.89,0,1.761,0.081,2.62,0.197C113.233,190.735,112.363,190.654,111.473,190.654z
			"/>
		<path style="fill:#FDD44B;" d="M122.287,193.93c0.721,0.481,1.401,1.017,2.051,1.588
			C123.687,194.948,123.009,194.411,122.287,193.93z"/>
		<path style="fill:#FDD44B;" d="M92.757,215.88c-0.237-0.779-0.41-1.585-0.549-2.402C92.346,214.296,92.52,215.1,92.757,215.88z"/>
		<path style="fill:#FDD44B;" d="M103.603,228.107c-0.808-0.357-1.582-0.776-2.329-1.235
			C102.021,227.332,102.794,227.75,103.603,228.107z"/>
		<path style="fill:#FDD44B;" d="M129.367,202.347c-2.41-1.064-5.068-1.665-7.867-1.665c-10.785,0-19.56,8.774-19.56,19.56
			c0,2.799,0.601,5.457,1.665,7.867c2.41,1.064,5.068,1.665,7.867,1.665c10.786,0,19.56-8.774,19.56-19.559
			C131.033,207.416,130.431,204.757,129.367,202.347z"/>
		<path style="fill:#FDD44B;" d="M97.042,223.371c1.176,1.288,2.515,2.419,3.995,3.357
			C99.557,225.791,98.218,224.658,97.042,223.371z"/>
		<path style="fill:#FDD44B;" d="M96.779,223.083c-0.572-0.651-1.11-1.335-1.593-2.058C95.668,221.749,96.207,222.43,96.779,223.083
			z"/>
		<path style="fill:#FDD44B;" d="M93.708,218.351c-0.355-0.771-0.675-1.561-0.929-2.382C93.033,216.79,93.353,217.58,93.708,218.351
			z"/>
		<path style="fill:#FDD44B;" d="M95.166,220.992c-0.456-0.686-0.855-1.41-1.223-2.153
			C94.311,219.583,94.711,220.306,95.166,220.992z"/>
		<path style="fill:#FDD44B;" d="M91.913,210.215L91.913,210.215c0,0.892,0.081,1.762,0.197,2.622
			C91.994,211.977,91.913,211.106,91.913,210.215z"/>
	</g>
	<g>
		<path style="fill:#FDD44B;" d="M168.9,190.95c0.813,0.138,1.614,0.31,2.39,0.546C170.514,191.261,169.713,191.088,168.9,190.95z"
			/>
		<path style="fill:#FDD44B;" d="M171.391,191.522c0.819,0.253,1.607,0.572,2.376,0.927
			C172.997,192.095,172.21,191.774,171.391,191.522z"/>
		<path style="fill:#FDD44B;" d="M176.448,193.93c0.721,0.481,1.401,1.017,2.051,1.588
			C177.848,194.948,177.17,194.411,176.448,193.93z"/>
		<path style="fill:#FDD44B;" d="M174.264,192.688c0.736,0.364,1.454,0.761,2.134,1.212
			C175.717,193.449,175.001,193.052,174.264,192.688z"/>
		<path style="fill:#FDD44B;" d="M182.145,199.774c-0.937-1.476-2.065-2.813-3.35-3.987
			C180.079,196.961,181.21,198.298,182.145,199.774z"/>
		<path style="fill:#FDD44B;" d="M165.634,190.654c0.89,0,1.761,0.081,2.62,0.197C167.394,190.735,166.524,190.654,165.634,190.654z
			"/>
		<path style="fill:#FDD44B;" d="M182.295,200.02c0.456,0.743,0.873,1.514,1.228,2.318
			C183.168,201.533,182.752,200.764,182.295,200.02z"/>
		<path style="fill:#FDD44B;" d="M157.764,228.107c-0.808-0.357-1.582-0.776-2.329-1.235
			C156.182,227.332,156.955,227.75,157.764,228.107z"/>
		<path style="fill:#FDD44B;" d="M151.203,223.371c1.176,1.288,2.515,2.419,3.994,3.357
			C153.719,225.791,152.379,224.658,151.203,223.371z"/>
		<path style="fill:#FDD44B;" d="M150.94,223.083c-0.572-0.651-1.11-1.335-1.593-2.058
			C149.829,221.749,150.368,222.43,150.94,223.083z"/>
		<path style="fill:#FDD44B;" d="M146.074,210.215L146.074,210.215c0,0.892,0.081,1.762,0.197,2.622
			C146.155,211.977,146.074,211.106,146.074,210.215z"/>
		<path style="fill:#FDD44B;" d="M183.528,202.347c-2.41-1.064-5.067-1.665-7.867-1.665c-10.786,0-19.56,8.774-19.56,19.56
			c0,2.799,0.601,5.457,1.665,7.867c2.41,1.064,5.068,1.665,7.867,1.665c10.786,0,19.56-8.774,19.56-19.559
			C185.194,207.416,184.592,204.758,183.528,202.347z"/>
		<path style="fill:#FDD44B;" d="M146.918,215.88c-0.237-0.779-0.41-1.585-0.549-2.402
			C146.507,214.296,146.681,215.1,146.918,215.88z"/>
		<path style="fill:#FDD44B;" d="M147.869,218.351c-0.355-0.771-0.675-1.561-0.929-2.382
			C147.194,216.79,147.514,217.58,147.869,218.351z"/>
		<path style="fill:#FDD44B;" d="M149.327,220.992c-0.456-0.686-0.855-1.41-1.222-2.153
			C148.472,219.583,148.872,220.306,149.327,220.992z"/>
	</g>
	<g>
		<path style="fill:#FDD44B;" d="M225.552,191.522c0.818,0.253,1.607,0.572,2.375,0.926
			C227.158,192.094,226.371,191.774,225.552,191.522z"/>
		<path style="fill:#FDD44B;" d="M228.426,192.689c0.734,0.364,1.451,0.759,2.131,1.21
			C229.877,193.449,229.161,193.052,228.426,192.689z"/>
		<path style="fill:#FDD44B;" d="M223.061,190.95c0.813,0.138,1.614,0.31,2.39,0.546
			C224.675,191.261,223.875,191.088,223.061,190.95z"/>
		<path style="fill:#FDD44B;" d="M230.609,193.93c0.72,0.481,1.4,1.016,2.049,1.586C232.009,194.947,231.33,194.411,230.609,193.93z
			"/>
		<path style="fill:#FDD44B;" d="M236.458,200.024c0.454,0.74,0.868,1.506,1.223,2.306
			C237.327,201.53,236.913,200.764,236.458,200.024z"/>
		<path style="fill:#FDD44B;" d="M219.795,190.654c0.89,0,1.761,0.081,2.62,0.197C221.555,190.735,220.685,190.654,219.795,190.654z
			"/>
		<path style="fill:#FDD44B;" d="M200.235,210.215L200.235,210.215c0,0.892,0.081,1.762,0.197,2.622
			C200.316,211.977,200.235,211.106,200.235,210.215z"/>
		<path style="fill:#FDD44B;" d="M236.304,199.771c-0.936-1.474-2.063-2.81-3.346-3.982
			C234.24,196.962,235.37,198.297,236.304,199.771z"/>
		<path style="fill:#FDD44B;" d="M201.079,215.88c-0.237-0.779-0.41-1.585-0.549-2.402
			C200.668,214.296,200.842,215.1,201.079,215.88z"/>
		<path style="fill:#FDD44B;" d="M211.925,228.107c-0.808-0.357-1.582-0.776-2.329-1.235
			C210.343,227.332,211.116,227.75,211.925,228.107z"/>
		<path style="fill:#FDD44B;" d="M237.689,202.347c-2.41-1.063-5.067-1.665-7.866-1.665c-10.786,0-19.56,8.774-19.56,19.56
			c0,2.799,0.601,5.457,1.665,7.867c2.41,1.064,5.068,1.665,7.867,1.665c10.786,0,19.56-8.774,19.56-19.559
			C239.354,207.416,238.753,204.757,237.689,202.347z"/>
		<path style="fill:#FDD44B;" d="M205.364,223.371c1.176,1.288,2.515,2.419,3.995,3.357
			C207.88,225.791,206.54,224.658,205.364,223.371z"/>
		<path style="fill:#FDD44B;" d="M205.101,223.083c-0.572-0.651-1.111-1.335-1.593-2.058
			C203.991,221.749,204.529,222.43,205.101,223.083z"/>
		<path style="fill:#FDD44B;" d="M202.031,218.351c-0.355-0.771-0.675-1.561-0.929-2.382
			C201.355,216.79,201.676,217.58,202.031,218.351z"/>
		<path style="fill:#FDD44B;" d="M203.489,220.992c-0.456-0.686-0.855-1.41-1.223-2.153
			C202.633,219.583,203.033,220.306,203.489,220.992z"/>
	</g>
	<g>
		<path style="fill:#FDD44B;" d="M282.586,192.688c0.736,0.364,1.454,0.761,2.134,1.212
			C284.039,193.449,283.322,193.052,282.586,192.688z"/>
		<path style="fill:#FDD44B;" d="M279.713,191.522c0.819,0.253,1.607,0.572,2.376,0.927
			C281.319,192.095,280.531,191.774,279.713,191.522z"/>
		<path style="fill:#FDD44B;" d="M277.222,190.95c0.813,0.138,1.615,0.31,2.39,0.546
			C278.836,191.261,278.035,191.087,277.222,190.95z"/>
		<path style="fill:#FDD44B;" d="M290.616,200.019c0.456,0.744,0.873,1.514,1.229,2.319
			C291.489,201.533,291.073,200.763,290.616,200.019z"/>
		<path style="fill:#FDD44B;" d="M284.769,193.93c0.721,0.481,1.401,1.017,2.051,1.588
			C286.17,194.948,285.491,194.411,284.769,193.93z"/>
		<path style="fill:#FDD44B;" d="M290.468,199.775c-0.937-1.476-2.065-2.814-3.351-3.988
			C288.401,196.962,289.532,198.299,290.468,199.775z"/>
		<path style="fill:#FDD44B;" d="M273.956,190.654c0.89,0,1.761,0.081,2.62,0.197C275.716,190.735,274.846,190.654,273.956,190.654z
			"/>
		<path style="fill:#FDD44B;" d="M254.396,210.215L254.396,210.215c0,0.966,0.077,1.913,0.213,2.842
			C254.473,212.128,254.396,211.18,254.396,210.215z"/>
		<path style="fill:#FDD44B;" d="M263.994,226.998c0.224,0.134,0.431,0.293,0.661,0.418c0.01,0.001,0.021,0.002,0.033,0.002
			c0.03,0.019,0.059,0.039,0.088,0.058c0.287,0.153,0.595,0.27,0.89,0.409C265.093,227.615,264.535,227.32,263.994,226.998z"/>
		<path style="fill:#FDD44B;" d="M263.211,226.504c-0.496-0.328-0.975-0.678-1.439-1.048
			C262.236,225.827,262.714,226.175,263.211,226.504z"/>
		<path style="fill:#FDD44B;" d="M255.216,215.776c-0.179-0.601-0.301-1.224-0.422-1.847
			C254.914,214.552,255.037,215.174,255.216,215.776z"/>
		<path style="fill:#FDD44B;" d="M259.795,223.634c0.401,0.423,0.813,0.828,1.25,1.214
			C260.608,224.463,260.195,224.055,259.795,223.634z"/>
		<path style="fill:#FDD44B;" d="M291.85,202.347c-2.41-1.064-5.067-1.665-7.866-1.665c-10.786,0-19.56,8.774-19.56,19.56
			c0,2.786,0.597,5.43,1.652,7.831c2.417,1.073,5.072,1.701,7.881,1.701c10.785,0,19.56-8.774,19.56-19.559
			C293.515,207.416,292.914,204.758,291.85,202.347z"/>
		<path style="fill:#FDD44B;" d="M256.189,218.346c-0.241-0.523-0.436-1.07-0.63-1.616
			C255.753,217.277,255.948,217.822,256.189,218.346z"/>
		<path style="fill:#FDD44B;" d="M257.503,220.735c-0.306-0.476-0.575-0.976-0.84-1.479
			C256.928,219.76,257.197,220.258,257.503,220.735z"/>
		<path style="fill:#FDD44B;" d="M259.131,222.913c-0.372-0.432-0.714-0.889-1.047-1.353
			C258.417,222.025,258.759,222.48,259.131,222.913z"/>
	</g>
	<g>
		<path style="fill:#FDD44B;" d="M147.18,239.541c0.741,0.367,1.465,0.766,2.149,1.221
			C148.644,240.307,147.922,239.908,147.18,239.541z"/>
		<path style="fill:#FDD44B;" d="M141.818,237.804c0.815,0.138,1.619,0.312,2.397,0.547
			C143.437,238.116,142.634,237.942,141.818,237.804z"/>
		<path style="fill:#FDD44B;" d="M144.309,238.376c0.82,0.253,1.61,0.573,2.38,0.928
			C145.918,238.95,145.129,238.629,144.309,238.376z"/>
		<path style="fill:#FDD44B;" d="M149.364,240.783c0.724,0.483,1.406,1.021,2.058,1.593
			C150.77,241.803,150.088,241.265,149.364,240.783z"/>
		<path style="fill:#FDD44B;" d="M151.71,242.638c1.287,1.176,2.42,2.516,3.357,3.995
			C154.129,245.153,152.999,243.814,151.71,242.638z"/>
		<path style="fill:#FDD44B;" d="M138.553,237.509c0.891,0,1.762,0.081,2.621,0.197C140.315,237.59,139.444,237.509,138.553,237.509
			z"/>
		<path style="fill:#FDD44B;" d="M120.788,265.205c-0.355-0.77-0.675-1.56-0.928-2.381
			C120.113,263.645,120.434,264.434,120.788,265.205z"/>
		<path style="fill:#FDD44B;" d="M124.12,270.224c1.178,1.291,2.52,2.423,4.003,3.363
			C126.641,272.649,125.298,271.513,124.12,270.224z"/>
		<path style="fill:#FDD44B;" d="M123.861,269.939c-0.573-0.652-1.111-1.336-1.595-2.06
			C122.749,268.605,123.288,269.286,123.861,269.939z"/>
		<path style="fill:#FDD44B;" d="M119.19,259.689c-0.116-0.859-0.197-1.729-0.197-2.62
			C118.993,257.96,119.074,258.829,119.19,259.689z"/>
		<path style="fill:#FDD44B;" d="M155.211,246.869c0.46,0.748,0.879,1.524,1.237,2.333c-2.41-1.064-5.068-1.665-7.867-1.665
			c-10.786,0-19.56,8.774-19.56,19.56c0,2.799,0.601,5.457,1.665,7.867c-0.813-0.359-1.591-0.779-2.341-1.241
			c2.976,1.831,6.465,2.907,10.208,2.907c10.786,0,19.56-8.775,19.56-19.561C158.113,253.329,157.039,249.844,155.211,246.869z"/>
		<path style="fill:#FDD44B;" d="M122.247,267.847c-0.455-0.685-0.854-1.41-1.222-2.152
			C121.392,266.438,121.792,267.161,122.247,267.847z"/>
		<path style="fill:#FDD44B;" d="M119.836,262.732c-0.236-0.778-0.409-1.581-0.547-2.397
			C119.427,261.151,119.6,261.954,119.836,262.732z"/>
	</g>
	<g>
		<path style="fill:#FDD44B;" d="M171.389,285.213c0.82,0.253,1.61,0.573,2.38,0.928
			C172.999,285.787,172.21,285.466,171.389,285.213z"/>
		<path style="fill:#FDD44B;" d="M174.261,286.378c0.741,0.367,1.464,0.765,2.149,1.22
			C175.724,287.144,175.002,286.745,174.261,286.378z"/>
		<path style="fill:#FDD44B;" d="M165.634,284.347c0.891,0,1.762,0.08,2.621,0.196C167.395,284.427,166.525,284.347,165.634,284.347
			z"/>
		<path style="fill:#FDD44B;" d="M178.791,289.475c1.287,1.176,2.42,2.516,3.357,3.995
			C181.21,291.991,180.08,290.651,178.791,289.475z"/>
		<path style="fill:#FDD44B;" d="M168.9,284.642c0.815,0.138,1.618,0.311,2.396,0.547C170.517,284.953,169.715,284.78,168.9,284.642
			z"/>
		<path style="fill:#FDD44B;" d="M176.445,287.62c0.723,0.483,1.406,1.021,2.057,1.593
			C177.85,288.641,177.169,288.102,176.445,287.62z"/>
		<path style="fill:#FDD44B;" d="M146.916,309.568c-0.236-0.778-0.409-1.581-0.547-2.396
			C146.507,307.987,146.681,308.79,146.916,309.568z"/>
		<path style="fill:#FDD44B;" d="M150.94,316.775c-0.572-0.651-1.11-1.334-1.593-2.057
			C149.83,315.441,150.368,316.122,150.94,316.775z"/>
		<path style="fill:#FDD44B;" d="M151.203,317.063c1.176,1.289,2.516,2.419,3.995,3.357
			C153.719,319.483,152.379,318.35,151.203,317.063z"/>
		<path style="fill:#FDD44B;" d="M182.292,293.706c0.459,0.748,0.879,1.524,1.237,2.333c-2.41-1.064-5.068-1.665-7.867-1.665
			c-10.786,0-19.56,8.774-19.56,19.56c0,2.799,0.601,5.457,1.665,7.867c-0.81-0.357-1.585-0.777-2.333-1.237
			c2.974,1.828,6.46,2.902,10.2,2.902c10.786,0,19.56-8.774,19.56-19.56C185.194,300.166,184.12,296.68,182.292,293.706z"/>
		<path style="fill:#FDD44B;" d="M149.326,314.682c-0.455-0.685-0.853-1.408-1.22-2.149
			C148.473,313.275,148.872,313.997,149.326,314.682z"/>
		<path style="fill:#FDD44B;" d="M147.869,312.042c-0.355-0.77-0.675-1.56-0.928-2.38
			C147.194,310.482,147.514,311.271,147.869,312.042z"/>
		<path style="fill:#FDD44B;" d="M146.271,306.527c-0.116-0.859-0.197-1.73-0.197-2.621
			C146.074,304.797,146.155,305.668,146.271,306.527z"/>
	</g>
	<g>
		<path style="fill:#FDD44B;" d="M228.423,286.379c0.74,0.367,1.462,0.764,2.145,1.218
			C229.884,287.144,229.163,286.745,228.423,286.379z"/>
		<path style="fill:#FDD44B;" d="M230.607,287.62c0.723,0.482,1.405,1.02,2.055,1.591C232.01,288.64,231.33,288.102,230.607,287.62z
			"/>
		<path style="fill:#FDD44B;" d="M225.551,285.213c0.82,0.253,1.609,0.573,2.379,0.928
			C227.159,285.786,226.371,285.466,225.551,285.213z"/>
		<path style="fill:#FDD44B;" d="M236.455,293.71c0.457,0.745,0.875,1.517,1.231,2.322
			C237.33,295.226,236.913,294.455,236.455,293.71z"/>
		<path style="fill:#FDD44B;" d="M223.061,284.642c0.815,0.138,1.618,0.311,2.395,0.547
			C224.678,284.953,223.876,284.78,223.061,284.642z"/>
		<path style="fill:#FDD44B;" d="M236.307,293.467c-0.937-1.478-2.066-2.816-3.353-3.99
			C234.239,290.652,235.371,291.99,236.307,293.467z"/>
		<path style="fill:#FDD44B;" d="M219.795,284.347c0.891,0,1.762,0.08,2.621,0.196C221.556,284.427,220.686,284.347,219.795,284.347
			z"/>
		<path style="fill:#FDD44B;" d="M205.101,316.775c-0.572-0.651-1.11-1.334-1.593-2.057
			C203.991,315.441,204.529,316.122,205.101,316.775z"/>
		<path style="fill:#FDD44B;" d="M200.432,306.527c-0.116-0.859-0.197-1.73-0.197-2.621
			C200.235,304.797,200.316,305.668,200.432,306.527z"/>
		<path style="fill:#FDD44B;" d="M237.689,296.039c-2.41-1.064-5.067-1.665-7.867-1.665c-10.786,0-19.56,8.774-19.56,19.56
			c0,2.799,0.601,5.457,1.665,7.867c-0.81-0.357-1.585-0.777-2.333-1.237c2.974,1.828,6.46,2.902,10.2,2.902
			c10.786,0,19.56-8.774,19.56-19.56C239.354,301.107,238.753,298.449,237.689,296.039z"/>
		<path style="fill:#FDD44B;" d="M205.364,317.063c1.176,1.289,2.516,2.419,3.995,3.357
			C207.88,319.483,206.54,318.35,205.364,317.063z"/>
		<path style="fill:#FDD44B;" d="M201.078,309.568c-0.236-0.778-0.409-1.581-0.547-2.396
			C200.668,307.987,200.842,308.79,201.078,309.568z"/>
		<path style="fill:#FDD44B;" d="M202.03,312.042c-0.355-0.77-0.674-1.56-0.928-2.38
			C201.355,310.482,201.676,311.271,202.03,312.042z"/>
		<path style="fill:#FDD44B;" d="M203.487,314.682c-0.455-0.685-0.853-1.408-1.22-2.149
			C202.634,313.275,203.033,313.997,203.487,314.682z"/>
	</g>
	<g>
		<path style="fill:#FDD44B;" d="M201.342,333.299c0.74,0.366,1.462,0.764,2.146,1.218
			C202.803,334.064,202.083,333.665,201.342,333.299z"/>
		<path style="fill:#FDD44B;" d="M198.47,332.134c0.82,0.253,1.609,0.573,2.379,0.928
			C200.079,332.707,199.29,332.387,198.47,332.134z"/>
		<path style="fill:#FDD44B;" d="M203.526,334.541c0.723,0.482,1.406,1.02,2.057,1.592
			C204.931,335.561,204.25,335.023,203.526,334.541z"/>
		<path style="fill:#FDD44B;" d="M195.98,331.562c0.815,0.138,1.619,0.311,2.396,0.547
			C197.598,331.874,196.795,331.7,195.98,331.562z"/>
		<path style="fill:#FDD44B;" d="M209.372,340.627c0.46,0.748,0.879,1.523,1.237,2.333c-2.41-1.064-5.068-1.665-7.867-1.665
			c-10.786,0-19.56,8.774-19.56,19.56c0,2.799,0.601,5.457,1.665,7.867c-0.81-0.358-1.585-0.777-2.333-1.237
			c2.974,1.828,6.46,2.902,10.2,2.902c10.785,0,19.56-8.774,19.56-19.56C212.274,347.087,211.201,343.601,209.372,340.627z"/>
		<path style="fill:#FDD44B;" d="M192.715,331.267c0.891,0,1.762,0.08,2.621,0.196C194.476,331.348,193.605,331.267,192.715,331.267
			z"/>
		<path style="fill:#FDD44B;" d="M205.871,336.395c1.287,1.176,2.42,2.516,3.357,3.995
			C208.29,338.911,207.16,337.571,205.871,336.395z"/>
		<path style="fill:#FDD44B;" d="M178.02,363.694c-0.572-0.651-1.11-1.333-1.592-2.057
			C176.91,362.362,177.448,363.042,178.02,363.694z"/>
		<path style="fill:#FDD44B;" d="M173.351,353.446c-0.116-0.859-0.196-1.729-0.196-2.62
			C173.155,351.717,173.235,352.587,173.351,353.446z"/>
		<path style="fill:#FDD44B;" d="M176.407,361.603c-0.454-0.685-0.853-1.408-1.22-2.149
			C175.553,360.195,175.952,360.917,176.407,361.603z"/>
		<path style="fill:#FDD44B;" d="M178.284,363.985c1.175,1.288,2.515,2.418,3.994,3.356
			C180.8,366.404,179.46,365.271,178.284,363.985z"/>
		<path style="fill:#FDD44B;" d="M174.949,358.962c-0.355-0.77-0.674-1.56-0.928-2.38
			C174.275,357.403,174.595,358.191,174.949,358.962z"/>
		<path style="fill:#FDD44B;" d="M173.997,356.489c-0.236-0.778-0.409-1.581-0.547-2.396
			C173.588,354.908,173.761,355.71,173.997,356.489z"/>
	</g>
	<g>
		<path style="fill:#FDD44B;" d="M198.47,238.376c0.82,0.253,1.609,0.573,2.379,0.928
			C200.079,238.949,199.29,238.629,198.47,238.376z"/>
		<path style="fill:#FDD44B;" d="M173.351,259.689c-0.116-0.859-0.196-1.729-0.196-2.62
			C173.155,257.96,173.235,258.829,173.351,259.689z"/>
		<path style="fill:#FDD44B;" d="M195.98,237.804c0.815,0.138,1.619,0.312,2.396,0.547
			C197.598,238.116,196.795,237.942,195.98,237.804z"/>
		<path style="fill:#FDD44B;" d="M201.342,239.542c0.74,0.367,1.462,0.765,2.146,1.218
			C202.803,240.306,202.083,239.908,201.342,239.542z"/>
		<path style="fill:#FDD44B;" d="M203.526,240.783c0.723,0.483,1.406,1.02,2.057,1.592
			C204.931,241.804,204.25,241.266,203.526,240.783z"/>
		<path style="fill:#FDD44B;" d="M192.715,237.509c0.891,0,1.762,0.081,2.621,0.197C194.476,237.59,193.605,237.509,192.715,237.509
			z"/>
		<path style="fill:#FDD44B;" d="M205.871,242.638c1.287,1.176,2.42,2.516,3.357,3.995
			C208.29,245.153,207.16,243.814,205.871,242.638z"/>
		<path style="fill:#FDD44B;" d="M178.022,269.939c-0.573-0.652-1.111-1.336-1.594-2.06
			C176.91,268.605,177.449,269.286,178.022,269.939z"/>
		<path style="fill:#FDD44B;" d="M178.281,270.224c1.178,1.291,2.52,2.423,4.002,3.363
			C180.802,272.649,179.459,271.513,178.281,270.224z"/>
		<path style="fill:#FDD44B;" d="M209.372,246.869c0.46,0.748,0.879,1.524,1.237,2.333c-2.41-1.064-5.068-1.665-7.867-1.665
			c-10.786,0-19.56,8.774-19.56,19.56c0,2.799,0.601,5.457,1.665,7.867c-0.813-0.359-1.591-0.779-2.341-1.241
			c2.976,1.831,6.465,2.907,10.208,2.907c10.785,0,19.56-8.775,19.56-19.561C212.274,253.329,211.201,249.844,209.372,246.869z"/>
		<path style="fill:#FDD44B;" d="M176.408,267.847c-0.456-0.685-0.854-1.41-1.222-2.152
			C175.553,266.438,175.953,267.161,176.408,267.847z"/>
		<path style="fill:#FDD44B;" d="M174.949,265.205c-0.355-0.77-0.674-1.56-0.928-2.381
			C174.275,263.645,174.595,264.434,174.949,265.205z"/>
		<path style="fill:#FDD44B;" d="M173.998,262.732c-0.236-0.778-0.409-1.581-0.548-2.397
			C173.588,261.151,173.762,261.954,173.998,262.732z"/>
	</g>
	<g>
		<path style="fill:#FDD44B;" d="M255.505,239.543c0.738,0.365,1.457,0.762,2.139,1.215
			C256.962,240.305,256.243,239.908,255.505,239.543z"/>
		<path style="fill:#FDD44B;" d="M250.142,237.805c0.813,0.138,1.615,0.31,2.391,0.546
			C251.756,238.116,250.956,237.943,250.142,237.805z"/>
		<path style="fill:#FDD44B;" d="M246.877,237.509c0.89,0,1.76,0.081,2.619,0.197C248.637,237.59,247.767,237.509,246.877,237.509z"
			/>
		<path style="fill:#FDD44B;" d="M252.632,238.377c0.819,0.253,1.608,0.572,2.376,0.926
			C254.239,238.949,253.451,238.629,252.632,238.377z"/>
		<path style="fill:#FDD44B;" d="M227.316,257.069c0-1.348,0.137-2.665,0.398-3.937
			C227.453,254.404,227.316,255.721,227.316,257.069z"/>
		<path style="fill:#FDD44B;" d="M257.688,240.784c0.721,0.482,1.402,1.018,2.052,1.589
			C259.09,241.802,258.411,241.265,257.688,240.784z"/>
		<path style="fill:#FDD44B;" d="M263.537,246.875c0.456,0.743,0.873,1.513,1.228,2.317
			C264.409,248.388,263.993,247.618,263.537,246.875z"/>
		<path style="fill:#FDD44B;" d="M263.387,246.629c-0.937-1.476-2.065-2.814-3.351-3.987
			C261.32,243.816,262.451,245.153,263.387,246.629z"/>
		<path style="fill:#FDD44B;" d="M230.571,267.851c-0.457-0.687-0.857-1.414-1.225-2.158
			C229.714,266.438,230.115,267.164,230.571,267.851z"/>
		<path style="fill:#FDD44B;" d="M232.44,270.222c1.179,1.293,2.523,2.426,4.006,3.366
			C234.963,272.649,233.619,271.513,232.44,270.222z"/>
		<path style="fill:#FDD44B;" d="M232.184,269.941c-0.574-0.653-1.113-1.337-1.597-2.062
			C231.071,268.604,231.611,269.287,232.184,269.941z"/>
		<path style="fill:#FDD44B;" d="M264.77,249.202c-2.41-1.064-5.067-1.665-7.866-1.665c-10.786,0-19.56,8.774-19.56,19.56
			c0,2.799,0.601,5.457,1.665,7.867c-0.814-0.359-1.593-0.78-2.344-1.243c2.977,1.832,6.466,2.909,10.211,2.909
			c10.786,0,19.56-8.775,19.56-19.561C266.435,254.27,265.833,251.612,264.77,249.202z"/>
		<path style="fill:#FDD44B;" d="M229.111,265.207c-0.355-0.771-0.675-1.562-0.929-2.383
			C228.436,263.645,228.756,264.435,229.111,265.207z"/>
		<path style="fill:#FDD44B;" d="M246.875,237.509L246.875,237.509c-9.438,0-17.335,6.718-19.162,15.623
			C229.541,244.227,237.439,237.509,246.875,237.509z"/>
		<path style="fill:#FDD44B;" d="M227.316,257.069c0,0.891,0.081,1.761,0.197,2.621C227.396,258.831,227.316,257.96,227.316,257.069
			z"/>
		<path style="fill:#FDD44B;" d="M227.611,260.335c0.138,0.818,0.312,1.623,0.549,2.403
			C227.923,261.958,227.75,261.152,227.611,260.335z"/>
	</g>
	<path style="fill:#3F2D20;" d="M308.557,210.215c0-17.347-12.83-31.749-29.499-34.223c1.549-3.922,2.419-8.182,2.419-12.648
		c0-19.079-15.521-34.601-34.601-34.601c-10.958,0-20.729,5.134-27.073,13.11c-4.847-6.101-11.708-10.525-19.567-12.276V98.174
		c-0.012-22.546,2.379-52.524,23.188-52.574c0.012,0,0.023,0,0.033,0c3.895,0,7.158,1.629,9.702,4.843
		c3.2,4.043,4.649,10.163,3.523,14.884c-0.966,4.039,1.53,8.096,5.57,9.06c4.04,0.964,8.097-1.529,9.06-5.57
		c2.192-9.184-0.305-20.06-6.357-27.708c-5.386-6.806-13.019-10.551-21.497-10.551c-0.022,0-0.046,0-0.068,0
		c-10.068,0.023-17.479,3.569-22.939,9.081c-0.521-1.419-1.105-2.844-1.783-4.27c-7.912-16.623-24.597-28.438-49.589-35.117
		c-2.342-0.623-4.839-0.076-6.711,1.46c-1.872,1.535-2.891,3.888-2.735,6.307c0.006,0.089,0.433,7.277-1.289,17.389
		c-9.956-2.785-26.738-4.269-44.413,8.22c-2.473,1.747-3.563,4.712-3.049,7.506l-0.006,0.001c0.011,0.06,0.024,0.117,0.036,0.176
		c0.007,0.033,0.013,0.066,0.019,0.098c3.989,21.094,16.957,31.685,25.989,36.626c-5.829,8.437-11.155,13.279-11.211,13.33
		c-1.812,1.617-2.733,4.009-2.471,6.424c0.262,2.414,1.674,4.553,3.791,5.744c15.034,8.451,29.016,12.688,41.787,12.688
		c6.385,0,12.47-1.06,18.227-3.183c7.506-2.768,13.479-7.016,18.153-11.535v28.073c-7.861,1.753-14.723,6.182-19.571,12.287
		c-6.342-7.981-16.107-13.121-27.07-13.121c-19.079,0-34.601,15.522-34.601,34.601c0,4.466,0.859,8.735,2.407,12.658
		c-16.661,2.48-29.488,16.872-29.488,34.213c0,17.338,12.821,31.736,29.479,34.218c-1.545,3.915-2.398,8.177-2.398,12.635
		c0,17.34,12.824,31.731,29.483,34.213c-1.542,3.914-2.402,8.169-2.402,12.624c0,17.351,12.838,31.756,29.512,34.224
		c-1.561,3.934-2.432,8.213-2.432,12.696c0,19.079,15.522,34.601,34.601,34.601s34.601-15.522,34.601-34.601
		c0-4.482-0.863-8.764-2.423-12.697c16.67-2.474,29.503-16.877,29.503-34.223c0-4.458-0.858-8.715-2.401-12.631
		c16.657-2.481,29.482-16.867,29.482-34.207c0-4.464-0.864-8.727-2.411-12.648C295.729,241.943,308.557,227.557,308.557,210.215z
		 M273.956,229.774c-3.316,0-6.44-0.835-9.179-2.298c-0.03-0.019-0.059-0.039-0.088-0.058c-0.012,0-0.023-0.001-0.033-0.002
		c-6.105-3.314-10.259-9.781-10.259-17.201c0-10.786,8.774-19.561,19.56-19.561c10.786,0,19.56,8.775,19.56,19.561
		C293.515,221,284.741,229.774,273.956,229.774z M227.316,257.069c0-10.785,8.774-19.56,19.559-19.56
		c10.786,0,19.56,8.774,19.56,19.56c0,10.786-8.774,19.561-19.56,19.561C236.09,276.63,227.316,267.855,227.316,257.069z
		 M219.795,323.466c-10.785,0-19.56-8.774-19.56-19.56c0-10.785,8.774-19.56,19.56-19.56c10.786,0,19.559,8.774,19.559,19.56
		C239.354,314.692,230.581,323.466,219.795,323.466z M138.553,276.63c-10.786,0-19.56-8.775-19.56-19.561
		c0-10.785,8.774-19.56,19.56-19.56s19.56,8.774,19.56,19.56C158.113,267.855,149.339,276.63,138.553,276.63z M111.473,229.774
		c-10.785,0-19.56-8.774-19.56-19.559c0-10.786,8.774-19.561,19.56-19.561c10.786,0,19.56,8.775,19.56,19.561
		C131.033,221,122.258,229.774,111.473,229.774z M161.695,98.979c-10.864,3.95-23.837,2.546-38.663-4.166
		c3.412-4.07,7.57-9.648,11.462-16.52c1.155-2.04,1.319-4.494,0.401-6.649c-0.92-2.155-2.764-3.752-5.036-4.331
		c-0.751-0.204-17.171-4.881-23.006-24.048c17.564-9.643,32.577-1.524,33.214-1.169c2.03,1.173,4.492,1.332,6.652,0.431
		c2.164-0.901,3.784-2.76,4.381-5.026c2.014-7.638,2.935-14.533,3.336-19.829c15.299,5.552,25.663,13.566,30.58,24.025
		c7.098,15.095,0.217,33.648,0.194,33.711C185.147,75.582,178.45,92.884,161.695,98.979z M192.715,143.784
		c10.785,0,19.56,8.774,19.56,19.56c0,10.786-8.774,19.56-19.56,19.56c-10.786,0-19.56-8.774-19.56-19.56
		C173.155,152.558,181.929,143.784,192.715,143.784z M246.875,182.904c-10.785,0-19.559-8.774-19.559-19.56
		c0-10.785,8.774-19.56,19.559-19.56c10.786,0,19.56,8.774,19.56,19.56C266.435,174.129,257.661,182.904,246.875,182.904z
		 M239.354,210.215c0,10.785-8.774,19.559-19.559,19.559c-10.785,0-19.56-8.774-19.56-19.559c0-10.786,8.774-19.561,19.56-19.561
		C230.581,190.654,239.354,199.43,239.354,210.215z M212.274,257.069c0,10.786-8.774,19.561-19.56,19.561
		c-10.786,0-19.56-8.775-19.56-19.561c0-10.785,8.774-19.56,19.56-19.56C203.5,237.509,212.274,246.284,212.274,257.069z
		 M185.194,210.215c0,10.785-8.774,19.559-19.56,19.559c-10.786,0-19.56-8.774-19.56-19.559c0-10.786,8.774-19.561,19.56-19.561
		C176.42,190.654,185.194,199.43,185.194,210.215z M158.113,163.344c0,10.786-8.774,19.56-19.56,19.56s-19.56-8.774-19.56-19.56
		c0-10.785,8.774-19.56,19.56-19.56S158.113,152.558,158.113,163.344z M165.634,284.347c10.786,0,19.56,8.774,19.56,19.56
		c0,10.786-8.774,19.56-19.56,19.56c-10.786,0-19.56-8.774-19.56-19.56C146.074,293.121,154.848,284.347,165.634,284.347z
		 M192.715,331.267c10.785,0,19.56,8.774,19.56,19.56c0,10.785-8.774,19.56-19.56,19.56c-10.786,0-19.56-8.774-19.56-19.56
		C173.155,340.041,181.929,331.267,192.715,331.267z"/>
</g>
<g>
</g>
<g>
</g>
<g>
</g>
<g>
</g>
<g>
</g>
<g>
</g>
<g>
</g>
<g>
</g>
<g>
</g>
<g>
</g>
<g>
</g>
<g>
</g>
<g>
</g>
<g>
</g>
<g>
</g>
</svg>
