<?xml version="1.0" encoding="iso-8859-1"?>
<!-- Generator: Adobe Illustrator 19.0.0, SVG Export Plug-In . SVG Version: 6.00 Build 0)  -->
<svg version="1.1" id="Layer_1" xmlns="http://www.w3.org/2000/svg" xmlns:xlink="http://www.w3.org/1999/xlink" x="0px" y="0px"
	 viewBox="0 0 512 512" style="enable-background:new 0 0 512 512;" xml:space="preserve">
<g>
	<circle style="fill:#FF7031;" cx="90.779" cy="347.883" r="33.253"/>
	<circle style="fill:#FF7031;" cx="277.717" cy="258.619" r="33.253"/>
	<circle style="fill:#FF7031;" cx="420.274" cy="372.215" r="37.611"/>
</g>
<path style="fill:#3E9C06;" d="M138.867,463.848c0,0,20.488-77.957,109.292-77.957c85.67,0,116.49,57.723,123.804,77.957
	c-41.79,0-74.983,31.619-122.237,36.681C205.845,505.231,155.174,486.71,138.867,463.848z"/>
<path d="M67.537,382.784c-2.671,0-5.337-1.024-7.371-3.08l-0.258-0.264c-3.991-4.168-3.848-10.781,0.321-14.772
	c4.157-3.982,10.751-3.848,14.746,0.294c4.031,4.109,4.019,10.746-0.08,14.792C72.849,381.773,70.191,382.784,67.537,382.784z"/>
<path d="M96.173,391.53c-5.01,0-9.432-3.613-10.291-8.717c-0.957-5.69,2.88-11.079,8.57-12.036
	c11.086-1.864,19.133-11.395,19.134-22.663c-0.001-12.672-10.312-22.983-22.985-22.983c-11.318,0-21.093,8.423-22.738,19.593
	c-0.841,5.709-6.153,9.653-11.859,8.814c-5.709-0.841-9.655-6.149-8.815-11.858c3.145-21.346,21.807-37.444,43.41-37.444
	c0.001,0,0,0,0.001,0c24.193,0,43.879,19.682,43.88,43.878c-0.001,21.51-15.379,39.708-36.564,43.27
	C97.33,391.483,96.747,391.53,96.173,391.53z"/>
<path d="M254.473,290.854c-2.671,0-5.337-1.024-7.371-3.08l-0.258-0.264c-3.991-4.168-3.848-10.781,0.321-14.772
	c4.157-3.982,10.752-3.848,14.746,0.294c4.031,4.109,4.019,10.746-0.08,14.792C259.786,289.841,257.127,290.854,254.473,290.854z"/>
<path d="M283.108,299.6c-5.01,0-9.432-3.613-10.291-8.717c-0.957-5.69,2.88-11.079,8.57-12.036
	c11.087-1.864,19.134-11.395,19.135-22.663c-0.001-12.672-10.312-22.983-22.985-22.983c-11.318,0-21.093,8.423-22.738,19.593
	c-0.842,5.709-6.157,9.652-11.859,8.814c-5.709-0.841-9.655-6.149-8.815-11.858c3.145-21.346,21.807-37.444,43.41-37.444
	c0.001,0,0,0,0.001,0c24.193,0,43.879,19.682,43.88,43.878c-0.001,21.51-15.38,39.708-36.565,43.27
	C284.267,299.551,283.683,299.6,283.108,299.6z"/>
<path d="M419.515,345.051c-0.024,0-0.048,0-0.072,0c-0.008,0-0.091-0.001-0.099-0.001c-5.769,0-10.474-4.678-10.474-10.448
	c0-5.769,4.651-10.448,10.421-10.448l0.244,0.001c5.765,0.052,10.434,4.766,10.388,10.531
	C429.878,340.427,425.246,345.051,419.515,345.051z"/>
<path d="M420.27,420.227c-12.306,0-24.612-4.684-33.982-14.053c-16.658-16.66-18.842-42.662-5.194-61.829
	c3.345-4.699,9.869-5.796,14.57-2.45c4.7,3.347,5.797,9.871,2.45,14.571c-7.708,10.824-6.467,25.516,2.948,34.934
	c10.593,10.591,27.825,10.59,38.416-0.001c9.459-9.458,10.589-24.668,2.628-35.38c-3.443-4.631-2.478-11.176,2.152-14.617
	c4.634-3.441,11.177-2.478,14.617,2.153c14.099,18.968,12.112,45.888-4.622,62.62C444.885,415.541,432.577,420.226,420.27,420.227z"
	/>
<path d="M277.726,454.065c-0.67,0-1.346-0.065-2.025-0.198c-0.017-0.003-0.031-0.006-0.047-0.009
	c-5.658-1.132-9.328-6.635-8.196-12.294c1.117-5.592,6.498-9.245,12.092-8.234c0.235,0.042,0.471,0.092,0.701,0.149
	c5.597,1.4,9.001,7.072,7.601,12.67C286.667,450.896,282.407,454.065,277.726,454.065z"/>
<path style="fill:#3E9C06;" d="M10.703,10.665c0,0-6.337,112.394,47.941,156.616c52.904,43.104,80.569,28.999,99.561,66.133
	c19.383-23.638,52.424-113.173-17.95-170.515C86.816,19.358,56.24,46.466,10.703,10.665z"/>
<path d="M79.666,105.543c-1.909,0-3.841-0.522-5.574-1.618l-0.416-0.263c-4.877-3.084-6.33-9.538-3.246-14.415
	c3.084-4.876,9.534-6.331,14.415-3.246l0.416,0.263c4.877,3.084,6.33,9.538,3.246,14.415
	C86.517,103.821,83.129,105.543,79.666,105.543z"/>
<path style="fill:#3E9C06;" d="M490.843,322.525c0,0,30.857-108.261-12.389-163.321c-42.152-53.667-72.237-45.98-82.614-86.376
	c-24.1,18.806-75.989,98.904-19.921,170.295C418.496,297.334,454.277,277.6,490.843,322.525z"/>
<path d="M248.158,375.444c-49.921,0-79.746,23.244-95.977,42.742c-12.904,15.503-19.377,31.026-21.985,38.476
	c-1.896,1.078-3.721,2.153-5.46,3.217c-27.34,16.72-41.513,34.184-42.105,34.92c-3.611,4.5-2.891,11.075,1.61,14.687
	c1.929,1.547,4.239,2.299,6.533,2.299c3.059,0,6.091-1.337,8.155-3.909c0.25-0.31,12.991-15.839,37.655-30.707
	c20.464,20.399,61.208,34.534,99.161,34.534c5.097,0,10.152-0.256,15.093-0.785c24.317-2.606,44.483-11.48,63.985-20.064
	c19.35-8.515,37.626-16.558,57.138-16.558c3.405,0,6.596-1.659,8.552-4.445c1.956-2.786,2.431-6.352,1.274-9.554
	C376.666,446.128,346.154,375.444,248.158,375.444z M306.407,471.73c-18.044,7.941-36.701,16.152-57.795,18.413
	c-34.816,3.727-72.869-8.211-92.244-23.326c23.085-10.377,52.984-18.173,89.464-16.394c5.767,0.265,10.663-4.164,10.944-9.926
	c0.281-5.764-4.163-10.663-9.927-10.944c-34.497-1.678-63.583,4.521-86.681,13.131c2.402-3.801,5.244-7.788,8.6-11.757
	c19.417-22.948,46.126-34.585,79.389-34.585c66.439,0,96.384,36.996,108.132,58.355C338.609,457.558,322.297,464.736,306.407,471.73
	z"/>
<path d="M147.933,236.349c3.013,19.497,3.224,39.293,0.606,59.268c-0.75,5.721,3.281,10.967,9.001,11.717
	c0.461,0.061,0.918,0.09,1.372,0.09c5.165,0,9.656-3.831,10.345-9.09c2.918-22.263,2.343-43.007-0.307-61.82
	c12.397-17.539,28.091-55.982,23.932-97.388c-3.4-33.837-18.885-62.207-46.029-84.324c-30.28-24.673-54.461-28.417-75.796-31.721
	C52.575,20.218,36.613,17.746,17.16,2.451C14.098,0.044,9.951-0.46,6.404,1.143c-3.548,1.603-5.912,5.046-6.132,8.934
	c-0.271,4.807-5.974,118.256,51.772,165.305c25.662,20.908,45.52,28.937,61.477,35.389
	C130.229,217.525,139.718,221.368,147.933,236.349z M21.067,30.006C37.86,39.083,53.05,41.435,67.86,43.728
	c20.525,3.178,39.911,6.181,65.796,27.271c22.681,18.481,35.613,42.104,38.437,70.214c2.458,24.47-3.129,47.253-9.85,63.643
	c-4.707-16.565-10.683-30.883-16.474-42.486c-16.185-32.431-34.156-51.092-34.914-51.87c-4.019-4.132-10.618-4.223-14.755-0.212
	c-4.139,4.011-4.242,10.622-0.237,14.768c0.167,0.172,16.823,17.577,31.547,47.325c4.353,8.795,8.085,17.686,11.204,26.66
	c-5.451-2.87-11.22-5.203-17.26-7.646c-14.655-5.925-32.892-13.299-56.111-32.215C28.464,129.217,21.96,62.64,21.067,30.006z"/>
<path d="M486.672,152.752c-20.446-26.031-38.057-38.223-52.209-48.021c-14.725-10.195-23.126-16.02-27.868-32.204
	c1.196-18.346,4.884-37.97,12.33-58.263c1.987-5.417-0.792-11.419-6.209-13.407s-11.419,0.793-13.406,6.209
	c-7.734,21.079-11.727,41.443-13.272,60.379c-15.945,14.39-39.698,48.452-44.729,89.76c-4.112,33.758,4.768,64.836,26.395,92.371
	c24.126,30.719,46.895,39.681,66.984,47.588c17.401,6.849,32.431,12.765,48.053,31.956c2.007,2.466,4.997,3.853,8.102,3.853
	c0.699,0,1.404-0.07,2.105-0.215c3.814-0.784,6.877-3.624,7.944-7.37C502.21,320.759,532.68,211.328,486.672,152.752z
	 M484.979,301.38c-14.39-12.541-28.695-18.171-42.64-23.66c-19.326-7.607-37.581-14.791-58.203-41.051
	c-18.07-23.009-25.5-48.895-22.085-76.938c2.973-24.414,13.426-45.415,23.581-59.93c0.956,17.195,3.642,32.475,6.745,45.068
	c8.671,35.193,22.106,57.344,22.674,58.269c1.971,3.215,5.402,4.987,8.916,4.987c1.862,0,3.748-0.498,5.452-1.543
	c4.919-3.016,6.462-9.449,3.445-14.368c-0.313-0.511-19.912-33.198-25.341-81.457c4.656,3.957,9.732,7.473,15.047,11.152
	c12.996,8.997,29.171,20.195,47.669,43.748C499.542,202.965,491.273,269.346,484.979,301.38z"/>
<path d="M442.437,235.81c-2.669,0-5.337-1.016-7.377-3.049l-0.349-0.348c-4.086-4.074-4.095-10.689-0.022-14.775
	c4.073-4.086,10.688-4.095,14.775-0.022l0.349,0.348c4.086,4.074,4.095,10.689,0.022,14.775
	C447.794,234.786,445.115,235.81,442.437,235.81z"/>
<g>
</g>
<g>
</g>
<g>
</g>
<g>
</g>
<g>
</g>
<g>
</g>
<g>
</g>
<g>
</g>
<g>
</g>
<g>
</g>
<g>
</g>
<g>
</g>
<g>
</g>
<g>
</g>
<g>
</g>
</svg>
