<?xml version="1.0" encoding="iso-8859-1"?>
<!-- Generator: Adobe Illustrator 19.0.0, SVG Export Plug-In . SVG Version: 6.00 Build 0)  -->
<svg version="1.1" id="Layer_1" xmlns="http://www.w3.org/2000/svg" xmlns:xlink="http://www.w3.org/1999/xlink" x="0px" y="0px"
	 viewBox="0 0 511.999 511.999" style="enable-background:new 0 0 511.999 511.999;" xml:space="preserve">
<polygon style="fill:#89CD37;" points="258.852,327.8 233.886,295.879 411.277,118.359 438.478,145.576 "/>
<polygon style="fill:#3E9C06;" points="257.769,326.415 501.551,164.42 476.584,132.498 399.938,184.674 "/>
<polygon style="fill:#89CD37;" points="257.769,326.415 489.067,287.444 477.902,234.372 350.869,264.549 "/>
<path style="fill:#EFEEEE;" d="M258.852,327.8l-24.967-31.921c0,0-40.937,23.66-83.743,48.415
	c-22.318,29.684-43.682,58.006-52.604,69.567c-15.774,20.436-40.664,23.296-59.972,13.098c-2.906,13.901,0.648,28.958,9.825,40.692
	c17.111,21.878,49.891,27.347,72.193,4.744C145.018,446.618,258.852,327.8,258.852,327.8z"/>
<path style="fill:#FFFFFF;" d="M218.285,253.459c0,0-98.62,131.734-120.747,160.402C78.135,439,44.935,437.542,25.303,417.898
	c-19.633-19.645-21.286-53.122,4.034-72.28c28.913-21.877,160.303-120.821,160.303-120.821L218.285,253.459z"/>
<polygon style="fill:#89CD37;" points="218.285,253.459 189.641,224.797 347.364,25.078 376.009,53.74 "/>
<polygon style="fill:#3E9C06;" points="217.042,252.216 448.3,64.211 419.655,35.548 338.527,101.203 "/>
<path d="M70.622,363.11c-2.952,0-5.884-1.243-7.951-3.663c-3.747-4.389-3.228-10.984,1.16-14.732
	c24.548-20.964,49.094-42.266,49.34-42.478c4.358-3.784,10.958-3.316,14.74,1.042c3.784,4.358,3.316,10.958-1.042,14.74
	c-0.246,0.213-24.857,21.571-49.467,42.588C75.435,362.288,73.022,363.11,70.622,363.11z"/>
<path d="M46.509,383.365c-3.091,0-6.151-1.354-8.207-3.961c-3.565-4.521-2.839-11.039,1.665-14.618
	c0.034-0.027,0.088-0.07,0.111-0.088c4.532-3.573,11.102-2.795,14.674,1.736c3.572,4.532,2.796,11.102-1.736,14.674
	C51.092,382.626,48.792,383.365,46.509,383.365z"/>
<path d="M509.781,157.983l-24.967-31.923c-3.391-4.334-9.56-5.298-14.11-2.201l-23.487,15.988c-0.385-0.586-0.834-1.143-1.349-1.658
	l-27.202-27.217c-1.959-1.961-4.618-3.063-7.392-3.063c-0.059,0-0.116,0.007-0.176,0.008l43.79-35.6
	c2.295-1.865,3.692-4.615,3.844-7.569c0.153-2.953-0.954-5.833-3.045-7.924l-28.646-28.662c-3.78-3.784-9.806-4.1-13.964-0.737
	L385.618,49.65c-0.51-1.2-1.248-2.323-2.22-3.296l-28.645-28.662c-2.11-2.112-5.02-3.217-8-3.045
	c-2.979,0.174-5.742,1.613-7.591,3.955l-156.884,198.66c-12.62,9.503-132.035,99.436-159.244,120.024
	C9.402,347.6,1.27,362.308,0.138,378.7c-1.183,17.118,5.296,34.098,17.775,46.585c2.607,2.609,5.421,4.94,8.385,7.008
	c-1.128,14.772,3.377,29.663,12.865,41.795c10.762,13.76,26.656,22.212,43.607,23.188c1.091,0.063,2.175,0.094,3.259,0.094
	c15.249-0.001,29.702-6.191,40.995-17.637c24.255-24.581,129.898-134.814,138.77-144.074l225.01-37.911
	c2.806-0.472,5.296-2.068,6.898-4.419c1.603-2.351,2.177-5.253,1.59-8.036l-11.167-53.072c-0.58-2.757-2.25-5.164-4.63-6.673
	c-2.38-1.508-5.268-1.993-8.01-1.342l-70.079,16.647l101.926-67.73c2.424-1.611,4.068-4.161,4.532-7.034
	C512.33,163.214,511.574,160.277,509.781,157.983z M411.277,133.141l12.479,12.486l-31.289,31.742
	c-0.017,0.018-0.033,0.034-0.05,0.051l-132.66,134.577l-11.945-15.273L411.277,133.141z M227.466,287.521
	c-4.163,2.406-18.88,10.913-38.208,22.086c20.131-26.832,36.086-48.141,37.318-49.786l4.169-5.28L388.91,125.958L227.466,287.521z
	 M418.914,49.589l13.809,13.819l-142.564,115.9l55.844-70.714L418.914,49.589z M348.281,40.776l13.77,13.779l-31.599,40.012
	c-0.003,0.003-0.005,0.006-0.007,0.009L217.369,237.761l-5.573-5.577l-8.196-8.201L348.281,40.776z M42.793,417.914
	c-0.11-0.064-0.22-0.123-0.333-0.183c-3.535-1.87-6.837-4.288-9.767-7.219c-8.086-8.092-12.463-19.445-11.708-30.372
	c0.502-7.268,3.452-17.712,14.657-26.189c24.646-18.647,125.051-94.271,153.029-115.343l7.656,7.66l8.169,8.174
	c-11.11,14.831-37.507,50.058-62.676,83.533c-0.011,0.015-0.022,0.029-0.033,0.044c-22.321,29.688-43.668,57.991-52.518,69.457
	c-8.715,11.291-19.276,14.22-26.601,14.689C55.802,422.604,48.948,421.096,42.793,417.914z M112.147,465.056
	c-10.015,10.151-20.848,11.782-28.179,11.358c-10.953-0.631-21.284-6.17-28.346-15.199c-4.486-5.736-7.311-12.572-8.245-19.557
	c4.238,0.966,8.576,1.481,12.949,1.481c1.223,0,2.448-0.039,3.674-0.117c16.436-1.051,31.285-9.14,41.809-22.774
	c8.726-11.305,29.497-38.838,51.403-67.969c30.83-17.829,60.395-34.919,74.038-42.806l6.627,8.473l7.167,9.164
	C220.843,352.353,133.795,443.115,112.147,465.056z M469.884,247.017l6.719,31.932l-172.18,29.01l50.675-33.674L469.884,247.017z
	 M343.248,257.067l63.411-64.329l67.719-46.099l11.986,15.325L343.248,257.067z"/>
<g>
</g>
<g>
</g>
<g>
</g>
<g>
</g>
<g>
</g>
<g>
</g>
<g>
</g>
<g>
</g>
<g>
</g>
<g>
</g>
<g>
</g>
<g>
</g>
<g>
</g>
<g>
</g>
<g>
</g>
</svg>
