<?xml version="1.0" encoding="iso-8859-1"?>
<!-- Generator: Adobe Illustrator 18.0.0, SVG Export Plug-In . SVG Version: 6.00 Build 0)  -->
<!DOCTYPE svg PUBLIC "-//W3C//DTD SVG 1.1//EN" "http://www.w3.org/Graphics/SVG/1.1/DTD/svg11.dtd">
<svg version="1.1" id="Capa_1" xmlns="http://www.w3.org/2000/svg" xmlns:xlink="http://www.w3.org/1999/xlink" x="0px" y="0px"
	 viewBox="0 0 363.51 363.51" style="enable-background:new 0 0 363.51 363.51;" xml:space="preserve">
<g>
	<path style="fill:#FDD44B;" d="M15.042,153.37c0,3.601,2.361,6.866,5.956,8.993c-0.329-2.967-0.5-5.967-0.5-8.995
		c0-3.026,0.174-6.03,0.5-9.007C17.401,146.493,15.042,149.766,15.042,153.37z"/>
	<path style="fill:#FDD44B;" d="M284.947,153.37c0-3.66-2.438-6.979-6.134-9.107c0.334,3.009,0.512,6.046,0.512,9.105
		c0,3.056-0.177,6.09-0.512,9.099C282.509,160.342,284.947,157.03,284.947,153.37z"/>
	<path style="fill:#FDD44B;" d="M339.543,232.105c-23.75,31.321-62.738,51.096-105.618,51.096c-42.409,0-80.998-19.35-104.81-50.08
		c17.597,37.599,58.028,63.968,104.981,63.968C281.47,297.089,322.203,270.243,339.543,232.105z"/>
	<path style="fill:#FDD44B;" d="M241.617,207.437V267.9c21.906-1.362,42.379-8.487,59.427-19.945L241.617,207.437z"/>
	<path style="fill:#FDD44B;" d="M226.575,207.437l-59.603,40.637c17.104,11.448,37.641,18.541,59.603,19.846V207.437z"/>
	<path style="fill:#FDD44B;" d="M255.33,198.583l58.194,39.678c12.164-10.921,21.767-24.397,27.788-39.678H255.33z"/>
	<path style="fill:#FDD44B;" d="M212.861,198.583h-86.33c6.045,15.343,15.704,28.866,27.942,39.811L212.861,198.583z"/>
	<g>
		<path style="fill:#FDD44B;" d="M242.568,102.486c-0.832-0.873-1.688-1.733-2.561-2.581
			C240.88,100.753,241.736,101.613,242.568,102.486z"/>
		<path style="fill:#FDD44B;" d="M185.558,70.768c1.552,0.388,3.094,0.794,4.616,1.231
			C188.652,71.562,187.111,71.156,185.558,70.768z"/>
		<path style="fill:#FDD44B;" d="M198.089,74.538c1.317,0.467,2.616,0.957,3.905,1.46C200.704,75.495,199.405,75.005,198.089,74.538
			z"/>
		<path style="fill:#FDD44B;" d="M178.094,69.098c2.056,0.398,4.091,0.837,6.101,1.318
			C182.185,69.936,180.151,69.496,178.094,69.098z"/>
		<path style="fill:#FDD44B;" d="M192.163,72.596c1.312,0.398,2.613,0.812,3.901,1.245
			C194.776,73.408,193.475,72.995,192.163,72.596z"/>
		<path style="fill:#FDD44B;" d="M171.843,68.042c1.597,0.237,3.18,0.506,4.752,0.793C175.023,68.548,173.441,68.279,171.843,68.042
			z"/>
		<path style="fill:#FDD44B;" d="M158.58,66.696c1.504,0.086,3.003,0.188,4.49,0.318C161.583,66.884,160.085,66.782,158.58,66.696z"
			/>
		<path style="fill:#FDD44B;" d="M165.393,67.239c1.426,0.147,2.843,0.316,4.252,0.503C168.236,67.556,166.82,67.387,165.393,67.239
			z"/>
		<path style="fill:#FDD44B;" d="M215.834,82.383c1.207,0.65,2.401,1.312,3.573,1.995C218.235,83.695,217.041,83.033,215.834,82.383
			z"/>
		<path style="fill:#FDD44B;" d="M235.482,95.767c1.118,0.958,2.212,1.933,3.274,2.928C237.694,97.7,236.6,96.726,235.482,95.767z"
			/>
		<path style="fill:#FDD44B;" d="M149.912,66.421c2.217,0,4.416,0.06,6.602,0.155C154.327,66.481,152.129,66.421,149.912,66.421z"/>
		<polygon style="fill:#FDD44B;" points="78.686,107.076 78.685,107.076 78.698,107.077 		"/>
		<path style="fill:#FDD44B;" d="M225.905,88.463c1.185,0.803,2.343,1.628,3.483,2.467C228.247,90.092,227.09,89.266,225.905,88.463
			z"/>
		<path style="fill:#FDD44B;" d="M203.713,76.669c1.79,0.728,3.556,1.485,5.288,2.282C207.27,78.154,205.503,77.398,203.713,76.669z
			"/>
		<path style="fill:#FDD44B;" d="M221.087,85.383c1.101,0.668,2.184,1.351,3.252,2.048
			C223.271,86.734,222.188,86.051,221.087,85.383z"/>
		<path style="fill:#FDD44B;" d="M209.117,79.002c1.781,0.823,3.524,1.689,5.24,2.582C212.641,80.691,210.899,79.825,209.117,79.002
			z"/>
		<path style="fill:#FDD44B;" d="M230.431,91.687c1.474,1.112,2.911,2.254,4.305,3.425C233.342,93.94,231.905,92.799,230.431,91.687
			z"/>
		<path style="fill:#FDD44B;" d="M39.265,175.332c-0.342-0.995-0.66-1.997-0.957-3.005
			C38.604,173.335,38.922,174.337,39.265,175.332z"/>
		<path style="fill:#FDD44B;" d="M112.201,184.639h144.97c4.72-10,7.112-20.319,7.112-30.722c0-18.719-7.848-36.335-21.137-50.539
			c-20.41-14.37-47.697-23.308-77.643-23.308c-18.652,0-36.457,3.345-52.029,9.391c-0.478-0.096-1.642-0.176-1.642-0.176v-0.019
			c3,0,4.104,0.794,5.508,2.187c1.393,1.404,2.287,3.334,2.287,5.319c0,1.976-0.757,3.909-2.15,5.313
			c-1.404,1.404-3.316,2.204-5.302,2.204c-1.975,0-3.899-0.803-5.303-2.206c-1.403-1.404-2.2-3.339-2.2-5.316
			c0-1.451,0.441-2.871,1.22-4.081c-0.007,0.01-0.015,0.018-0.021,0.028c-8.921,4.16-17.034,9.226-24.124,15.025
			c-0.019-0.009-0.041-0.012-0.06-0.02c0.854,0.373,1.647,0.89,2.314,1.552c1.393,1.403,2.196,3.339,2.196,5.324
			c0,1.975-0.802,3.911-2.196,5.314c-1.404,1.404-3.339,2.206-5.315,2.206c-1.985,0-3.921-0.802-5.324-2.206
			c-0.877-0.883-1.486-1.988-1.843-3.17c0.05,0.165,0.08,0.337,0.141,0.498c-12.93,14.085-20.527,31.199-20.527,49.64
			c0,18.579,7.767,35.994,21.124,50.292c-1.366-0.962-2.697-1.952-3.999-2.962c12.514,9.713,28.049,17.247,45.622,21.674
			c-5.93-13.87-9.198-28.446-9.198-44.273C104.68,187.457,108.047,184.639,112.201,184.639z M215.824,109.272
			c1.403-1.394,3.338-2.196,5.314-2.196c1.985,0,3.921,0.802,5.324,2.196c1.394,1.403,2.206,3.339,2.206,5.324
			c0,1.975-0.812,3.911-2.206,5.314c-1.403,1.404-3.339,2.206-5.324,2.206c-1.976,0-3.911-0.802-5.314-2.206
			c-1.395-1.403-2.206-3.339-2.206-5.314C213.617,112.612,214.429,110.676,215.824,109.272z M182.301,91.443
			c1.404-1.394,3.339-2.197,5.325-2.197c1.975,0,3.921,0.803,5.314,2.197c1.403,1.404,2.206,3.339,2.206,5.324
			c0,1.976-0.803,3.921-2.206,5.315c-1.394,1.404-3.339,2.205-5.314,2.205c-1.986,0-3.921-0.802-5.325-2.205
			c-1.394-1.404-2.196-3.339-2.196-5.315C180.105,94.782,180.907,92.847,182.301,91.443z M144.597,83.832
			c1.394-1.404,3.33-2.206,5.315-2.206c1.986,0,3.921,0.802,5.314,2.206c1.404,1.393,2.206,3.339,2.206,5.314
			s-0.802,3.921-2.206,5.314c-1.394,1.404-3.339,2.206-5.314,2.206c-1.985,0-3.921-0.802-5.315-2.206
			c-1.404-1.394-2.206-3.328-2.206-5.314C142.391,87.162,143.193,85.226,144.597,83.832z"/>
		<path style="fill:#FDD44B;" d="M56.638,203.633c-0.902-0.966-1.777-1.948-2.627-2.942
			C54.861,201.685,55.736,202.666,56.638,203.633z"/>
		<path style="fill:#FDD44B;" d="M53.34,199.897c-0.823-0.986-1.622-1.984-2.393-2.996C51.719,197.913,52.517,198.911,53.34,199.897
			z"/>
		<path style="fill:#FDD44B;" d="M63.813,210.551c-1.091-0.949-2.158-1.914-3.193-2.898
			C61.656,208.638,62.723,209.602,63.813,210.551z"/>
		<path style="fill:#FDD44B;" d="M50.547,196.385c-0.903-1.203-1.77-2.423-2.598-3.659
			C48.777,193.963,49.644,195.182,50.547,196.385z"/>
		<path style="fill:#FDD44B;" d="M67.728,213.789c-1.081-0.85-2.138-1.717-3.172-2.6C65.59,212.072,66.647,212.939,67.728,213.789z"
			/>
		<path style="fill:#FDD44B;" d="M80.508,107.332c-0.097-0.025-0.189-0.067-0.288-0.088
			C80.319,107.265,80.411,107.307,80.508,107.332z"/>
		<path style="fill:#FDD44B;" d="M57.031,204.061c1.078,1.14,2.189,2.26,3.337,3.359C59.22,206.322,58.109,205.201,57.031,204.061z"
			/>
		<path style="fill:#FDD44B;" d="M71.303,115.977c-0.075-0.396-0.111-0.799-0.121-1.204
			C71.192,115.179,71.226,115.582,71.303,115.977z"/>
		<path style="fill:#FDD44B;" d="M36.923,166.825c-0.253-1.23-0.467-2.468-0.651-3.713C36.456,164.356,36.67,165.595,36.923,166.825
			z"/>
		<path style="fill:#FDD44B;" d="M47.651,192.264c-0.695-1.053-1.36-2.119-1.999-3.195
			C46.291,190.145,46.956,191.211,47.651,192.264z"/>
		<path style="fill:#FDD44B;" d="M37.991,171.252c-0.371-1.34-0.71-2.689-0.998-4.049C37.281,168.563,37.62,169.911,37.991,171.252z
			"/>
		<path style="fill:#FDD44B;" d="M35.686,157.567c-0.088-1.393-0.147-2.791-0.147-4.199
			C35.539,154.775,35.598,156.173,35.686,157.567z"/>
		<path style="fill:#FDD44B;" d="M36.104,161.85c-0.13-1.007-0.235-2.02-0.319-3.036C35.869,159.83,35.975,160.842,36.104,161.85z"
			/>
		<path style="fill:#FDD44B;" d="M45.079,188.084c-0.569-0.991-1.113-1.991-1.634-2.999
			C43.966,186.093,44.51,187.093,45.079,188.084z"/>
		<path style="fill:#FDD44B;" d="M43.013,184.258c-0.641-1.278-1.248-2.569-1.81-3.874
			C41.765,181.689,42.372,182.979,43.013,184.258z"/>
		<path style="fill:#FDD44B;" d="M41.005,179.898c-0.477-1.129-0.921-2.268-1.338-3.415
			C40.084,177.63,40.528,178.769,41.005,179.898z"/>
	</g>
	<path style="fill:#3F2D20;" d="M149.912,96.668c1.975,0,3.921-0.802,5.314-2.206c1.404-1.394,2.206-3.339,2.206-5.314
		s-0.802-3.921-2.206-5.314c-1.394-1.404-3.329-2.206-5.314-2.206c-1.985,0-3.921,0.802-5.315,2.206
		c-1.404,1.394-2.206,3.329-2.206,5.314c0,1.986,0.802,3.921,2.206,5.314C145.99,95.865,147.927,96.668,149.912,96.668z"/>
	<path style="fill:#3F2D20;" d="M78.685,122.118c1.976,0,3.911-0.802,5.315-2.206c1.394-1.403,2.196-3.339,2.196-5.314
		c0-1.985-0.802-3.921-2.196-5.324c-1.404-1.394-3.339-2.196-5.315-2.196c-1.985,0-3.931,0.802-5.324,2.196
		c-1.394,1.403-2.197,3.339-2.197,5.324c0,1.975,0.803,3.911,2.197,5.314C74.764,121.316,76.7,122.118,78.685,122.118z"/>
	<path style="fill:#3F2D20;" d="M221.138,122.118c1.985,0,3.921-0.802,5.324-2.206c1.394-1.403,2.206-3.339,2.206-5.314
		c0-1.985-0.812-3.921-2.206-5.324c-1.403-1.394-3.339-2.196-5.324-2.196c-1.976,0-3.911,0.802-5.314,2.196
		c-1.395,1.403-2.206,3.339-2.206,5.324c0,1.975,0.812,3.911,2.206,5.314C217.227,121.316,219.162,122.118,221.138,122.118z"/>
	<path style="fill:#3F2D20;" d="M187.626,104.288c1.975,0,3.921-0.802,5.314-2.205c1.403-1.394,2.206-3.339,2.206-5.315
		c0-1.985-0.803-3.92-2.206-5.324c-1.394-1.394-3.339-2.197-5.314-2.197c-1.986,0-3.921,0.803-5.325,2.197
		c-1.394,1.404-2.196,3.339-2.196,5.324c0,1.976,0.802,3.911,2.196,5.315C183.705,103.486,185.64,104.288,187.626,104.288z"/>
	<path style="fill:#3F2D20;" d="M112.197,104.288c1.986,0,3.921-0.802,5.325-2.205c1.394-1.404,2.196-3.339,2.196-5.315
		c0-1.985-0.802-3.92-2.196-5.324c-1.404-1.394-3.339-2.197-5.325-2.197c-1.975,0-3.91,0.803-5.315,2.197
		c-1.403,1.404-2.206,3.339-2.206,5.324c0,1.976,0.803,3.911,2.206,5.315C108.287,103.486,110.222,104.288,112.197,104.288z"/>
	<path style="fill:#3F2D20;" d="M355.989,183.541h-82.413c0.531-1.346,1.036-2.696,1.491-4.057
		c14.16-2.286,24.921-13.122,24.921-26.114c0-12.988-10.752-23.821-24.905-26.113c-5.828-17.55-17.54-33.585-34.374-46.632
		c-24.335-18.86-56.58-29.246-90.798-29.246S83.448,61.765,59.113,80.625c-16.843,13.053-28.559,29.098-34.384,46.659
		C10.663,129.636,0,140.435,0,153.37c0,12.948,10.689,23.757,24.779,26.092c12.245,36.623,49.71,65.639,98.254,73.686
		c22.636,35.303,63.946,58.983,111.063,58.983c71.359,0,129.413-54.311,129.413-121.068
		C363.51,186.908,360.143,183.541,355.989,183.541z M129.115,233.121c23.812,30.729,62.401,50.08,104.81,50.08
		c42.88,0,81.868-19.775,105.618-51.096c-17.34,38.138-58.073,64.984-105.447,64.984
		C187.143,297.089,146.712,270.72,129.115,233.121z M264.284,153.368c0,10.404-2.392,20.534-7.112,30.173h-144.97
		c-4.154,0-7.521,3.367-7.521,7.521c0,15.827,3.268,30.951,9.198,44.822c-46.174-11.631-78.339-44.672-78.339-82.516
		c0-47.943,51.308-86.947,114.372-86.947C212.976,66.421,264.284,105.425,264.284,153.368z M126.531,198.583h86.33l-58.388,39.811
		C142.235,227.448,132.577,213.926,126.531,198.583z M226.575,207.437v60.483c-21.962-1.305-42.499-8.398-59.603-19.846
		L226.575,207.437z M241.617,207.437l59.427,40.518c-17.048,11.457-37.521,18.583-59.427,19.945V207.437z M313.524,238.26
		l-58.194-39.678h85.981C335.291,213.863,325.688,227.339,313.524,238.26z M278.813,144.263c3.696,2.128,6.134,5.447,6.134,9.107
		s-2.438,6.973-6.134,9.097c0.335-3.009,0.512-6.043,0.512-9.099C279.325,150.309,279.147,147.272,278.813,144.263z M20.997,162.363
		c-3.595-2.127-5.956-5.392-5.956-8.993c0-3.604,2.36-6.876,5.957-9.009c-0.326,2.978-0.5,5.982-0.5,9.007
		C20.498,156.396,20.668,159.395,20.997,162.363z"/>
</g>
<g>
</g>
<g>
</g>
<g>
</g>
<g>
</g>
<g>
</g>
<g>
</g>
<g>
</g>
<g>
</g>
<g>
</g>
<g>
</g>
<g>
</g>
<g>
</g>
<g>
</g>
<g>
</g>
<g>
</g>
</svg>
