<?xml version="1.0" encoding="iso-8859-1"?>
<!-- Generator: Adobe Illustrator 18.0.0, SVG Export Plug-In . SVG Version: 6.00 Build 0)  -->
<!DOCTYPE svg PUBLIC "-//W3C//DTD SVG 1.1//EN" "http://www.w3.org/Graphics/SVG/1.1/DTD/svg11.dtd">
<svg version="1.1" id="Capa_1" xmlns="http://www.w3.org/2000/svg" xmlns:xlink="http://www.w3.org/1999/xlink" x="0px" y="0px"
	 viewBox="0 0 295.38 295.38" style="enable-background:new 0 0 295.38 295.38;" xml:space="preserve">
<g>
	<path style="fill:#3F2D20;" d="M147.69,32.59c-14.647,0-26.12,9.322-26.12,21.224c0,11.903,11.473,21.227,26.12,21.227
		c14.647,0,26.12-9.324,26.12-21.227C173.81,41.912,162.337,32.59,147.69,32.59z M147.69,59.999c-6.239,0-11.079-3.325-11.079-6.185
		c0-2.859,4.84-6.183,11.079-6.183c6.239,0,11.079,3.323,11.079,6.183C158.769,56.675,153.929,59.999,147.69,59.999z"/>
	<path style="fill:#3F2D20;" d="M205.754,78.099c-6.997,0-14.236,3.225-19.86,8.849c-4.641,4.639-7.687,10.438-8.58,16.329
		c-1.006,6.639,0.859,12.89,5.119,17.151c3.475,3.473,8.312,5.387,13.617,5.387c6.998,0,14.237-3.226,19.861-8.849
		c4.64-4.641,7.686-10.439,8.578-16.329c1.007-6.64-0.859-12.891-5.118-17.149C215.897,80.013,211.061,78.099,205.754,78.099z
		 M209.618,98.383c-0.409,2.699-1.992,5.596-4.344,7.947c-2.74,2.741-6.275,4.444-9.224,4.444c-0.912,0-2.17-0.171-2.982-0.982
		c-1.198-1.199-1.016-3.379-0.882-4.261c0.408-2.699,1.992-5.595,4.344-7.946c2.741-2.742,6.275-4.444,9.224-4.444
		c0.912,0,2.169,0.17,2.982,0.983C209.934,95.322,209.751,97.501,209.618,98.383z"/>
	<path style="fill:#3F2D20;" d="M109.488,86.948c-5.625-5.624-12.864-8.849-19.861-8.849c-5.306,0-10.143,1.914-13.619,5.388
		c-4.258,4.259-6.123,10.509-5.118,17.15c0.893,5.89,3.94,11.689,8.579,16.329c5.624,5.623,12.862,8.848,19.86,8.849h0.001
		c5.306,0,10.142-1.914,13.618-5.388c4.259-4.26,6.124-10.511,5.118-17.15C117.175,97.387,114.128,91.588,109.488,86.948z
		 M99.332,110.773c-2.949-0.001-6.484-1.703-9.225-4.444c-2.351-2.351-3.935-5.248-4.343-7.947
		c-0.134-0.881-0.315-3.062,0.882-4.259c0.812-0.813,2.07-0.983,2.982-0.983c2.949,0,6.483,1.702,9.225,4.444
		c2.351,2.351,3.934,5.247,4.343,7.946c0.133,0.881,0.315,3.062-0.882,4.26c-0.813,0.813-2.069,0.983-2.981,0.983H99.332z"/>
	<g>
		<path style="fill:#EF8829;" d="M233.254,52.349c-2.018-2.416-4.231-4.738-6.626-6.959
			C229.022,47.611,231.237,49.934,233.254,52.349z"/>
		<path style="fill:#EF8829;" d="M147.607,17.588c2.059,0,4.099,0.059,6.128,0.147C151.706,17.647,149.667,17.588,147.607,17.588z"
			/>
		<path style="fill:#EF8829;" d="M257.2,96.019c1.027,0.095,2.036,0.25,3.024,0.463C259.235,96.269,258.227,96.113,257.2,96.019z"/>
		<path style="fill:#EF8829;" d="M222.79,42.055c1.038,0.851,2.048,1.718,3.028,2.604C224.837,43.773,223.828,42.905,222.79,42.055z
			"/>
		<path style="fill:#EF8829;" d="M209.039,32.735c1.207,0.675,2.392,1.37,3.554,2.084C211.431,34.105,210.247,33.41,209.039,32.735z
			"/>
		<path style="fill:#EF8829;" d="M260.597,96.578c0.828,0.192,1.64,0.424,2.435,0.695C262.237,97.002,261.425,96.77,260.597,96.578z
			"/>
		<path style="fill:#EF8829;" d="M213.662,35.478c2.921,1.847,5.689,3.812,8.288,5.888
			C219.351,39.289,216.584,37.324,213.662,35.478z"/>
		<path style="fill:#EF8829;" d="M275.67,106.737c0.492,0.698,0.953,1.419,1.375,2.166
			C276.623,108.155,276.163,107.435,275.67,106.737z"/>
		<path style="fill:#EF8829;" d="M273.864,104.476c0.464,0.521,0.905,1.061,1.325,1.618
			C274.769,105.536,274.328,104.997,273.864,104.476z"/>
		<path style="fill:#EF8829;" d="M198.268,27.473c3.352,1.416,6.579,2.966,9.663,4.643
			C204.846,30.439,201.621,28.889,198.268,27.473z"/>
		<path style="fill:#EF8829;" d="M273.304,103.86c-0.527-0.555-1.08-1.082-1.654-1.588
			C272.225,102.777,272.778,103.305,273.304,103.86z"/>
		<path style="fill:#EF8829;" d="M268.934,100.165c0.805,0.536,1.576,1.119,2.314,1.741
			C270.51,101.284,269.739,100.701,268.934,100.165z"/>
		<path style="fill:#EF8829;" d="M263.762,97.54c0.685,0.257,1.356,0.543,2.013,0.856C265.118,98.083,264.448,97.798,263.762,97.54z
			"/>
		<path style="fill:#EF8829;" d="M266.466,98.729c0.751,0.387,1.481,0.808,2.186,1.265
			C267.947,99.537,267.218,99.117,266.466,98.729z"/>
		<path style="fill:#EF8829;" d="M17.114,131.444c-0.401-0.929-0.738-1.891-1.026-2.873
			C16.377,129.554,16.714,130.515,17.114,131.444z"/>
		<path style="fill:#EF8829;" d="M18.51,134.172c-0.44-0.754-0.843-1.531-1.205-2.332C17.667,132.641,18.07,133.417,18.51,134.172z"
			/>
		<path style="fill:#EF8829;" d="M15.888,127.798c-0.199-0.765-0.363-1.545-0.491-2.336
			C15.525,126.254,15.689,127.032,15.888,127.798z"/>
		<path style="fill:#EF8829;" d="M20.374,136.936c-0.508-0.658-0.984-1.341-1.427-2.048
			C19.389,135.596,19.865,136.278,20.374,136.936z"/>
		<path style="fill:#EF8829;" d="M15.261,124.569c-0.13-1.043-0.219-2.098-0.219-3.176
			C15.042,122.471,15.131,123.526,15.261,124.569z"/>
		<path style="fill:#EF8829;" d="M25.096,141.633c-0.668-0.51-1.309-1.052-1.923-1.624
			C23.787,140.581,24.428,141.122,25.096,141.633z"/>
		<path style="fill:#EF8829;" d="M277.162,109.094c-3.647-2.016-7.836-3.168-12.289-3.168c-0.028,0-0.054-0.004-0.081-0.004
			c-0.027,0-0.055,0.004-0.082,0.004c-4.154,0-7.52-3.366-7.52-7.52c0-0.8-0.026-1.597-0.064-2.391
			c-0.752-0.067-1.51-0.116-2.28-0.116c-0.027,0-0.054-0.004-0.081-0.004c-0.027,0-0.055,0.004-0.082,0.004
			c-4.154,0-7.521-3.367-7.521-7.52c0-13.06-5.019-25.296-13.728-35.809c-18.275-15.257-45.471-24.954-75.797-24.954
			c-54.893,0-99.551,31.756-99.551,70.791c0,4.154-3.367,7.52-7.521,7.52c-14.057,0-25.494,11.437-25.494,25.495
			c0,4.454,1.152,8.316,3.168,11.964c3.65,2.019,7.84,2.85,12.298,2.85h214.309c14.057,0,25.494-11.111,25.494-25.168
			C280.339,116.609,279.181,112.744,277.162,109.094z M112.949,120.427c-3.476,3.475-8.312,5.388-13.618,5.388h-0.001
			c-6.998-0.001-14.236-3.225-19.86-8.848c-4.639-4.64-7.686-10.439-8.579-16.329c-1.006-6.64,0.859-12.891,5.117-17.15
			c3.476-3.474,8.312-5.388,13.619-5.388c6.997,0,14.235,3.225,19.86,8.849c4.64,4.64,7.686,10.439,8.579,16.329
			C119.074,109.916,117.208,116.167,112.949,120.427z M147.691,75.041c-14.647,0-26.12-9.324-26.12-21.227
			c0-11.902,11.473-21.225,26.12-21.225c14.647,0,26.12,9.322,26.12,21.225C173.81,65.717,162.337,75.041,147.691,75.041z
			 M224.489,100.637c-0.892,5.89-3.939,11.688-8.578,16.329c-5.624,5.623-12.863,8.848-19.861,8.848
			c-5.305,0-10.142-1.913-13.617-5.387c-4.26-4.261-6.124-10.512-5.118-17.151c0.893-5.891,3.939-11.69,8.58-16.329
			c5.624-5.624,12.863-8.849,19.86-8.849c5.307,0,10.143,1.914,13.618,5.389C223.631,87.746,225.496,93.997,224.489,100.637z"/>
		<path style="fill:#EF8829;" d="M28.118,143.638c-0.836-0.468-1.637-0.992-2.411-1.548
			C26.482,142.647,27.282,143.17,28.118,143.638z"/>
		<path style="fill:#EF8829;" d="M155.529,17.832c1.496,0.084,2.983,0.192,4.459,0.323
			C158.511,18.023,157.025,17.916,155.529,17.832z"/>
		<path style="fill:#EF8829;" d="M167.629,19.026c1.949,0.284,3.87,0.621,5.775,0.985C171.499,19.647,169.578,19.31,167.629,19.026z
			"/>
		<path style="fill:#EF8829;" d="M175.037,20.342c1.416,0.289,2.819,0.599,4.209,0.932
			C177.856,20.941,176.453,20.631,175.037,20.342z"/>
		<path style="fill:#EF8829;" d="M20.706,137.381c0.638,0.79,1.322,1.539,2.049,2.247C22.028,138.92,21.344,138.17,20.706,137.381z"
			/>
		<path style="fill:#EF8829;" d="M180.836,21.657c3.695,0.933,7.29,2.016,10.77,3.242C188.126,23.674,184.532,22.591,180.836,21.657
			z"/>
		<path style="fill:#EF8829;" d="M161.743,18.313c1.969,0.2,3.925,0.428,5.855,0.709C165.668,18.742,163.712,18.513,161.743,18.313z
			"/>
		<path style="fill:#EF8829;" d="M193,25.407c1.327,0.486,2.637,0.992,3.929,1.518C195.636,26.398,194.327,25.893,193,25.407z"/>
	</g>
	<g>
		<path style="fill:#CE593F;" d="M155.282,49.506c0.243,0.137,0.468,0.282,0.689,0.429
			C155.748,49.788,155.527,49.644,155.282,49.506z"/>
		<path style="fill:#CE593F;" d="M151.884,48.162c0.27,0.07,0.519,0.159,0.778,0.24C152.403,48.32,152.155,48.231,151.884,48.162z"
			/>
		<path style="fill:#CE593F;" d="M157.183,50.885c-0.182-0.172-0.373-0.338-0.583-0.503
			C156.809,50.546,157.002,50.714,157.183,50.885z"/>
		<path style="fill:#CE593F;" d="M153.701,48.753c0.264,0.105,0.508,0.224,0.756,0.34C154.208,48.977,153.966,48.859,153.701,48.753
			z"/>
		<path style="fill:#CE593F;" d="M157.625,51.341c0.162,0.184,0.312,0.369,0.44,0.557C157.936,51.709,157.788,51.526,157.625,51.341
			z"/>
		<path style="fill:#CE593F;" d="M158.331,52.354c0.102,0.194,0.197,0.388,0.26,0.582C158.528,52.741,158.433,52.549,158.331,52.354
			z"/>
		<path style="fill:#CE593F;" d="M141.717,58.889c-0.132-0.052-0.27-0.1-0.398-0.155C141.448,58.79,141.584,58.837,141.717,58.889z"
			/>
		<path style="fill:#CE593F;" d="M138.376,56.928c0.092,0.081,0.191,0.158,0.289,0.237
			C138.567,57.087,138.467,57.009,138.376,56.928z"/>
		<path style="fill:#CE593F;" d="M139.907,58.027c-0.103-0.061-0.194-0.126-0.293-0.188
			C139.714,57.902,139.804,57.967,139.907,58.027z"/>
		<path style="fill:#CE593F;" d="M158.618,53.069c-1.558-0.521-3.345-0.841-5.27-0.841c-6.239,0-11.078,3.324-11.078,6.183
			c0,0.232,0.047,0.467,0.11,0.703c1.573,0.535,3.359,0.886,5.311,0.886c6.239,0,11.078-3.325,11.078-6.185
			C158.769,53.569,158.687,53.319,158.618,53.069z"/>
		<path style="fill:#CE593F;" d="M136.914,55.042c-0.038-0.086-0.075-0.172-0.106-0.259
			C136.839,54.87,136.876,54.955,136.914,55.042z"/>
		<path style="fill:#CE593F;" d="M149.869,47.774c0.242,0.031,0.465,0.087,0.7,0.127C150.334,47.861,150.111,47.805,149.869,47.774z
			"/>
		<path style="fill:#CE593F;" d="M137.495,56.018c-0.036-0.045-0.058-0.092-0.092-0.138
			C137.437,55.926,137.459,55.972,137.495,56.018z"/>
	</g>
	<g>
		<path style="fill:#CE593F;" d="M209.64,96.216c0.02,0.148,0.034,0.292,0.043,0.437C209.674,96.504,209.661,96.368,209.64,96.216z"
			/>
		<path style="fill:#CE593F;" d="M209.354,95.101c0.049,0.119,0.076,0.245,0.113,0.368C209.43,95.344,209.403,95.222,209.354,95.101
			z"/>
		<path style="fill:#CE593F;" d="M201.48,102.181c-2.352,2.351-3.936,5.247-4.344,7.946c-0.023,0.152-0.045,0.355-0.065,0.575
			c2.718-0.334,5.773-1.941,8.203-4.373c2.352-2.351,3.935-5.248,4.344-7.947c0.022-0.145,0.039-0.367,0.057-0.574
			C206.96,98.145,203.909,99.75,201.48,102.181z"/>
		<path style="fill:#CE593F;" d="M209.685,97.713c0.011-0.14,0.011-0.273,0.014-0.429C209.696,97.43,209.695,97.581,209.685,97.713z
			"/>
	</g>
	<g>
		<path style="fill:#CE593F;" d="M93.536,108.985c-0.546-0.32-1.081-0.689-1.604-1.083
			C92.456,108.296,92.989,108.664,93.536,108.985z"/>
		<path style="fill:#CE593F;" d="M91.595,107.639c-0.513-0.407-1.015-0.837-1.488-1.309
			C90.58,106.802,91.082,107.231,91.595,107.639z"/>
		<path style="fill:#CE593F;" d="M97.207,110.498c-0.576-0.137-1.16-0.334-1.745-0.57C96.047,110.166,96.63,110.36,97.207,110.498z"
			/>
		<path style="fill:#CE593F;" d="M95.255,109.84c-0.569-0.241-1.137-0.518-1.697-0.844C94.118,109.323,94.685,109.598,95.255,109.84
			z"/>
		<path style="fill:#CE593F;" d="M103.196,105.53c-0.347-2.29-1.575-4.701-3.364-6.821c-0.709-0.167-1.407-0.265-2.072-0.265
			c-0.912,0-2.17,0.17-2.982,0.983c-1.198,1.197-1.016,3.377-0.882,4.259c0.345,2.28,1.537,4.929,3.313,7.043
			c0.727,0.174,1.442,0.506,2.123,0.506h0.001c0.912,0,2.168-0.401,2.981-1.214C103.511,108.824,103.329,106.412,103.196,105.53z"/>
	</g>
	<polygon style="fill:#84BD93;" points="57.628,172.235 74.951,242.856 62.725,172.235 	"/>
	<polygon style="fill:#84BD93;" points="123.627,277.235 139.08,277.235 139.08,172.235 112.536,172.235 	"/>
	<polygon style="fill:#84BD93;" points="155.08,172.235 155.08,277.235 171.755,277.235 182.845,172.235 	"/>
	<polygon style="fill:#84BD93;" points="217.392,172.235 206.497,172.235 199.02,172.235 197.969,172.235 186.879,277.235 
		199.072,277.235 219.128,161.79 	"/>
	<polygon style="fill:#84BD93;" points="244.32,172.235 239.808,172.235 234.393,172.235 232.657,172.235 214.336,277.235 
		218.359,277.235 246.779,161.79 	"/>
	<polygon style="fill:#84BD93;" points="96.363,161.79 97.413,172.235 96.363,172.235 79.745,172.235 77.99,172.235 96.31,277.235 
		108.504,277.235 	"/>
	<path style="fill:#3F2D20;" d="M261.837,81.475c-2.165-20.748-14.07-39.908-34.077-54.541
		c-21.503-15.727-49.968-24.388-80.153-24.388c-30.184,0-58.648,8.661-80.151,24.388c-20.017,14.64-31.925,33.812-34.081,54.571
		C14.428,84.896,0,101.486,0,121.393c0,19.754,14.207,36.244,32.938,39.811l30.881,125.901c0.826,3.364,3.841,5.729,7.305,5.729
		h153.134c3.464,0,6.479-2.365,7.305-5.729l30.882-125.901c18.729-3.568,32.936-20.057,32.936-39.811
		C295.38,101.427,280.867,84.798,261.837,81.475z M108.504,277.793H96.31L76.254,161.929h20.108L108.504,277.793z M140.17,161.929
		v115.864h-16.543l-12.142-115.864H140.17z M155.211,161.929h28.685l-12.141,115.864h-16.544V161.929z M199.02,161.929h20.108
		l-20.056,115.864h-12.193L199.02,161.929z M60.989,161.929l20.057,115.864h-4.024l-28.42-115.864H60.989z M214.335,277.793
		l20.057-115.864h12.387l-28.42,115.864H214.335z M254.845,146.887H40.536c-14.057,0-25.494-11.437-25.494-25.494
		c0-14.057,11.437-25.494,25.494-25.494c4.154,0,7.521-3.367,7.521-7.521c0-39.034,44.658-70.791,99.551-70.791
		c54.894,0,99.553,31.757,99.553,70.791c0,4.154,3.367,7.521,7.521,7.521c0.027,0,0.055-0.004,0.082-0.004
		c0.028,0,0.054,0.004,0.081,0.004c14.057,0,25.494,11.437,25.494,25.494C280.339,135.451,268.902,146.887,254.845,146.887z"/>
</g>
<g>
</g>
<g>
</g>
<g>
</g>
<g>
</g>
<g>
</g>
<g>
</g>
<g>
</g>
<g>
</g>
<g>
</g>
<g>
</g>
<g>
</g>
<g>
</g>
<g>
</g>
<g>
</g>
<g>
</g>
</svg>
