<?xml version="1.0" encoding="iso-8859-1"?>
<!-- Generator: Adobe Illustrator 18.0.0, SVG Export Plug-In . SVG Version: 6.00 Build 0)  -->
<!DOCTYPE svg PUBLIC "-//W3C//DTD SVG 1.1//EN" "http://www.w3.org/Graphics/SVG/1.1/DTD/svg11.dtd">
<svg version="1.1" id="Capa_1" xmlns="http://www.w3.org/2000/svg" xmlns:xlink="http://www.w3.org/1999/xlink" x="0px" y="0px"
	 viewBox="0 0 379.338 379.338" style="enable-background:new 0 0 379.338 379.338;" xml:space="preserve">
<g>
	<g>
		<g>
			<path style="fill:#EF8829;" d="M137.349,302.104c0.01-0.046,0.023-0.11,0.032-0.15
				C137.37,301.999,137.36,302.051,137.349,302.104z"/>
			<path style="fill:#EF8829;" d="M158.509,274.362c0.696,0.139,1.391,0.288,2.08,0.494
				C159.9,274.65,159.206,274.501,158.509,274.362z"/>
			<path style="fill:#EF8829;" d="M137.166,303.027c0.021-0.112,0.043-0.231,0.062-0.33
				C137.208,302.801,137.188,302.909,137.166,303.027z"/>
			<path style="fill:#EF8829;" d="M161.741,275.255c0.633,0.225,1.264,0.463,1.889,0.742
				C163.005,275.718,162.374,275.48,161.741,275.255z"/>
			<path style="fill:#EF8829;" d="M136.712,305.855c0.024-0.176,0.048-0.333,0.072-0.499
				C136.76,305.524,136.737,305.677,136.712,305.855z"/>
			<path style="fill:#EF8829;" d="M136.946,304.286c0.026-0.162,0.052-0.317,0.078-0.466
				C136.998,303.974,136.973,304.12,136.946,304.286z"/>
			<path style="fill:#EF8829;" d="M170.546,280.323c0.646,0.527,1.277,1.096,1.901,1.681
				C171.823,281.418,171.193,280.85,170.546,280.323z"/>
			<path style="fill:#EF8829;" d="M175.795,285.478c0.852,1.001,1.675,2.057,2.466,3.163
				C177.469,287.535,176.647,286.479,175.795,285.478z"/>
			<path style="fill:#EF8829;" d="M154.399,273.903c1.04,0,2.077,0.093,3.109,0.249
				C156.476,273.996,155.439,273.903,154.399,273.903z"/>
			<path style="fill:#EF8829;" d="M175.581,285.244c-0.759-0.879-1.539-1.717-2.34-2.507
				C174.042,283.527,174.822,284.365,175.581,285.244z"/>
			<path style="fill:#EF8829;" d="M164.792,276.56c0.613,0.31,1.221,0.641,1.822,1.002
				C166.012,277.202,165.405,276.87,164.792,276.56z"/>
			<path style="fill:#EF8829;" d="M167.728,278.257c0.613,0.403,1.217,0.839,1.816,1.293
				C168.944,279.096,168.341,278.661,167.728,278.257z"/>
			<path style="fill:#EF8829;" d="M136.487,307.713c0.007-0.064,0.015-0.118,0.022-0.182
				C136.501,307.595,136.493,307.649,136.487,307.713z"/>
			<path style="fill:#EF8829;" d="M140.239,297.395c0.132-0.101,0.259-0.209,0.398-0.301
				C140.497,297.186,140.373,297.293,140.239,297.395z"/>
			<path style="fill:#EF8829;" d="M140.006,351.449c-0.706-0.89-1.391-1.817-2.052-2.782
				C138.615,349.633,139.299,350.559,140.006,351.449z"/>
			<path style="fill:#EF8829;" d="M137.261,347.632c-0.644-0.989-1.26-2.015-1.852-3.072
				C136.001,345.617,136.617,346.642,137.261,347.632z"/>
			<path style="fill:#EF8829;" d="M134.925,343.714c-0.728-1.352-1.414-2.75-2.05-4.196
				C133.511,340.965,134.197,342.362,134.925,343.714z"/>
			<path style="fill:#EF8829;" d="M188.512,314.278c-1.57-9.8-5.275-18.674-10.222-25.595c-4.852-3.829-10.237-6.032-15.69-6.032
				c-1.065,0-2.139,0.085-3.192,0.254c-7.129,1.142-13.146,6.136-17.335,13.43c-0.031,0.012-0.057,0.034-0.087,0.046
				c1.392-0.558,2.959-0.719,4.529-0.344c4.039,0.956,6.529,5.006,5.579,9.04c-0.062,0.27-2.654,11.937,1.006,21.972
				c1.424,3.902-0.586,8.219-4.488,9.643c-1.985,0.724-4.076,0.559-5.841-0.29c-1.704-0.822-3.101-2.281-3.801-4.198
				c-2.204-6.04-2.845-12.257-2.846-17.508c0,0.179-0.008,0.343-0.007,0.525c-0.659,5.536-0.575,11.443,0.387,17.45
				c1.563,9.761,5.242,18.605,10.159,25.515c4.87,3.863,10.271,6.112,15.748,6.112c1.065,0,2.139-0.085,3.191-0.254
				C181.92,361.43,192.411,338.64,188.512,314.278z"/>
			<path style="fill:#EF8829;" d="M146.411,357.99c-0.969-0.783-1.92-1.618-2.841-2.527
				C144.492,356.373,145.442,357.207,146.411,357.99z"/>
			<path style="fill:#EF8829;" d="M132.565,338.756c-0.506-1.195-0.98-2.418-1.418-3.668
				C131.585,336.338,132.059,337.56,132.565,338.756z"/>
			<path style="fill:#EF8829;" d="M129.301,328.824c-0.385-1.607-0.732-3.237-0.998-4.902
				C128.569,325.588,128.915,327.217,129.301,328.824z"/>
			<path style="fill:#EF8829;" d="M138.996,298.581c0.12-0.145,0.246-0.285,0.376-0.42
				C139.241,298.297,139.117,298.434,138.996,298.581z"/>
			<path style="fill:#EF8829;" d="M138.064,299.991c0.078-0.156,0.176-0.297,0.265-0.446
				C138.24,299.694,138.142,299.833,138.064,299.991z"/>
			<path style="fill:#EF8829;" d="M136.145,313.012c0.008-0.288,0.013-0.578,0.024-0.858
				C136.159,312.435,136.153,312.723,136.145,313.012z"/>
			<path style="fill:#EF8829;" d="M136.262,310.414c0.012-0.191,0.021-0.394,0.035-0.58
				C136.283,310.022,136.275,310.222,136.262,310.414z"/>
			<path style="fill:#EF8829;" d="M140.565,352.165c0.923,1.119,1.876,2.182,2.864,3.168
				C142.44,354.348,141.488,353.284,140.565,352.165z"/>
			<path style="fill:#EF8829;" d="M130.67,333.651c-0.361-1.113-0.691-2.248-0.995-3.398
				C129.979,331.404,130.309,332.537,130.67,333.651z"/>
		</g>
		<g>
			<path style="fill:#EF8829;" d="M226.599,220.921c0.645,0.076,1.292,0.168,1.941,0.284
				C227.891,221.089,227.244,220.998,226.599,220.921z"/>
			<path style="fill:#EF8829;" d="M214.98,280.237c-0.752-0.9-1.491-1.819-2.203-2.771
				C213.489,278.419,214.227,279.338,214.98,280.237z"/>
			<path style="fill:#EF8829;" d="M209.319,249.703c0-0.17,0.032-0.334,0.043-0.501C209.351,249.37,209.319,249.533,209.319,249.703
				z"/>
			<path style="fill:#EF8829;" d="M209.49,248.144c0.039-0.184,0.103-0.359,0.156-0.539
				C209.592,247.786,209.529,247.959,209.49,248.144z"/>
			<path style="fill:#EF8829;" d="M229.49,221.389c0.656,0.136,1.314,0.294,1.971,0.469
				C230.803,221.683,230.146,221.525,229.49,221.389z"/>
			<path style="fill:#EF8829;" d="M232.295,222.081c0.913,0.266,1.827,0.559,2.74,0.898
				C234.122,222.64,233.208,222.346,232.295,222.081z"/>
			<path style="fill:#EF8829;" d="M244.266,227.673c0.896,0.58,1.785,1.186,2.662,1.832
				C246.051,228.859,245.162,228.253,244.266,227.673z"/>
			<path style="fill:#EF8829;" d="M223.016,220.684c0.902,0,1.813,0.053,2.728,0.136
				C224.829,220.737,223.919,220.684,223.016,220.684z"/>
			<path style="fill:#EF8829;" d="M241.501,226.007c0.702,0.395,1.4,0.81,2.094,1.245
				C242.9,226.817,242.203,226.401,241.501,226.007z"/>
			<path style="fill:#EF8829;" d="M235.07,222.99c0.951,0.354,1.899,0.753,2.845,1.184
				C236.969,223.745,236.021,223.344,235.07,222.99z"/>
			<path style="fill:#EF8829;" d="M238.555,224.483c0.724,0.343,1.445,0.705,2.163,1.091
				C240,225.188,239.279,224.825,238.555,224.483z"/>
			<path style="fill:#EF8829;" d="M228.48,292.252c-0.66-0.423-1.315-0.867-1.966-1.326
				C227.165,291.385,227.82,291.829,228.48,292.252z"/>
			<path style="fill:#EF8829;" d="M259.747,242.32c-3.782-5.054-8.152-9.38-12.808-12.808c-4.88-2.181-9.853-3.361-14.628-3.361
				c-5.068,0-9.461,1.365-13.057,4.057c-4.449,3.329-7.323,8.502-8.38,14.91c-0.053,0.07-0.086,0.152-0.137,0.224
				c1.046-1.463,2.595-2.574,4.491-2.988c4.052-0.891,8.053,1.678,8.948,5.724c0.062,0.271,2.789,11.908,10.441,19.36
				c2.976,2.898,3.039,7.659,0.141,10.635c-1.474,1.514-3.43,2.274-5.389,2.274c-1.891,0-3.784-0.709-5.246-2.133
				c-7.723-7.521-11.737-17.4-13.498-22.859c0.02,0.062,0.033,0.11,0.054,0.173c1.016,9.247,4.984,18.843,11.392,27.406
				c3.782,5.054,8.152,9.378,12.807,12.806c4.879,2.182,9.853,3.361,14.627,3.361c5.069,0,9.464-1.366,13.062-4.059
				c5.886-4.405,9.021-12.038,8.827-21.494C271.179,263.159,267.044,252.068,259.747,242.32z"/>
			<path style="fill:#EF8829;" d="M209.601,251.794c-0.009-0.038-0.023-0.093-0.031-0.126
				C209.579,251.707,209.59,251.747,209.601,251.794z"/>
			<path style="fill:#EF8829;" d="M209.839,252.714c-0.024-0.088-0.048-0.179-0.07-0.26
				C209.792,252.54,209.814,252.62,209.839,252.714z"/>
			<path style="fill:#EF8829;" d="M210.232,246.167c-0.091,0.169-0.183,0.332-0.261,0.508
				C210.048,246.5,210.142,246.334,210.232,246.167z"/>
			<path style="fill:#EF8829;" d="M217.323,282.88c-0.552-0.591-1.095-1.2-1.63-1.818
				C216.229,281.681,216.771,282.289,217.323,282.88z"/>
			<path style="fill:#EF8829;" d="M210.201,253.989c-0.036-0.121-0.067-0.231-0.1-0.344
				C210.135,253.762,210.164,253.865,210.201,253.989z"/>
			<path style="fill:#EF8829;" d="M223.115,288.352c-0.847-0.698-1.678-1.434-2.499-2.19
				C221.437,286.918,222.268,287.653,223.115,288.352z"/>
			<path style="fill:#EF8829;" d="M218.15,283.748c0.563,0.58,1.134,1.143,1.712,1.694
				C219.284,284.891,218.712,284.328,218.15,283.748z"/>
			<path style="fill:#EF8829;" d="M231.339,293.953c-0.666-0.368-1.33-0.752-1.989-1.156
				C230.009,293.202,230.672,293.585,231.339,293.953z"/>
			<path style="fill:#EF8829;" d="M234.857,295.73c-0.917-0.411-1.829-0.865-2.738-1.346
				C233.028,294.865,233.94,295.319,234.857,295.73z"/>
			<path style="fill:#EF8829;" d="M225.773,290.406c-0.888-0.648-1.769-1.322-2.635-2.034
				C224.004,289.085,224.884,289.758,225.773,290.406z"/>
		</g>
		<g>
			<path style="fill:#84BD93;" d="M57.417,94.146c-0.162-0.328-0.327-0.658-0.481-0.978C57.09,93.489,57.254,93.817,57.417,94.146z"
				/>
			<path style="fill:#84BD93;" d="M58.765,96.797c-0.196-0.376-0.388-0.746-0.575-1.114C58.377,96.051,58.568,96.42,58.765,96.797z"
				/>
			<path style="fill:#84BD93;" d="M60.236,99.544c-0.218-0.397-0.425-0.783-0.634-1.172C59.811,98.761,60.018,99.147,60.236,99.544z
				"/>
			<path style="fill:#84BD93;" d="M61.841,102.401c-0.22-0.382-0.425-0.752-0.638-1.129
				C61.416,101.65,61.621,102.019,61.841,102.401z"/>
			<path style="fill:#84BD93;" d="M107.149,119.814c1.704,1.567,3.336,3.183,4.927,4.818
				C110.484,122.997,108.853,121.38,107.149,119.814z"/>
			<path style="fill:#84BD93;" d="M117.844,130.948c3.039,3.548,5.832,7.146,8.343,10.677
				C123.676,138.093,120.887,134.498,117.844,130.948z"/>
			<path style="fill:#84BD93;" d="M56.184,91.584c-0.119-0.255-0.245-0.52-0.358-0.768C55.94,91.064,56.066,91.328,56.184,91.584z"
				/>
			<path style="fill:#84BD93;" d="M112.817,125.39c1.528,1.597,3.002,3.217,4.42,4.851
				C115.817,128.607,114.346,126.987,112.817,125.39z"/>
			<path style="fill:#84BD93;" d="M64.173,106.315c-0.22-0.36-0.451-0.727-0.666-1.083
				C63.722,105.589,63.952,105.955,64.173,106.315z"/>
			<path style="fill:#84BD93;" d="M78.911,126.792c-0.421-0.497-0.849-0.992-1.261-1.492C78.062,125.8,78.49,126.295,78.911,126.792
				z"/>
			<path style="fill:#84BD93;" d="M75.284,122.356c-0.395-0.504-0.774-1.01-1.161-1.516
				C74.51,121.346,74.889,121.851,75.284,122.356z"/>
			<path style="fill:#84BD93;" d="M81.65,129.935c-0.458-0.51-0.917-1.019-1.366-1.533C80.733,128.917,81.192,129.425,81.65,129.935
				z"/>
			<path style="fill:#84BD93;" d="M126.191,141.631c-2.386-2.598-4.896-5.153-7.559-7.601
				c-18.231-16.762-40.445-27.313-52.281-31.163c2.949,6.934,8.51,17.331,16.138,27.991c2.398,2.622,4.9,5.178,7.528,7.593
				c17.1,15.721,39.055,25.108,50.614,28.642C138.148,160.92,133.235,151.544,126.191,141.631z"/>
			<path style="fill:#84BD93;" d="M70.559,116.005c-0.372-0.525-0.738-1.049-1.1-1.573C69.822,114.957,70.187,115.48,70.559,116.005
				z"/>
			<path style="fill:#84BD93;" d="M68.366,112.833c-0.343-0.508-0.685-1.016-1.019-1.521
				C67.681,111.817,68.022,112.324,68.366,112.833z"/>
			<path style="fill:#84BD93;" d="M72.864,119.182c-0.393-0.528-0.774-1.056-1.158-1.583
				C72.089,118.127,72.47,118.654,72.864,119.182z"/>
			<path style="fill:#84BD93;" d="M66.263,109.642c-0.301-0.468-0.606-0.938-0.899-1.401
				C65.656,108.705,65.961,109.174,66.263,109.642z"/>
		</g>
		<g>
			<path style="fill:#84BD93;" d="M89.195,29.245c-0.193-0.474-0.381-0.942-0.565-1.405C88.814,28.304,89.002,28.771,89.195,29.245z
				"/>
			<path style="fill:#84BD93;" d="M88.016,26.262c-0.163-0.425-0.325-0.849-0.479-1.262C87.692,25.414,87.853,25.837,88.016,26.262z
				"/>
			<path style="fill:#84BD93;" d="M90.494,32.342c-0.221-0.512-0.433-1.015-0.643-1.517C90.061,31.328,90.273,31.83,90.494,32.342z"
				/>
			<path style="fill:#84BD93;" d="M86.962,23.418c-0.132-0.371-0.269-0.747-0.394-1.107C86.693,22.671,86.829,23.046,86.962,23.418z
				"/>
			<path style="fill:#84BD93;" d="M86.016,20.674c-0.094-0.285-0.197-0.583-0.286-0.86C85.819,20.091,85.921,20.388,86.016,20.674z"
				/>
			<path style="fill:#84BD93;" d="M142.522,66.735c2.421,3.595,4.62,7.204,6.59,10.743C147.141,73.938,144.945,70.33,142.522,66.735
				z"/>
			<path style="fill:#84BD93;" d="M133.308,54.587c1.458,1.695,2.842,3.429,4.188,5.176
				C136.15,58.016,134.766,56.282,133.308,54.587z"/>
			<path style="fill:#84BD93;" d="M138.23,60.715c1.279,1.692,2.508,3.399,3.683,5.115C140.737,64.114,139.51,62.408,138.23,60.715z
				"/>
			<path style="fill:#84BD93;" d="M91.92,35.556c-0.249-0.546-0.485-1.081-0.724-1.618C91.435,34.476,91.671,35.01,91.92,35.556z"/>
			<path style="fill:#84BD93;" d="M108.878,64.537c-0.448-0.6-0.882-1.209-1.319-1.816C107.996,63.328,108.43,63.936,108.878,64.537
				z"/>
			<path style="fill:#84BD93;" d="M106.435,61.148c-0.434-0.621-0.857-1.245-1.279-1.87
				C105.578,59.904,106.001,60.527,106.435,61.148z"/>
			<path style="fill:#84BD93;" d="M101.905,54.253c-0.395-0.638-0.787-1.276-1.169-1.914
				C101.118,52.978,101.51,53.615,101.905,54.253z"/>
			<path style="fill:#84BD93;" d="M93.47,38.861c-0.283-0.586-0.547-1.159-0.818-1.737C92.923,37.703,93.187,38.276,93.47,38.861z"
				/>
			<path style="fill:#84BD93;" d="M149.335,77.878c-1.615-2.146-3.308-4.268-5.091-6.341c-16.017-18.624-37.023-31.84-48.286-37.069
				c2.152,7.351,6.57,18.578,13.077,30.272c1.624,2.168,3.311,4.298,5.08,6.355c15.242,17.723,35.896,29.567,46.93,34.387
				C159.272,98.943,155.37,88.79,149.335,77.878z"/>
			<path style="fill:#84BD93;" d="M104.109,57.712c-0.415-0.632-0.823-1.265-1.226-1.899
				C103.285,56.447,103.693,57.079,104.109,57.712z"/>
			<path style="fill:#84BD93;" d="M96.027,43.929c-0.634-1.212-1.245-2.412-1.832-3.601C94.782,41.516,95.393,42.716,96.027,43.929z
				"/>
			<path style="fill:#84BD93;" d="M97.862,47.339c-0.354-0.64-0.712-1.282-1.054-1.919C97.15,46.057,97.508,46.698,97.862,47.339z"
				/>
			<path style="fill:#84BD93;" d="M99.818,50.781c-0.373-0.639-0.747-1.278-1.109-1.915C99.07,49.504,99.444,50.142,99.818,50.781z"
				/>
		</g>
		<g>
			<path style="fill:#84BD93;" d="M234.832,99.583c-0.435-0.005-0.883-0.007-1.295-0.017
				C233.949,99.576,234.397,99.578,234.832,99.583z"/>
			<path style="fill:#84BD93;" d="M314.222,70.305c-12.107,0.365-29.465,2.254-45.173,8.538
				c-13.452,5.383-25.139,13.419-33.258,19.419c0.075,0,0.723,0,0.723,0v0.744c7,0,25.294-0.472,43.039-7.572
				c16.721-6.692,31.867-18.193,40.536-26.336C318.41,66.675,316.355,68.529,314.222,70.305z"/>
		</g>
	</g>
	<path style="fill:#3F2D20;" d="M224.124,278.214c1.462,1.424,3.355,2.133,5.246,2.133c1.959,0,3.915-0.76,5.389-2.274
		c2.898-2.976,2.835-7.737-0.141-10.635c-7.652-7.452-10.379-19.089-10.441-19.36c-0.895-4.046-4.896-6.615-8.948-5.724
		c-4.058,0.886-6.629,4.894-5.742,8.952C209.629,251.962,213.123,267.501,224.124,278.214z"/>
	<path style="fill:#3F2D20;" d="M152.094,305.076c0.95-4.035-1.54-8.085-5.579-9.041c-4.04-0.963-8.096,1.534-9.057,5.574
		c-0.157,0.653-3.752,16.169,1.512,30.594c0.699,1.916,2.097,3.377,3.801,4.198c1.765,0.849,3.856,1.014,5.841,0.29
		c3.902-1.425,5.912-5.741,4.488-9.644C149.44,317.013,152.032,305.346,152.094,305.076z"/>
	<path style="fill:#3F2D20;" d="M341.288,56.03c-2.097-5.242-8.275-7.38-21.323-7.38c-13.511,0-34.732,2.715-53.77,10.333
		c-12.794,5.12-26.581,13.485-37.825,22.953c-4.841,4.076-8.882,8.084-11.683,11.589c-1.234,1.542-3.868,5.616-3.868,5.616
		c6.113-10.749,13.006-21.651,20.785-32.586c2.408-3.384,1.616-8.08-1.768-10.488c-3.386-2.409-8.08-1.617-10.488,1.768
		c-15.38,21.62-27.366,43.076-36.722,63.315l-7.502-8.009c0.289-4.793-1.026-12.54-6.321-25.378
		c-6.37-15.447-15.879-31.114-26.089-42.985C122.738,19.229,89.114,0,78.034,0c-3.194,0-5.273,1.211-6.453,2.227
		c-2.335,2.009-7.193,6.187,4.01,33.457c4.022,9.787,12.892,28.678,27.12,45.22c20.814,24.2,51.275,39.593,62.719,41.758
		l12.633,13.486c-2.108,5.103-4.051,10.106-5.838,14.988c-0.237,0.484-0.42,0.995-0.55,1.525
		c-3.203,8.865-5.899,17.322-8.166,25.258l-6.005-5.069c-0.273-4.795-2.484-12.334-9.242-24.465
		c-8.131-14.598-19.405-29.047-30.931-39.643C93.282,86.63,59.447,71.961,47.619,71.961c-3.368,0-6.023,1.031-7.892,3.063
		c-2.084,2.267-6.42,6.983,7.893,32.757c5.137,9.252,16.154,26.976,32.216,41.743c23.497,21.602,55.942,33.62,67.225,34.195
		l12.223,10.316c-0.636,2.677-1.228,5.279-1.765,7.78c-5.7,26.553-7.019,46.876-7.272,57.319
		c-12.735,2.806-24.423,10.57-31.04,23.825c-6.2,12.42-8.244,27.812-5.757,43.338c4.841,30.238,25.891,53.039,48.96,53.039
		c1.86,0,3.734-0.149,5.571-0.444c12.484-1.999,23.003-10.401,29.621-23.656c6.2-12.42,8.246-27.812,5.76-43.339
		c-4.068-25.387-19.562-45.527-38.081-51.336c0.251-11.908,2.093-41.511,13.081-79.702c6.11,18.409,12.869,30.439,17.134,36.927
		c-6.337,7.313-9.642,17.265-9.405,28.758c0.278,13.505,5.478,27.687,14.641,39.932c12.77,17.065,31.458,27.665,48.772,27.665
		c8.272,0,15.905-2.44,22.074-7.058c9.875-7.39,15.15-19.409,14.852-33.846c-0.277-13.506-5.477-27.688-14.641-39.931
		c-12.768-17.065-31.458-27.665-48.774-27.665c-5.497,0-10.709,1.084-15.399,3.162c-5.028-7.85-14.345-25.198-20.794-53.745
		c4.294-11.651,9.438-23.823,15.602-36.317l16.577-5.831c3.401,1.056,8.664,1.726,17.004,1.727c0.001,0,0.001,0,0.001,0
		c7.98,0,28.709-0.872,48.88-8.944c17.829-7.134,32.417-18.269,39.527-24.271c4.785-4.04,9.073-8.19,12.077-11.685
		C340.134,65.497,343.237,60.9,341.288,56.03z M133.308,54.587c15.529,18.055,24.709,39.732,27.737,50.895
		c-11.035-4.82-31.688-16.664-46.93-34.387c-15.52-18.045-25.486-41.256-29.093-53.577C96.285,22.747,117.292,35.962,133.308,54.587
		z M140.63,167.093c-11.559-3.533-33.514-12.92-50.614-28.641c-17.515-16.102-30.122-37.982-35.148-49.801
		c11.836,3.851,34.05,14.401,52.281,31.163C124.665,135.916,136.31,156.351,140.63,167.093z M165.603,364.043
		c-1.052,0.169-2.126,0.254-3.191,0.254c-15.501,0-30.483-17.734-34.109-40.375c-3.901-24.362,6.588-47.152,22.904-49.765
		c1.053-0.169,2.127-0.254,3.192-0.254c15.501,0,30.485,17.735,34.113,40.375C192.411,338.64,181.92,361.43,165.603,364.043z
		 M209.958,224.741c3.597-2.692,7.99-4.057,13.057-4.057c12.671,0,26.746,8.29,36.731,21.636
		c7.296,9.748,11.432,20.839,11.646,31.229c0.194,9.456-2.941,17.089-8.827,21.494c-3.598,2.693-7.993,4.059-13.061,4.059
		c-12.669,0-26.743-8.29-36.729-21.635c-7.295-9.751-11.432-20.841-11.645-31.23C200.935,236.78,204.07,229.147,209.958,224.741z
		 M236.006,99.597c-1.669,0-3.185-0.039-4.544-0.103c7.31-7.463,22.224-19.304,40.32-26.546c17.056-6.825,36.073-9.256,48.183-9.256
		c0.56,0,1.094,0.005,1.602,0.015c-8.297,8.15-24.462,20.898-42.268,28.024c-17.744,7.1-36.185,7.866-43.291,7.866H236.006z"/>
</g>
<g>
</g>
<g>
</g>
<g>
</g>
<g>
</g>
<g>
</g>
<g>
</g>
<g>
</g>
<g>
</g>
<g>
</g>
<g>
</g>
<g>
</g>
<g>
</g>
<g>
</g>
<g>
</g>
<g>
</g>
</svg>
