<?xml version="1.0" encoding="iso-8859-1"?>
<!-- Generator: Adobe Illustrator 19.0.0, SVG Export Plug-In . SVG Version: 6.00 Build 0)  -->
<svg version="1.1" id="Layer_1" xmlns="http://www.w3.org/2000/svg" xmlns:xlink="http://www.w3.org/1999/xlink" x="0px" y="0px"
	 viewBox="0 0 512 512" style="enable-background:new 0 0 512 512;" xml:space="preserve">
<path style="fill:#FFA91F;" d="M129.151,221.549c-0.387-4.888-0.581-9.822-0.581-14.802c0-103.521,83.922-176.048,187.442-176.048
	s187.442,72.527,187.442,176.048c0,88.149-60.859,162.101-142.855,182.11"/>
<path style="fill:#E2901A;" d="M199.798,221.549c-0.387-4.888-0.581-9.822-0.581-14.802c0-91.443,65.487-158.691,152.119-173.14
	c-11.441-1.909-23.246-2.908-35.323-2.908c-103.521,0-187.442,72.527-187.442,176.048c0,4.979,0.194,9.913,0.581,14.802
	l145.84,174.35c16.221-3.958-9.342-55.095,4.917-62.968L199.798,221.549z"/>
<path style="fill:#FFA91F;" d="M8.546,291.948c0,104.577,84.776,189.352,189.352,189.352S387.25,396.524,387.25,291.948"/>
<path style="fill:#E2901A;" d="M72.747,291.948H8.546c0,104.577,84.776,189.352,189.352,189.352c10.943,0,21.666-0.94,32.101-2.722
	C140.713,463.329,72.747,385.581,72.747,291.948z"/>
<ellipse style="fill:#FCE275;" cx="197.903" cy="291.943" rx="189.357" ry="75.535"/>
<path style="fill:#FFC522;" d="M197.898,340.931c-46.603,0-91.818-7.375-124.053-20.235c-28.226-11.26-38.744-23.61-38.744-28.749
	c0-5.139,10.518-17.489,38.744-28.749c32.234-12.859,77.45-20.235,124.053-20.235s91.818,7.375,124.053,20.235
	c28.226,11.26,38.744,23.61,38.744,28.749c0,5.139-10.518,17.489-38.744,28.749C289.716,333.556,244.501,340.931,197.898,340.931z"
	/>
<path d="M325.117,255.262c-33.203-13.246-79.572-20.843-127.219-20.843s-94.016,7.597-127.218,20.843
	c-27.217,10.857-44.125,24.914-44.125,36.686s16.907,25.828,44.125,36.686c33.203,13.246,79.572,20.843,127.218,20.843
	c41.165,0,81.365-5.62,113.19-15.824c4.494-1.441,6.97-6.253,5.529-10.747c-1.441-4.494-6.252-6.967-10.747-5.529
	c-7.762,2.489-16.072,4.684-24.794,6.582l-46.953-23.465h53.047c4.72,0,8.546-3.826,8.546-8.546s-3.826-8.546-8.546-8.546h-53.052
	l46.959-23.467c13.848,3.008,26.591,6.766,37.71,11.202c10.857,4.331,18.462,8.625,23.656,12.265h-26.785
	c-4.72,0-8.546,3.826-8.546,8.546s3.826,8.546,8.546,8.546h26.792c-1.787,1.251-3.859,2.582-6.261,3.968
	c-4.088,2.359-5.49,7.585-3.131,11.674c2.359,4.088,7.587,5.489,11.673,3.132c15.579-8.988,24.513-18.946,24.513-27.32
	C369.241,280.177,352.333,266.12,325.117,255.262z M189.352,332.302c-15.834-0.311-31.397-1.484-46.211-3.433l46.211-23.094V332.302
	z M189.352,278.121l-46.208-23.092c14.813-1.95,30.375-3.122,46.208-3.433V278.121z M77.012,271.137
	c11.12-4.436,23.864-8.195,37.714-11.203l46.961,23.468H53.354C58.55,279.762,66.155,275.468,77.012,271.137z M53.357,300.494
	h108.325l-46.957,23.467c-13.848-3.008-26.592-6.767-37.712-11.203C66.156,308.429,58.551,304.135,53.357,300.494z M206.444,332.294
	V305.77l46.207,23.091C237.815,330.816,222.266,331.985,206.444,332.294z M206.444,278.124v-26.529
	c15.835,0.311,31.399,1.484,46.214,3.433L206.444,278.124z"/>
<path d="M128.52,199.216c0.25,0.022,0.498,0.032,0.743,0.032c4.388,0,8.121-3.36,8.505-7.812
	c3.721-43.155,23.842-82.143,56.657-109.784c32.465-27.347,75.645-42.408,121.587-42.408c55.344,0,106.161,21.834,139.419,59.905
	c3.105,3.555,8.504,3.919,12.059,0.814c3.554-3.105,3.919-8.504,0.812-12.059c-36.506-41.787-92.013-65.753-152.291-65.753
	c-104.764,0-186.887,70.576-195.272,167.815C120.333,194.671,123.818,198.811,128.52,199.216z"/>
<path d="M330.306,71.344c-1.299,1.215-6.341,3.794-14.864,3.794s-13.565-2.58-14.864-3.794c-0.471-4.274-4.094-7.6-8.495-7.6
	c-4.72,0-8.546,3.826-8.546,8.546c0,11.554,13.418,19.941,31.905,19.941c18.487,0,31.905-8.386,31.905-19.941
	c0-4.72-3.826-8.546-8.546-8.546C334.4,63.744,330.777,67.069,330.306,71.344z"/>
<path d="M425.396,309.872c4.027,0,7.596-2.934,8.386-6.882c1.523-7.603-7.528-13.16-13.636-8.404
	c-2.883,2.245-4.017,6.171-2.787,9.61C418.557,307.548,421.825,309.872,425.396,309.872z"/>
<path d="M85.835,401.736c3.941,0,7.428-2.783,8.32-6.615c1.725-7.404-6.75-13.188-13.061-9.03c-3.031,1.997-4.461,5.882-3.494,9.372
	C78.616,399.122,82.028,401.736,85.835,401.736z"/>
<path d="M265.759,142.005c-2.941,2.378-3.951,6.59-2.429,10.048c1.355,3.08,4.455,5.131,7.829,5.131c4.124,0,7.689-3.059,8.413-7.09
	c0.645-3.594-1.191-7.275-4.39-8.994C272.18,139.489,268.402,139.867,265.759,142.005z"/>
<path d="M294.821,386.187c-3.079,2.125-4.392,6.143-3.228,9.688c1.137,3.467,4.459,5.863,8.108,5.863c4.064,0,7.64-2.975,8.394-6.96
	C309.487,387.415,300.989,381.93,294.821,386.187z"/>
<path d="M226.434,440.918c0.615-3.587-1.17-7.295-4.393-9.003c-3.184-1.688-7.174-1.175-9.823,1.265
	c-5.602,5.156-1.795,14.819,5.795,14.819C222.112,447.998,225.74,444.963,226.434,440.918z"/>
<path d="M304.442,411.592c-3.113-2.07-7.265-1.844-10.164,0.501c-2.828,2.288-3.845,6.293-2.546,9.674
	c1.255,3.266,4.469,5.471,7.969,5.471c4.063,0,7.64-2.975,8.394-6.96C308.724,416.954,307.257,413.465,304.442,411.592z"/>
<path d="M438.327,148.864c-6.073,4.966-2.423,15.156,5.427,15.156c4.06,0,7.636-2.996,8.393-6.967
	c0.62-3.247-0.768-6.676-3.481-8.569C445.55,146.31,441.274,146.455,438.327,148.864z"/>
<path d="M427.242,182.206c0.684-3.34-0.792-6.893-3.635-8.774c-3.232-2.139-7.605-1.829-10.485,0.774
	c-5.663,5.116-1.902,14.883,5.745,14.883C422.91,189.089,426.437,186.141,427.242,182.206z"/>
<path d="M484.453,109.523c-2.526-3.987-7.808-5.172-11.793-2.645c-3.987,2.526-5.171,7.806-2.645,11.793
	c16.518,26.069,24.892,55.702,24.892,88.075c0,40.882-13.424,79.364-38.82,111.287c-20.483,25.746-47.859,45.42-78.459,56.693
	c11.652-25.199,18.169-53.24,18.169-82.778c0-23.912-21.607-45.699-60.84-61.351c-36.748-14.659-85.422-22.732-137.058-22.732
	s-100.312,8.073-137.06,22.732C21.607,246.249,0,268.037,0,291.948c0,28.56,5.955,56.119,17.698,81.913
	c1.432,3.147,4.536,5.008,7.783,5.008c1.185,0,2.388-0.247,3.536-0.77c4.296-1.955,6.193-7.024,4.237-11.318
	c-5.287-11.615-9.267-23.628-11.967-35.947c9.938,8.359,23.21,15.947,39.552,22.467c36.748,14.659,85.422,22.733,137.06,22.733
	s100.312-8.073,137.058-22.733c16.327-6.513,29.589-14.092,39.524-22.442c-17.847,81.058-90.24,141.897-176.582,141.897
	c-60.158,0-116.207-29.803-149.932-79.722c-2.642-3.911-7.953-4.937-11.866-2.297c-3.911,2.642-4.94,7.955-2.297,11.866
	c36.907,54.631,98.252,87.246,164.096,87.246c70.846,0,133.105-37.428,168.072-93.542c40.566-10.68,77.211-34.596,103.492-67.63
	C497.291,293.698,512,251.536,512,206.749C512,171.584,502.474,137.965,484.453,109.523z M328.623,337.423
	c-34.78,13.875-81.206,21.517-130.725,21.517s-95.945-7.641-130.726-21.517c-31.825-12.696-50.08-29.272-50.08-45.475
	s18.254-32.779,50.081-45.475c34.781-13.875,81.208-21.517,130.726-21.517s95.945,7.641,130.725,21.517
	c31.828,12.697,50.081,29.272,50.081,45.475S360.451,324.727,328.623,337.423z"/>
<g>
</g>
<g>
</g>
<g>
</g>
<g>
</g>
<g>
</g>
<g>
</g>
<g>
</g>
<g>
</g>
<g>
</g>
<g>
</g>
<g>
</g>
<g>
</g>
<g>
</g>
<g>
</g>
<g>
</g>
</svg>
