<?xml version="1.0" encoding="iso-8859-1"?>
<!-- Generator: Adobe Illustrator 19.0.0, SVG Export Plug-In . SVG Version: 6.00 Build 0)  -->
<svg version="1.1" id="Layer_1" xmlns="http://www.w3.org/2000/svg" xmlns:xlink="http://www.w3.org/1999/xlink" x="0px" y="0px"
	 viewBox="0 0 512 512" style="enable-background:new 0 0 512 512;" xml:space="preserve">
<path style="fill:#39B54A;" d="M318.99,102.751c-12.401,12.401-22.015,26.255-28.697,40.495
	c-10.498,22.373-28.482,40.359-50.857,50.857c-14.24,6.681-28.094,16.296-40.495,28.697s-22.015,26.255-28.697,40.495
	c-10.498,22.373-28.482,40.359-50.857,50.857c-14.24,6.681-28.094,16.296-40.495,28.697c-21.37,21.37-28.866,45.886-37.002,69.392
	c-5.647,16.317-19.769,32.952-19.769,32.952s27.532,27.72,36.626,36.814c32.864,32.864,95.168,23.843,139.159-20.149
	c12.401-12.401,22.015-26.255,28.697-40.495c10.498-22.373,28.482-40.359,50.857-50.857c14.24-6.681,28.094-16.296,40.495-28.697
	s22.015-26.255,28.697-40.495c10.498-22.373,28.482-40.359,50.857-50.857c14.24-6.681,28.094-16.296,40.495-28.697
	c23.67-23.67,44.811-73.206,50.185-110.82c8.16-57.12-16.006-100.745-16.006-100.745s-12.318,32.258-60.294,47.047
	C375.442,68.479,337.982,83.76,318.99,102.751z"/>
<g>
	
		<ellipse transform="matrix(-0.7071 -0.7071 0.7071 -0.7071 241.5845 664.6744)" style="fill:#8CC63F;" cx="258.451" cy="282.303" rx="45.272" ry="62.58"/>
	
		<ellipse transform="matrix(-0.7071 -0.7071 0.7071 -0.7071 -48.2476 784.6998)" style="fill:#8CC63F;" cx="138.393" cy="402.342" rx="45.272" ry="62.58"/>
	
		<ellipse transform="matrix(-0.7071 -0.7071 0.7071 -0.7071 531.3938 544.625)" style="fill:#8CC63F;" cx="378.492" cy="162.257" rx="45.272" ry="62.58"/>
</g>
<path d="M109.938,512c-23.116,0-43.471-7.854-58.402-22.784c-9.003-9.003-36.375-36.562-36.651-36.839
	c-3.733-3.759-3.967-9.75-0.538-13.788c0.124-0.147,12.972-15.427,17.909-29.689c0.501-1.448,0.999-2.901,1.5-4.356
	c7.971-23.203,16.215-47.197,37.929-68.911c12.961-12.961,27.553-23.295,43.375-30.718c20.17-9.464,36.491-25.784,45.955-45.955
	c7.423-15.82,17.758-30.414,30.718-43.374c12.96-12.96,27.552-23.294,43.374-30.718c20.17-9.464,36.492-25.785,45.955-45.955
	c7.424-15.821,17.758-30.415,30.718-43.374c17.37-17.37,50.04-33.533,97.102-48.041c42.73-13.173,53.664-40.663,53.77-40.939
	c1.416-3.706,4.852-6.256,8.809-6.535c3.958-0.273,7.717,1.761,9.64,5.231c1.055,1.903,25.727,47.307,17.181,107.13
	c-6.035,42.247-28.85,92.37-53.069,116.588c-12.96,12.96-27.552,23.294-43.374,30.718c-20.17,9.464-36.491,25.785-45.955,45.955
	c-7.424,15.822-17.758,30.415-30.717,43.374c-12.961,12.961-27.554,23.295-43.375,30.718c-20.17,9.464-36.492,25.784-45.955,45.955
	c-7.423,15.822-17.758,30.414-30.718,43.375c-22.822,22.821-51.057,37.658-79.503,41.777C120.275,511.617,115.039,512,109.938,512z
	 M35.661,444.348c8.696,8.752,24.007,24.154,30.299,30.445c13.564,13.564,33.708,19.198,56.734,15.865
	c24.12-3.492,48.271-16.282,68.003-36.013c11.283-11.284,20.258-23.94,26.674-37.615c11.483-24.473,31.284-44.274,55.757-55.757
	c13.675-6.416,26.33-15.39,37.615-26.675c11.283-11.283,20.257-23.939,26.674-37.614c11.483-24.473,31.284-44.275,55.757-55.757
	c13.676-6.417,26.331-15.391,37.614-26.674c20.774-20.774,41.993-67.899,47.299-105.049c4.675-32.724-1.954-60.788-7.786-77.608
	c-9.774,11.692-26.913,26.312-55.412,35.098c-43.236,13.329-73.904,28.189-88.688,42.973
	c-11.283,11.283-20.258,23.939-26.674,37.614c-11.483,24.473-31.284,44.275-55.757,55.757
	c-13.676,6.417-26.331,15.391-37.614,26.674c-11.284,11.284-20.259,23.94-26.675,37.614c-11.483,24.473-31.284,44.274-55.757,55.757
	c-13.676,6.416-26.331,15.391-37.615,26.674c-18.378,18.379-25.51,39.138-33.061,61.116c-0.505,1.471-1.009,2.937-1.516,4.401
	C47.727,426.567,40.682,437.426,35.661,444.348z"/>
<path d="M241.18,347.138c-13.523,0-25.422-4.599-34.195-13.372c-10.926-10.926-15.378-26.704-12.533-44.425
	c2.65-16.508,11.447-32.937,24.773-46.263c13.326-13.326,29.756-22.123,46.263-24.773c17.721-2.841,33.498,1.606,44.425,12.533l0,0
	c10.926,10.926,15.377,26.704,12.533,44.425c-2.65,16.507-11.447,32.936-24.773,46.263c-13.326,13.326-29.756,22.124-46.263,24.774
	C247.918,346.861,244.498,347.138,241.18,347.138z M275.677,237.932c-13.422,0-29.364,6.906-42.028,19.571
	c-10.315,10.314-17.083,22.77-19.058,35.072c-1.78,11.087,0.642,20.594,6.817,26.769c6.175,6.176,15.681,8.598,26.77,6.817
	c12.302-1.975,24.757-8.742,35.072-19.057c20.079-20.078,25.684-48.399,12.24-61.842
	C290.527,240.299,283.533,237.932,275.677,237.932z"/>
<path d="M121.133,467.185c-13.523,0-25.421-4.598-34.194-13.371c-10.926-10.927-15.378-26.705-12.533-44.426
	c2.65-16.507,11.447-32.936,24.773-46.263c13.326-13.326,29.756-22.123,46.263-24.773c17.723-2.845,33.499,1.606,44.426,12.533
	c10.926,10.927,15.378,26.704,12.533,44.426c-2.65,16.507-11.447,32.936-24.773,46.263c-13.326,13.326-29.756,22.123-46.263,24.773
	C127.871,466.908,124.453,467.185,121.133,467.185z M155.565,357.923c-2.213,0-4.516,0.189-6.892,0.57
	c-12.302,1.975-24.757,8.742-35.072,19.058c-20.078,20.079-25.684,48.398-12.24,61.842c13.443,13.442,41.763,7.839,61.841-12.241
	c10.315-10.314,17.083-22.77,19.058-35.072c1.78-11.087-0.641-20.595-6.817-26.77C170.591,360.457,163.682,357.923,155.565,357.923z
	"/>
<path d="M361.225,227.092c-13.523,0-25.421-4.598-34.194-13.371c-10.926-10.927-15.378-26.705-12.533-44.426
	c2.65-16.507,11.447-32.936,24.773-46.263c13.326-13.326,29.756-22.123,46.263-24.773c17.722-2.847,33.498,1.607,44.425,12.533l0,0
	l0,0c10.926,10.926,15.378,26.704,12.533,44.425c-2.65,16.508-11.448,32.937-24.774,46.263s-29.755,22.123-46.262,24.773
	C367.964,226.814,364.545,227.092,361.225,227.092z M395.659,117.829c-2.213,0-4.516,0.189-6.891,0.57
	c-12.303,1.974-24.758,8.742-35.072,19.058c-20.078,20.078-25.684,48.398-12.24,61.842c13.442,13.443,41.763,7.839,61.841-12.241
	c10.315-10.314,17.083-22.77,19.058-35.072c1.78-11.088-0.642-20.595-6.817-26.77l0,0
	C410.685,120.364,403.775,117.829,395.659,117.829z"/>
<path d="M121.554,440.065c-0.1,0-0.198,0-0.298-0.001c-5.632-0.063-10.147-4.679-10.085-10.312
	c0.063-5.632,4.694-10.14,10.312-10.085c0.027,0,0.054,0,0.083,0c3.782,0,10.89-2.851,18.353-9.254
	c4.273-3.669,10.713-3.177,14.381,1.097c3.669,4.274,3.177,10.713-1.097,14.381C142.691,434.913,131.177,440.065,121.554,440.065z"
	/>
<path d="M162.669,407.956c-1.471,0-2.965-0.319-4.38-0.994c-5.085-2.423-7.243-8.51-4.82-13.594c0.445-0.932,0.831-1.85,1.15-2.729
	c1.924-5.294,7.774-8.027,13.069-6.103c5.294,1.923,8.026,7.776,6.103,13.069c-0.542,1.491-1.184,3.018-1.908,4.537
	C170.134,405.81,166.479,407.956,162.669,407.956z"/>
<g>
</g>
<g>
</g>
<g>
</g>
<g>
</g>
<g>
</g>
<g>
</g>
<g>
</g>
<g>
</g>
<g>
</g>
<g>
</g>
<g>
</g>
<g>
</g>
<g>
</g>
<g>
</g>
<g>
</g>
</svg>
