<?xml version="1.0" encoding="iso-8859-1"?>
<!-- Generator: Adobe Illustrator 19.0.0, SVG Export Plug-In . SVG Version: 6.00 Build 0)  -->
<svg version="1.1" id="Layer_1" xmlns="http://www.w3.org/2000/svg" xmlns:xlink="http://www.w3.org/1999/xlink" x="0px" y="0px"
	 viewBox="0 0 511.984 511.984" style="enable-background:new 0 0 511.984 511.984;" xml:space="preserve">
<polygon style="fill:#FFE7B0;" points="183.73,357.367 190.495,382.93 232.666,411.429 274.664,446.084 307.335,472.083 
	382.661,478.738 430.659,467.427 466.002,440.74 491.329,398.742 504.001,353.43 "/>
<path style="fill:#FFCE54;" d="M283.492,302.931l-24.499-65.004l-23.999-29.499l-27.5-41.999l-17.999-44.498
	c0,0-31.499-23.5-32.999-23.5l-19.999,6l-23.499,13.5l-31.406,45.998l-18.593,51.998l-27.812,37.999L15,303.432l6,65.998
	l33.999,54.498l53.999,27.5l26.999,5.5h39.999l38.498-11.5l29-23l-19-16.499l-33.999-22.999l-8.999-33.999h101.996L283.492,302.931
	L283.492,302.931z"/>
<polygon style="fill:#EDCA8C;" points="312.491,351.68 319.491,374.68 338.74,391.93 378.739,404.429 413.988,385.43 
	436.487,354.93 "/>
<path d="M122.092,417.115L122.092,417.115c-39.203-19.467-61.045-46.186-64.967-79.372c-2.954-25.124,5.827-45.093,5.921-45.312l0,0
	c0.609-1.343,0.953-2.812,0.953-4.374c0-5.906-4.78-10.688-10.671-10.688c-4.312,0-8,2.562-9.703,6.25l0,0
	c-0.016,0.031-0.062,0.125-0.109,0.25L43.5,283.9c-1.281,2.938-10.828,25.905-7.672,55.248c3.047,28.405,18.843,68.279,76.764,97.06
	l0,0c1.422,0.719,3.031,1.125,4.734,1.125c5.89,0,10.671-4.781,10.671-10.688C127.997,422.459,125.591,418.865,122.092,417.115z"/>
<path d="M511.984,341.337h-63.998H298.664h-0.188c0.188-4.124,0.234-8.28,0.109-12.53c-2.25-75.287-22.812-87.817-47.077-115.832
	c-30.921-35.733-37.108-118.388-91.013-126.84c4.062-31.921,25.015-44.249,26.046-44.827l-0.094,0.062l0,0
	c3.312-1.812,5.547-5.344,5.547-9.375c0-5.874-4.781-10.655-10.671-10.655c-1.844,0-3.594,0.469-5.109,1.312l0,0
	c-1.484,0.797-33.062,18.655-37.266,64.264c-54.717,13.702-77.122,117.48-92.965,132.745C29.046,235.973,0,273.621,0,328.807
	c0,53.029,39.545,133.776,137.011,140.12c0.141,0,0.266,0,0.391,0c3.89,0,7.577-3.594,11.687-3.594c4.531,0,9.344,3.562,13.75,3.562
	c0.172,0,0.344,0,0.531-0.031c34.468-2.25,63.904-12.905,86.45-30.28c2.016,1.594,4.016,3.219,6,4.906
	c28.015,24.28,40.546,44.842,115.824,47.092c1.688,0.062,3.359,0.062,5.031,0.062c76.981,0,129.683-53.467,135.026-135.277
	C512,350.868,511.984,341.337,511.984,341.337z M362.662,362.648c0,2.75,1.047,5.469,3.109,7.562c4.171,4.156,10.937,4.156,15.093,0
	c2.078-2.094,3.124-4.812,3.124-7.562h38.219c-8.234,18.844-27.047,32-48.89,32c-21.827,0-40.64-13.156-48.874-32H362.662z
	 M164.262,447.428c-0.172-0.062-0.375-0.125-0.547-0.219c-3.328-1.281-8.391-3.219-14.625-3.219c-6.141,0-10.922,1.938-14.046,3.406
	c-18.655-1.625-35.64-6.469-50.53-14.406c-13.843-7.375-25.92-17.469-35.905-29.937c-8.828-11.062-16-24.155-20.733-37.843
	c-4.281-12.344-6.547-24.937-6.547-36.404c0-20.875,4.828-40.874,14.296-59.443c8.875-17.344,19.562-28.952,25.156-34.343
	c7.983-7.672,13.515-20.78,21.889-40.624c8.109-19.187,18.203-43.029,31-61.248c12.374-17.624,24.514-26.249,37.107-26.39
	c0.156,0,0.328-0.016,0.484-0.016c11.891,0,20.625,4.75,29.25,15.891c9.437,12.171,16.921,30.046,24.139,47.326
	c8.516,20.405,17.344,41.515,30.734,56.967c3.109,3.625,6.109,6.875,9,10.062c9.452,10.39,16.936,18.593,22.342,30.89
	c6.359,14.46,9.719,34.021,10.531,61.584c0.125,4.031,0.078,7.969-0.141,11.874H170.652c-0.531,49.999,29.389,64.342,60.623,84.341
	C213.103,437.959,190.339,445.396,164.262,447.428z M455.924,438.646c-19.952,20.062-47.342,30.687-79.247,30.687
	c-1.422,0-2.922-0.031-4.391-0.062c-27.562-0.844-47.124-4.188-61.576-10.562c-12.28-5.406-20.499-12.875-30.89-22.344
	c-3.172-2.875-6.438-5.875-10.047-8.969c-11.562-10.031-23.874-17.749-34.686-24.562c-13.219-8.28-24.641-15.437-32.219-24.687
	c-2.938-3.594-6.14-8.312-8.28-15.5h107.169c9.187,30.844,37.748,53.342,71.56,53.342c33.827,0,62.389-22.498,71.575-53.342h44.75
	C486.08,393.836,474.502,419.959,455.924,438.646z"/>
<g>
</g>
<g>
</g>
<g>
</g>
<g>
</g>
<g>
</g>
<g>
</g>
<g>
</g>
<g>
</g>
<g>
</g>
<g>
</g>
<g>
</g>
<g>
</g>
<g>
</g>
<g>
</g>
<g>
</g>
</svg>
