<?xml version="1.0" encoding="iso-8859-1"?>
<!-- Generator: Adobe Illustrator 19.0.0, SVG Export Plug-In . SVG Version: 6.00 Build 0)  -->
<svg xmlns="http://www.w3.org/2000/svg" xmlns:xlink="http://www.w3.org/1999/xlink" version="1.1" id="Layer_1" x="0px" y="0px" viewBox="0 0 502.026 502.026" style="enable-background:new 0 0 502.026 502.026;" xml:space="preserve" width="512" height="512">
<g>
	<g>
		<g>
			<path style="fill:#39B54A;" d="M252.577,141.291c-0.337,0-0.676-0.008-1.016-0.025c-11.377-0.552-20.153-10.218-19.609-21.593     l0,0c0.949-20.082-1.155-54.819-8.685-65.6c-0.793-1.135-1.488-1.87-1.992-2.312c-0.925,0.995-2.4,3.308-2.912,7.465     c-1.394,11.309-11.693,19.35-23.001,17.952c-11.309-1.394-19.346-11.692-17.952-23.001c2.66-21.572,16.158-38.437,34.387-42.965     c17.001-4.22,33.935,2.966,45.298,19.234c18.241,26.116,16.589,80.563,16.072,91.213     C272.633,132.699,263.512,141.291,252.577,141.291z"/>
		</g>
		<g>
			<path style="fill:#39B54A;" d="M107.44,440.447c5.33,17.44,23.093,51.579,51.579,51.579c19.937,0,37.22-11.319,45.805-27.875     c8.585,16.556,25.868,27.875,45.805,27.875c20.238,0,37.743-11.662,46.19-28.626c8.447,16.965,25.952,28.626,46.19,28.626     c28.486,0,46.249-34.139,51.579-51.579c16.574-54.23,43.147-175.627,48.815-262.019c2.499-38.089-30.944-69.115-69.115-69.115     c-27.119,0-50.576,15.627-61.894,38.359c-11.318-22.733-34.776-38.359-61.894-38.359c-26.716,0-49.874,15.168-61.379,37.352     c-11.504-22.185-34.663-37.352-61.379-37.352c-38.171,0-71.614,31.026-69.115,69.115     C64.293,264.82,90.866,386.217,107.44,440.447z"/>
		</g>
	</g>
	<g>
		<path d="M433.546,124.948c-15.258-16.292-36.857-25.636-59.261-25.636c-24.553,0-47.078,11.107-61.894,29.799    c-7.793-9.832-17.722-17.562-28.955-22.684c-0.195-23.011-3.074-60.133-18.143-81.707C251.47,4.927,230.57-3.75,209.387,1.507    c-22.282,5.535-38.73,25.729-41.901,51.447c-2.065,16.763,9.891,32.083,26.649,34.148c8.121,1.004,16.146-1.216,22.599-6.252    c1.178-0.919,2.276-1.912,3.293-2.97c1.084,7.301,1.869,16.371,2.081,26.67c-12.834,4.92-24.222,13.139-32.99,23.949    c-14.845-18.305-37.2-29.187-61.378-29.187c-22.403,0-44.003,9.344-59.261,25.636c-14.093,15.049-21.137,34.274-19.833,54.135    c5.625,85.743,32.205,208.58,49.229,264.287c6.658,21.786,27.029,58.656,61.143,58.656c17.778,0,34.29-7.56,45.805-20.408    c11.514,12.849,28.025,20.408,45.805,20.408c18.044,0,34.683-7.708,46.189-20.814c11.507,13.106,28.146,20.814,46.189,20.814    c34.113,0,54.484-36.87,61.143-58.656c17.024-55.708,43.604-178.544,49.229-264.287    C454.683,159.223,447.639,139.997,433.546,124.948z M231.467,48.35c-1.133-1.623-2.34-3.002-3.59-4.101    c-4.067-3.576-10.242-3.262-13.929,0.706c-1.68,1.809-4.63,5.909-5.51,13.047c-0.348,2.819-1.772,5.334-4.012,7.082    c-2.237,1.747-5.02,2.519-7.841,2.169c-5.818-0.717-9.968-6.034-9.251-11.852c2.149-17.427,12.697-30.962,26.872-34.483    c13.016-3.234,25.662,2.328,34.69,15.254c8.459,12.112,13.589,35.168,14.426,64.173c-4.192-0.678-8.476-1.033-12.827-1.033    c-2.873,0-5.72,0.159-8.532,0.46C241.395,84.628,239.252,59.496,231.467,48.35z M433.422,177.773    c-5.526,84.232-31.659,204.975-48.399,259.751c-3.783,12.378-18.706,44.501-42.016,44.501c-15.88,0-30.148-8.845-37.237-23.083    c-1.691-3.396-5.158-5.543-8.952-5.543s-7.261,2.147-8.952,5.543c-7.089,14.238-21.357,23.083-37.237,23.083    c-15.588,0-29.737-8.613-36.927-22.478c-1.72-3.315-5.143-5.396-8.878-5.396c-3.734,0-7.158,2.081-8.877,5.396    c-7.19,13.865-21.341,22.479-36.928,22.479c-23.31,0-38.232-32.124-42.016-44.501c-16.74-54.776-42.873-175.519-48.399-259.751    c-0.938-14.281,4.203-28.187,14.474-39.154c11.491-12.27,27.771-19.307,44.663-19.307c22.162,0,42.279,12.245,52.501,31.956    c1.719,3.315,5.143,5.396,8.877,5.396s7.158-2.081,8.877-5.396c10.223-19.711,30.34-31.956,52.502-31.956    c22.578,0,42.864,12.575,52.942,32.816c1.691,3.396,5.158,5.543,8.952,5.543s7.261-2.147,8.952-5.543    c10.078-20.242,30.364-32.816,52.941-32.816c16.893,0,33.172,7.037,44.663,19.307C429.219,149.587,434.36,163.492,433.422,177.773    z"/>
		<path d="M205.131,272.825c-0.28-5.516-4.962-9.757-10.494-9.48c-5.516,0.28-9.76,4.978-9.48,10.494l7.954,156.8    c0.271,5.343,4.688,9.493,9.979,9.493c0.171,0,0.343-0.004,0.516-0.013c5.516-0.28,9.76-4.978,9.48-10.494L205.131,272.825z"/>
		<path d="M192.937,240.006c0.171,0,0.343-0.004,0.516-0.013c5.516-0.28,9.76-4.978,9.48-10.494l-1.412-27.852    c-0.28-5.516-4.972-9.759-10.494-9.481c-5.516,0.28-9.76,4.978-9.48,10.494l1.412,27.852    C183.23,235.856,187.647,240.006,192.937,240.006z"/>
		<path d="M300.324,392.291c-5.497-0.271-10.208,3.979-10.48,9.496l-1.322,26.82c-0.271,5.516,3.979,10.208,9.496,10.48    c0.167,0.008,0.334,0.012,0.5,0.012c5.297,0,9.717-4.159,9.98-9.508l1.322-26.82C310.092,397.255,305.841,392.563,300.324,392.291    z"/>
		<path d="M311.113,173.598c-5.521-0.27-10.209,3.979-10.481,9.495l-8.545,173.219c-0.271,5.516,3.979,10.208,9.495,10.48    c0.168,0.008,0.335,0.012,0.501,0.012c5.297,0,9.716-4.159,9.98-9.507l8.545-173.219    C320.88,178.563,316.629,173.87,311.113,173.598z"/>
	</g>
</g>















</svg>
