<?xml version="1.0" encoding="iso-8859-1"?>
<!-- Generator: Adobe Illustrator 18.0.0, SVG Export Plug-In . SVG Version: 6.00 Build 0)  -->
<!DOCTYPE svg PUBLIC "-//W3C//DTD SVG 1.1//EN" "http://www.w3.org/Graphics/SVG/1.1/DTD/svg11.dtd">
<svg version="1.1" id="Capa_1" xmlns="http://www.w3.org/2000/svg" xmlns:xlink="http://www.w3.org/1999/xlink" x="0px" y="0px"
	 viewBox="0 0 346.9 346.9" style="enable-background:new 0 0 346.9 346.9;" xml:space="preserve">
<g>
	<g>
		<path style="fill:#84BD93;" d="M154.24,15.041c1.056,0,2.091,0.086,3.113,0.212C156.33,15.127,155.296,15.041,154.24,15.041z"/>
		<path style="fill:#84BD93;" d="M167.465,18.811c0.674,0.416,1.327,0.861,1.958,1.336C168.792,19.672,168.14,19.227,167.465,18.811
			z"/>
		<path style="fill:#84BD93;" d="M174.581,25.348c0.497,0.671,0.961,1.368,1.391,2.087C175.542,26.715,175.078,26.02,174.581,25.348
			z"/>
		<path style="fill:#84BD93;" d="M172.224,22.564c-0.712-0.72-1.474-1.387-2.268-2.018
			C170.749,21.177,171.513,21.844,172.224,22.564z"/>
		<path style="fill:#84BD93;" d="M164.207,17.093c0.896,0.386,1.758,0.834,2.597,1.317
			C165.965,17.927,165.104,17.478,164.207,17.093z"/>
		<path style="fill:#84BD93;" d="M172.227,22.567c0.697,0.705,1.34,1.461,1.951,2.243C173.567,24.028,172.925,23.272,172.227,22.567
			z"/>
		<path style="fill:#84BD93;" d="M148.513,26.308c0.179-0.017,0.354-0.025,0.53-0.037C148.867,26.282,148.691,26.291,148.513,26.308
			z"/>
		<path style="fill:#84BD93;" d="M161.294,16.061c0.97,0.282,1.923,0.605,2.842,0.997C163.217,16.666,162.264,16.343,161.294,16.061
			z"/>
		<path style="fill:#84BD93;" d="M175.77,27.739c-3.711-2.135-8.199-3.364-12.778-3.364c-2.73,0-5.207,0.443-8.207,1.298V27.9
			c0,0,0.389,0,0.389,0c1.401,0,2.762,0.569,4.011,1.382c9.12,5.936,8.6,18.605,8.6,21.388V77.9c3-0.061,3.304-0.1,5.114-0.1
			c2.076,0,5.886,0.045,5.886,0.125V40.357C178.785,35.761,177.92,31.458,175.77,27.739z"/>
		<path style="fill:#84BD93;" d="M150.913,26.225c0.102,0.002,0.206,0.002,0.308,0.006C151.12,26.227,151.016,26.228,150.913,26.225
			z"/>
		<path style="fill:#84BD93;" d="M158.237,15.389c0.76,0.122,1.51,0.275,2.246,0.463C159.746,15.664,158.998,15.51,158.237,15.389z"
			/>
	</g>
	<g>
		<path style="fill:#FDD44B;" d="M91.301,281.761c-0.623-1.689-1.254-3.42-1.891-5.191C90.047,278.34,90.678,280.073,91.301,281.761
			z"/>
		<path style="fill:#FDD44B;" d="M93.514,287.641c-0.65-1.692-1.303-3.42-1.964-5.205C92.211,284.221,92.864,285.95,93.514,287.641z
			"/>
		<path style="fill:#FDD44B;" d="M100.126,303.442c-0.642-1.374-1.282-2.794-1.923-4.265
			C98.843,300.648,99.484,302.068,100.126,303.442z"/>
		<path style="fill:#FDD44B;" d="M95.875,293.637c-0.65-1.601-1.304-3.262-1.961-4.96C94.571,290.375,95.225,292.037,95.875,293.637
			z"/>
		<path style="fill:#FDD44B;" d="M97.893,298.457c-0.616-1.428-1.232-2.895-1.851-4.413
			C96.661,295.562,97.278,297.029,97.893,298.457z"/>
		<path style="fill:#FDD44B;" d="M89.065,275.615c-0.679-1.891-1.367-3.829-2.065-5.812
			C87.698,271.784,88.387,273.724,89.065,275.615z"/>
		<path style="fill:#FDD44B;" d="M111.85,322.335c0.74,0.806,1.491,1.572,2.26,2.27C113.341,323.907,112.591,323.142,111.85,322.335
			z"/>
		<path style="fill:#FDD44B;" d="M105.947,105.449c-0.936,1.299-1.801,2.656-2.633,4.04
			C104.146,108.105,105.012,106.749,105.947,105.449z"/>
		<path style="fill:#FDD44B;" d="M86.539,268.492c-0.704-2.004-1.415-4.034-2.144-6.128
			C85.123,264.457,85.835,266.489,86.539,268.492z"/>
		<path style="fill:#FDD44B;" d="M119.319,328.342c-0.832-0.453-1.644-0.959-2.44-1.52
			C117.674,327.383,118.488,327.889,119.319,328.342z"/>
		<path style="fill:#FDD44B;" d="M122.346,329.734c-0.897-0.332-1.766-0.736-2.621-1.181
			C120.58,328.997,121.449,329.402,122.346,329.734z"/>
		<path style="fill:#FDD44B;" d="M126.073,292.016c-1.986-7.385-3.871-15.287-5.866-23.654
			c-3.905-16.376-8.333-34.938-14.583-53.626c-14.331-42.837-16.112-76.196-5.381-99.436c-0.676,1.464-1.317,2.955-1.894,4.5
			c-9.652,3.344-18.25,8.724-23.679,17.885c-11.329,19.115-7.662,52.624,10.9,99.594c5.343,13.522,9.792,26.301,14.095,38.66
			c8.377,24.056,15.001,42.176,22.688,53.781c3.672,1.357,7.716,1.179,12.278,1.179h0.002c2.24-1,4.426-0.763,6.546-1.468
			C133.977,319.025,129.649,305.307,126.073,292.016z"/>
		<path style="fill:#FDD44B;" d="M116.517,326.555c-0.779-0.569-1.545-1.181-2.294-1.854
			C114.972,325.374,115.738,325.986,116.517,326.555z"/>
		<path style="fill:#FDD44B;" d="M104.463,311.888c-1.351-2.366-2.678-4.943-3.997-7.728
			C101.785,306.945,103.113,309.522,104.463,311.888z"/>
		<path style="fill:#FDD44B;" d="M100.908,113.936c0.529-1.076,1.085-2.13,1.669-3.161
			C101.994,111.806,101.437,112.859,100.908,113.936z"/>
		<path style="fill:#FDD44B;" d="M111.457,321.901c-0.729-0.817-1.447-1.678-2.152-2.6
			C110.01,320.224,110.728,321.084,111.457,321.901z"/>
		<path style="fill:#FDD44B;" d="M106.835,315.792c-0.679-1.04-1.348-2.136-2.013-3.277
			C105.486,313.656,106.156,314.752,106.835,315.792z"/>
		<path style="fill:#FDD44B;" d="M109.098,319.021c-0.673-0.892-1.335-1.835-1.99-2.822
			C107.763,317.186,108.426,318.129,109.098,319.021z"/>
	</g>
	<g>
		<path style="fill:#FDD44B;" d="M262.37,262.753c-0.662,1.899-1.309,3.749-1.95,5.574
			C261.061,266.502,261.709,264.651,262.37,262.753z"/>
		<path style="fill:#FDD44B;" d="M251.056,293.562c0.628-1.548,1.26-3.154,1.895-4.793
			C252.316,290.409,251.684,292.014,251.056,293.562z"/>
		<path style="fill:#FDD44B;" d="M257.856,275.557c0.663-1.848,1.336-3.744,2.018-5.679
			C259.192,271.814,258.519,273.708,257.856,275.557z"/>
		<path style="fill:#FDD44B;" d="M255.652,281.616c0.595-1.612,1.196-3.264,1.803-4.95
			C256.848,278.353,256.247,280.003,255.652,281.616z"/>
		<path style="fill:#FDD44B;" d="M253.422,287.549c0.632-1.648,1.268-3.33,1.912-5.067
			C254.69,284.22,254.054,285.901,253.422,287.549z"/>
		<path style="fill:#FDD44B;" d="M241.029,105.562c0.903,1.26,1.743,2.572,2.548,3.911
			C242.771,108.134,241.932,106.822,241.029,105.562z"/>
		<path style="fill:#FDD44B;" d="M240.986,101.372c17.646,2.207,36.973,6.635,46.515,22.738c1.416,2.389,2.598,5.003,3.546,7.84
			c-0.948-2.838-2.129-5.452-3.546-7.841c-9.542-16.102-28.868-20.529-46.513-22.737c-0.083-0.011-0.154-0.017-0.236-0.027
			C240.834,101.355,240.904,101.362,240.986,101.372z"/>
		<path style="fill:#FDD44B;" d="M247.234,275.939c4.303-12.359,8.753-25.139,14.096-38.66
			c18.563-46.97,22.229-80.479,10.901-99.594c-5.429-9.161-14.027-14.541-23.678-17.885c-0.575-1.539-1.214-3.025-1.887-4.484
			c10.723,23.24,8.939,56.594-5.387,99.421c-6.25,18.681-10.675,37.237-14.579,53.609c-5.123,21.479-9.548,40.028-16.626,53.795
			c-1.367,2.66-2.832,5.076-4.375,7.301c2.126,0.709,4.32,1.21,6.568,1.491c0.001,0,0.001,0,0.001,0
			c4.564,0.573,8.609,0.161,12.282-1.198C232.234,318.13,238.858,299.994,247.234,275.939z"/>
		<path style="fill:#FDD44B;" d="M245.979,113.91c-0.52-1.058-1.068-2.094-1.642-3.109
			C244.912,111.815,245.459,112.852,245.979,113.91z"/>
		<path style="fill:#FDD44B;" d="M249.082,298.28c0.564-1.311,1.129-2.656,1.695-4.042
			C250.21,295.624,249.646,296.968,249.082,298.28z"/>
		<path style="fill:#FDD44B;" d="M242.502,311.77c0.642-1.129,1.281-2.289,1.914-3.513
			C243.783,309.481,243.144,310.641,242.502,311.77z"/>
		<path style="fill:#FDD44B;" d="M240.105,315.728c0.648-0.995,1.288-2.043,1.923-3.131
			C241.393,313.685,240.753,314.733,240.105,315.728z"/>
		<path style="fill:#FDD44B;" d="M237.896,318.888c0.613-0.818,1.218-1.677,1.816-2.575
			C239.114,317.211,238.508,318.07,237.896,318.888z"/>
		<path style="fill:#FDD44B;" d="M235.49,321.846c0.699-0.787,1.39-1.614,2.068-2.499
			C236.879,320.232,236.19,321.059,235.49,321.846z"/>
		<path style="fill:#FDD44B;" d="M244.567,307.956c0.603-1.174,1.203-2.401,1.801-3.661
			C245.77,305.555,245.17,306.782,244.567,307.956z"/>
		<path style="fill:#FDD44B;" d="M248.658,299.265c-0.612,1.403-1.224,2.759-1.837,4.073
			C247.434,302.025,248.046,300.668,248.658,299.265z"/>
		<path style="fill:#FDD44B;" d="M227.142,328.568c-0.829,0.43-1.672,0.821-2.541,1.145
			C225.469,329.389,226.313,328.998,227.142,328.568z"/>
		<path style="fill:#FDD44B;" d="M229.993,326.84c-0.779,0.548-1.575,1.043-2.389,1.488
			C228.418,327.884,229.214,327.388,229.993,326.84z"/>
		<path style="fill:#FDD44B;" d="M232.595,324.768c-0.707,0.631-1.429,1.21-2.164,1.749
			C231.165,325.978,231.888,325.399,232.595,324.768z"/>
		<path style="fill:#FDD44B;" d="M232.817,324.578c0.742-0.675,1.467-1.415,2.183-2.192
			C234.284,323.163,233.559,323.903,232.817,324.578z"/>
	</g>
	<g>
		<path style="fill:#FDD44B;" d="M113.438,122.6c0.407-0.931,0.863-1.817,1.319-2.703C114.301,120.782,113.846,121.67,113.438,122.6
			z"/>
		<path style="fill:#FDD44B;" d="M115.632,118.191c0.587-1.033,1.234-2.011,1.892-2.979
			C116.867,116.18,116.22,117.159,115.632,118.191z"/>
		<path style="fill:#FDD44B;" d="M110.172,132.712c0.268-1.187,0.572-2.344,0.899-3.478
			C110.743,130.367,110.442,131.526,110.172,132.712z"/>
		<path style="fill:#FDD44B;" d="M111.616,127.425c0.334-1.028,0.708-2.019,1.093-3.001
			C112.323,125.405,111.951,126.399,111.616,127.425z"/>
		<path style="fill:#FDD44B;" d="M238.253,159.14c-0.972-11.485-4.129-21.013-9.515-28.494
			c-10.221-14.197-28.826-21.396-55.296-21.396c-26.472,0-45.077,7.199-55.297,21.395c-5.385,7.48-8.542,17.008-9.514,28.491
			c-0.348-4.73-0.413-9.209-0.2-13.439c-0.884,17.279,2.919,38.744,11.458,64.27c6.463,19.32,10.973,38.227,14.95,54.907
			c1.969,8.259,3.83,16.06,5.759,23.235c8.692,32.302,17.289,43.751,32.853,43.751c21.628,0,28.115-22.975,38.616-67.003
			c3.977-16.675,7.22-36.046,14.947-54.89C238.325,182.379,238.777,152.026,238.253,159.14z"/>
		<path style="fill:#FDD44B;" d="M108.46,145.269c0.102-1.853,0.263-3.654,0.474-5.41
			C108.721,141.613,108.564,143.417,108.46,145.269z"/>
		<path style="fill:#FDD44B;" d="M109.114,138.561c0.197-1.429,0.429-2.825,0.7-4.187
			C109.542,135.735,109.312,137.134,109.114,138.561z"/>
	</g>
	<path style="fill:#3F2D20;" d="M300.441,116.44c-12.929-21.816-37.566-27.489-57.587-29.994
		c-9.469-1.184-16.255-1.534-25.232-0.111c-6.778-3.207-14.449-5.527-23.024-6.922V40.357C194.599,18.104,176.494,0,154.24,0
		c-6.66,0-13.263,1.66-19.097,4.799c-2.437,1.312-3.956,3.855-3.956,6.623v26.094c0,2.661,1.406,5.123,3.697,6.476
		c2.294,1.354,5.127,1.392,7.457,0.11c5.785-3.191,8.501-3,8.996-2.684c1.137,0.733,2.028,4.947,1.768,8.316
		c-0.019,0.219-0.028,0.437-0.028,0.656v28.912c-8.881,1.381-16.81,3.737-23.788,7.037c-8.98-1.426-15.766-1.075-25.239,0.109
		c-20.02,2.505-44.658,8.178-57.589,29.994c-14.017,23.652-10.794,60.547,9.85,112.792c5.229,13.233,9.627,25.863,13.88,38.078
		c7.983,22.928,14.878,42.729,24.086,56.764c9.757,14.871,21.674,22.166,36.295,22.166c1.928,0,3.905-0.127,5.928-0.38
		c0.002,0,0.004-0.001,0.006-0.001c5.631-0.704,11.022-2.36,16.072-4.913c5.654,3.749,12.488,5.955,20.874,5.955
		c7.921,0,14.843-1.976,20.856-5.964c5.053,2.557,10.449,4.216,16.087,4.922c0.002,0,0.004,0.001,0.004,0.001
		c2.026,0.253,4.001,0.38,5.931,0.38c14.621,0,26.539-7.296,36.296-22.165c9.209-14.035,16.103-33.836,24.085-56.762
		c4.254-12.215,8.652-24.847,13.881-38.08C311.236,176.986,314.458,140.091,300.441,116.44z M262.505,262.366
		c-16.412,47.133-26.099,71.601-50.238,68.567c0,0-0.001,0-0.002,0c-2.248-0.281-4.442-0.783-6.568-1.491
		c1.543-2.225,3.008-4.642,4.375-7.301c7.078-13.766,11.502-32.316,16.626-53.795c3.904-16.371,8.33-34.927,14.579-53.609
		c16.495-49.308,16.386-86.078-0.323-109.288c-1.129-1.569-2.339-3.061-3.607-4.497c1.159,0.122,2.355,0.258,3.64,0.42
		c17.645,2.207,36.971,6.635,46.513,22.737c11.329,19.115,7.662,52.625-10.9,99.596
		C271.258,237.227,266.808,250.007,262.505,262.366z M134.635,330.933h-0.002c-24.149,3.034-33.827-21.436-50.238-68.569
		c-4.303-12.359-8.753-25.139-14.096-38.66c-18.562-46.97-22.229-80.479-10.9-99.594c9.543-16.102,28.869-20.53,46.515-22.738
		c1.283-0.161,2.488-0.3,3.646-0.424c-1.27,1.437-2.482,2.93-3.613,4.501c-16.71,23.21-16.819,59.979-0.323,109.288
		c6.25,18.687,10.678,37.249,14.583,53.626c1.995,8.367,3.88,16.269,5.866,23.654c3.576,13.29,7.904,27.026,15.108,37.432
		C139.061,330.154,136.875,330.653,134.635,330.933z M140.597,288.108c-1.929-7.175-3.79-14.976-5.759-23.235
		c-3.978-16.681-8.487-35.587-14.95-54.907c-14.873-44.461-15.457-76.669-1.734-95.729c10.221-14.197,28.826-21.395,55.297-21.395
		c26.47,0,45.076,7.198,55.296,21.396c13.723,19.06,13.14,51.267-1.733,95.728c-6.461,19.314-10.969,38.215-14.946,54.89
		c-10.502,44.029-16.988,67.003-38.616,67.003C157.886,331.859,149.289,320.41,140.597,288.108z M146.227,16.339
		c2.571-0.855,5.282-1.297,8.012-1.297c13.961,0,25.318,11.356,25.318,25.316v37.568c-1.999-0.08-4.031-0.125-6.107-0.125
		c-1.81,0-3.583,0.039-5.335,0.1V50.67c0.186-2.783,0.546-15.922-8.574-21.857c-3.757-2.445-8.21-3.173-13.315-2.188V16.339z"/>
</g>
<g>
</g>
<g>
</g>
<g>
</g>
<g>
</g>
<g>
</g>
<g>
</g>
<g>
</g>
<g>
</g>
<g>
</g>
<g>
</g>
<g>
</g>
<g>
</g>
<g>
</g>
<g>
</g>
<g>
</g>
</svg>
