<?xml version="1.0" encoding="iso-8859-1"?>
<!-- Generator: Adobe Illustrator 18.0.0, SVG Export Plug-In . SVG Version: 6.00 Build 0)  -->
<!DOCTYPE svg PUBLIC "-//W3C//DTD SVG 1.1//EN" "http://www.w3.org/Graphics/SVG/1.1/DTD/svg11.dtd">
<svg version="1.1" id="Capa_1" xmlns="http://www.w3.org/2000/svg" xmlns:xlink="http://www.w3.org/1999/xlink" x="0px" y="0px"
	 viewBox="0 0 399.926 399.926" style="enable-background:new 0 0 399.926 399.926;" xml:space="preserve">
<g>
	<path style="fill:#EF8829;" d="M281.904,329.918l-14.235,8.215l8.714,5.029C278.475,339.051,280.314,334.633,281.904,329.918z"/>
	<polygon style="fill:#EF8829;" points="200.236,238.58 237.647,216.988 200.236,195.397 162.822,216.988 	"/>
	<path style="fill:#EF8829;" d="M287.413,306.26l-34.719-20.038l-37.486,21.635l37.414,21.593l34.251-19.767
		C287.063,308.552,287.245,307.416,287.413,306.26z"/>
	<path style="fill:#EF8829;" d="M212.594,384.267l-12.431-7.174l-12.491,7.209c3.952,0.374,8.038,0.583,12.292,0.583
		C204.339,384.885,208.536,384.663,212.594,384.267z"/>
	<path style="fill:#EF8829;" d="M241.643,171.498l-26.362,15.215l37.412,21.591l14.524-8.382
		C259.961,188.581,251.265,178.872,241.643,171.498z"/>
	<path style="fill:#EF8829;" d="M252.622,346.817l-37.412,21.592l19.501,11.256c13.827-4.725,25.032-12.676,33.634-23.774
		L252.622,346.817z"/>
	<path style="fill:#EF8829;" d="M267.466,216.831l11.835,6.83c-1.469-3.726-3.081-7.357-4.822-10.878L267.466,216.831z"/>
	<path style="fill:#EF8829;" d="M289.421,276.593c0-3.792-0.159-7.563-0.458-11.303l-21.222,12.249l21.315,12.301
		C289.297,285.567,289.421,281.153,289.421,276.593z"/>
	<path style="fill:#EF8829;" d="M215.009,247.107l37.684,21.748L286.75,249.2c-0.288-1.477-0.592-2.947-0.922-4.407l-33.407-19.279
		L215.009,247.107z"/>
	<polygon style="fill:#EF8829;" points="237.575,338.133 200.161,316.541 162.749,338.133 200.163,359.725 	"/>
	<polygon style="fill:#EF8829;" points="162.477,277.424 200.161,299.173 237.647,277.539 199.963,255.79 	"/>
	<g>
		<g>
			<path style="fill:#84BD93;" d="M234.035,72.157c0.05-1.935,0.049-3.811,0.008-5.611
				C234.084,68.346,234.085,70.223,234.035,72.157z"/>
			<path style="fill:#84BD93;" d="M233.776,61.119c0.06,0.764,0.11,1.559,0.152,2.371C233.886,62.678,233.837,61.883,233.776,61.119
				z"/>
			<path style="fill:#84BD93;" d="M233.95,63.935c0.034,0.713,0.062,1.443,0.082,2.188C234.012,65.377,233.984,64.648,233.95,63.935
				z"/>
			<path style="fill:#84BD93;" d="M232.58,52.93c0.119,0.472,0.23,0.992,0.337,1.538C232.811,53.923,232.699,53.402,232.58,52.93z"
				/>
			<path style="fill:#84BD93;" d="M232.786,63.236c-3.046,3.892-7.349,11.796-10.962,21.748c0.708,4.25,1.332,8.62,1.835,12.989
				c2.769-3.959,5.856-7.95,9.115-11.468c0.749-4.816,1.141-9.722,1.26-14.331C233.78,68.555,233.345,65.46,232.786,63.236z"/>
			<path style="fill:#84BD93;" d="M233.011,54.977c0.075,0.409,0.146,0.834,0.214,1.278
				C233.157,55.81,233.086,55.386,233.011,54.977z"/>
			<path style="fill:#84BD93;" d="M233.313,56.848c0.071,0.503,0.138,1.027,0.2,1.568C233.45,57.875,233.384,57.352,233.313,56.848z
				"/>
			<path style="fill:#84BD93;" d="M233.563,58.838c0.079,0.725,0.151,1.478,0.212,2.262
				C233.713,60.316,233.642,59.563,233.563,58.838z"/>
		</g>
		<g>
			<path style="fill:#84BD93;" d="M250.165,92.522c0.016,0.157,0.028,0.324,0.041,0.489C250.193,92.846,250.18,92.68,250.165,92.522
				z"/>
			<path style="fill:#84BD93;" d="M223.403,127.39c0.097-0.115,0.204-0.218,0.294-0.339
				C223.607,127.171,223.5,127.275,223.403,127.39z"/>
			<path style="fill:#84BD93;" d="M250.278,94.289c0.007,0.185,0.016,0.363,0.02,0.555
				C250.294,94.653,250.285,94.475,250.278,94.289z"/>
			<path style="fill:#84BD93;" d="M250.278,97.424c0.007-0.224,0.019-0.459,0.023-0.676C250.296,96.965,250.285,97.2,250.278,97.424
				z"/>
			<path style="fill:#84BD93;" d="M222.796,128.048c-0.127,0.118-0.266,0.221-0.4,0.33
				C222.53,128.269,222.668,128.167,222.796,128.048z"/>
			<path style="fill:#84BD93;" d="M250.216,98.904c-0.018,0.333-0.039,0.672-0.062,1.016
				C250.177,99.576,250.198,99.237,250.216,98.904z"/>
			<path style="fill:#84BD93;" d="M249.955,102.383c0.037-0.379,0.064-0.739,0.095-1.108
				C250.019,101.644,249.992,102.004,249.955,102.383z"/>
			<path style="fill:#84BD93;" d="M221.275,129.132c0.159-0.087,0.317-0.173,0.469-0.271
				C221.592,128.959,221.434,129.045,221.275,129.132z"/>
		</g>
		<path style="fill:#84BD93;" d="M219.856,129.595c-0.001,0.021-0.009,0.042-0.01,0.063c0.163-0.061,0.315-0.109,0.492-0.184
			C220.254,129.51,219.942,129.562,219.856,129.595z"/>
		<g>
			<path style="fill:#84BD93;" d="M205.301,77.696c0.46,2.069,0.926,4.26,1.386,6.539c0.028-0.116,0.059-0.241,0.087-0.356
				C206.309,81.718,205.809,79.664,205.301,77.696z"/>
			<path style="fill:#84BD93;" d="M248.459,105.808c-0.112,0.121-0.223,0.241-0.341,0.354c-6.079,6.36-15.007,17.648-21.278,30.39
				c-0.618,1.256-8.015,3.051-8.015-3.965v-0.326c0-0.851,0.756-1.723,0.812-2.604c-1.144,0.429-1.669,0.549-3.056,0.227
				c-3.406-0.793-4.757-3.828-4.757-7.325v-0.326c0-11.517-2.462-25.966-4.889-37.999c-3.089,12.797-9.111,32.186-6.111,48.027
				v0.323c0,3.496-2.919,6.532-6.325,7.325c-3.404,0.79-7.163-0.866-8.708-4.002c-0.979-1.988-2.138-3.935-3.198-5.838
				c0.035-0.001,0.006-0.012,0.04-0.013c-2.87,0.027-5.671-1.542-6.969-4.176c-6.269-12.73-14.591-24.012-20.668-30.374
				c-0.141-0.134,0.111-0.275-0.019-0.42c-1.747-1.793-4.153-3.163-4.153-4.017c0,0.004,0,0.009,0,0.013
				c0,0.855,2.376,2.219,4.115,4.004c0.13,0.145,0.05,0.286,0.191,0.42c1.558,1.631,3.153,3.59,4.926,5.809
				c-1.327,7.813,1.651,29.721,8.617,46.827c-0.967,0.423-1.961,1.697-2.921,1.697c0.001,0-0.011,0-0.011,0
				c10.933-6,22.458-8.393,34.229-8.393c11.761,0,23.283,2.558,34.207,7.817c2.613-1.133,5.509-7.49,6.725-10.375
				c4.658-11.053,7.632-24.196,8.819-34.29C249.315,104.99,248.893,105.362,248.459,105.808z"/>
		</g>
		<g>
			<path style="fill:#84BD93;" d="M200.696,21.417c0.078,0.248,0.154,0.52,0.231,0.776
				C200.849,21.936,200.773,21.665,200.696,21.417z"/>
			<path style="fill:#84BD93;" d="M201.415,23.869c0.092,0.332,0.181,0.682,0.272,1.026
				C201.596,24.551,201.507,24.202,201.415,23.869z"/>
			<path style="fill:#84BD93;" d="M202.111,26.556c0.094,0.387,0.187,0.784,0.279,1.182
				C202.297,27.339,202.205,26.944,202.111,26.556z"/>
			<path style="fill:#84BD93;" d="M197.228,43.017c-0.763,0.189-1.506,0.451-2.224,0.811
				C195.722,43.467,196.467,43.21,197.228,43.017z"/>
			<path style="fill:#84BD93;" d="M202.593,28.649c-1.205,3.792-2.376,8.722-3.237,14.046c-0.319,0.017-0.621,0.1-0.933,0.141
				c0.51-0.07,1.011-0.175,1.54-0.175c1.759,0,3.408,0.388,4.961,1.168C204.487,38.548,203.624,33.283,202.593,28.649z"/>
		</g>
		<g>
			<path style="fill:#84BD93;" d="M171.529,59.493c0.099,0.18,0.199,0.37,0.298,0.554C171.728,59.863,171.629,59.673,171.529,59.493
				z"/>
			<path style="fill:#84BD93;" d="M169.968,56.795c0.098,0.161,0.196,0.325,0.296,0.491
				C170.164,57.12,170.066,56.957,169.968,56.795z"/>
			<path style="fill:#84BD93;" d="M173.065,62.421c0.081,0.16,0.161,0.318,0.241,0.481
				C173.226,62.739,173.146,62.582,173.065,62.421z"/>
			<path style="fill:#84BD93;" d="M171.177,91.2c-0.198-0.246-0.396-0.485-0.596-0.729C170.78,90.714,170.98,90.955,171.177,91.2z"
				/>
			<path style="fill:#84BD93;" d="M168.548,54.59c0.067,0.098,0.132,0.19,0.2,0.29C168.679,54.779,168.614,54.688,168.548,54.59z"/>
			<path style="fill:#84BD93;" d="M174.134,64.643c-1.21,7.13-1.475,19.2,0.3,30.782c0.623,0.848,1.239,1.698,1.834,2.548
				c0.789-6.881,1.859-13.801,3.134-20.17C177.777,72.923,175.953,68.494,174.134,64.643z"/>
		</g>
		<path style="fill:#FFFFFF;" d="M175.157,96.429c0.371,0.515,0.751,1.029,1.111,1.544c0.01-0.084,0.022-0.169,0.031-0.254
			C175.922,97.283,175.541,96.854,175.157,96.429z"/>
		<path style="fill:#EF8829;" d="M120.533,276.593c0,2.69,0.049,5.321,0.135,7.909l11.99-6.92l-21.679-12.511l9.682,5.588
			C120.577,272.63,120.533,274.608,120.533,276.593z"/>
		<path style="fill:#EF8829;" d="M171.8,178.986c-13.234,8.038-20.023,17.676-26.867,27.677l-12.079-6.971l14.922,8.612
			l37.412-21.592L171.8,178.986z"/>
		<path style="fill:#EF8829;" d="M219.453,166.937c-3.127-0.514-6.284-0.799-9.461-0.799c-7.712,0-15.304,1.583-22.617,4.469
			l12.86,7.422l26.865-15.505L219.453,166.937z"/>
		<path style="fill:#EF8829;" d="M147.776,225.672l-33.753,19.48l12.444-7.182c-1.469,3.105-3.615,8.714-4.37,16.15l25.607,14.778
			l37.486-21.634L147.776,225.672z"/>
		<path style="fill:#EF8829;" d="M130.523,339.364l2.134-1.232l-14.734-8.504l11.459,6.614
			C129.744,337.281,130.125,338.322,130.523,339.364z"/>
		<path style="fill:#EF8829;" d="M147.432,286.109l-25.434,14.678c0.277,3.391,0.851,8.679,2.019,14.992l23.685,13.67l37.414-21.592
			L147.432,286.109z"/>
		<path style="fill:#EF8829;" d="M147.702,346.816l-15.997,9.233l5.224-3.015c6.425,11.246,15.559,21.269,28.545,26.711
			l19.642-11.336L147.702,346.816z"/>
	</g>
	<path style="fill:#3F2D20;" d="M274.609,184.167c-8.102-11.084-17.192-20.175-26.955-27.108c3.134-3.75,5.402-8.374,7.109-12.425
		c4.078-9.678,20.753-60.537,1.543-68.635c-2.391-1.009-4.867-1.144-7.37-0.603c0.249-5.271,0.206-10.546-0.166-15.283
		c-0.427-5.424-1.723-21.931-12.584-24.234c-6.085-1.29-11.542,2.729-16.136,8.727c-0.513-7.61-1.857-16.075-3.76-23.345
		C213.9,12.134,209.605,0,199.965,0c-9.64,0-13.935,12.134-16.326,21.261c-1.906,7.271-3.249,15.734-3.762,23.342
		c-4.593-5.994-10.049-10.009-16.136-8.723c-10.86,2.303-12.155,18.813-12.582,24.237c-0.372,4.737-0.415,10.011-0.167,15.281
		c-2.505-0.541-4.978-0.406-7.37,0.602c-19.209,8.096-2.534,58.957,1.545,68.635c1.7,4.038,3.964,8.669,7.104,12.427
		c-9.763,6.933-18.851,16.023-26.953,27.106c-18.972,25.951-29.854,59.639-29.854,92.426c0,36.567,7.556,65.598,22.457,86.287
		c17.705,24.582,45.308,37.047,82.043,37.047s64.338-12.464,82.043-37.047c14.901-20.69,22.457-49.721,22.457-86.287
		C304.462,243.807,293.581,210.119,274.609,184.167z M286.75,249.2l-34.057,19.655l-37.684-21.748l37.412-21.592l33.407,19.279
		C286.158,246.254,286.462,247.723,286.75,249.2z M162.477,277.424l37.486-21.635l37.684,21.749l-37.486,21.634L162.477,277.424z
		 M237.575,338.133l-37.412,21.592l-37.414-21.592l37.412-21.592L237.575,338.133z M200.236,195.396l37.412,21.592l-37.412,21.592
		l-37.414-21.592L200.236,195.396z M200.234,178.029l-27.106-15.644c8.59-4.046,17.631-6.275,26.836-6.275
		c9.313,0,18.457,2.279,27.135,6.414L200.234,178.029z M274.479,212.783c1.741,3.521,3.353,7.152,4.822,10.878l-11.836-6.831
		L274.479,212.783z M267.217,199.922l-14.524,8.382l-37.412-21.591l26.362-15.215C251.265,178.872,259.961,188.581,267.217,199.922z
		 M232.58,52.93c1.639,6.518,2.245,20.395,0.194,33.575c-3.259,3.519-6.345,7.509-9.115,11.468
		c-0.791-6.88-1.859-13.799-3.134-20.168C224.329,66.386,229.222,57.223,232.58,52.93z M199.965,19.236
		c2.06,5.706,4.177,15.164,4.959,24.593c-1.553-0.78-3.202-1.168-4.961-1.168s-3.408,0.388-4.959,1.167
		C195.786,34.4,197.903,24.942,199.965,19.236z M167.346,52.93c3.359,4.292,8.253,13.453,12.056,24.872
		c-1.275,6.369-2.344,13.289-3.134,20.17c-2.771-3.957-5.858-7.947-9.115-11.465C165.101,73.325,165.707,59.448,167.346,52.93z
		 M149.958,91.068c1.257,0.854,2.81,2.224,4.558,4.017c0.129,0.145,0.263,0.286,0.403,0.42c6.077,6.362,14.321,17.644,20.59,30.374
		c1.545,3.136,5.073,4.792,8.477,4.002c3.406-0.793,5.839-3.829,5.839-7.325v-0.323c0-24.787,9.512-58.309,11-61.573
		c1.49,3.268,11,38.372,11,61.573v0.326c0,3.497,1.572,6.532,4.978,7.325c3.402,0.788,6.489-0.866,8.034-4.003
		c6.271-12.741,14.313-24.029,20.393-30.389c0.118-0.113,0.125-0.233,0.236-0.355c1.767-1.819,3.287-3.208,4.556-4.07
		c1.45,7.788-1.753,30.308-9.094,47.725c-1.217,2.885-4.128,9.148-6.741,10.281c-10.925-5.26-22.457-8.005-34.218-8.005
		c-11.771,0-23.308,2.751-34.24,8.017c-1.835-0.839-4.271-4.531-6.7-10.294C151.689,121.375,148.511,98.856,149.958,91.068z
		 M158.515,171.319l26.673,15.393l-37.412,21.592l-14.922-8.612C140.142,188.358,148.867,178.665,158.515,171.319z M125.447,212.785
		l7.282,4.202l-12.258,7.076C121.981,220.197,123.643,216.431,125.447,212.785z M114.023,245.152l12.444-7.182l21.309-12.298
		l37.414,21.593l-37.486,21.634l-25.607-14.778l-8.879-5.125C113.471,247.709,113.735,246.426,114.023,245.152z M110.506,276.593
		c0-3.866,0.162-7.71,0.474-11.522l21.679,12.511l-21.765,12.562C110.639,285.775,110.506,281.262,110.506,276.593z M113.01,309.426
		c-0.174-1.045-0.341-2.097-0.497-3.165l9.485-5.474l25.434-14.678l37.684,21.749l-37.414,21.592l-23.685-13.67L113.01,309.426z
		 M123.637,343.338c-2.174-4.247-4.08-8.816-5.715-13.709l11.459,6.614l3.275,1.89l-2.134,1.232L123.637,343.338z M165.474,379.745
		c-13.878-4.692-25.13-12.613-33.769-23.695l5.224-3.015l10.773-6.218l37.414,21.593L165.474,379.745z M199.963,384.885
		c-4.254,0-8.339-0.209-12.292-0.583l12.491-7.209l12.431,7.174C208.536,384.663,204.339,384.885,199.963,384.885z M234.711,379.665
		l-19.501-11.256l37.412-21.592l15.723,9.074C259.743,366.989,248.539,374.94,234.711,379.665z M276.383,343.162l-8.714-5.029
		l14.234-8.215C280.314,334.633,278.475,339.051,276.383,343.162z M286.873,309.682l-34.251,19.768l-37.414-21.593l37.486-21.635
		l34.719,20.038C287.245,307.415,287.063,308.552,286.873,309.682z M267.74,277.539l21.222-12.249
		c0.3,3.74,0.458,7.511,0.458,11.303c0,4.559-0.124,8.974-0.366,13.247L267.74,277.539z"/>
</g>
<g>
</g>
<g>
</g>
<g>
</g>
<g>
</g>
<g>
</g>
<g>
</g>
<g>
</g>
<g>
</g>
<g>
</g>
<g>
</g>
<g>
</g>
<g>
</g>
<g>
</g>
<g>
</g>
<g>
</g>
</svg>
