<?xml version="1.0" encoding="iso-8859-1"?>
<!-- Generator: Adobe Illustrator 18.0.0, SVG Export Plug-In . SVG Version: 6.00 Build 0)  -->
<!DOCTYPE svg PUBLIC "-//W3C//DTD SVG 1.1//EN" "http://www.w3.org/Graphics/SVG/1.1/DTD/svg11.dtd">
<svg version="1.1" id="Capa_1" xmlns="http://www.w3.org/2000/svg" xmlns:xlink="http://www.w3.org/1999/xlink" x="0px" y="0px"
	 viewBox="0 0 337.433 337.433" style="enable-background:new 0 0 337.433 337.433;" xml:space="preserve">
<g>
	<g>
		<path style="fill:#CE593F;" d="M143.477,73.105c0.047-0.213,0.092-0.443,0.137-0.691C143.57,72.661,143.524,72.894,143.477,73.105
			z"/>
		<path style="fill:#CE593F;" d="M133.612,47.005c-0.485-0.479-1.035-0.961-1.564-1.442
			C132.578,46.044,133.127,46.526,133.612,47.005z"/>
		<path style="fill:#CE593F;" d="M143.667,72.11c0.058-0.353,0.112-0.726,0.156-1.138C143.779,71.383,143.725,71.758,143.667,72.11z
			"/>
		<path style="fill:#CE593F;" d="M47.701,232.466c-0.234-1.621-0.431-3.232-0.605-4.834
			C47.27,229.234,47.468,230.845,47.701,232.466z"/>
		<path style="fill:#CE593F;" d="M127.553,41.844c1.169,0.865,2.25,1.731,3.263,2.595C129.805,43.575,128.722,42.709,127.553,41.844
			z"/>
		<path style="fill:#CE593F;" d="M46.99,226.586c-0.149-1.484-0.278-2.959-0.38-4.421C46.712,223.628,46.841,225.103,46.99,226.586z
			"/>
		<path style="fill:#CE593F;" d="M46.577,221.733c-0.105-1.569-0.177-3.12-0.231-4.658C46.4,218.613,46.472,220.164,46.577,221.733z
			"/>
		<path style="fill:#CE593F;" d="M46.311,215.991c-0.044-1.531-0.073-3.051-0.073-4.543C46.238,212.94,46.267,214.46,46.311,215.991
			z"/>
		<path style="fill:#CE593F;" d="M71.634,286.872c1.315,1.49,2.68,2.959,4.125,4.395C74.314,289.832,72.949,288.362,71.634,286.872z
			"/>
		<path style="fill:#CE593F;" d="M143.931,68.177c0.007,0.372,0.007,0.734-0.003,1.08C143.938,68.91,143.938,68.551,143.931,68.177z
			"/>
		<path style="fill:#CE593F;" d="M203.408,47.421c-0.767,0.777-1.492,1.55-2.149,2.316
			C201.917,48.971,202.641,48.198,203.408,47.421z"/>
		<path style="fill:#CE593F;" d="M250.914,120.875c0.603,0.556,1.208,1.133,1.816,1.738
			C252.123,122.008,251.518,121.429,250.914,120.875z"/>
		<path style="fill:#CE593F;" d="M206.856,44.249c0.949-0.801,1.942-1.604,3.025-2.406
			C208.798,42.645,207.805,43.447,206.856,44.249z"/>
		<path style="fill:#CE593F;" d="M257.934,128.318c-1.589-1.904-3.18-3.664-4.762-5.265
			C254.753,124.656,256.344,126.414,257.934,128.318z"/>
		<path style="fill:#CE593F;" d="M248.133,118.466c0.731,0.583,1.469,1.219,2.21,1.883
			C249.602,119.686,248.864,119.049,248.133,118.466z"/>
		<path style="fill:#CE593F;" d="M143.79,65.984c-0.062-0.542-0.15-1.108-0.256-1.687C143.64,64.876,143.729,65.442,143.79,65.984z"
			/>
		<path style="fill:#CE593F;" d="M206.043,44.956c-0.679,0.596-1.323,1.19-1.933,1.782C204.72,46.146,205.364,45.552,206.043,44.956
			z"/>
		<path style="fill:#CE593F;" d="M143.418,63.729c-0.093-0.451-0.204-0.911-0.328-1.382
			C143.215,62.817,143.325,63.278,143.418,63.729z"/>
		<path style="fill:#CE593F;" d="M143.919,67.697c-0.021-0.518-0.055-1.052-0.116-1.614
			C143.864,66.644,143.898,67.179,143.919,67.697z"/>
		<path style="fill:#CE593F;" d="M143.248,74.036c0.056-0.196,0.117-0.436,0.178-0.698C143.365,73.599,143.304,73.84,143.248,74.036
			z"/>
		<path style="fill:#CE593F;" d="M143.824,70.959c0.042-0.398,0.071-0.83,0.092-1.279C143.895,70.128,143.866,70.562,143.824,70.959
			z"/>
		<path style="fill:#CE593F;" d="M199.431,52.052c0.465-0.632,0.966-1.27,1.503-1.912C200.397,50.782,199.896,51.42,199.431,52.052z
			"/>
		<path style="fill:#CE593F;" d="M188.325,46.947c0.318-0.068,0.63-0.154,0.938-0.263C188.956,46.793,188.643,46.878,188.325,46.947
			z"/>
		<path style="fill:#CE593F;" d="M141.358,57.623c0.32,0.681,0.614,1.353,0.864,2.009C141.971,58.976,141.678,58.304,141.358,57.623
			z"/>
		<path style="fill:#CE593F;" d="M48.549,237.575c-0.275-1.488-0.525-2.973-0.746-4.45
			C48.024,234.603,48.274,236.086,48.549,237.575z"/>
		<path style="fill:#CE593F;" d="M140.166,55.358c0.309,0.538,0.597,1.071,0.86,1.597C140.763,56.429,140.476,55.897,140.166,55.358
			z"/>
		<path style="fill:#CE593F;" d="M189.666,46.532c0.419-0.176,0.828-0.377,1.214-0.631
			C190.494,46.155,190.084,46.355,189.666,46.532z"/>
		<path style="fill:#CE593F;" d="M197.84,54.407c0.318-0.513,0.658-1.031,1.021-1.554C198.497,53.376,198.158,53.894,197.84,54.407z
			"/>
		<path style="fill:#CE593F;" d="M215.423,100.026c0.679,0.391,1.392,0.766,2.114,1.139
			C216.815,100.792,216.103,100.416,215.423,100.026z"/>
		<path style="fill:#CE593F;" d="M212.387,98.135c0.535,0.359,1.088,0.711,1.653,1.061
			C213.474,98.847,212.922,98.494,212.387,98.135z"/>
		<path style="fill:#CE593F;" d="M218.776,101.804c1.181,0.572,2.405,1.125,3.699,1.642
			C221.181,102.929,219.958,102.376,218.776,101.804z"/>
		<path style="fill:#CE593F;" d="M135.986,49.535c-0.315-0.363-0.677-0.73-1.017-1.096C135.309,48.804,135.67,49.171,135.986,49.535
			z"/>
		<path style="fill:#CE593F;" d="M55.066,260.035c-0.639-1.557-1.23-3.122-1.788-4.691
			C53.835,256.914,54.428,258.478,55.066,260.035z"/>
		<path style="fill:#CE593F;" d="M52.973,254.49c-0.574-1.659-1.107-3.323-1.596-4.989C51.866,251.167,52.4,252.83,52.973,254.49z"
			/>
		<path style="fill:#CE593F;" d="M49.778,243.447c-0.39-1.652-0.741-3.301-1.058-4.946
			C49.037,240.146,49.388,241.795,49.778,243.447z"/>
		<path style="fill:#CE593F;" d="M57.457,265.406c-0.789-1.643-1.536-3.295-2.226-4.958
			C55.921,262.111,56.668,263.763,57.457,265.406z"/>
		<path style="fill:#CE593F;" d="M51.174,248.78c-0.433-1.514-0.833-3.028-1.201-4.542C50.341,245.752,50.741,247.266,51.174,248.78
			z"/>
		<path style="fill:#CE593F;" d="M70.953,286.087c-2.579-2.99-4.909-6.078-7.007-9.243C66.044,280.01,68.374,283.097,70.953,286.087
			z"/>
		<path style="fill:#CE593F;" d="M257.935,128.319c-8.437-6.699-16.497-11.412-25.335-14.808c-0.012-0.004-0.022-0.011-0.033-0.016
			c-0.022-0.008-0.043-0.014-0.065-0.021c-10.895-4.355-17.722-10.812-21.944-16.6c0.152,0.112,0.323,0.218,0.478,0.329
			c-12.818-9.221-16.315-21.037-16.851-23.168c-0.686-2.417-2.073-9.874,3.197-18.889c-0.394,0.674-0.76,1.342-1.082,1.998
			c-0.44-0.027-0.879-0.086-1.313-0.192c-2.031-0.496-3.762-1.815-4.781-3.641l-3.448-6.18c0.384-0.001,0.767-0.034,1.145-0.092
			c-0.971,0.151-1.97,0.124-2.944-0.114c-2.031-0.496-3.762-1.815-4.781-3.641l-3.65-6.542l-9.243,16.569
			c-1.019,1.826-2.752,3.145-4.782,3.641c-2.029,0.497-4.174,0.127-5.922-1.023c-6.255-4.115-12.973-4.762-18.725-4.088
			c-0.185-0.248-0.412-0.501-0.608-0.75c0.951,1.211,1.807,2.407,2.517,3.576c-0.452-0.744-0.935-1.495-1.483-2.258
			c18.47,14.078,15.987,28.154,14.994,31.654c-0.67,2.663-5.923,20.471-28.288,29.41c-0.023,0.009-0.046,0.014-0.069,0.023
			c-0.01,0.004-0.018,0.009-0.028,0.013c-8.919,3.426-17.043,8.188-25.565,14.984c-19.504,15.556-43.061,60.499-43.061,92.981
			c0,23.337,5.054,51.67,24.447,74.351c8.312,7.156,18.486,13.45,30.958,18.42c18.125,7.219,40.008,8.146,57.047,8.146
			c17.039,0,38.922-0.926,57.046-8.146c54.081-21.549,65.432-67.797,65.432-102.798
			C291.195,184.294,274.731,148.442,257.935,128.319z M123.91,136.076c-33.892,15.645-43.305,54.854-43.396,55.248
			c-0.804,3.477-3.898,5.83-7.321,5.83c-0.561,0-1.131-0.064-1.7-0.195c-4.048-0.935-6.57-4.975-5.635-9.021
			c0.44-1.904,11.237-46.819,51.747-65.519c3.771-1.741,8.239-0.095,9.98,3.676C129.327,129.867,127.681,134.335,123.91,136.076z"/>
		<path style="fill:#CE593F;" d="M80.318,295.483c-1.506-1.312-2.963-2.646-4.347-4.012
			C77.354,292.837,78.811,294.171,80.318,295.483z"/>
		<path style="fill:#CE593F;" d="M63.39,275.997c-2.058-3.178-3.888-6.429-5.511-9.729C59.502,269.568,61.332,272.818,63.39,275.997
			z"/>
		<path style="fill:#CE593F;" d="M142.261,59.726c0.26,0.688,0.473,1.356,0.665,2.013C142.734,61.082,142.521,60.414,142.261,59.726
			z"/>
	</g>
	<path style="fill:#3F2D20;" d="M71.492,196.959c0.569,0.131,1.139,0.195,1.7,0.195c3.422,0,6.517-2.352,7.321-5.829
		c0.091-0.394,9.504-39.603,43.396-55.248c3.771-1.741,5.417-6.21,3.676-9.981c-1.741-3.771-6.209-5.417-9.98-3.676
		c-40.51,18.7-51.308,63.615-51.747,65.519C64.923,191.984,67.445,196.024,71.492,196.959z"/>
	<path style="fill:#3F2D20;" d="M257.513,106.706c-9.626-7.677-19.292-13.323-29.545-17.264
		c-15.933-6.41-19.055-18.497-19.16-18.922c-0.121-0.556-0.065-0.552-0.266-0.972c-0.881-3.909,2.705-13.427,22.594-22.78
		c2.523-1.187,4.182-3.671,4.313-6.456c0.129-2.784-1.293-5.412-3.694-6.828c-0.954-0.563-21.336-12.314-42.003-3.912L175.286,3.64
		c-3.608-4.885-9.409-4.822-13.13,0.004L162.15,3.64l-14.468,25.932c-20.668-8.402-41.049,3.35-42.002,3.912
		c-2.402,1.416-3.823,4.044-3.694,6.828c0.13,2.785,1.789,5.27,4.313,6.456c19.885,9.352,23.473,18.868,22.594,22.778
		c-0.199,0.407-0.125,0.33-0.247,0.886c-0.125,0.513-3.258,12.647-19.27,19.047c-0.004,0.002-0.007,0.004-0.011,0.005
		c-10.218,3.938-19.852,9.57-29.446,17.222c-22.999,18.343-48.723,67.034-48.723,104.74c0,32.463,9.731,90.801,74.906,116.772
		c20.502,8.167,44.231,9.214,62.614,9.214c18.383,0,42.112-1.048,62.614-9.215c65.174-25.97,74.906-84.308,74.906-116.771
		C306.237,173.743,280.514,125.052,257.513,106.706z M114.892,103.47c0.022-0.009,0.046-0.014,0.068-0.023
		c22.365-8.94,27.618-26.748,28.288-29.41c1.007-3.545,3.556-17.936-15.695-32.192c5.812-0.727,12.646-0.122,19.001,4.058
		c1.748,1.15,3.893,1.52,5.922,1.023c2.03-0.497,3.763-1.816,4.782-3.641l11.459-20.543l11.461,20.543
		c1.018,1.825,2.75,3.144,4.781,3.641c2.029,0.496,4.174,0.127,5.921-1.023c6.357-4.182,13.192-4.784,19.002-4.059
		c-19.249,14.255-16.703,28.646-15.696,32.193c0.67,2.663,5.923,20.47,28.289,29.41c0.022,0.008,0.043,0.014,0.065,0.022
		c0.012,0.005,0.022,0.012,0.033,0.016c8.917,3.426,17.041,8.187,25.561,14.983c19.505,15.557,43.062,60.501,43.062,92.981
		c0,35.002-11.352,81.249-65.432,102.798c-18.124,7.22-40.007,8.146-57.046,8.146c-17.039,0-38.922-0.926-57.047-8.145
		c-54.08-21.551-65.432-67.797-65.432-102.799c0-32.482,23.556-77.425,43.06-92.981c8.521-6.796,16.645-11.557,25.565-14.984
		C114.873,103.478,114.882,103.473,114.892,103.47z"/>
</g>
<g>
</g>
<g>
</g>
<g>
</g>
<g>
</g>
<g>
</g>
<g>
</g>
<g>
</g>
<g>
</g>
<g>
</g>
<g>
</g>
<g>
</g>
<g>
</g>
<g>
</g>
<g>
</g>
<g>
</g>
</svg>
