<?xml version="1.0" encoding="iso-8859-1"?>
<!-- Generator: Adobe Illustrator 19.0.0, SVG Export Plug-In . SVG Version: 6.00 Build 0)  -->
<svg version="1.1" id="Capa_1" xmlns="http://www.w3.org/2000/svg" xmlns:xlink="http://www.w3.org/1999/xlink" x="0px" y="0px"
	 viewBox="0 0 468.293 468.293" style="enable-background:new 0 0 468.293 468.293;" xml:space="preserve">
<path style="fill:#D17A3F;" d="M449.787,414.467c13.078-21.972,11.992-49.453-0.994-71.479
	c-8.276-14.037-21.534-31.539-42.547-49.554c-74.047-65.471-192.403-32.91-192.403-32.91s-68.209,18.392-87.772,94.236
	c-6.157,23.87-3.4,49.454,9.299,70.583c9.878,16.435,26.876,32.751,56.127,39.905c11.397,2.787,23.18,3.505,34.89,2.782
	c17.585-1.085,49.701-3.988,70.176-11.323c14.098-5.051,28.539-9.073,43.35-11.281c24.613-3.67,57.686-8.053,73.591-7.769
	C413.506,437.656,435.128,439.095,449.787,414.467z"/>
<path style="fill:#DC8744;" d="M299.158,370.196c-9.982,40.394-32.834,63.839-55.875,77.448
	c-22.538,13.424-48.781,18.806-74.834,16.826c19.022-1.423,37.668-6.928,54.242-16.826c23.041-13.609,45.892-37.054,55.938-77.448
	c3.892-15.713,4.897-31.982,3.892-48.127c-1.507-24.311-5.588-68.603-15.884-96.872c-7.094-19.486-12.681-39.405-15.82-59.819
	c-5.085-33.961-11.238-79.614-10.861-101.574c0,0,2.009-29.878-32.457-50.106c-11.74-6.867-24.547-10.887-37.605-12.187
	c19.964-2.103,40.368,1.794,58.135,12.187c34.529,20.228,32.52,50.106,32.52,50.106c-0.44,21.96,5.713,67.613,10.861,101.574
	c3.076,20.414,8.727,40.333,15.821,59.819c10.233,28.27,14.314,72.561,15.821,96.872
	C304.118,338.214,303.113,354.483,299.158,370.196z"/>
<path style="fill:#E59157;" d="M286.758,372.239c-10.045,40.995-32.897,64.789-55.938,78.601
	c-8.507,5.156-17.559,9.137-26.928,11.987c-16.562,5.037-34.327,5.336-51.12,1.132c-0.08-0.02-0.159-0.04-0.239-0.06
	C46.309,436.463,20.568,340.911,20.568,340.911s-45.641-165.74,46.081-269.454c25.238-29.444,49.722-48.027,69.435-59.579
	c2.613-1.54,5.281-2.963,7.996-4.265c22.424-10.758,48.962-10.2,70.512,2.216c0.346,0.199,0.691,0.401,1.035,0.605
	c34.466,20.529,32.457,50.852,32.457,50.852c-0.377,22.287,5.776,68.619,10.861,103.085c3.139,20.718,8.727,40.933,15.82,60.709
	c10.296,28.69,14.377,73.641,15.884,98.314C291.654,339.781,290.65,356.292,286.758,372.239z"/>
<g>
	<path style="fill:#F6C358;" d="M216.627,110.184h-36.777C179.849,110.184,196.239,129.772,216.627,110.184z"/>
	<path style="fill:#F6C358;" d="M115.355,122.191H78.578C78.578,122.191,94.968,141.778,115.355,122.191z"/>
	<path style="fill:#F6C358;" d="M168.449,210.192h-36.777C131.672,210.192,148.062,229.779,168.449,210.192z"/>
	<path style="fill:#F6C358;" d="M345.534,329.381v-31.22C345.534,298.162,328.906,312.075,345.534,329.381z"/>
	<path style="fill:#F6C358;" d="M330.725,419.415v-31.219C330.725,388.196,314.098,402.109,330.725,419.415z"/>
	<path style="fill:#F6C358;" d="M358.236,384.547v-31.219C358.236,353.327,341.608,367.24,358.236,384.547z"/>
	<path style="fill:#F6C358;" d="M397.625,360.601v-31.22C397.625,329.381,380.998,343.294,397.625,360.601z"/>
	<path style="fill:#F6C358;" d="M405.016,415.766v-31.22C405.016,384.547,388.388,398.46,405.016,415.766z"/>
	<path style="fill:#F6C358;" d="M221.173,263.481h-36.777C184.396,263.481,200.786,283.069,221.173,263.481z"/>
	<path style="fill:#F6C358;" d="M107.895,251.475H71.118C71.118,251.475,87.508,271.062,107.895,251.475z"/>
	<path style="fill:#F6C358;" d="M168.449,313.772h-36.777C131.672,313.772,148.062,333.359,168.449,313.772z"/>
	<path style="fill:#F6C358;" d="M126.283,360.231H89.506C89.506,360.231,105.896,379.819,126.283,360.231z"/>
	<path style="fill:#F6C358;" d="M230.687,355.878H193.91C193.91,355.878,210.3,375.466,230.687,355.878z"/>
</g>
<g>
</g>
<g>
</g>
<g>
</g>
<g>
</g>
<g>
</g>
<g>
</g>
<g>
</g>
<g>
</g>
<g>
</g>
<g>
</g>
<g>
</g>
<g>
</g>
<g>
</g>
<g>
</g>
<g>
</g>
</svg>
