<?xml version="1.0" encoding="iso-8859-1"?>
<!-- Generator: Adobe Illustrator 18.0.0, SVG Export Plug-In . SVG Version: 6.00 Build 0)  -->
<!DOCTYPE svg PUBLIC "-//W3C//DTD SVG 1.1//EN" "http://www.w3.org/Graphics/SVG/1.1/DTD/svg11.dtd">
<svg version="1.1" id="Capa_1" xmlns="http://www.w3.org/2000/svg" xmlns:xlink="http://www.w3.org/1999/xlink" x="0px" y="0px"
	 viewBox="0 0 320.353 320.353" style="enable-background:new 0 0 320.353 320.353;" xml:space="preserve">
<g>
	<path style="fill:#84BD93;" d="M158.038,47.492V80.56c0,0,6-0.307,9,0V50.671c0-2.783-0.991-15.923,8.129-21.857
		c3.756-2.444,6.871-3.171,12.871-2.188v-4.045c0-0.26-3.069-0.406-4.563-0.406C169.514,22.175,158.038,33.533,158.038,47.492z"/>
	<g>
		<path style="fill:#EF8829;" d="M213.173,200.224c0-19.581-2.865-38.118-7.791-54.014
			C210.308,162.107,213.173,180.643,213.173,200.224L213.173,200.224z"/>
		<path style="fill:#EF8829;" d="M193.682,119.481c3.283,5.404,6.247,11.564,8.814,18.33
			C199.929,131.045,196.965,124.886,193.682,119.481z"/>
		<path style="fill:#EF8829;" d="M115.078,146.21c0.896-2.89,1.859-5.693,2.886-8.399
			C116.937,140.517,115.974,143.32,115.078,146.21z"/>
		<path style="fill:#EF8829;" d="M202.496,137.811c1.027,2.706,1.991,5.509,2.887,8.399
			C204.487,143.32,203.523,140.517,202.496,137.811z"/>
		<path style="fill:#EF8829;" d="M117.964,137.811c2.568-6.766,5.531-12.925,8.814-18.33
			C123.495,124.886,120.532,131.045,117.964,137.811z"/>
		<path style="fill:#EF8829;" d="M115.078,146.21c-4.926,15.897-7.791,34.433-7.791,54.014l0,0
			C107.287,180.643,110.152,162.107,115.078,146.21z"/>
		<path style="fill:#EF8829;" d="M212.918,210.18c0.164-3.284,0.255-6.602,0.255-9.955
			C213.173,203.578,213.083,206.897,212.918,210.18z"/>
		<path style="fill:#EF8829;" d="M160.23,115.403c-26.974,0-50.012,42.517-52.682,94.928c2.658,52.433,25.699,94.98,52.682,94.98
			c26.983,0,50.023-42.546,52.682-94.978C210.243,157.922,187.205,115.403,160.23,115.403z"/>
		<path style="fill:#EF8829;" d="M107.542,210.169c-0.164-3.28-0.255-6.595-0.255-9.944
			C107.287,203.574,107.378,206.889,107.542,210.169z"/>
	</g>
	<g>
		<path style="fill:#EF8829;" d="M17.245,217.149c-0.396-2.437-0.717-4.91-0.994-7.402C16.527,212.239,16.85,214.711,17.245,217.149
			z"/>
		<path style="fill:#EF8829;" d="M16.122,208.577c-0.248-2.396-0.441-4.815-0.578-7.254
			C15.681,203.763,15.875,206.18,16.122,208.577z"/>
		<path style="fill:#EF8829;" d="M18.708,224.807c-0.547-2.497-1.035-5.029-1.453-7.598
			C17.673,219.778,18.162,222.309,18.708,224.807z"/>
		<path style="fill:#EF8829;" d="M15.487,200.085c-0.121-2.525-0.2-5.065-0.2-7.626C15.286,195.02,15.366,197.56,15.487,200.085z"/>
		<path style="fill:#EF8829;" d="M35.533,197.711c0-30.714,7.358-59.702,20.716-81.647c-6.227,4.546-12.019,10.851-17.116,18.802
			c-11.927,18.606-18.496,43.491-18.496,70.076c0,17.391,2.828,34.042,8.112,48.697c1.558,3.093,3.226,6.073,5.034,8.893
			c7.897,12.319,17.451,20.735,27.73,24.674c-1.796-2.431-3.531-5.004-5.193-7.726C42.915,257.521,35.533,228.482,35.533,197.711z"
			/>
		<path style="fill:#EF8829;" d="M20.602,232.399c-0.67-2.389-1.283-4.817-1.829-7.286C19.318,227.583,19.933,230.01,20.602,232.399
			z"/>
		<path style="fill:#EF8829;" d="M28.745,253.633c-3.235-6.426-5.918-13.407-8.019-20.794
			C22.825,240.23,25.509,247.207,28.745,253.633z"/>
	</g>
	<g>
		<path style="fill:#EF8829;" d="M50.842,207.257c0.142,2.625,0.349,5.224,0.607,7.802
			C51.192,212.482,50.984,209.882,50.842,207.257z"/>
		<path style="fill:#EF8829;" d="M51.6,216.489c0.28,2.576,0.611,5.128,1.006,7.648C52.211,221.618,51.88,219.065,51.6,216.489z"/>
		<path style="fill:#EF8829;" d="M56.623,152.945c0.88-3.063,1.852-6.055,2.915-8.967C58.475,146.89,57.503,149.883,56.623,152.945z
			"/>
		<path style="fill:#EF8829;" d="M55.372,157.591c-3.148,12.523-4.798,26.098-4.798,40.12v0
			C50.574,183.69,52.224,170.114,55.372,157.591z"/>
		<path style="fill:#EF8829;" d="M52.785,225.209c0.864,5.281,1.978,10.421,3.331,15.388
			C54.762,235.631,53.649,230.49,52.785,225.209z"/>
		<path style="fill:#EF8829;" d="M119.532,103.44c0.251-0.327,0.492-0.677,0.745-0.998
			C120.023,102.764,119.782,103.112,119.532,103.44z"/>
		<path style="fill:#EF8829;" d="M61.489,256.43c-0.903-2.181-1.746-4.419-2.542-6.697C59.743,252.012,60.586,254.249,61.489,256.43
			z"/>
		<path style="fill:#EF8829;" d="M50.574,197.712c0,2.8,0.084,5.576,0.214,8.336C50.658,203.289,50.574,200.513,50.574,197.712z"/>
		<path style="fill:#EF8829;" d="M58.55,248.58c-0.773-2.28-1.497-4.602-2.161-6.969C57.053,243.978,57.777,246.299,58.55,248.58z"
			/>
		<path style="fill:#EF8829;" d="M116.677,107.35c-0.07,0.102-0.145,0.192-0.214,0.294c-0.284-0.008-0.566-0.022-0.85-0.022
			c-15.23,0-29.829,10.173-41.105,28.643c-11.983,19.63-18.583,45.886-18.583,73.93c0,19.258,3.113,37.674,8.945,53.678
			c-1.075-2.154-2.081-4.383-3.041-6.656c2.158,5.109,4.597,9.946,7.33,14.424c11.276,18.473,25.875,28.645,41.106,28.645
			c3.532,0,7.037-0.566,10.491-1.659c-17.363-21.553-28.508-57.255-28.508-98.404C92.246,162.403,101.673,129.211,116.677,107.35z"
			/>
	</g>
	<g>
		<path style="fill:#EF8829;" d="M267.748,224.137c0.395-2.519,0.726-5.072,1.006-7.648
			C268.474,219.065,268.143,221.618,267.748,224.137z"/>
		<path style="fill:#EF8829;" d="M266.104,233.022c0.555-2.563,1.033-5.175,1.464-7.813
			C267.137,227.847,266.66,230.459,266.104,233.022z"/>
		<path style="fill:#EF8829;" d="M266.104,233.025c-0.556,2.567-1.188,5.084-1.865,7.568
			C264.916,238.109,265.548,235.592,266.104,233.025z"/>
		<path style="fill:#EF8829;" d="M269.779,197.711c0-14.022-1.65-27.597-4.798-40.12
			C268.129,170.114,269.779,183.69,269.779,197.711L269.779,197.711z"/>
		<path style="fill:#EF8829;" d="M268.904,215.059c0.258-2.578,0.466-5.177,0.608-7.802
			C269.369,209.882,269.162,212.482,268.904,215.059z"/>
		<path style="fill:#EF8829;" d="M269.565,206.049c0.131-2.76,0.215-5.536,0.215-8.336
			C269.779,200.513,269.695,203.289,269.565,206.049z"/>
		<path style="fill:#EF8829;" d="M261.804,248.58c0.773-2.28,1.496-4.6,2.16-6.966C263.3,243.98,262.576,246.3,261.804,248.58z"/>
		<path style="fill:#EF8829;" d="M260.816,143.978c1.063,2.912,2.035,5.904,2.915,8.967
			C262.851,149.883,261.878,146.89,260.816,143.978z"/>
		<path style="fill:#EF8829;" d="M255.486,263.871c1.074-2.152,2.078-4.378,3.037-6.648
			C257.564,259.494,256.56,261.72,255.486,263.871z"/>
		<path style="fill:#EF8829;" d="M258.866,256.426c0.903-2.18,1.745-4.416,2.541-6.693
			C260.611,252.01,259.768,254.247,258.866,256.426z"/>
		<path style="fill:#EF8829;" d="M264.43,210.196c0-28.044-6.6-54.3-18.583-73.93c-11.276-18.471-25.875-28.643-41.106-28.643
			c-0.256,0-0.511,0.012-0.768,0.02c14.892,21.864,24.242,54.924,24.242,92.583c0,41.164-11.154,76.876-28.527,98.428
			c3.425,1.073,6.901,1.635,10.402,1.635c15.231,0,29.829-10.172,41.106-28.645c1.518-2.486,2.947-5.08,4.29-7.769
			C261.317,247.869,264.43,229.454,264.43,210.196z"/>
		<path style="fill:#EF8829;" d="M210.09,95.138L210.09,95.138c-4.648,0-9.235,0.944-13.714,2.81
			c0.003,0.003,0.006,0.007,0.009,0.01C200.862,96.092,205.445,95.138,210.09,95.138z"/>
	</g>
	<g>
		<path style="fill:#EF8829;" d="M140.038,85.323v-3.66c-6-1.069-9.093-1.649-13.949-1.649c-2.99,0-5.787,0.246-8.321,0.652
			c-0.073-0.011-0.164-0.014-0.237-0.025c6.513,0.961,12.91,3.21,18.996,6.746c1.135-0.727,3.511-1.397,3.511-2.019
			C140.038,85.353,140.038,85.339,140.038,85.323z"/>
		<path style="fill:#EF8829;" d="M114.635,80.312c-0.246-0.022-0.491-0.057-0.737-0.076
			C114.145,80.254,114.389,80.29,114.635,80.312z"/>
	</g>
	<g>
		<path style="fill:#EF8829;" d="M201.712,74.162c-0.2-0.007-0.385-0.025-0.587-0.03c-0.066-0.002-0.129,0.007-0.195,0.006
			C201.197,74.139,201.448,74.157,201.712,74.162z"/>
		<path style="fill:#EF8829;" d="M195.607,80.014c-4.847,0-12.08,0.493-14.714,1.559l-0.288,3.292c0,0.169,0.339,1.109,0.329,1.276
			c0.863,0.484,2.348,0.674,3.195,1.214c6.135-3.555,12.604-5.809,19.171-6.749C200.902,80.245,198.406,80.014,195.607,80.014z"/>
	</g>
	<g>
		<path style="fill:#EF8829;" d="M291.603,253.642c5.285-14.655,8.113-31.307,8.113-48.699c0-26.585-6.569-51.47-18.496-70.076
			c-5.096-7.95-10.888-14.254-17.114-18.801c13.358,21.944,20.715,50.931,20.715,81.645c0,30.771-7.383,59.809-20.787,81.769
			c-1.665,2.728-3.403,5.306-5.203,7.74c10.281-3.943,19.84-12.362,27.74-24.687c5.567-8.684,9.95-18.75,13.059-29.705
			C297.527,240.222,294.842,247.211,291.603,253.642z"/>
		<path style="fill:#EF8829;" d="M304.866,200.085c0.121-2.526,0.201-5.065,0.201-7.626
			C305.066,195.02,304.987,197.56,304.866,200.085z"/>
		<path style="fill:#EF8829;" d="M286.57,122.383c10.437,16.28,16.77,37.368,18.191,60.196c-1.42-22.828-7.754-43.917-18.19-60.196
			c-10.846-16.92-24.816-26.491-39.498-27.179l0,0C261.756,95.892,275.725,105.465,286.57,122.383z"/>
		<path style="fill:#EF8829;" d="M304.808,201.323c-0.136,2.439-0.33,4.858-0.578,7.255
			C304.477,206.181,304.672,203.763,304.808,201.323z"/>
		<path style="fill:#EF8829;" d="M299.748,232.411c0.671-2.395,1.287-4.828,1.834-7.304
			C301.034,227.582,300.42,230.016,299.748,232.411z"/>
		<path style="fill:#EF8829;" d="M303.107,217.15c0.395-2.438,0.718-4.911,0.995-7.405
			C303.825,212.238,303.503,214.713,303.107,217.15z"/>
		<path style="fill:#EF8829;" d="M301.642,224.822c0.547-2.504,1.038-5.042,1.456-7.618
			C302.679,219.779,302.19,222.318,301.642,224.822z"/>
	</g>
	<path style="fill:#3F2D20;" d="M299.234,114.265c-13.861-21.62-32.537-33.702-52.699-34.147
		c-6.303-12.597-24.444-21.027-45.41-21.027c-6.863,0-13.578,0.925-19.704,2.66V50.391c0-0.194-0.011-0.427-0.026-0.619
		c-0.263-3.406,0.628-7.621,1.765-8.353c0.493-0.321,3.21-0.509,8.995,2.683c2.33,1.285,5.165,1.246,7.456-0.11
		c2.291-1.351,3.698-3.815,3.698-6.475V11.422c0-2.768-1.52-5.31-3.956-6.622c-5.835-3.141-12.44-4.8-19.098-4.8
		c-22.254,0-40.359,18.105-40.359,40.358v21.303c-6.031-1.671-12.619-2.57-19.341-2.57c-21.02,0-39.101,8.508-45.403,21.009
		c-0.06,0-0.118-0.004-0.177-0.004c-20.605,0-39.731,12.135-53.856,34.168C7.658,135.262,0.245,163.032,0.245,192.459
		c0,29.425,7.413,57.195,20.875,78.192c14.125,22.035,33.252,34.171,53.856,34.171c1.275,0,2.559-0.053,3.841-0.149
		c9.681,6.98,20.345,10.656,31.447,10.656c7.583,0,15.003-1.727,22.125-5.139c8.458,6.543,17.867,10.163,27.842,10.163
		c9.96,0,19.354-3.608,27.801-10.131c7.102,3.392,14.499,5.108,22.058,5.108c11.102,0,21.766-3.676,31.447-10.656
		c1.284,0.096,2.568,0.149,3.843,0.149c20.604,0,39.73-12.135,53.855-34.171c13.461-20.997,20.874-48.767,20.874-78.192
		C320.108,163.032,312.695,135.262,299.234,114.265z M110.263,300.287c-15.23,0-29.829-10.172-41.105-28.645
		c-11.983-19.63-18.583-45.886-18.583-73.931c0-28.044,6.6-54.3,18.583-73.93c11.276-18.471,25.875-28.643,41.105-28.643
		c4.672,0,9.283,0.962,13.785,2.85c-19.235,20.993-31.802,58.54-31.802,102.237c0,41.149,11.145,76.851,28.508,98.404
		C117.3,299.721,113.795,300.287,110.263,300.287z M73.28,95.204c-6.193,5.509-11.902,12.452-16.961,20.739
		c-13.404,21.959-20.787,50.998-20.787,81.768c0,30.771,7.383,59.81,20.787,81.769c1.662,2.722,3.397,5.296,5.193,7.726
		c-10.279-3.939-19.833-12.355-27.73-24.674c-11.927-18.606-18.496-43.491-18.496-70.074c0-26.585,6.569-51.47,18.496-70.076
		C44.628,105.465,58.597,95.892,73.28,95.204z M139.898,85.368c-1.163,0.623-2.315,1.293-3.45,2.019
		c-8.324-4.836-17.11-7.292-26.185-7.292c-5.99,0-11.852,1.075-17.502,3.157c-0.343-0.123,9.593-9.121,27.794-9.121
		c6.994,0,13.689,1.179,19.341,3.333v7.858C139.896,85.339,139.898,85.353,139.898,85.368z M107.287,200.224
		c0-56.964,24.244-105.087,52.943-105.087c28.698,0,52.943,48.123,52.943,105.087c0,56.962-24.245,105.087-52.943,105.087
		C131.532,305.311,107.287,257.186,107.287,200.224z M154.937,40.358c0-13.958,11.357-25.316,25.318-25.316
		c2.729,0,5.442,0.443,8.012,1.298v10.286c-5.103-0.983-9.56-0.257-13.315,2.188c-9.12,5.934-8.76,19.074-8.574,21.857V80.56
		c-2.023-0.308-4.074-0.464-6.149-0.464c-1.784,0-3.548,0.121-5.293,0.35V40.358z M227.593,83.253
		c-5.65-2.082-11.513-3.157-17.503-3.157c-9.055,0-17.82,2.444-26.127,7.258c-0.847-0.541-1.704-1.05-2.567-1.534
		c0.01-0.166,0.024-0.329,0.024-0.497v-7.719c5.724-2.242,12.549-3.633,19.704-3.472C219.18,74.534,228.241,83.018,227.593,83.253z
		 M228.215,200.224c0-43.724-12.585-81.291-31.839-102.276c4.479-1.866,9.066-2.81,13.714-2.81c15.231,0,29.83,10.173,41.106,28.643
		c11.983,19.63,18.583,45.886,18.583,73.93c0,28.044-6.6,54.3-18.583,73.931c-11.277,18.473-25.875,28.645-41.106,28.645
		c-3.501,0-6.976-0.562-10.402-1.635C217.061,277.101,228.215,241.389,228.215,200.224z M264.034,279.48
		c13.404-21.959,20.787-50.998,20.787-81.769c0-30.77-7.383-59.809-20.787-81.768c-5.059-8.286-10.768-15.23-16.961-20.739
		c14.682,0.688,28.651,10.259,39.498,27.178c11.926,18.604,18.495,43.491,18.495,70.076c0,26.583-6.569,51.47-18.495,70.074
		c-7.9,12.325-17.458,20.745-27.74,24.687C260.631,284.786,262.369,282.208,264.034,279.48z"/>
</g>
<g>
</g>
<g>
</g>
<g>
</g>
<g>
</g>
<g>
</g>
<g>
</g>
<g>
</g>
<g>
</g>
<g>
</g>
<g>
</g>
<g>
</g>
<g>
</g>
<g>
</g>
<g>
</g>
<g>
</g>
</svg>
