<?xml version="1.0" encoding="iso-8859-1"?>
<!-- Generator: Adobe Illustrator 19.0.0, SVG Export Plug-In . SVG Version: 6.00 Build 0)  -->
<svg version="1.1" id="Layer_1" xmlns="http://www.w3.org/2000/svg" xmlns:xlink="http://www.w3.org/1999/xlink" x="0px" y="0px"
	 viewBox="0 0 512.001 512.001" style="enable-background:new 0 0 512.001 512.001;" xml:space="preserve">
<path style="fill:#EF0000;" d="M484.189,224.206c-13.703-29.58-52.293-71.377-90.254-89.643
	c-47.185-22.127-99.143-18.473-140.6,20.929c33.509,21.676,54.913,56.778,54.913,103.372c0,12.02-1.439,24.908-4.129,38.15h0.016
	c-9.322,45.895-33.836,96.061-66.901,129.27c54.499,24.587,138.306,3.414,194.055-33.513l-0.011-0.011
	c11.266-7.461,21.397-15.557,29.897-24.056C503.399,326.477,507.421,272.738,484.189,224.206z"/>
<path style="fill:#3E9C06;" d="M402.296,138.953c0,0-44.521-21.3-77.303,3.168c27.729,4.113,64.318,36.931,64.318,36.931
	s-31.523,0.078-67.599,28.608c18.064,3.318,60.903-1.597,79.034,11.619c11.636,26.519,11.595,45.073,12.015,79.43
	c26.814-29.435,27.289-59.087,26.472-68.331c12.892,12.892,28.991,45.845,27.414,74.464c27.521-30.239,23.287-58.827,14.878-85.878
	C476.474,202.71,430.545,151.039,402.296,138.953z"/>
<path d="M327.493,302.257c-2.675,0-5.349-1.021-7.389-3.061c-4.08-4.081-4.08-10.697,0.001-14.777l10.428-10.427
	c4.08-4.081,10.698-4.078,14.777,0c4.08,4.081,4.08,10.697-0.001,14.777l-10.428,10.427
	C332.841,301.237,330.167,302.257,327.493,302.257z"/>
<path d="M392.427,365.322c-2.675,0-5.348-1.02-7.389-3.06c-4.08-4.08-4.08-10.697,0-14.778l10.427-10.427
	c4.081-4.08,10.696-4.08,14.778,0c4.08,4.08,4.08,10.697,0,14.778l-10.427,10.427C397.775,364.302,395.102,365.322,392.427,365.322z
	"/>
<path d="M334.844,361.72c-2.675,0-5.348-1.02-7.389-3.061c-4.08-4.08-4.08-10.697,0-14.778l10.427-10.427
	c4.081-4.08,10.696-4.08,14.778,0c4.08,4.08,4.08,10.697,0,14.778l-10.427,10.427C340.192,360.701,337.519,361.72,334.844,361.72z"
	/>
<path style="fill:#EF0000;" d="M95.139,140.845c-50.093,18.11-84.69,58.777-84.69,118.02c0,11.404,1.306,23.594,3.736,36.121h-0.025
	C29.241,372.787,88.519,463.84,159.348,463.84c70.213,0,129.076-89.479,144.785-166.825h-0.016
	c2.691-13.241,4.129-26.13,4.129-38.15c0-59.718-35.156-100.562-85.901-118.451C191.741,129.186,134.898,126.918,95.139,140.845z"/>
<path style="fill:#3E9C06;" d="M104.156,138.037c0,0-46.543,16.42-52.422,56.902c22.516-16.699,71.594-19.366,71.594-19.366
	s-22.234,22.345-27.571,68.029c15.12-10.428,41.935-44.194,64.102-47.671c26.98,10.523,40.07,23.672,64.662,47.671
	c-1.853-39.774-22.485-61.078-29.6-67.036c18.232,0,52.917,11.917,72.039,33.27c-1.923-40.842-23.897-60.741-50.204-71.247
	C202.013,132.702,149.799,125.956,104.156,138.037z"/>
<path d="M135.132,429.357c-1.704,0-3.43-0.417-5.029-1.297c-17.74-9.765-34.857-25.922-49.501-46.725
	c-3.323-4.719-2.19-11.237,2.53-14.56c4.718-3.322,11.237-2.188,14.559,2.53c12.825,18.22,27.519,32.205,42.491,40.446
	c5.055,2.783,6.898,9.137,4.115,14.193C142.392,427.402,138.818,429.357,135.132,429.357z"/>
<path d="M73.999,360.737c-3.787,0-7.44-2.065-9.295-5.662l-0.101-0.196c-2.645-5.129-0.631-11.431,4.498-14.076
	c5.128-2.645,11.43-0.631,14.076,4.498l0.101,0.196c2.645,5.129,0.631,11.431-4.498,14.076
	C77.249,360.363,75.611,360.737,73.999,360.737z"/>
<path d="M68.84,308.143c-5.77,0-10.449-4.678-10.449-10.449v-14.747c0-5.771,4.679-10.449,10.449-10.449
	c5.77,0,10.449,4.678,10.449,10.449v14.747C79.289,303.465,74.61,308.143,68.84,308.143z"/>
<path d="M159.349,309.465c-5.77,0-10.449-4.678-10.449-10.449v-14.747c0-5.771,4.679-10.449,10.449-10.449
	c5.77,0,10.449,4.678,10.449,10.449v14.747C169.798,304.787,165.119,309.465,159.349,309.465z"/>
<path d="M249.856,308.143c-5.77,0-10.449-4.678-10.449-10.449v-14.747c0-5.771,4.679-10.449,10.449-10.449
	s10.449,4.678,10.449,10.449v14.747C260.305,303.465,255.627,308.143,249.856,308.143z"/>
<path d="M116.084,344.993c-5.77,0-10.449-4.678-10.449-10.449v-14.747c0-5.771,4.679-10.449,10.449-10.449
	s10.449,4.678,10.449,10.449v14.747C126.533,340.315,121.854,344.993,116.084,344.993z"/>
<path d="M206.593,346.314c-5.77,0-10.449-4.678-10.449-10.449v-14.747c0-5.771,4.679-10.449,10.449-10.449
	s10.449,4.678,10.449,10.449v14.747C217.042,341.636,212.363,346.314,206.593,346.314z"/>
<path d="M159.349,387.628c-5.77,0-10.449-4.678-10.449-10.449v-14.747c0-5.771,4.679-10.449,10.449-10.449
	c5.77,0,10.449,4.678,10.449,10.449v14.747C169.798,382.95,165.119,387.628,159.349,387.628z"/>
<path d="M494.162,176.122c4.081,4.08,10.696,4.08,14.778,0c4.08-4.08,4.08-10.697,0-14.778
	c-9.014-9.013-21.448-13.385-34.996-12.307c-9.651,0.767-19.056,4.271-27.258,10.051c-11.969-11.09-25.199-21.207-38.846-28.989
	c-0.139-0.087-0.284-0.164-0.428-0.245c-2.998-1.697-6.011-3.295-9.038-4.751c-52.036-24.401-104.897-17.948-146.267,17.461
	c-8.16-4.674-16.92-8.701-26.218-11.983c-14.35-5.254-34.121-8.754-55.465-9.657c4.215-35.175,29.755-62.314,60.547-62.314
	c5.77,0,10.449-4.678,10.449-10.449s-4.679-10.449-10.449-10.449c-42.198,0-77.055,36.465-81.568,83.182
	c-16.223,0.642-32.63,2.847-47.677,6.981c-0.024,0.006-0.048,0.014-0.072,0.02c-3.395,0.934-6.728,1.954-9.966,3.089
	c-0.032,0.011-0.066,0.023-0.099,0.034c-27.398,9.905-50.196,26.204-65.929,47.132C8.633,200.799,0,227.954,0,258.863
	c0,11.643,1.275,24.22,3.789,37.395c0.029,0.239,0.067,0.478,0.113,0.716c8.137,41.972,27.721,85.008,53.735,118.074
	c30.052,38.202,66.175,59.24,101.712,59.24c27.852,0,55.205-12.253,80.277-35.718c16.027,6.032,33.849,8.721,52.407,8.721
	c50.039,0,105.388-19.553,145.025-45.809c0.161-0.108,0.32-0.218,0.473-0.333c11.854-7.89,22.292-16.318,31.029-25.056
	c22.031-22.031,35.159-47.555,39.021-75.862c3.563-26.13-1.256-53.958-13.94-80.478c-6.358-13.701-17.671-29.933-31.897-45.501
	c4.358-2.487,9.078-4.002,13.854-4.381C482.957,169.284,489.547,171.506,494.162,176.122z M107.356,147.995
	c15.909-4.366,33.733-6.325,50.958-6.415c0.341,0.033,1.759,0.033,2.114-0.003c19.714,0.072,38.503,2.583,52.548,6.747
	c0.041,0.016,0.078,0.037,0.12,0.052c19.016,7.116,31.672,18.871,38.229,35.641c-18.932-11.361-41.011-17.899-56.402-17.899
	c-4.395,0-8.32,2.749-9.82,6.88c-1.5,4.13-0.258,8.758,3.112,11.58c2.704,2.265,12.716,11.48,19.495,28.715
	c-13.064-11.437-25.593-19.895-44.051-27.094c-1.72-0.672-3.591-0.875-5.416-0.588c-15.552,2.439-30.872,15.151-44.851,28.152
	c7.45-20.43,17.235-30.704,17.345-30.817c3.05-3.066,3.896-7.695,2.13-11.641c-1.768-3.948-5.787-6.385-10.104-6.163
	c-1.516,0.083-27.446,1.59-51.198,9.065C84.203,157.29,104.674,149.024,107.356,147.995z M159.349,453.39
	c-61.932,0-119.575-82.445-134.797-159.709c-0.028-0.229-0.066-0.458-0.109-0.685c-2.352-12.127-3.545-23.611-3.545-34.132
	c0-25.687,7.235-48.449,20.75-66.999c-0.088,0.522-0.177,1.044-0.254,1.573c-0.606,4.176,1.359,8.308,4.983,10.472
	c3.625,2.165,8.193,1.936,11.583-0.578c10.229-7.586,28.453-12.184,43.8-14.737C95.146,200.9,88.135,218.8,85.38,242.388
	c-0.475,4.074,1.476,8.051,4.991,10.166c3.514,2.115,7.942,1.978,11.319-0.351c5.524-3.81,11.722-9.694,18.898-16.507
	c11.418-10.841,26.763-25.41,38.378-28.863c22.446,9.29,34.156,20.719,56.579,42.61l1.677,1.637c1.994,1.945,4.627,2.971,7.3,2.971
	c1.446,0,2.904-0.301,4.279-0.917c3.915-1.759,6.357-5.731,6.158-10.017c-1.01-21.682-7.081-38.352-13.921-50.493
	c13.606,4.975,28.272,13.166,38.139,24.184c2.949,3.292,7.649,4.376,11.744,2.699c4.091-1.676,6.684-5.745,6.477-10.161
	c-0.347-7.371-1.319-14.335-2.899-20.877c15.162,19.125,23.297,43.099,23.297,70.396c0,11.132-1.32,23.269-3.92,36.07
	c-0.037,0.179-0.068,0.358-0.095,0.538c-7.788,37.865-26.374,77.998-49.784,107.46C218.145,435.47,188.082,453.39,159.349,453.39z
	 M453.783,361.316c-7.871,7.871-17.385,15.52-28.277,22.733c-0.155,0.102-0.308,0.21-0.457,0.321
	c-27.382,18.041-60.484,31.521-93.278,37.975c-28.838,5.676-54.859,5.46-76.25-0.536c1.624-1.912,3.239-3.863,4.838-5.877
	c25.853-32.539,45.54-75.124,54.011-116.838c0.038-0.187,0.07-0.374,0.098-0.562c2.805-13.963,4.226-27.305,4.226-39.668
	c0-31.157-8.766-58.487-26.052-81.234c-6.396-8.416-13.954-16.056-22.478-22.839c15.175-11.774,32.041-19.119,49.795-21.923
	c-0.406,0.29-0.814,0.578-1.218,0.88c-3.382,2.524-4.913,6.836-3.882,10.928c1.031,4.092,4.423,7.162,8.599,7.781
	c12.596,1.869,28.735,11.505,41.392,20.551c-13.378,4.025-30.993,11.725-49.62,26.456c-3.217,2.545-4.649,6.736-3.658,10.718
	c0.99,3.981,4.217,7.014,8.252,7.755c6.601,1.212,15.143,1.434,25.034,1.691c15.739,0.409,36.893,0.957,47.548,6.727
	c9.303,22.442,9.501,38.806,9.879,70.142l0.028,2.341c0.052,4.29,2.723,8.114,6.734,9.639c4.012,1.526,8.548,0.443,11.438-2.73
	c14.617-16.046,22.111-32.127,25.86-45.547c6.102,13.139,10.681,29.3,9.867,44.068c-0.243,4.415,2.318,8.504,6.395,10.212
	c1.306,0.548,2.677,0.812,4.034,0.812c2.883,0,5.708-1.194,7.73-3.417c4.966-5.458,9.206-11.07,12.713-16.812
	C484.285,319.309,473.086,342.014,453.783,361.316z M472.017,223.295c8.417,18.478,9.052,35.74,1.831,52.234
	c-5.354-21.421-16.343-41.656-27.226-52.539c-3.109-3.108-7.826-3.939-11.809-2.079c-3.982,1.859-6.375,6.01-5.987,10.388
	c0.31,3.514,0.875,17.11-6.519,34.09c-1.15-17.327-4.029-32.164-11.991-50.308c-0.743-1.693-1.921-3.157-3.414-4.245
	c-12.722-9.272-32.541-11.116-51.619-11.808c19.714-9.178,33.897-9.524,34.055-9.526c4.325-0.01,8.196-2.684,9.736-6.726
	c1.541-4.041,0.433-8.614-2.787-11.501c-1.131-1.015-20.532-18.284-42.612-29.793c20.852-3.015,41.137,5.572,43.832,6.772
	c14.342,8.164,41.03,32.026,41.275,32.271c0.257,0.257,26.202,29.777,33.189,42.654
	C471.988,223.216,471.999,223.255,472.017,223.295z"/>
<g>
</g>
<g>
</g>
<g>
</g>
<g>
</g>
<g>
</g>
<g>
</g>
<g>
</g>
<g>
</g>
<g>
</g>
<g>
</g>
<g>
</g>
<g>
</g>
<g>
</g>
<g>
</g>
<g>
</g>
</svg>
