<?xml version="1.0" encoding="iso-8859-1"?>
<!-- Generator: Adobe Illustrator 19.0.0, SVG Export Plug-In . SVG Version: 6.00 Build 0)  -->
<svg version="1.1" id="Layer_1" xmlns="http://www.w3.org/2000/svg" xmlns:xlink="http://www.w3.org/1999/xlink" x="0px" y="0px"
	 viewBox="0 0 512 512" style="enable-background:new 0 0 512 512;" xml:space="preserve">
<path style="fill:#FF7031;" d="M52.251,261.827C33.048,346.122-16.799,435.725,29.694,482.27s135.997-3.356,220.199-22.582
	c84.201-19.225,117.909-43.221,151.384-81.801c59.526-68.604,59.744-189.721,71.676-240.095
	c13.747-58.037,44.035-93.449,19.016-118.497C466.95-5.752,428.818,29.277,373.792,38.52c-51.002,8.566-165.251-2.823-239.83,71.755
	C97.844,146.393,71.455,177.533,52.251,261.827z"/>
<path d="M499.363,11.91c-20.571-20.593-47.017-10.412-75.019,0.368c-15.456,5.95-32.974,12.694-52.283,15.937
	c-10.412,1.749-23.865,2.643-39.443,3.678c-57.609,3.83-144.668,9.617-206.045,70.992c-37.026,37.026-64.762,69.934-84.511,156.62
	c-4.885,21.441-11.901,43.576-18.685,64.983c-10.119,31.928-19.676,62.085-22.544,89.737c-3.41,32.882,3.613,57.555,21.467,75.429
	c14.95,14.966,34.658,22.331,59.955,22.331c4.923,0,10.059-0.279,15.411-0.835c27.624-2.871,57.749-12.44,89.644-22.571
	c21.383-6.792,43.493-13.815,64.91-18.704c87.092-19.885,122.351-45.264,156.95-85.141c47.143-54.332,58.339-137.484,66.515-198.2
	c2.503-18.58,4.663-34.627,7.437-46.337c4.356-18.394,10.515-34.647,15.95-48.987C510.804,60.249,520.937,33.509,499.363,11.91z
	 M479.529,83.807c-5.659,14.934-12.073,31.861-16.743,51.576c-3.012,12.714-5.236,29.235-7.812,48.364
	c-0.255,1.894-0.514,3.814-0.776,5.752l-73.658-73.74c-4.078-4.084-10.694-4.086-14.779-0.008
	c-4.083,4.078-4.087,10.695-0.008,14.779l82.772,82.863c0.63,0.631,1.326,1.153,2.06,1.589
	c-6.166,40.812-15.554,86.8-35.824,124.605l-61.564-61.633c-4.078-4.083-10.694-4.086-14.779-0.008
	c-4.083,4.078-4.087,10.695-0.008,14.779l65.13,65.202c-3.176,4.556-6.541,8.948-10.155,13.112
	c-32.415,37.359-63.867,59.751-145.818,78.463c-22.264,5.084-44.795,12.239-66.584,19.161
	c-35.793,11.369-70.37,22.353-98.689,22.352c-18.046,0-33.554-4.463-45.207-16.129c-29.949-29.981-12.384-85.405,6.213-144.082
	c1.995-6.296,4.005-12.657,5.984-19.051l72.828,72.91c2.041,2.044,4.717,3.065,7.393,3.065c2.673,0,5.345-1.019,7.385-3.056
	c4.084-4.078,4.087-10.695,0.008-14.778l-80.838-80.928c2.331-8.275,4.497-16.563,6.377-24.816
	c12.112-53.164,26.863-84.164,45.561-109.197l76.799,76.884c2.041,2.044,4.717,3.065,7.393,3.065c2.673,0,5.345-1.019,7.385-3.056
	c4.083-4.078,4.087-10.695,0.008-14.779l-78.282-78.369c6.275-7.073,12.944-13.931,20.047-21.035
	c55.822-55.822,134.907-61.079,192.654-64.917c16.138-1.072,30.074-1.999,41.519-3.921c21.388-3.593,39.951-10.739,56.329-17.044
	c16.853-6.488,28.938-10.885,38.183-10.885c5.81,0,10.499,1.738,14.54,5.785C496.099,38.216,491.065,53.362,479.529,83.807z"/>
<path d="M208.805,255.868c2.041,2.041,4.715,3.061,7.389,3.061s5.349-1.02,7.389-3.061c4.08-4.081,4.08-10.697,0-14.779
	l-0.097-0.097c-4.081-4.08-10.697-4.08-14.779,0c-4.08,4.081-4.08,10.697,0,14.779L208.805,255.868z"/>
<path d="M356.534,91.729c-4.081-4.08-10.697-4.08-14.779,0c-4.081,4.081-4.081,10.697,0,14.779l0.097,0.097
	c2.041,2.041,4.715,3.061,7.389,3.061c2.674,0,5.349-1.02,7.389-3.061c4.081-4.08,4.081-10.697,0-14.779L356.534,91.729z"/>
<path d="M219.925,360.608c-4.078-4.083-10.694-4.086-14.779-0.008c-4.083,4.078-4.087,10.695-0.008,14.779l28.778,28.809
	c2.041,2.043,4.717,3.065,7.393,3.065c2.673,0,5.345-1.019,7.385-3.056c4.083-4.078,4.087-10.695,0.008-14.779L219.925,360.608z"/>
<g>
</g>
<g>
</g>
<g>
</g>
<g>
</g>
<g>
</g>
<g>
</g>
<g>
</g>
<g>
</g>
<g>
</g>
<g>
</g>
<g>
</g>
<g>
</g>
<g>
</g>
<g>
</g>
<g>
</g>
</svg>
