<?xml version="1.0" encoding="iso-8859-1"?>
<!-- Generator: Adobe Illustrator 19.0.0, SVG Export Plug-In . SVG Version: 6.00 Build 0)  -->
<svg version="1.1" id="Layer_1" xmlns="http://www.w3.org/2000/svg" xmlns:xlink="http://www.w3.org/1999/xlink" x="0px" y="0px"
	 viewBox="0 0 512 512" style="enable-background:new 0 0 512 512;" xml:space="preserve">
<path style="fill:#8CC63F;" d="M344,40c0,0-4.095,60.664-19.716,76.284c-15.621,15.621-40.947,15.621-56.569,0
	s-15.621-40.947,0-56.569S344,40,344,40z"/>
<path style="fill:#39B54A;" d="M283.716,116.285c-15.621-15.621-15.621-40.947,0-56.569c10.457-10.457,41.043-15.734,60.159-18.09
	C343.951,40.668,344,40,344,40s-60.664,4.095-76.285,19.716c-15.621,15.62-15.621,40.947,0,56.569
	c9.858,9.858,23.575,13.461,36.284,10.876C296.57,125.65,289.479,122.047,283.716,116.285z"/>
<path style="fill:#009245;" d="M168,40c0,0,4.095,60.664,19.716,76.284c15.621,15.621,40.947,15.621,56.569,0
	s15.621-40.947,0-56.569C228.663,44.095,168,40,168,40z"/>
<path style="fill:#39B54A;" d="M228.284,116.285c15.621-15.621,15.621-40.947,0-56.569c-10.457-10.457-41.043-15.734-60.159-18.09
	C168.049,40.668,168,40,168,40s60.663,4.095,76.284,19.716c15.621,15.62,15.621,40.947,0,56.569
	c-9.858,9.858-23.575,13.461-36.284,10.876C215.43,125.65,222.521,122.047,228.284,116.285z"/>
<path style="fill:#FF1D25;" d="M384,256c0,70.693-128,192-128,192S128,326.693,128,256s57.307-128,128-128S384,185.307,384,256z"/>
<path style="fill:#BF161C;" d="M184,256c0-61.062,42.793-112.051,100-124.833c-9.023-2.016-18.369-3.167-28-3.167
	c-70.693,0-128,57.307-128,128s128,192,128,192s11.706-11.107,28-28.496C246.334,379.307,184,305.345,184,256z"/>
<polygon style="fill:#FFFFFF;" points="200,384.522 312,384.522 256,448.522 "/>
<polygon style="fill:#F2F2F2;" points="200,384.522 256,384.522 288,416.261 256,448.392 "/>
<rect x="239.804" y="360.49" width="25.078" height="15.673"/>
<rect x="239.804" y="281.078" width="80.457" height="15.673"/>
<rect x="199.053" y="240.327" width="129.567" height="15.673"/>
<path d="M326.069,383.468c43.64-53.41,65.768-96.296,65.768-127.468c0-54.565-32.344-101.71-78.863-123.293
	c6.147-2.323,11.912-5.941,16.852-10.882c17.203-17.203,21.553-74.789,21.993-81.298l0.604-8.951l-8.951,0.604
	c-6.314,0.426-60.671,4.532-79.636,20.475V0h-15.673v52.657c-18.963-15.943-73.322-20.049-79.636-20.476l-8.951-0.604l0.604,8.951
	c0.439,6.51,4.79,64.094,21.993,81.298c4.94,4.94,10.705,8.559,16.851,10.882c-11.225,5.208-21.615,11.918-30.934,19.848h-0.385
	v0.323c-29.08,24.93-47.543,61.905-47.543,103.122c0,65.235,99.314,167.14,124.745,192.162l-19.315,18.123l10.725,11.43
	l10.801-10.134V512h15.673v-46.125l11.666,11.666l11.083-11.082l-18.387-18.387C277.91,437.435,302.119,412.78,326.069,383.468z
	 M273.257,65.257c8.612-8.612,39.571-14.336,62.141-16.653c-2.31,22.564-8.031,53.514-16.654,62.138
	c-9.134,9.134-22.438,11.608-33.839,7.435l16.637-16.637l-11.083-11.082l-18.685,18.685
	C260.746,96.523,261.235,77.279,273.257,65.257z M193.257,110.742c-8.611-8.611-14.336-39.568-16.651-62.137
	c22.57,2.315,53.526,8.04,62.137,16.651c12.541,12.54,12.541,32.946,0,45.485c-0.831,0.831-1.698,1.603-2.593,2.324l-22.607-22.607
	l-11.082,11.082l18.26,18.26C210.99,121.231,200.728,118.213,193.257,110.742z M235.342,415.869h20.135v-15.673H220.93
	c-7.357-8.199-15.173-17.23-22.965-26.77c-10.913-13.362-20.43-26.057-28.536-38.013h134.114v-15.673H160.392v1.704
	c-16.181-26.384-24.555-48.555-24.555-65.443h24.555v-15.673h-23.533c1.087-8.306,3.029-16.345,5.728-24.033h49.152V200.62h-42.355
	c6.343-12.162,14.705-23.107,24.641-32.392h106.53v-15.673h-85.629c17.909-10.614,38.791-16.718,61.074-16.718
	c46.297,0,86.557,26.322,106.616,64.784h-59.073v15.673h65.87c4.367,12.436,6.75,25.796,6.75,39.706
	c0,7.378-1.61,15.772-4.759,25.078h-35.469v15.673h29.106c-8.671,18.569-22.333,39.989-40.719,63.739h-43.767v15.673h31.231
	c-22.93,27.781-45.701,50.932-55.786,60.898C251.378,432.494,244.088,425.152,235.342,415.869z"/>
<g>
</g>
<g>
</g>
<g>
</g>
<g>
</g>
<g>
</g>
<g>
</g>
<g>
</g>
<g>
</g>
<g>
</g>
<g>
</g>
<g>
</g>
<g>
</g>
<g>
</g>
<g>
</g>
<g>
</g>
</svg>
