<?xml version="1.0" encoding="iso-8859-1"?>
<!-- Generator: Adobe Illustrator 19.0.0, SVG Export Plug-In . SVG Version: 6.00 Build 0)  -->
<svg version="1.1" id="Layer_1" xmlns="http://www.w3.org/2000/svg" xmlns:xlink="http://www.w3.org/1999/xlink" x="0px" y="0px"
	 viewBox="0 0 512 512" style="enable-background:new 0 0 512 512;" xml:space="preserve">
<path style="fill:#39B54A;" d="M336.048,308.604c0,87.911-71.678,160.097-160.097,160.097S15.854,396.515,15.854,308.604H336.048z"
	/>
<path style="fill:#006837;" d="M320.039,43.826H191.961c-101.682,0-184.745,82.632-184.745,184.313v0.148
	c0,28.689,7.194,56.247,18.9,80.318h309.933c0,38.723-14.584,75.352-38.582,103.609h22.572
	c101.682,0,184.291-82.379,184.291-184.061v0.096C504.33,126.566,421.721,43.826,320.039,43.826z"/>
<path style="fill:#009245;" d="M62.282,307.987c-34.059-21.927-54.432-49.763-54.432-80.053C7.849,157.198,118.95,99.856,256,99.856
	s248.151,57.343,248.151,128.077c0,56.279-70.329,104.08-168.1,121.267"/>
<path style="fill:#39B54A;" d="M256,99.856c-137.051,0-248.151,57.654-248.151,128.388c0,30.288,20.371,58.382,54.426,80.36h273.773
	c0,13.605-1.977,27.171-5.348,40.103l5.349,0.65c97.771-17.189,168.1-65.066,168.1-121.345
	C504.151,157.276,393.05,99.856,256,99.856z"/>
<path style="fill:#FF1D25;" d="M312.034,307.982c0,75.156-60.926,136.083-136.083,136.083S39.869,383.139,39.869,307.982"/>
<path style="fill:#FF777C;" d="M288.019,315.93c0,61.747-50.175,112.068-112.068,112.068S63.883,377.677,63.883,315.93H39.869
	c0,75.352,60.926,136.083,136.083,136.083s136.083-60.731,136.083-136.083L288.019,315.93L288.019,315.93z"/>
<ellipse style="fill:#006837;" cx="255.998" cy="227.929" rx="248.149" ry="56.033"/>
<rect x="32.333" y="212.325" width="15.698" height="39.769"/>
<rect x="464.555" y="212.325" width="15.698" height="39.769"/>
<path d="M320.039,35.972H191.96C86.114,35.972,0,122.086,0,227.934c0,25.125,4.744,49.385,14.091,72.298H8.263v7.849
	c0,92.605,75.367,167.947,167.972,167.947c49.701,0,94.428-21.709,125.212-56.133h18.592C425.887,419.895,512,333.781,512,227.934
	S425.887,35.972,320.039,35.972z M191.96,51.671h128.078c75.797,0,140.569,48.093,165.414,115.365
	c-12.607-13.495-29.515-25.871-50.384-36.642c-47.962-24.754-111.557-38.388-179.07-38.388s-131.107,13.632-179.07,38.388
	c-20.869,10.771-37.778,23.147-50.384,36.642C51.392,99.764,116.165,51.671,191.96,51.671z M26.376,288.484
	c3.717,4.023,7.831,7.94,12.287,11.748h-7.499C29.424,296.359,27.829,292.442,26.376,288.484z M303.907,315.93
	c-4.303,67.215-60.044,119.861-127.956,119.861S52.298,383.145,47.995,315.93H303.907z M175.951,460.329
	c-81.316,0-147.947-64.084-152.049-144.4h8.365c4.343,75.635,67.124,135.559,143.684,135.559
	c76.559,0,139.339-59.925,143.683-135.559h8.365C323.898,396.245,257.267,460.329,175.951,460.329z M320.039,404.196h-6.144
	c10.202-14.563,18.151-30.808,23.344-48.234l0.171,0.969c49.745-8.745,92.588-25.102,123.896-47.302
	c9.294-6.591,17.36-13.554,24.157-20.821C460.624,356.093,395.845,404.196,320.039,404.196z M452.225,296.824
	c-27.671,19.622-66.944,34.951-111.13,43.461c2.033-10.427,3.111-21.192,3.111-32.204v-7.849H64.771
	c-28.193-18.609-45.077-40.958-48.438-63.84h7.628v-15.698h-7.805c3.465-28.466,27.282-55.346,67.975-76.35
	c45.777-23.627,106.815-36.639,171.87-36.639c65.054,0,126.091,13.012,171.87,36.639c40.694,21.003,64.511,47.883,67.976,76.35
	h-8.259v15.698h8.106C492.606,257.988,477.744,278.728,452.225,296.824z"/>
<rect x="127.565" y="340.005" width="15.698" height="24.071"/>
<rect x="151.646" y="396.519" width="15.698" height="23.024"/>
<rect x="176.763" y="331.632" width="15.698" height="25.117"/>
<rect x="208.16" y="364.076" width="15.698" height="24.071"/>
<rect x="231.184" y="331.632" width="15.698" height="25.117"/>
<rect x="88.842" y="356.75" width="15.698" height="23.024"/>
<g>
</g>
<g>
</g>
<g>
</g>
<g>
</g>
<g>
</g>
<g>
</g>
<g>
</g>
<g>
</g>
<g>
</g>
<g>
</g>
<g>
</g>
<g>
</g>
<g>
</g>
<g>
</g>
<g>
</g>
</svg>
